<svg xmlns="http://www.w3.org/2000/svg" viewBox="0 0 1154.88 1174.68"><defs><style>.dark-top-1{fill:#202020;}</style></defs><g id="Layer_2" data-name="Layer 2"><g id="Layer_2-2" data-name="Layer 2"><g id="darkmode"><path class="dark-top-1" d="M215,789.7c.33,1.19.56,2.38.93,3.45l.93,2.92.88,2.81c1.52-.49,3-1.08,4.54-1.63C219.78,794.52,217.18,792.1,215,789.7Z"/><path class="dark-top-1" d="M155.47,793.59c.27,1.24.55,2.51.82,3.77a25.72,25.72,0,0,1,3.68-1.65A36.59,36.59,0,0,1,155.47,793.59Z"/><path class="dark-top-1" d="M222.41,797.2c8.42-3.09,16.63-6.83,25.05-9.86a115,115,0,0,1,26.1-6.47c.44,1.86,1.64,4.55,2.54,7.31l.35,1c.13.34.29.67.43,1,.29.67.57,1.32.83,1.95.53,1.26,1,2.41,1.35,3.34,5.27-.12,9.77-2.2,14-4.59,2.13-1.2,4.22-2.5,6.33-3.73a67.93,67.93,0,0,1,6.57-3.38,11.13,11.13,0,0,0,2.51,3.92c1.07.88,2.48,1.11,4.67,0a16.6,16.6,0,0,0,8.57-2.51,12.19,12.19,0,0,0,2.89-2.65c.2-.25.38-.53.58-.78l.69-.53c.45-.36.87-.73,1.27-1.1a19.31,19.31,0,0,0,3.73-4.48,15.23,15.23,0,0,0,1.61-4.44c-3.4.7-6.74,1.23-10,1.61-1.64.18-3.29.33-4.89.44s-3.1.17-4.64.21c-3.07.07-6.09,0-9.08-.16-1.52-.08-2.91-.21-4.32-.36s-2.8-.31-4.19-.5-2.76-.39-4.13-.62-2.74-.45-4-.72c-2.56-.52-5.09-1.09-7.57-1.66l-3.7-.85c-1.22-.28-2.34-.59-3.5-.87-2.3-.56-4.55-1.1-6.77-1.55s-4.38-.82-6.5-1.07a42.46,42.46,0,0,0-6.11-.35,25.7,25.7,0,0,0-11.6,2.85,24.73,24.73,0,0,0-5.42,3.85,37.52,37.52,0,0,0-5.14,5.94c-.42.6-.84,1.22-1.26,1.87s-.76,1.31-1.14,2q-1.12,2.08-2.22,4.53c-.37.82-.73,1.67-1.09,2.55-.18.45-.36.9-.55,1.35s-.3.92-.46,1.38C223.58,793,223,795,222.41,797.2Z"/><path class="dark-top-1" d="M174.72,761.23l1.05,8.09c.13,1.36.44,2.68.66,4l.69,4c.24,1.33.43,2.67.69,4l.88,3.95.86,4,.41,2c.15.65.35,1.3.52,1.95,5.89.27,11.81.7,17.5.27a38.25,38.25,0,0,0,16.21-4.51q-2.17-2.22-4.41-4.24c-1.43-1.37-2.81-2.7-4.27-4s-2.93-2.47-4.46-3.64-3-2.32-4.54-3.43-3.17-2.18-4.86-3.22-3.46-2.06-5.2-3.1C182.91,765.28,179,763.29,174.72,761.23Z"/><path class="dark-top-1" d="M648.64,502.69c.74,1.3,1.22,2.35.79,2.87s-1.9.42-4.74-.52c.72-.39,1.39-.78,2-1.17l1-.57.92-.61c-1.35-2.44-3.55-5.9-2.88-8.34l-1.8,2.27-2.06,2.23c-.68.8-1.51,1.46-2.28,2.22l-1.18,1.13-1.29,1.05a64.81,64.81,0,0,1-11.64,7.86,71.15,71.15,0,0,1-13.38,5.51,54.61,54.61,0,0,1-13.22,2.3c-1.21,2.56-2.42,5-3.79,7.56l-2,3.72c-.68,1.23-1.39,2.46-2.11,3.7a100.51,100.51,0,0,0,38.83-5c13.17-4.32,25.4-11.37,33.71-19.64a44.61,44.61,0,0,0,9.24-12.67,20.87,20.87,0,0,0,2.14-11.41,12.55,12.55,0,0,0-4.2-7.86c-.12-.13-.24-.23-.37-.38l-.42-.59a12.45,12.45,0,0,0-.85-1.11l-.95-.9a7.41,7.41,0,0,0-1-.69c-.18-.11-.34-.21-.52-.3l-.57-.2a4.73,4.73,0,0,0-1.12-.29c-.4,0-.78-.06-1.16-.07h.15l.81-.06c.54,0,1.08-.1,1.63-.17-.77.1-1.54.17-2.29.22-.39,0-.7,0-1.16.07l-.33,0h0s.07,0,.07.17a.61.61,0,0,0,.07.17c0,.06,0,.18,0,.27a1.74,1.74,0,0,0,.07.29,2.11,2.11,0,0,1,0,.38,5.49,5.49,0,0,1,.1.91c0,.17,0,.35.05.52l0,.36a1.33,1.33,0,0,0,.17.42l.15.23a1.74,1.74,0,0,0,0,.22,10.42,10.42,0,0,1,.79,5.57,20.82,20.82,0,0,1-4,9.58A40.41,40.41,0,0,1,648.64,502.69Z"/><path class="dark-top-1" d="M581.69,562.19l-1.64-.26-1.57-.34c-1-.21-2.08-.43-3.14-.69,2.24,2.79,3.72,4,4.67,3.91S581.37,563.67,581.69,562.19Z"/><path class="dark-top-1" d="M653.37,765.14c14.28-10.83,25.59-25.42,34.47-41.4s15.48-33.49,21.17-51.1a355.08,355.08,0,0,1-32,41.94,387.89,387.89,0,0,1-34.38,34.19c-11.39,10-22.44,18.6-32.7,26.13-5.14,3.77-10.09,7.29-14.85,10.63-2.39,1.69-4.7,3.31-7,4.89s-4.64,3.15-6.94,4.77c2.84-.7,5.67-1.45,8.52-2.08,1.41-.42,2.82-.81,4.24-1.2s2.87-.9,4.31-1.33q8.67-2.79,17.75-6.55A305.79,305.79,0,0,0,653.37,765.14Z"/><path class="dark-top-1" d="M747.28,504.9A189.5,189.5,0,0,0,719,556.36c-6.5,17.61-10.81,35.87-15.12,54.46a524.75,524.75,0,0,0,45.81-94.23l-1.07-5.88C748.24,508.75,747.82,506.8,747.28,504.9Z"/><path class="dark-top-1" d="M751.22,562c-10.82,17.73-18.34,35.74-24.64,54.28S715.12,653.81,709,672.64C731.28,638.62,747.18,599.48,751.22,562Z"/><path class="dark-top-1" d="M269.35,248.37q4.39-4.67,8.67-9.06c2.86-2.91,5.69-5.59,8.47-8.27,5.56-5.28,10.91-10.4,16.12-14.81s10.17-8.68,14.94-12.58q7.17-5.62,13.69-10.43l6.34-4.62c2.05-1.45,4.06-2.78,6-4.08q5.84-3.89,11-7.09l5-3.06c1.61-.93,3.16-1.79,4.66-2.62q4.49-2.46,8.31-4.36c3.36-5.07,7.4-10.93,12.37-17.27,2.48-3.21,5.19-6.61,8.17-10.22s6.23-7.48,9.78-11.38c-3.74,1.2-7.72,2.66-11.42,4a707.91,707.91,0,0,0-92,55.74,644.42,644.42,0,0,0-84.82,72.46q-3.71,4.62-7.26,9.21c-2.37,3.1-4.65,6.3-6.89,9.43s-4.41,6.27-6.53,9.38c-1,1.56-2.1,3.1-3.12,4.66l-3,4.77c-3.9,6.34-7.53,12.57-10.84,18.69-3.23,6.29-6.16,12.43-8.74,18.39q5.89-6.3,11.88-12.51c2-2.1,4-4,6.06-6l6.13-5.92c8.15-8,16.59-15.26,25-22.64,2.1-1.86,4.24-3.6,6.38-5.34l6.43-5.22,6.45-5.18,3.23-2.57,3.27-2.46,13.07-9.73C260.52,254.37,265,251.44,269.35,248.37Z"/><path class="dark-top-1" d="M372.54,167.39c-3.57,5.43-6.29,10-8.33,13.87a66,66,0,0,0-4.23,9.55c-1.64,5-1.16,7.3.59,7.73s4.79-1,8.42-3.56a98.38,98.38,0,0,0,12-9.87c8.22-7.9,16.15-16.7,17.05-21.63.44-2.44-.9-3.85-4.89-3.51a36.13,36.13,0,0,0-8.06,1.94,60.89,60.89,0,0,0-5.69,2.25C377.32,165.07,375,166.15,372.54,167.39Z"/><path class="dark-top-1" d="M343.11,595.34c-.27.75-.59,1.5-.82,2.28s-.47,1.56-.7,2.33c-.17,2.38-.34,4.8-.51,7.21l-.14,1.79c0,.6,0,1.21,0,1.81,0,1.2,0,2.4,0,3.58.11-1.62.21-3.22.31-4.81s.39-3.14.58-4.71.39-3.15.58-4.73l.3-2.38C342.78,596.91,343,596.13,343.11,595.34Z"/><path class="dark-top-1" d="M512.45,1023.87c-45-3.24-90.38-13-133.41-30.31a358.46,358.46,0,0,0,66.8,22.88,337.76,337.76,0,0,0,67.62,8.8l8.28.19c2.75,0,5.5-.1,8.23-.16l8.15-.28,4-.18,4-.35c5.34-.49,10.63-1,15.85-1.61s10.34-1.6,15.41-2.48c2.54-.39,5-1,7.51-1.53l7.39-1.71c2.44-.6,4.87-1.15,7.26-1.81l7.09-2.12,6.95-2.19,3.43-1.12c1.13-.38,2.25-.83,3.36-1.25q6.69-2.55,13.07-5.21c-5.29,1.05-10.86.88-16.36.67-5.54-.38-11-.86-16.34-.11a89.35,89.35,0,0,1-8.11,4.56c-2.9,1.48-6,3-9.21,4.38a102.74,102.74,0,0,1-10.22,3.92c-3.56,1.2-7.26,2.34-11.09,3.39s-7.78,1.73-11.82,2.45a109,109,0,0,1-12.36,1.59c-4.19.29-8.44.45-12.71.46-2.14,0-4.27-.11-6.41-.27S514.59,1024.12,512.45,1023.87Z"/><path class="dark-top-1" d="M489.17,402.67a328.6,328.6,0,0,0-58,38,280,280,0,0,0-45.88,48l-2.44,3.21-2.28,3.33q-2.26,3.31-4.5,6.62c-.77,1.08-1.44,2.24-2.13,3.37l-2,3.4-2,3.38c-.66,1.13-1.38,2.22-2,3.4l-3.67,6.92-1.8,3.42-1.62,3.52c-1.07,2.33-2.13,4.66-3.2,7-.56,1.14-1,2.35-1.45,3.53l-1.38,3.54A196.81,196.81,0,0,0,341.59,600a201.58,201.58,0,0,0-9,54.45c-.18,2.29,0,4.62,0,6.93l.1,6.93c0,1.15.11,2.31.2,3.47l.27,3.46c.17,2.31.35,4.62.52,6.92q.94,6.92,1.88,13.81.66,3.35,1.34,6.68l.67,3.34.32,1.66c.12.55.29,1.09.42,1.64a190.77,190.77,0,0,0,19.39,49.16l1.57,2.84L361,764c1.15,1.82,2.31,3.63,3.46,5.44.29.45.56.91.87,1.35l1,1.3,1.89,2.59c1.27,1.72,2.48,3.47,3.78,5.15s2.71,3.28,4.07,4.91,2.65,3.28,4.15,4.79c2.92,3,5.65,6.21,8.79,9A173.61,173.61,0,0,0,428.84,827a167.89,167.89,0,0,0,44.48,15.34,157,157,0,0,0,44.66,2.2,144.41,144.41,0,0,0,41.07-10.14c11.2-5.06,22.66-10.5,34.22-16.64a389.42,389.42,0,0,0,35.94-21.58,363.67,363.67,0,0,0,37.88-29.46A358.42,358.42,0,0,0,703.74,729a338.75,338.75,0,0,0,31.67-44.62,288,288,0,0,0,23.17-49c12-33.41,16.2-67.55,10.09-98.12A219.59,219.59,0,0,0,751.22,562a156.75,156.75,0,0,0-1.51-45.43,432,432,0,0,0,15.66-52.52c1.93-8.48,3.52-16.78,4.74-24.77.26-2,.6-4,.83-5.93s.55-4,.66-5.65l.27-2.6c0-.53-.07-.86-.09-1.29,0-.81-.13-1.63-.17-2.42-1.08-12.83-4-24.28-9.29-34a55,55,0,0,0-9.71-12.91,53.62,53.62,0,0,0-12.68-9.11A69.7,69.7,0,0,0,725.75,360a124.1,124.1,0,0,0-14.6-2.82l-.27,0-.79-.05c-.57,0-1.15-.06-1.72-.07-1.14,0-2.27,0-3.39.08a54.93,54.93,0,0,0-6.59.83l-1.61.31c-.53.11-1.15.29-1.72.43-1.16.31-2.32.64-3.46,1-2.29.69-4.55,1.41-6.79,2.13l-3.35,1.06-3.21,1.21c-2.13.79-4.26,1.5-6.4,2.09-4.38,1-8.42,2.17-12.86,2.09l-3.35.09c-1.11,0-2.13.21-3.19.29q-3.16.32-6.31.57l-1.57.12a12.33,12.33,0,0,0-1.54.16l-3,.47c-2,.3-3.94.57-5.91.82-.48.07-1,.09-1.46.2l-1.39.31-2.77.58c-1.85.38-3.71.69-5.53,1s-3.48,1-5.22,1.39l-2.61.62c-.43.11-.88.18-1.3.32l-1.23.41a8.67,8.67,0,0,0,1.15,3.06,154.93,154.93,0,0,0-36.26,17.58,204.87,204.87,0,0,0-32.63,28.28,325,325,0,0,0-33.31,43.26,489.64,489.64,0,0,0-32.94,59.76q-2.07,3.85-4.25,7.63l-1.09,1.89-1.09,2L470,543q-2.23,3.91-4.55,7.77c-.78,1.25-1.54,2.64-2.31,4l-2.33,4q-2.35,4-4.78,7.94l-4.83,8.19q-2.44,4.11-4.93,8.17l-4.86,8.2c-6.41,10.86-12.49,21.35-18,31.52s-10.27,19.91-14.28,29.32a14.19,14.19,0,0,1-2.76,4.33,12.62,12.62,0,0,1-3.51,2.67,27.08,27.08,0,0,1-8.8,2.44c-3.07.41-6.26.66-9.19,1.28a21.8,21.8,0,0,0-4.15,1.28,11.37,11.37,0,0,0-3.39,2.19c-9,7-17,13.38-24.23,19.6-3.73,3.17-7,6.12-10.34,9.24-1.55,1.49-3.11,3-4.67,4.55L337,700.86,335.9,702l-2.15,2.27-2.15,2.33-1.94,2.26-2,2.32-1,1.18-.88,1.14c-1.15,1.52-2.35,3.11-3.49,4.7s-2.07,3.11-3.11,4.74a75.28,75.28,0,0,0-8.73,19.84l-14.62,1.31c.26.56.48,1.1.67,1.64.1.27.18.54.26.81l.28.77a12.73,12.73,0,0,1,.68,3,14.56,14.56,0,0,1-.4,5.44c-3.51-.23-6.92-.63-10.26-1.18l-2.48-.45c-.81-.16-1.59-.34-2.38-.52-1.57-.37-3.12-.78-4.65-1.22-3.05-.88-6.07-1.87-8.94-3s-5.53-2.39-8.2-3.7c-1.34-.65-2.66-1.32-4-2s-2.48-1.41-3.7-2.12c-2.44-1.43-4.82-2.88-7.16-4.31-4.56-2.89-8.76-5.73-12.95-8.05-8.16-4.69-15.74-7.48-23.88-4.64a25.69,25.69,0,0,0-6.21,3.26,39.11,39.11,0,0,0-6.22,5.72c-1.06,1.18-2.13,2.49-3.23,3.93s-2,3-3.1,4.67-2.09,3.52-3.16,5.51-2,4.08-3,6.37h-.16c-.95-1.86-1.92-3.64-2.88-5.37s-1.76-3.45-2.66-5.12c0-.43,0-.8-.06-1.2-.18.05-.38.06-.53.1-2.36-4.12-4.39-8-6.75-11.62s-4.63-7-7.26-10.32c-1.3-1.64-2.68-3.25-4.1-4.84s-2.81-3.18-4.34-4.76-3.14-3.15-4.84-4.74-3.53-3.2-5.33-4.84a353.55,353.55,0,0,0-1.27,37.29c-6.85-2.16-13.74-3.69-20.57-2.24-1.31-1.12-2.66-2.16-3.92-3.44,0-3-.12-5.67,0-7.66s.11-3.24.11-3.24a60.59,60.59,0,0,0-11.17-4.77c-.62-1.15-1.23-2.33-1.84-3.53s-1.11-2.43-1.66-3.68c-1.07-2.5-2.1-5.07-3.11-7.71s-1.9-5.34-2.74-8.07-1.66-5.51-2.46-8.29c-1.48-5.56-2.76-11.16-4-16.63-1.11-5.44-2.26-10.75-3.36-15.72s-2.09-9.57-3.3-13.66a54.5,54.5,0,0,0-3.9-10.45c-3-5.64-7-8.42-12.61-6.6-3.07,1.7-5.27,5-6.85,9.45S60,642.56,59.6,649.1c-.6,13.18.73,29.67,2.38,46.78a35.22,35.22,0,0,0-5.31,6.45c-.11-2.83-.37-5.32-.67-7.51a35.58,35.58,0,0,0-1.12-5.69,14.67,14.67,0,0,0-3.91-7c-3.23-3-7.53-2.92-11.9-2.23s-8.81,2-12.27,1.31a6.4,6.4,0,0,1-4.33-2.87,10.44,10.44,0,0,1-1.35-3.22,23.72,23.72,0,0,1-.56-4.69c2.49-19.3,4.85-38.48,8.21-57.39s7.54-37.58,13.59-55.48C48.5,539.37,55.23,522,62.2,505.08s14.22-33.2,21.72-49,15.14-31.31,22.91-46.5c3.94-7.55,7.79-15.11,11.83-22.56l6-11.21,3-5.6,3.09-5.57c16.32-29.79,33.58-59.37,52.78-89.15a987.37,987.37,0,0,1,65-89.9q3.27-4,6.58-7.91c1.08-1.32,2.22-2.6,3.38-3.87l3.46-3.83a465.64,465.64,0,0,1,85.21-75.06c3.85-2.78,7.94-5.26,12-7.81s8.11-5,12.18-7.51c1-.64,2.05-1.23,3.11-1.8L377.56,76l6.31-3.45,6.33-3.41,3.18-1.69c1.05-.57,2.12-1.12,3.21-1.62q6.53-3.12,13.08-6.17c4.38-2,8.73-4.09,13.26-5.83s9-3.6,13.53-5.36c2.27-.85,4.5-1.81,6.82-2.56l6.93-2.32c-1.7,2.45-3.46,4.88-5.25,7.27L439.6,58.2a819,819,0,0,1,88.17-26.4l11.15-2.71c1.85-.43,3.7-1,5.57-1.34l5.59-1.18,11.18-2.46c3.72-.82,7.45-1.76,11.18-2.42,7.47-1.45,14.95-3,22.43-4.63q11.22-2,22.5-4.36A647.53,647.53,0,0,1,729,.19c4.66-.25,9.45-.18,14.22-.18l14.35.06,7.23.07,8.07.44q8.1.45,16.25,1c5.43.39,10.9.72,16.33,1.34s10.91,1.15,16.35,1.93L830,6l8.17,1.34c5.47.87,10.9,2,16.35,3A426.29,426.29,0,0,1,919,28.86c2.66.95,5.27,2,7.89,3.07s5.26,2.1,7.86,3.23c5.18,2.27,10.4,4.53,15.49,7s10.18,5.07,15.24,7.73c2.52,1.33,5,2.77,7.48,4.17l3.73,2.12,3.67,2.21A341.25,341.25,0,0,1,1009,77.64a322,322,0,0,1,26.73,22.21c4.3,3.92,8.42,8,12.55,12.18q3,3.19,6,6.38c2,2.12,3.92,4.36,5.87,6.55a324.59,324.59,0,0,1,21.8,27.83,387.35,387.35,0,0,1,35.94,64.88q7.38,17,13.23,34.64t10.19,35.7c11.65,48.22,15.3,98.53,12.75,149.22q-1,19-3.13,38.1c-.34,3.18-.71,6.36-1.13,9.54s-.81,6.37-1.27,9.54l-1.41,9.55-1.37,8.7-.68,4.27-.72,4.15c-.49,2.76-.94,5.55-1.46,8.3-1,5.51-2.07,11-3.21,16.49q-3.36,16.43-7.39,32.62a907.8,907.8,0,0,1-41.78,126.73c6.06-17.41,11.56-35,16.66-52.68s9.77-35.52,14-53.55,8.2-36.22,11.71-54.71l1.33-6.93,1.26-7c.87-4.63,1.63-9.35,2.45-14q1.2-7.32,2.41-14.66c.85-5.37,1.72-10.74,2.48-16.14,7.71-38.34,11.3-77.47,9.53-115a926.45,926.45,0,0,1-9.53,115c-.9,4.62-1.89,9.22-2.92,13.82-1,4.81-2,8.61-3,12.79-.49,2.08-1,4.08-1.53,6.06l-1.56,6c-1.06,4-2.18,7.91-3.27,11.86-4.5,15.74-9.46,31.14-14.69,46.24-10.46,30.21-22,59.16-33.25,87.22s-22.31,55.27-32,82.18-18,53.58-24,80.7c-9.85,6.31-13.72,3.28-20.2,11.58-11.5,14.53-23.73,28.55-36.26,42.2S944.78,913.09,932,926.23s-25.48,26.17-37.83,39.39-24.32,26.68-35.71,40.76c1.44,2-5.06,8-10.18,13.71s-8.86,11-1.17,11.77a488,488,0,0,1-47.8,31.88,579.65,579.65,0,0,1-55.69,28.81l-7.42,3.32-7.55,3.21c-5,2.17-10.19,4.18-15.3,6.23-10.36,4-20.83,7.87-31.55,11.4-2.69.88-5.33,1.79-8,2.64l-8.11,2.53c-2.68.86-5.4,1.63-8.11,2.39l-8.12,2.3-8.08,2.28c-1.35.38-2.68.77-4,1.13l-4.06,1-16.1,4c-4.62,1.09-9.33,2-14,3s-9.38,2.11-14.09,3.25l-14.28,3.17-7.19,1.67c-2.41.57-4.81,1.18-7.24,1.66-19.41,4.24-39.37,8.71-60.08,12.14A510.88,510.88,0,0,1,254,1088.13q-7.2-4.32-14.34-8.77c-4.7-3.07-9.37-6.23-14-9.41l-7-4.82c-2.33-1.59-4.57-3.34-6.85-5q-6.81-5.1-13.58-10.34c-2.27-1.72-4.45-3.56-6.65-5.39l-6.58-5.52-6.55-5.59-3.26-2.82-3.18-2.92c-8.44-7.85-16.93-15.72-24.89-24.22-4-4.22-8.06-8.42-12-12.76s-7.68-8.84-11.48-13.32L118,970.46l-5.44-7q-5.43-7-10.74-14.12c-3.47-4.8-6.81-9.7-10.17-14.62s-6.7-9.84-9.78-15-6.22-10.2-9.28-15.35l-2.28-3.87-2.16-3.94-4.27-7.91-4.21-8c-1.38-2.67-2.82-5.32-4.08-8q-3.89-8.13-7.64-16.36c-1.25-2.75-2.52-5.5-3.71-8.27l-3.42-8.35q-3.37-8.38-6.64-16.87c-2.08-5.66-4-11.37-5.91-17.1l-2.83-8.62c-.46-1.44-1-2.88-1.38-4.32l-1.25-4.33q-2.47-8.68-4.81-17.44l-1.16-4.39q-.6-2.19-1.08-4.38l-2-8.78q-1.93-8.81-3.74-17.68C9,730.08,8,724.45,7.1,718.72l-1.36-8.59c-.42-2.88-.92-5.69-1.23-8.66q-1-8.82-1.94-17.7l-.86-8.89-.2-2.23-.14-2.26-.27-4.55q-.5-9.08-.86-18.23C-.07,641.55,0,635.32,0,629.12s.14-12.44.29-18.67A551.06,551.06,0,0,1,28.39,457.94c2.14-6.25,4.43-12.46,6.75-18.68l3.54-9.32c1.19-3.11,2.53-6.12,3.81-9.18q3.9-9.15,8-18.26c1.33-3.07,2.84-6,4.28-9l4.43-8.91c5.88-12,12.44-23.35,19.11-34.84,1.66-2.9,3.41-5.66,5.16-8.44l5.3-8.33c3.58-5.52,7.14-11.17,10.94-16.44s7.72-10.52,11.73-15.79c1-1.3,2-2.65,3-3.93l3.11-3.82,6.33-7.64c8.48-10.33,17.52-20,26.81-29.69,2.32-2.47,4.7-4.73,7.07-7.07l7.2-6.95,7.3-6.9c2.44-2.31,4.94-4.43,7.43-6.64q7.49-6.55,15.13-13c5.11-4.16,10.29-8.21,15.49-12.25l7.85-6,7.92-5.69c5.29-3.75,10.61-7.52,16-11.12s10.73-7,16.12-10.36c2.7-1.68,5.4-3.43,8.1-5l8.12-4.74c5.41-3.11,10.82-6.26,16.24-9.19s10.82-5.69,16.21-8.45c2.69-1.37,5.39-2.78,8.07-4.08l8.05-3.8q8-3.77,16-7.37a723.66,723.66,0,0,0-86.1,59.64,660.32,660.32,0,0,0-79,75.21,601.51,601.51,0,0,0-67.43,92A554.41,554.41,0,0,0,57.19,461.07,480.3,480.3,0,0,0,23,569.52,447.77,447.77,0,0,0,15.82,676.1q.84,12.61,2.14,25c.19,2.08.5,4.06.78,6.07s.59,4,.89,6q.91,6,1.93,11.87l1.05,5.88c.18,1,.34,1.93.56,2.94l.65,3q1.32,6.06,2.76,12t3,11.83c1.06,3.91,2.3,7.81,3.5,11.66s2.47,7.67,3.75,11.44q1,2.82,2,5.63c.69,1.87,1.43,3.73,2.16,5.58q4.41,11.09,9.2,21.65,5.11,10.53,10.6,20.48l2.76,4.94c1,1.61,2,3.22,3,4.82q3,4.8,6,9.42,2.64,4.38,5.29,8.73c1.8,2.89,3.71,5.72,5.57,8.55,3.76,5.66,7.49,11.28,11.35,16.78s8,10.86,12,16.2l3,4c1,1.33,2.09,2.62,3.13,3.92l6.31,7.76A501.2,501.2,0,0,1,63.78,816c-.94-2.34-1.77-4.69-2.58-7.05l-2.44-7.07q-2.41-7.1-4.74-14.24c-2.86-9.51-5.51-19.1-8.05-28.74q-1.69-7.2-3.29-14.45l-1.58-7.26-.77-3.63c-.26-1.21-.52-2.44-.71-3.58q-2.52-14-4.72-28.12A524.24,524.24,0,0,1,57.19,461.07a531.6,531.6,0,0,1,70.54-114.34c27.64-34.21,58.38-64,90-89.93-1.06,1.33-2,2.58-3.12,3.93a587.7,587.7,0,0,0-62.9,75.8,537.08,537.08,0,0,0-50.11,88.63,462.94,462.94,0,0,0-39.31,88.08A443.52,443.52,0,0,0,50.07,559Q47.85,570.47,46,581.88c-.66,3.8-1,7.57-1.5,11.35s-.84,7.53-1.2,11.29c-2.72,30-2.3,59.16,1.5,86q.66,5.09,1.4,10.09c.56,3.3,1.2,6.53,1.83,9.77q1.93,9.69,4.18,19.09c1.69,6.49,3.54,12.92,5.47,19.2,1,3.15,1.92,6.26,3,9.35s2.27,6.16,3.44,9.18,2.37,6,3.59,9,2.4,5.91,3.81,8.81c2.73,5.8,5.55,11.44,8.47,16.86,2.69,5.8,5.82,11.51,8.8,17.18s6,11.32,9.29,16.82,6.52,11,9.81,16.41,6.94,10.66,10.42,15.91c-2.78-5.13-5.54-10.29-8.23-15.49s-5.05-10.53-7.51-15.85c-1.22-2.65-2.47-5.31-3.65-8l-3.34-8.09c-2.2-5.41-4.4-10.85-6.48-16.32s-3.85-11-5.72-16.53c-.92-2.77-1.87-5.54-2.74-8.32l-2.44-8.37q-2.4-8.37-4.67-16.82-2-8.41-3.88-16.9L67.85,729c-.58-2.81-1-5.49-1.53-8.25q-1.45-8.22-2.81-16.49l-.67-4.13-.53-4.23-1-8.46c-.64-5.66-1.33-11.28-1.8-17s-.76-11.53-1.07-17.32L58,644.46c-.07-2.92-.08-5.86-.11-8.8q-.06-8.8,0-17.64l0-2.21.09-2.23.21-4.45.47-8.92a485.93,485.93,0,0,1,13.4-89,523.2,523.2,0,0,1,29.49-86.08,507,507,0,0,1,66.65-89.9l-2.47,5.57c-.79,1.87-1.5,3.78-2.1,5.56a66.46,66.46,0,0,0-5.8,13.66c-.86,2.76-1.7,5.63-2.37,8.77s-1.28,6.41-1.78,9.76-.9,6.78-1.19,10.22-.5,6.88-.49,10.42a136.14,136.14,0,0,0,1.37,20.2c.47,3.16,1.05,6.17,1.77,9a70.15,70.15,0,0,0,2.59,8,33.78,33.78,0,0,0,7.12,11.62c5.56,5.45,12.58,5.88,21-1.15a496.86,496.86,0,0,1,48.27-66.32A509.46,509.46,0,0,1,293.4,322.4a540.9,540.9,0,0,1,65.06-46.54A560.29,560.29,0,0,1,423.6,242l7.85-3.42,3.89-1.67,3.88-1.55,15.19-5.93c5-1.87,9.88-3.51,14.67-5.19l7.11-2.44c2.34-.79,4.67-1.46,7-2.17l13.38-4c4.33-1.28,8.55-2.31,12.62-3.39s8-2.08,11.76-3l10.85-2.37,9.83-2,.58-.12.29-.06.36-.06,1.43-.24,2.78-.48c1.84-.31,3.53-.56,5.22-.82,6.65-1,12.19-1.66,16.64-2.07,8.91-.83,13.63-.8,13.67-.21,1.84,2.39-2.28,5-10.87,8.21-4.31,1.61-9.74,3.35-16.25,5.37l-10.65,3.29L535,221.07c-27,9.46-63.16,22.75-97.39,40.33L424.89,268c-4.21,2.29-8.36,4.66-12.47,7l-6.11,3.47c-2,1.19-4,2.43-6,3.63l-11.62,7.18c-3.77,2.44-7.43,4.93-11,7.33s-7,4.71-10.35,7.19l-9.57,7.06c-1.52,1.15-3,2.25-4.48,3.38l-4.24,3.41c-22.09,17.63-34.36,30.91-31.26,30l5.84-3.39c1.94-1.12,3.93-2.14,5.88-3.21l11.75-6.34c3.92-2.05,7.88-4,11.8-5.93s7.83-3.94,11.79-5.69c-1.52,1.47-3.06,2.86-4.53,4.39L356,332q-4.35,4.52-8.46,9c-2.71,3.08-5.31,6.2-7.82,9.27q-1.89,2.31-3.69,4.6c-.6.76-1.19,1.53-1.79,2.28l-1.7,2.37c-12.56,12.21-28.12,25.33-41.49,39-6.55,7-12.77,13.8-17.51,20.79a94.22,94.22,0,0,0-6.29,10,57.92,57.92,0,0,0-3.93,9.62q-1.35,3.87-2.76,7.65l-2.69,7.72c-.92,2.56-1.84,5.09-2.79,7.61-.48,1.25-1,2.51-1.43,3.76l-1.36,3.84c-1.8,5.11-3.7,10.14-5.6,15.15s-3.59,10.21-5.46,15.26c-7.16,20.38-13.87,41.12-18.86,62.5-.59,2.68-1.19,5.35-1.79,8l-.88,4c-.28,1.35-.49,2.71-.73,4.06-.91,5.43-1.88,10.85-2.63,16.3s-1.19,11-1.7,16.43c-.16,1.37-.19,2.75-.26,4.12l-.16,4.12q-.12,4.11-.25,8.24a214.05,214.05,0,0,0,8.84,64.36q1.81,4.79,3.7,9.6c.64,1.6,1.27,3.2,1.91,4.82.33.8.63,1.6,1,2.42s.73,1.62,1.1,2.44q2.21,4.88,4.48,9.76c.77,1.62,1.51,3.25,2.33,4.87l2.57,4.84q2.58,4.83,5.24,9.63c1.81,3.18,3.84,6.32,5.79,9.46l3,4.69c.5.78,1,1.56,1.5,2.33l1.62,2.29q3.24,4.58,6.51,9.08l1.64,2.25c.56.74,1.17,1.46,1.75,2.2l3.53,4.36,3.55,4.31,1.77,2.14c.6.71,1.25,1.39,1.88,2.09q3.8,4.14,7.58,8.19l1.89,2,2,2,4,3.85,4,3.8c.68.62,1.32,1.26,2,1.87l2.11,1.8,8.38,7.06c1.36,1.17,2.86,2.25,4.31,3.35l4.35,3.24,4.31,3.19c1.43,1.06,3,2,4.46,3,2-1.43,4.2-1,6.44.24a23.09,23.09,0,0,1,3.37,2.32c.55.44,1.1.9,1.65,1.36l1.69,1.31c4.44,3.44,8.07,5.91,9.11-.52,3.69,4.67,7.93,9,12.08,13.49,1,1.14,2.16,2.16,3.26,3.22l3.34,3.14,3.35,3.12c1.1,1.07,2.33,2,3.49,2.95q3.54,2.9,7.09,5.67c2.41,1.8,4.91,3.43,7.36,5.07l3.68,2.4c1.21.79,2.52,1.45,3.78,2.15,2.52,1.38,5,2.69,7.52,3.91,1.23.64,2.53,1.15,3.8,1.66s2.53,1,3.79,1.46c2.52.91,5,1.81,7.45,2.45s5,1.13,7.36,1.52c1.2.2,2.39.37,3.56.5.59.07,1.17.14,1.76.18l1.77.06a51.36,51.36,0,0,0,13.22-1.29,39,39,0,0,0,11.53-5.22l3.12.53c2.77,1.13,7.39,1.09,12.31.6a117,117,0,0,0,47.6,10,131.08,131.08,0,0,0,43.67-7.77l5.07-1.82c1.67-.61,3.33-1.41,5-2.11l4.89-2.2,2.41-1.1c.8-.38,1.59-.83,2.39-1.24,3.16-1.69,6.29-3.37,9.36-5.07l9.06-5.64c11.89-7.67,23.18-16.59,34.72-26.08,17.29-9.47,34.65-20.09,52.87-31.62-6,3.76-14.08,7.17-21.89,10.67s-15.31,7.17-20.45,12.08q-2.65,2.25-5.27,4.48L638,838.35c-5.61,3-11.2,6-16.8,8.74s-11.21,5.42-16.85,7.84a325.39,325.39,0,0,1-34.91,12.62,245.61,245.61,0,0,1-37,7.53l-4.76.53c-1.58.15-3.2.42-4.78.46l-9.63.54c-6.41.06-12.94.16-19.43-.36a98.63,98.63,0,0,1-20,5.08c-3.52-1.63-7-3.25-10.44-5.12a43.83,43.83,0,0,1-5,4l-5-.81c-1.67-.29-3.4-.51-5-.94q-5-1.16-10.1-2.44c-3.35-1-6.66-2.07-10-3.15l-2.54-.83c-.83-.3-1.64-.63-2.47-.95l-5-2A229,229,0,0,1,380,849a314.75,314.75,0,0,1-34-26.26l-7.81-7q-3.69-3.63-7.43-7.17c-2.56-2.31-4.79-4.81-7.19-7.17l-3.55-3.54c-.59-.59-1.21-1.16-1.77-1.76l-1.68-1.8q-2.75-3.6-5.45-7.3l-1.35-1.85-1.24-1.92-2.46-3.88-2.44-3.91c-.82-1.31-1.64-2.62-2.34-4q-2.18-4.07-4.32-8.22c-1.49-2.73-2.7-5.59-3.94-8.45s-2.5-5.74-3.64-8.66-2.08-5.91-3.1-8.9l-1.51-4.48c-.44-1.51-.84-3-1.25-4.56-.81-3.06-1.61-6.12-2.42-9.19s-1.26-6.21-1.87-9.33l-.88-4.7c-.13-.78-.29-1.56-.41-2.35l-.3-2.36c-.38-3.16-.75-6.31-1.13-9.48-.18-1.58-.38-3.16-.52-4.75l-.26-4.78c-.15-3.19-.31-6.38-.46-9.58-.11-1.6,0-3.2,0-4.8l.08-4.81.1-4.81c0-1.6,0-3.21.2-4.81l.8-9.6c.15-1.6.26-3.2.45-4.8l.7-4.77,1.45-9.53c.61-3.16,1.32-6.29,2-9.43,1.2-6.31,3.16-12.45,4.86-18.62.4-1.55.94-3.06,1.47-4.58L289,586.5l1.58-4.53.79-2.26.92-2.21A273,273,0,0,1,329.58,512a240.29,240.29,0,0,0-22.24,69.26c-.23,1.45-.52,2.88-.7,4.34l-.49,4.39c-.32,2.89-.63,5.78-.95,8.67s-.3,5.81-.44,8.68-.34,5.7-.23,8.58c.12,5.74,0,11.34.61,17,.22,2.78.43,5.56.65,8.34q.58,4.14,1.15,8.27c-.14-1.71-.27-3.41-.41-5.12l-.21-2.57c-.05-.85,0-1.7-.07-2.55-.08-3.43-.16-6.84-.24-10.25-.09-1.72.05-3.4.09-5.11s.11-3.41.17-5.11.11-3.42.17-5.13l.45-5.08a241.14,241.14,0,0,1,6.68-40.35c6.59-26.56,17.7-52,32-75.76l8.54-9.27,8.84-8.85a320.13,320.13,0,0,1,40.43-33.27l-5.48,2.84c-1.8,1-3.55,2.05-5.33,3.09l-5.29,3.15-2.64,1.59-2.56,1.71c-3.4,2.29-6.81,4.57-10.17,6.94l-9.79,7.48,7.73-10c2.69-3.23,5.44-6.43,8.18-9.67l2.06-2.42,2.15-2.33,4.31-4.66c1.45-1.55,2.88-3.14,4.36-4.66l4.51-4.48c6-6.11,12.28-11.76,18.64-17.5l9.77-8.29c1.63-1.42,3.33-2.69,5-4l5.05-4a370.09,370.09,0,0,1,62.32-33.65c5.52-2.23,11.07-4.45,16.68-6.58l8.48-3,4.26-1.46c1.42-.49,2.84-1,4.28-1.4l8.64-2.59c2.89-.84,5.78-1.77,8.7-2.47l8.78-2.22,4.41-1.1c.71-.19,1.51-.36,2.31-.53l2.4-.51a304.1,304.1,0,0,1,37.89-5.3,309.56,309.56,0,0,1,38.34-.58,263.87,263.87,0,0,1,39.64,4.83,201.75,201.75,0,0,1,41.5,12.94,162.73,162.73,0,0,1,21.3,11.3,139.85,139.85,0,0,1,20.84,16,129.93,129.93,0,0,1,18.61,21.51A123.92,123.92,0,0,1,797,427.28a130.25,130.25,0,0,1,7.19,28,143.88,143.88,0,0,1,1.22,26.93c-.22,4.29-.56,8.51-1.09,12.59l-.19,1.54c0,.5-.13,1-.23,1.59l-.55,3.27q-.58,3.28-1.21,6.55c-.46,2.17-1,4.3-1.59,6.45s-1.09,4.31-1.79,6.4-1.4,4.19-2.13,6.27l-1.1,3.12-1.26,3a161.8,161.8,0,0,1-26.54,43.21,185.83,185.83,0,0,1-35,31.37,205.77,205.77,0,0,1-39,21.2,221.69,221.69,0,0,1-41.28,12.51c1.5-3.44,3.11-6.8,4.72-10.35s3.28-7,5-10.6a216.36,216.36,0,0,0,35-15.32,186.19,186.19,0,0,0,31.81-22,153.58,153.58,0,0,0,26.5-29.31,126.91,126.91,0,0,0,17.23-36.34l1.32-4.86c.43-1.61.69-3.28,1-4.91l.9-4.9c.23-1.65.39-3.3.57-4.94s.34-3.28.47-4.9.12-3.13.17-4.69,0-3.15,0-4.72-.08-3.15-.19-4.74a106.6,106.6,0,0,0-2.77-18.94,91.34,91.34,0,0,0-6.5-18.09,81.1,81.1,0,0,0-10-15.82,76.3,76.3,0,0,0-41.18-26,132.82,132.82,0,0,1,15.35,11.62,100.86,100.86,0,0,1,12.72,13.55,88.06,88.06,0,0,1,9.66,15.47,90.86,90.86,0,0,1,6.23,16.88,97.59,97.59,0,0,1,2.89,17.61c.2,2.95.33,5.93.29,8.9,0,1.5-.06,3-.13,4.47l-.11,2.24c0,.75-.15,1.52-.22,2.29A99.06,99.06,0,0,1,752,530.33c-2.44-1.4-6.15-3-5.76-7.64a106.34,106.34,0,0,1-10.93,23.74,129.8,129.8,0,0,1-17.12,22A146.48,146.48,0,0,1,671,600.74l1.28-3c.41-1,.83-2.05,1.24-3.09l2.4-6.14c1.54-4.13,3-8.31,4.27-12.44.63-2.11,1.24-4.2,1.81-6.28.28-1,.55-2.06.83-3.1s.5-2.1.74-3.16c.48-2.09.92-4.17,1.32-6.22s.7-4.19,1-6.24c3.8-8.31,9.49-15.77,14.82-23.86a101.41,101.41,0,0,0,7.17-12.62,58.11,58.11,0,0,0,2.68-6.65c.41-1.11.63-2.28,1-3.41l.42-1.7a16.65,16.65,0,0,0,.28-1.72l1.08-3.45c.25-1.17.52-2.32.81-3.46a33.73,33.73,0,0,0,.63-3.45,28.3,28.3,0,0,0,.48-3.43q.14-1.73.33-3.42c0-1.23.12-2.49.15-3.71a68.75,68.75,0,0,0-.22-7,56.44,56.44,0,0,0-.89-6.33,43.52,43.52,0,0,0-1.57-5.58,9,9,0,0,0-.48-1.29l-.5-1.26c-.4-.8-.72-1.63-1.16-2.38a32.82,32.82,0,0,0-2.73-4.42,42.91,42.91,0,0,0-7.5-8c-1.49-1.26-3.17-2.46-4.89-3.66s-3.66-2.32-5.67-3.4a114.4,114.4,0,0,0-28.39-10.28c-21.17-4.87-45.21-5.91-68.23-3.44-5.74.64-11.42,1.5-16.87,2.61l-2,.43c-.68.15-1.32.28-2.09.48L568,427.77c-2.95.74-5.9,1.43-8.83,2.2l-8.72,2.6c-1.45.44-2.91.86-4.35,1.33l-4.29,1.51c-2.85,1-5.71,2-8.55,3.07L524.89,442a313.93,313.93,0,0,0-59.72,22.34c-4.81,2.24-9.36,4.88-14,7.38-2.36,1.21-4.54,2.65-6.8,4s-4.53,2.68-6.73,4.1l-6.52,4.36-3.26,2.18-3.14,2.32-6.29,4.62c-2,1.6-4,3.27-6,4.89-32.17,26.13-56.59,59.92-69.28,97.2.95-4.85,1.68-9.82,3-14.6.61-2.41,1.15-4.86,1.8-7.27s1.45-4.78,2.18-7.17l1.09-3.6c.39-1.19.85-2.35,1.27-3.53l2.58-7.1c.39-1.2.93-2.33,1.42-3.5l1.48-3.47,1.48-3.5c.49-1.17,1-2.34,1.56-3.46a273.74,273.74,0,0,1,32.36-52.27c.77-1.06,1.63-2,2.45-3l2.5-3c1.68-2,3.31-4,5-6s3.52-3.87,5.28-5.8,3.5-3.93,5.38-5.76l5.56-5.61c.93-.93,1.84-1.91,2.8-2.8l2.9-2.69,5.81-5.42c1-.93,2-1.78,3-2.64l3-2.59A397.08,397.08,0,0,1,489.17,402.67Zm-267,220.77c.3-7.27.42-15,.67-22.93-1.43.71-2.86,1.37-4.38,2a16.11,16.11,0,0,0-1,5.07,23.9,23.9,0,0,0,.49,5.35A33,33,0,0,0,222.18,623.44Zm78.27-152.29a221.55,221.55,0,0,0-23.69,35,325.87,325.87,0,0,0-19.13,41.56A462.35,462.35,0,0,0,234.05,636a16.61,16.61,0,0,0,3.44,1.6c9.18-21.91,17.33-48.31,27.46-77.16,5-14.4,10.44-29.36,16.35-44.44,2.93-7.53,6.06-15.13,9.24-22.64q2.47-5.59,4.92-11.17c.82-1.86,1.65-3.71,2.47-5.56l1.24-2.77Zm189.48-77.74c-.57-.24-1.13-.43-1.71-.65.53.55,1.07,1.07,1.56,1.61A7.67,7.67,0,0,1,489.93,393.41Zm427.4,123c-.86-16.16-.77-32.34-.51-48.56q.09-5.91.18-11.95c0-1.74-.07-3.48-.07-5.21s-.06-3.47-.08-5.21c-.11-7-.22-13.89-.45-20.84A331.34,331.34,0,0,0,912.75,383a164.7,164.7,0,0,0-11.33-40,24.47,24.47,0,0,0-6.21-10.86,50.73,50.73,0,0,0-5-4.66l-2.74-2.21-2.89-2.15L883.15,322l-1.49-1c-1-.71-1.95-1.43-2.92-2.15-2-1.41-3.86-2.92-5.75-4.44a53,53,0,0,1-5.23-4.93,38.11,38.11,0,0,1-4.49-5.76,68.2,68.2,0,0,0-13.62-10.88,83.06,83.06,0,0,0-13.82-6.72l-1.7-.66-1.72-.6c-1.15-.39-2.26-.81-3.39-1.17-2.3-.71-4.49-1.45-6.77-2.09-4.45-1.38-8.92-2.64-13.43-4.09a117.65,117.65,0,0,1,3.73,15.42,31.27,31.27,0,0,0-17.41-10c-6.42-1.45-13.07-1.39-19.41-1.07s-12.42.88-18.17.45a34.58,34.58,0,0,1-17-5.61,29.62,29.62,0,0,1-4.67,8.46c-2.09,2.72-4.32,4.77-6,4.52a37.83,37.83,0,0,1-6.44.19l-1.56-.12-2-.19c-1.76-.16-3.51-.37-5.26-.6-3.48-.46-6.93-1-10.34-1.66l-10.74-1.4a111.82,111.82,0,0,0-20.37-1.12c-.81,0-1.62.06-2.42.11a18.11,18.11,0,0,0-2.37.24c-1.55.24-3.07.53-4.57.87a50.48,50.48,0,0,0-8.71,2.77c-1.78.23-3.43.7-5.14,1s-3.37.68-5.05,1-3.36.6-5,.87l-1.25.21-1.21.28-2.41.55c-3.2.72-6.38,1.39-9.51,2a23.23,23.23,0,0,0-2.29.58l-2.25.64-4.44,1.26-4.35,1.26c-1.43.45-2.77,1-4.13,1.56-2.71,1.08-5.35,2.18-7.89,3.33a15.54,15.54,0,0,0-1.85,1l-1.79,1c-1.18.71-2.33,1.43-3.45,2.17a38.9,38.9,0,0,0-6.32,4.84c-2.24.66-4.65,5.14-7.18,10.24-1.21,2.7-2.46,5.56-3.8,8.17-.67,1.3-1.36,2.55-2.08,3.69-.36.57-.74,1.09-1.11,1.63s-.74,1.08-1.12,1.57c-2.22,1.43-4.46,2.76-6.71,4l-.84.46c-.28.17-.55.37-.82.54l-1.64,1.08q-1.65,1.07-3.3,2.07l-3.31,2-3.23,2.24-3.25,2.17c-1.08.73-2.19,1.34-3.23,2.2,1,.93,2,1.86,2.93,2.82,1.89-.83,3.75-1.73,5.57-2.72s3.58-2.16,5.39-3.11a44.73,44.73,0,0,0,5.22-3.53c.42-.34.84-.68,1.25-1s.86-.63,1.28-1c.85-.66,1.69-1.36,2.51-2.11a159.13,159.13,0,0,1,35.53-24.87l5.28-2.53,2.66-1.28,1.33-.65,1.39-.53c3.72-1.42,7.43-2.9,11.18-4.3l11.6-3.45c.48-.14,1-.29,1.44-.41l1.5-.32,3-.63,5.88-1.22c9.84-1.52,20-2.79,30.59-3.72l3.93-.42c1.3-.17,2.68-.17,4-.26q4-.24,8.11-.52l4.06-.29,2-.16,1.91-.06q3.82-.14,7.68-.33l3.86-.2,1.93-.12,1-.06.48,0,.24,0,.14,0,4.44-.67c3-.46,6.07-1,9.18-1.34,6.22-.77,12.68-1.31,19.32-1.47a168.85,168.85,0,0,1,20.46.73,142.69,142.69,0,0,1,21.1,3.73,120.53,120.53,0,0,1,40.63,19c5.59,3.7,12.16,7.18,18.36,11.41s12.24,9.05,16.59,14.89c7.82,8.28,13.41,18.86,17.33,30.24s6.31,23.54,8.23,35.59c1,6,1.84,12,2.77,18s2,11.89,3.19,17.75l1,4.39c.18.73.35,1.46.53,2.19a22.12,22.12,0,0,1,.53,2.31c.63,3.38,1.42,6.68,2.2,10.1a131.53,131.53,0,0,0,6.34,19.7c1.37,4.13,1,9.71,1.11,15.5S914,511.25,917.33,516.4Zm154.78,175.19c15.53-52.63,29.57-107.54,39.7-163.26,1.27-7,2.46-13.9,3.62-21,.58-3.63,1.16-7.27,1.74-10.89.58-3.9,1.22-7.78,1.76-11.67q3.36-23.3,5.4-46.17a745.82,745.82,0,0,0,2.69-88.83,277.73,277.73,0,0,0-6-40.86,302.7,302.7,0,0,0-15.33-48.84c-3.47-8.35-7.3-16.73-11.68-24.9-2.12-4.11-4.47-8.13-6.8-12.15-1.18-2-2.43-4-3.65-5.93s-2.48-3.92-3.79-5.83l-3.92-5.72c-1.36-1.86-2.73-3.71-4.09-5.56s-2.77-3.65-4.21-5.43-2.83-3.55-4.3-5.27c-3-3.43-5.87-6.82-9-10-1.54-1.6-3-3.2-4.59-4.74s-3.14-3-4.69-4.52-3.15-2.91-4.75-4.31-3.17-2.78-4.76-4.12l-4.85-3.86c-1.6-1.26-3.19-2.5-4.84-3.66-3.26-2.33-6.43-4.58-9.69-6.59q-2.43-1.53-4.8-3c-1.6-.94-3.22-1.82-4.8-2.68-12.68-6.88-24.78-11.12-35.14-12.8a57.33,57.33,0,0,0-14.22-.58,30.31,30.31,0,0,0-11.08,3.16c-6.23,3.3-10,9.06-11.29,17.31,8.92-1.6,18.67-1.11,29.09,1.35a112.35,112.35,0,0,1,32.23,14,160.8,160.8,0,0,1,32.2,26.68l3.81,4.22,1.91,2.16c.62.74,1.24,1.48,1.85,2.23l3.71,4.56c1.21,1.56,2.39,3.16,3.59,4.76,2.43,3.2,4.66,6.59,7,10,1.13,1.72,2.2,3.49,3.31,5.26s2.2,3.57,3.22,5.41l3.13,5.57c1,1.88,2,3.8,3,5.72l1.47,2.9,1.4,3c.93,2,1.87,4,2.77,6,3.55,8.09,6.81,16.51,9.69,25.21s5.38,17.67,7.47,26.85,3.88,18.55,5.18,28.06,2.36,19.13,2.93,28.83c.17,2.42.31,4.85.39,7.28l.28,7.29c.08,4.87.19,9.74.11,14.62a487.82,487.82,0,0,1-4,57.95c-1.27,9.49-2.65,18.89-4.34,28.12-.79,4.63-1.72,9.19-2.6,13.74l-.66,3.24-.66,3.16c-.45,2.08-.87,4.21-1.33,6.23-3.6,16.35-7.57,31.91-11.55,46.55-8,29.28-16,54.84-21.21,76s-7.53,38-4.38,49.5c1.6,5.76,4.53,10.13,9.18,13S1063.85,692.31,1072.11,691.59ZM234.24,1041c27.95,18.44,56.68,33.5,86.73,46.76l2.81,1.27,2.84,1.18,5.71,2.38,11.48,4.76,2.89,1.18,2.92,1.11,5.87,2.22,11.83,4.47c2,.77,4,1.43,6,2.13l6.06,2.08,12.25,4.2q12.4,3.93,25.27,7.87A480.22,480.22,0,0,1,234.24,1041Zm498.5-133.86a281.42,281.42,0,0,1-76.65,56.46c-7.45,3.67-15.07,7.2-23,10.27-3.93,1.64-8,2.94-12,4.37s-8.08,2.87-12.23,4-8.29,2.34-12.47,3.47-8.45,1.91-12.71,2.84c-2.13.44-4.26,1-6.41,1.32l-6.46,1-6.5,1-3.26.49c-1.09.16-2.18.25-3.28.37l-13.17,1.32c-1.1.12-2.2.2-3.31.24l-3.31.17-6.65.31c-2.22.08-4.44.22-6.67.24L518,995l-6.7-.06-3.36,0-3.34-.18-13.43-.81c-4.47-.4-8.93-.95-13.41-1.44s-8.94-1.2-13.4-1.92-8.95-1.38-13.36-2.4-8.87-1.86-13.31-2.87l-13.19-3.47-3.31-.89-3.26-1-6.52-2-6.54-2.07c-2.17-.73-4.3-1.55-6.45-2.32L392,971.11c-2.14-.81-4.32-1.55-6.42-2.47l-12.71-5.32c-2.14-.86-4.18-1.9-6.27-2.86l-6.25-3c-2.08-1-4.18-2-6.24-3L348,951.29c-3.14-1.67-6.28-3.37-9.38-5.17s-6.07-3.83-9.08-5.81c-6.1-3.88-11.8-8.4-17.55-12.91-2.9-2.22-5.59-4.72-8.35-7.15s-5.46-4.94-8.14-7.48-5.17-5.27-7.73-7.95l-3.82-4c-1.29-1.34-2.45-2.8-3.67-4.2-19.5-22.47-35.58-48.15-48.38-74.82s-22.36-54.36-30.59-81.56q-.79-2.57-1.58-5.1l-.8-2.55L198.2,730c-.94-3.39-1.9-6.79-2.89-10.17-2.11-6.83-3.74-13.38-5.69-20l-1.47-5-.75-2.47c-.25-.83-.45-1.67-.69-2.5q-1.34-5-2.8-10l-3-10q-1.38-5.05-2.89-10.13l-14.67-.29c1.57,4.16,3.11,8.27,4.75,12.31-.2,5.33-.45,10.54-.73,15.67-.08,1.28-.15,2.56-.22,3.82S167,693.78,167,695q-.11,3.74-.21,7.39c-.17,4.93-.34,9.76-.51,14.52q0,7.37,0,14.53c0,2.41,0,4.8.05,7.19s.22,4.77.33,7.14c.24,4.75.5,9.49.83,14.22q.74,7.07,1.66,14.13c.31,2.36.64,4.71,1,7.07s.89,4.7,1.36,7c-1.1-1.93-2.15-4.06-3.24-6,1.41,3.57,2.82,7.14,4.25,10.78.69,3.13,1.41,6.27,2.2,9.42s1.84,6.26,2.84,9.4,2.09,6.29,3.23,9.46c.54,1.58,1.19,3.15,1.86,4.71s1.34,3.13,2,4.7q2.1,4.71,4.44,9.45c.39.79.78,1.58,1.18,2.37s.86,1.56,1.29,2.34q1.32,2.34,2.7,4.68,2.78,4.68,5.82,9.37c1,1.58,2.08,3.11,3.22,4.64s2.27,3.06,3.44,4.6l6.87,8.17c2.32,2.7,4.8,5.3,7.19,7.94l7.28,7.85c2.46,2.57,5,5.05,7.56,7.57l4.81,5.75,2.42,2.86,2.52,2.77q5.06,5.53,10.18,11c3.47,3.57,7.07,7,10.64,10.48,1.79,1.72,3.56,3.48,5.39,5.14l5.59,4.93,5.61,4.88,2.81,2.43c.94.8,1.93,1.55,2.89,2.32q5.81,4.62,11.66,9.13c1.93,1.54,4,2.9,6,4.34l6,4.23,6.05,4.17,6.22,3.92,6.22,3.86c2.09,1.27,4.14,2.58,6.29,3.73q6.38,3.55,12.77,7c2.12,1.18,4.3,2.23,6.48,3.28l6.52,3.14,6.53,3.08c2.19,1,4.42,1.89,6.63,2.82a340.83,340.83,0,0,0,53.93,17.82q6.85,1.58,13.66,3c4.56.87,9.14,1.59,13.68,2.34,2.28.36,4.55.72,6.82,1l6.84.75c4.55.47,9.08,1,13.6,1.29,9.08.44,18,1,27,.65l6.66-.15c2.21-.06,4.42-.1,6.62-.3q6.62-.48,13.13-1.07c4.34-.33,8.65-1,12.92-1.64l6.39-1c2.12-.33,4.23-.65,6.32-1.11,8.37-1.77,16.62-3.43,24.62-5.89,4-1.16,8-2.31,11.88-3.58s7.74-2.77,11.54-4.2l5.66-2.17c1.86-.75,3.7-1.6,5.53-2.41q5.49-2.45,10.83-5A238.28,238.28,0,0,0,658.82,991c8-4.48,15.54-9.34,22.74-14.36a337.53,337.53,0,0,0,39.16-32.46c23.85-22.86,43.93-47.26,64.55-72.09-7.15,5.42-17,11-26.65,16.79S739.4,900.5,732.74,907.13Z"/><path class="dark-top-1" d="M348.57,479.65c22-32.33,51.32-60.93,85.35-83.79,1.58-1.23,3.15-2.5,4.75-3.7l4.85-3.53,4.88-3.54c1.63-1.18,3.26-2.39,4.93-3.48l10.06-6.75c1.67-1.16,3.39-2.21,5.11-3.27l5.17-3.2,5.19-3.22c1.74-1.08,3.52-2,5.28-3.06L494.81,356l10.9-5.73c1.83-.94,3.65-2,5.51-2.85l5.57-2.69c9-4,18.32-7.28,27.86-10.44q7.17-2.19,14.51-4.29c.58-.18,1.28-.34,2-.51l2-.5,4-.94c2.68-.6,5.37-1.15,8.05-1.67A290.8,290.8,0,0,1,641,321.53c22.64,1,46.28,4.31,71.56,13.07a182.4,182.4,0,0,1,38.83,18.85,155.24,155.24,0,0,1,19.46,14.85,143.58,143.58,0,0,1,18.05,19.46,138.08,138.08,0,0,1,14.7,23.8,139.85,139.85,0,0,1,9.61,26.34A156.45,156.45,0,0,1,817.28,489c-.08,1-.14,2-.24,3l-.32,2.88-.33,2.88-.18,1.45-.25,1.54q-.5,3.09-1.05,6.18c-.38,2.05-.7,4.12-1.23,6.14s-1,4.05-1.51,6.07-1,4.06-1.7,6l-2,5.92c-.67,2-1.33,4-2.13,5.83A177.58,177.58,0,0,1,783,578.74a203.6,203.6,0,0,1-30.61,32.49,236.69,236.69,0,0,1-34.14,24.27,262.49,262.49,0,0,1-36.27,17.66,268.19,268.19,0,0,1-38.2,11.94c-1.87,7.64-2.68,15-1.57,22.34a40.05,40.05,0,0,0,3.23,10.75,42.87,42.87,0,0,0,6.74,10.3,271,271,0,0,0,98-31.42,256.31,256.31,0,0,0,45.74-32,238.25,238.25,0,0,0,40.84-46.4L837.9,597l1.11-1.76,2.19-3.54q2.17-3.56,4.27-7.15c2.74-4.92,5.34-10,7.82-15.1q1.79-3.94,3.48-7.94l1.67-4c.56-1.33,1.1-2.67,1.58-4.06,1-2.75,2-5.52,2.9-8.3s1.86-5.54,2.61-8.41,1.53-5.7,2.24-8.56l1.05-4.29.86-4.35q.84-4.35,1.56-8.72l.36-2.18c.12-.74.23-1.47.31-2.1l.48-3.95a223.21,223.21,0,0,0,1.51-33.84,208.52,208.52,0,0,0-4.73-37.82,196,196,0,0,0-13-39.06A192.92,192.92,0,0,0,835,356.16a199.71,199.71,0,0,0-26.25-28.69A213,213,0,0,0,781,306.37a233.23,233.23,0,0,0-27.11-14.89,276,276,0,0,0-50.13-17.56,348.83,348.83,0,0,0-45.52-8.08,423.21,423.21,0,0,0-42.91-2.54c-14.11-.12-28.08.38-42.52,1.62-3.6.3-7.26.67-11,1.08l-5.59.67-5.6.77-19.24,3a658.93,658.93,0,0,0-76.35,18.09c-1.37,1-2.81,2-4.15,3.12-18.79,14.39-40.44,28.87-63,45.4s-46.16,35.09-68.18,56.77c-2.8,2.63-5.46,5.49-8.15,8.31s-5.37,5.63-8,8.5l-7.7,8.91-3.81,4.48c-1.25,1.52-2.45,3.1-3.66,4.65q-3.63,4.67-7.2,9.37c-2.34,3.16-4.54,6.47-6.77,9.7-4.54,6.41-8.54,13.26-12.5,20l-1.47,2.53c-.49.85-.93,1.73-1.39,2.6l-2.69,5.2c-1.76,3.48-3.55,6.9-5.15,10.42s-3.08,7.1-4.55,10.63l-2.16,5.28c-.65,1.8-1.27,3.6-1.89,5.39-1.24,3.59-2.41,7.16-3.54,10.71-.59,1.75-1,3.58-1.5,5.37s-.91,3.6-1.36,5.38c-.85,3.59-1.74,7.1-2.38,10.66s-1.17,7.12-1.66,10.63a412.07,412.07,0,0,0,.36,82.44l1.27,9.81.63,4.86.31,2.42.43,2.41,1.71,9.55c.58,3.17,1.07,6.32,1.85,9.43l2.16,9.29,1.07,4.61c.33,1.53.83,3,1.24,4.55l2.59,9,1.29,4.47c.4,1.49,1,3,1.47,4.47a283.76,283.76,0,0,0,31.35,66.58l2.44,3.79c.8,1.27,1.74,2.47,2.6,3.69l5.31,7.25c1.71,2.42,3.67,4.7,5.57,7l5.72,6.77c2,2.2,4.06,4.31,6.09,6.44l3.06,3.15c1,1,2,2.08,3.14,3.06q3.24,3,6.49,5.87l3.24,2.87,3.42,2.71a307.17,307.17,0,0,1-25-41,292.61,292.61,0,0,1-17.63-44.34,273.71,273.71,0,0,1-10-46.44c-.45-3.92-1-7.83-1.37-11.76l-.78-11.84c-.36-3.94-.24-7.91-.31-11.87s-.15-7.92.14-11.89l.62-11.89L274,626.12c.35-4,1.17-7.87,1.82-11.8l1-5.89c.15-1,.37-2,.61-2.93l.68-2.91a233.87,233.87,0,0,1,15.08-45.42c3.13-7.37,7-14.39,10.79-21.42l6.25-10.24c1-1.73,2.19-3.34,3.32-5l3.44-4.91A243,243,0,0,1,348.57,479.65Z"/><path class="dark-top-1" d="M703.9,610.82A485.24,485.24,0,0,1,664.41,666a534.93,534.93,0,0,1-53.77,61.29c-8.46,8.19-16.56,15.39-24.32,21.7l-2.9,2.33-2.88,2.25c-1,.68-2,1.38-2.95,2.11l-1.49,1.12a15.55,15.55,0,0,1-1.51,1.07c-1,.65-2,1.32-3.07,2s-2.09,1.48-3.14,2-2.13,1.25-3.21,1.91l-1.63,1-1.65.85c1.65-.11,3.32-.57,5-.85.83-.15,1.66-.28,2.49-.41s1.66-.41,2.49-.58,1.66-.39,2.5-.57a20.36,20.36,0,0,0,2.49-.58c1.67-.51,3.34-1,5-1.37A184.3,184.3,0,0,0,603,753.65a296.59,296.59,0,0,0,48.54-27,111.59,111.59,0,0,0,20.23-24,168.39,168.39,0,0,0,14.38-28.81C694.06,653.54,699,632,703.9,610.82Z"/><path class="dark-top-1" d="M530.46,778.23c.7-.14,1.43-.38,2.15-.6l2.13-.65,2.09-.61a17,17,0,0,0,2.07-.65c1.38-.51,2.74-1,4.08-1.45.66-.24,1.32-.43,2-.69l2-.85c1.31-.55,2.59-1.07,3.86-1.56s2.55-1.23,3.79-1.79l1.85-.86.92-.41.92-.5c1.22-.68,2.42-1.32,3.6-1.94-1.22.14-2.45.32-3.68.52-.31,0-.62.12-.93.14l-.91.06-1.84.14c-1.22.09-2.46.31-3.68.36s-2.43.07-3.66.14l-1.84.13-1.82,0c-1.21,0-2.43,0-3.66,0a13.63,13.63,0,0,1-1.82-.08l-1.82-.09-1.83-.06h-.92l-.9-.1c-2.38-.33-4.87-.31-7.23-.78-1.19-.18-2.41-.31-3.62-.45s-2.36-.49-3.55-.7l-1.81-.29c-.6-.1-1.17-.3-1.75-.43-1.17-.29-2.35-.56-3.55-.8a16,16,0,0,1-1.75-.48l-1.73-.51-1.76-.47-.89-.23-.84-.31a114.42,114.42,0,0,1-48.49-29.93,105,105,0,0,1-31.41-41.73c-.47-1.12-.95-2.25-1.45-3.38l-.37-.85-.3-.94-.6-1.89-1.28-3.8-.66-1.91-.49-1.88L418,671.29c-.33-1.26-.81-2.56-1-3.79l-.83-3.76-.44-1.89a16.5,16.5,0,0,1-.4-1.9,139.6,139.6,0,0,1-2.65-30.3A136.68,136.68,0,0,1,417,598.39a153.86,153.86,0,0,1,12.46-32.32c11.18-21.68,28.32-43.27,50.25-62.5a195.88,195.88,0,0,1,33.18-22.27c-26.18,9.06-50.87,21.59-71.94,37.53s-38.76,34.84-51.49,55.87a162.49,162.49,0,0,0-23.1,68.16l-.53,4.5c-.09,1.51-.13,3-.21,4.56-.11,3.05-.45,6.05-.29,9.14l.06,4.6v3.44l.09,1.16q.33,4.63.67,9.26a179.44,179.44,0,0,0,7.19,35.54C387.23,760,421.28,794.32,460.8,809a141.76,141.76,0,0,0,30,7.66l3.79.45,1.87.23.93.12,1,0,7.51.4c2.51,0,5-.07,7.47-.08l1.84,0,1.86-.15,3.68-.31c1.22-.11,2.42-.15,3.64-.32l3.63-.56a70,70,0,0,0,7.13-1.26l3.5-.79,1.74-.38.86-.2.87-.26,6.8-2.05A130.16,130.16,0,0,0,574,799.81c2.26-1.66,4.77-3.13,7.08-4.62-3.81.64-7.6,1.64-11.4,2.06l-2.86.46c-.47.07-1,.19-1.42.23l-1.43.13q-2.85.25-5.7.63c-1.9.15-3.79.19-5.7.34-1,.05-1.9.17-2.85.19h-2.84l-2.85.06-1.42.05c-.48,0-.95,0-1.42-.06-1.88-.09-3.77-.14-5.68-.16a188.9,188.9,0,0,1-22.48-2.71,191.43,191.43,0,0,1-21.85-5.87,178.7,178.7,0,0,1-20.72-9q-2.43-1.4-4.95-2.73c-.87-.41-1.6-1-2.41-1.46l-2.4-1.49c-.8-.5-1.66-.94-2.42-1.48l-2.3-1.62c-1.52-1.1-3.2-2.05-4.61-3.27s-3-2.29-4.52-3.42-2.82-2.46-4.29-3.67l-1.1-.9c-.35-.31-.67-.65-1-1l-2.05-2-2.09-1.93c-.7-.65-1.29-1.37-2-2l-2-2c-.64-.69-1.38-1.32-1.95-2.07q-1.8-2.18-3.71-4.32a23.39,23.39,0,0,1-1.77-2.23l-1.74-2.27c-.58-.76-1.21-1.49-1.78-2.26L419.89,737a129,129,0,0,0,24,21.37,121.86,121.86,0,0,0,27.75,14.13A118.7,118.7,0,0,0,530.46,778.23Z"/><path class="dark-top-1" d="M329.58,512c5.08-6.82,10.53-13.19,16-19.52l4-6.27,2-3.13,1-1.57,1.05-1.52c1.42-2,2.82-4,4.23-6.07l2.13-3,1.06-1.53,1.13-1.46c-1.2.9-2.34,1.88-3.47,2.87l-3.4,3c-2.24,2-4.57,3.9-6.72,6q-2.6,4-5.18,7.94c-.85,1.32-1.74,2.61-2.55,4l-2.37,4.07c-1.57,2.69-3.13,5.39-4.69,8.07Q331.68,507.84,329.58,512Z"/><path class="dark-top-1" d="M171.48,788.26c.31,1.56.63,3.16,1,4.78,3.67,9.59,8.18,18.94,12.53,28.31,2.34,4.62,4.76,9.21,7.18,13.8l1.83,3.43c.6,1.15,1.22,2.29,1.89,3.4l4,6.72q2,3.34,4,6.69l2,3.34L208,862q4.29,6.51,8.67,13c3,4.24,6.14,8.39,9.25,12.55,1.58,2.06,3.08,4.19,4.75,6.18l5,6a431.86,431.86,0,0,0,67.29,54.36c1.5,1,3,2,4.5,3l4.61,2.81,9.22,5.57,2.31,1.39,2.35,1.29,4.72,2.59,9.44,5.13c3.19,1.62,6.42,3.17,9.63,4.75s6.39,3.18,9.65,4.62l9.81,4.28c3.27,1.42,6.51,2.87,9.86,4.1a388.61,388.61,0,0,1-66.7-38.78,421,421,0,0,1-57.59-50.24A484.29,484.29,0,0,1,208,847.32,613,613,0,0,1,171.48,788.26Z"/><path class="dark-top-1" d="M368.37,1148.78l6.41,2.41c2.34.88,4.86,1.82,7.53,2.68,5.32,1.78,11.14,3.68,17,5.53l4.38,1.38c1.45.45,2.91.83,4.35,1.24l8.42,2.31c5.42,1.46,10.35,2.78,14.33,3.76,5.18-.35,10.29-.73,15.37-1.15l7.59-.65,3.78-.34,3.79-.45c-3.67-.65-7.33-1.54-11-2.37s-7.33-1.71-11-2.61c-7.33-1.69-14.58-3.89-21.82-6-4.07-.28-8.16-.52-12.24-.9s-8.16-.87-12.26-1.34-8.2-1-12.32-1.5S372.48,1149.46,368.37,1148.78Z"/><path class="dark-top-1" d="M1026.65,832.4a841.44,841.44,0,0,1-84.1,116.11c-31.85,36.67-67.77,71.41-109.86,102.85a593,593,0,0,1-68.2,44.05A532.11,532.11,0,0,1,685,1131.13c-3.56,1.27-7.13,2.51-10.79,3.68s-7.26,2.39-11,3.44q-11.07,3.21-22.24,6.22c-7.52,1.83-15.1,3.52-22.7,5.18-3.78.88-7.65,1.5-11.49,2.2l-11.57,2a511.37,511.37,0,0,1-94.93,6.06l-9.62,1.6c-3.22.54-6.45,1.08-9.7,1.48q-9.75,1.3-19.66,2.53a474.11,474.11,0,0,0,130.45,7.66,465.93,465.93,0,0,0,63.17-9.69q7.71-1.74,15.35-3.63c5-1.35,10.09-2.74,15.07-4.21s9.86-3,14.67-4.66,9.63-3.28,14.29-5.07a444.43,444.43,0,0,0,99.54-52.36,420.35,420.35,0,0,0,74.25-66.34c8.36-9.14,17.17-22.17,25.7-34.77S930.63,967.66,939,960a544.9,544.9,0,0,0,51.26-59.49c7.67-10.24,14.87-20.65,21.72-31.17s13.32-21.14,19.43-31.87c24.49-42.92,43.56-87.21,59.2-132.24A960.38,960.38,0,0,1,1028.72,829Z"/></g></g></g></svg>