<svg xmlns="http://www.w3.org/2000/svg" viewBox="0 0 1511.33 2730.98"><defs><style>.cls-1{fill:#dbdbdb;}.cls-2{fill:#d0d0d0;}</style></defs><g id="Layer_2" data-name="Layer 2"><g id="Layer_2-2" data-name="Layer 2"><path class="cls-1" d="M1305.8,1446.81c-3,.44-6.21.59-9.19,1-.55-5.8,3.16-10.7,9.22-15-42,10.31-70.74,38.28-86.53,72.45q-2.92,6.39-5.33,13.08c-.8,2.22-1.56,4.47-2.28,6.73s-1.3,4.52-1.89,6.81a197,197,0,0,0-4.9,27.91,192,192,0,0,0,3.25,55.7,29.58,29.58,0,0,0-6,11.88,26.11,26.11,0,0,0-.78,6.53,34.23,34.23,0,0,0,.66,6.65c1.78,8.87,7.13,17.53,15.62,24a45.06,45.06,0,0,0,27.69,9.41c9.22-.16,17.48-3.51,23.4-10.29,4.3-1.81,8.27-4.6,12.78-4.92,41.57-2.31,77.67-14.18,112.85-32.61-9.06,1.69-18.33,3.68-27.47,5.48,5.17-2.6,10.34-5.11,15.11-8.11a52.38,52.38,0,0,0,13-11.09c-3.85-1.39-7.93-2.5-11.82-3.9a79.34,79.34,0,0,0,15.67-5.92,73.34,73.34,0,0,0,7-4c2.21-1.44,4.46-3.06,6.53-4.73a75.05,75.05,0,0,0,11.23-11.24,74.3,74.3,0,0,0,4.63-6.4c1.47-2.23,2.87-4.56,4.13-6.94a80.74,80.74,0,0,0,6.1-15.07c.77-2.62,1.41-5.3,1.92-8s1-5.53,1.27-8.35a88.81,88.81,0,0,0-3.35-34.85,89.93,89.93,0,0,0-42.4-53.92,89.13,89.13,0,0,0-68.24-7.79Z"/><path class="cls-1" d="M1161.9,1429.72q9.72-4,19.44-7.81,9.87-3.79,19.74-7.36c6.6-2.38,13.12-4.69,19.79-7s13.37-4.55,20.07-6.78l8.59.91L1223,1382.39l1.35,1.69a97.19,97.19,0,0,1,1.88,26c-.28,4.34-.7,8.64-1.35,12.93s-1.51,8.54-2.54,12.78-2.24,8.43-3.57,12.59-2.68,8.25-4.18,12.31c-2.95,8.09-6.34,16-9.65,23.6l-3,12a27.73,27.73,0,0,0,8,18.64c11.08,11.48,28.83,12.45,39.61,2.41l12.67-11.8a127.8,127.8,0,0,0,15-9.4,138.74,138.74,0,0,0,14.48-11.94,127.74,127.74,0,0,0,23.73-30.18c1.56-2.82,2.93-5.68,4.25-8.63a90.77,90.77,0,0,0,3.47-9,80,80,0,0,0,3.76-18.92,76.9,76.9,0,0,0-7.84-40.22c-6.3-12.56-22-19.13-34.28-27.72a37.87,37.87,0,0,0-28.35-10.61,41.11,41.11,0,0,0-15.14,3.66,41.79,41.79,0,0,0-13.12,9.48,42.25,42.25,0,0,0-8.61,13.76A40.08,40.08,0,0,0,1217,1381a38.79,38.79,0,0,0,12.63,27.54c-3.55,1.93-7.15,4-10.57,6-.38-4-.4-7.77-.62-11.75,5.4,8.34,5.93,17,5,25.89s-3.52,17.82-4,26.65l-9,20.36q23.89,10.55,47.64,21.26l1.41-12.87c-2.21-.65-5.72-1.31-5.79-1.54.2-3.15.5-6.32.78-9.46s.58-6.28.87-9.41c.61-6.26,1.28-12.47,2.12-18.65.21-1.55.42-3.09.67-4.63l.81-4.64c.57-3.1,1.19-6.18,1.88-9.26,1.39-6.15,3-12.29,5.07-18.41,1.6-11.8,3.4-23.7,5.13-35.6a23.66,23.66,0,0,0-26.39-19.54l-17.25,3.82c3.09-.18,5.9-.59,9-.76-3.63,2.18-7.23,4.44-10.81,6.75s-7.12,4.68-10.56,7c-6.94,4.76-13.81,9.66-20.7,14.55l-10.24,7.28q-5.11,3.62-10.28,7.15t-10.43,6.92c-3.53,2.26-7,4.45-10.52,6.57a9.86,9.86,0,1,0,9.05,17.51Z"/><path class="cls-1" d="M1225.8,1338.35a53.79,53.79,0,0,0,9.16-2.8,16.73,16.73,0,0,0,7.55-6.39c-.62-2.84-.93-4.3-1.09-5l-13.28,2.39C1218.64,1328.22,1220,1334.19,1225.8,1338.35Z"/><path class="cls-1" d="M1241.42,1324.12l5.55-1c-1.94-.33-3.74-.57-5.52-.84a3.42,3.42,0,0,0-.22.9Z"/><path class="cls-1" d="M795.16,1909.08q-3.43-3.67-7-6.93l-.89-.81a5.61,5.61,0,0,1-.47-.43l-.55-.54-2.2-2.13c-1.47-1.4-3-2.77-4.46-4.09s-3-2.62-4.54-3.87l-1.15-.93-.58-.46-.68-.6-2.72-2.36q-5.48-4.67-11.13-8.83l-1.42-1c-.47-.34-.91-.64-1.49-1.11l-3.28-2.56q-3.29-2.52-6.63-4.91t-6.71-4.66l-3.41-2.24-3.85-2.72q-7.74-5.37-15.66-10.2l-4-2.38c-.63-.35-1.41-.88-2.15-1.34l-2.23-1.42q-4.47-2.83-9-5.51t-9.08-5.23l-4.57-2.51c-.77-.43-1.49-.79-2.32-1.26l-2.54-1.49-5.11-2.9-2.4-1.34.1,0,.4.13c.15,0,.3.14.47.09l.54-.31c.38-.2.79-.4,1.22-.59.45-.39.92-.93,1.42-1.38a8.68,8.68,0,0,0,1.56-1.65c.54-.73,1.1-1.45,1.68-2.18l.44-.53a6.89,6.89,0,0,0,.45-.69l.9-1.44,1.87-2.91,1.92-3.53,1-1.77.25-.45.25-.51.49-1,2-4.14.51-1c.17-.34.33-.77.5-1.15l1-2.35,2.06-4.71,2-5.21c.68-1.76,1.39-3.4,2.05-5.37,5.44-14.85,10.76-32.47,15.81-52.19.7-2.61-1.15-5.42-4.29-6.11-2.68-.64-5.87,1-6.28,3.49-5.13,19.56-10.49,37-15.92,51.52s-11,26-15.76,33.15l-.88,1.34-.43.67a3.5,3.5,0,0,1-.42.53c-.57.65-1.11,1.3-1.64,2-.26.31-.51.7-.76.94l-.73.59c-.48.39-.93.79-1.35,1.19-.1.14-.2.1-.3.15l-.29.08-.55.18c-.35.07-.68.4-.93.08l-.19-.14,4.53,2.4q5.14,2.76,10.24,5.66l5.09,2.94,4.59,2.5q4.56,2.51,9.08,5.15t9,5.43c2.94,1.81,6.09,3.92,8.59,5.34q7.92,4.75,15.68,10l3.86,2.68,1.92,1.37c.62.42,1.15.75,1.72,1.13,2.26,1.49,4.5,3,6.73,4.58s4.44,3.18,6.64,4.84l3.29,2.52,1.63,1.28c.27.2.57.46.8.62l.71.51q5.65,4.1,11.16,8.69l2.73,2.32,1.36,1.19.68.6c.23.21.39.32.59.49,1.53,1.22,3.05,2.49,4.56,3.79s3,2.65,4.48,4l2.21,2.1,1.1,1.07c.35.34.76.78,1,1q3.59,3.2,7,6.81c1.24,1.29,2.36,2.53,3.2,3.47l1.23,1.25c-.06,0-.27-.27-.8-.81l-.44-.45-.67-.74Z"/><path class="cls-1" d="M1073,1311.75a5,5,0,0,0,7.84,1.11,6.9,6.9,0,0,0,1.31-8.79,5.52,5.52,0,0,0-7.82-1.11A6.93,6.93,0,0,0,1073,1311.75Z"/><path class="cls-1" d="M1312.4,1374.39c2.14,15.16,5.1,29.79,11.52,43.4a6.79,6.79,0,0,1-1.35,6.78c5.16,0,9.24,3.44,10.53,9,12.63,54.93,18.92,111.44,22.12,169.46.42,7.23.75,14.54,1.06,21.83s.59,14.6.81,22q.15,5.51.32,11l.15,5.51,0,1.38,0,.69,0,.6.14,2.37.55,9.46.51,9.86q.5,10.18,1,20.37l.88,21.31q.39,11,.8,22,.35,11.37.7,22.7a29.71,29.71,0,0,1,10.89,6.93,35.17,35.17,0,0,1,7,9,40.41,40.41,0,0,1,4,11.26A49,49,0,0,1,1385,1814a57.89,57.89,0,0,1-2.4,13.38l-5.59,13.38c-8.76,27.6-17.89,56.24-28.44,85.8S1326,1986.7,1311.23,2018c1,15.18-1.07,32.38-7.18,50.63a537.15,537.15,0,0,1-25.52,104.4c-3.41,9.3-6.7,18.47-11,28.08q-3.07,7.14-6.3,14.27l-1.62,3.57-1.81,3.64-3.67,7.28q-3.72,7.29-7.59,14.55c-1.23,2.4-2.76,4.9-4.17,7.35l-4.37,7.38q-4.42,7.38-9,14.71c-3.29,5-6.7,9.91-10.15,14.84,6.59-2.16,12.2-2.19,15.62.86,3.5,4.28,3,12.07-.83,21.29-3.6,9.16-11.67,20-21.84,29.67l-3.75,3.81c-1.27,1.26-2.47,2.52-3.84,3.78q-4,3.78-8.06,7.5-8.1,7.45-16.41,14.68c34.58-25.34,64.76-53.17,91.23-81a97.9,97.9,0,0,1,11-10.85,574.29,574.29,0,0,0,61.94-98.13,668.14,668.14,0,0,0,40-101,733,733,0,0,0,21.45-90.5q1.74-10.59,3.34-21.16c.95-6.91,1.81-13.75,2.66-20.61,1.53-13.52,2.8-26.86,3.65-39.76,1.77-25.9,2.3-50.62,2-74.29-.1-5.86-.2-11.78-.38-17.56s-.45-11.44-.67-17.16-.63-11.16-.94-16.73-.76-10.89-1.16-16.33c-1.7-21.5-3.93-42-6.47-61l-.48-3.58-.48-3.5-1-6.87c-.67-4.69-1.36-8.93-2.06-13.31l-.53-3.27-.14-.82-.1-1-.21-2-.85-7.84q-.87-7.85-1.75-15.67-1.82-15.59-3.79-31.1c-1.33-10.28-2.68-20.6-4.09-30.84a7.05,7.05,0,0,1,2.53-8.66c2.81-1.12,6.33-.29,7.3,2.8,4.85,13.33,9.92,26.68,15.21,39.87,2.62,6.63,5.28,13.27,8,19.87l8.13,19.86,8.18,19.91.51,1.24.56,1,1.1,2,2.2,4.08,2.21,4.07,1.1,2,1.09,2.15c2.92,5.77,5.84,11.29,8.69,17.41q2.13,4.48,4.27,9l4.19,9.36c.69,1.57,1.37,3.13,2.07,4.7l1,2.35,1,2.44,4,9.79c.65,1.64,1.31,3.27,2,4.91l1.92,5.09q1.86,5.1,3.76,10.23l.92,2.57.9,2.65,1.77,5.31q1.77,5.32,3.46,10.7t3.24,11.1l1.56,5.58.77,2.81.73,2.88a470,470,0,0,1,14.61,102.3c1.4,45.51.18,94.69-7.24,149.9l-.68,5.15c-.24,1.72-.44,3.4-.74,5.2l-1.7,10.65-1.77,10.67-.91,5.34-1.06,5.52q-2.17,11.07-4.5,22.17c-.36,1.82-.82,3.74-1.27,5.67l-1.37,5.75-2.8,11.52-1.43,5.77c-.5,1.93-.93,3.8-1.52,5.83l-3.38,12-3.48,12-1.79,6-2,6.22q-4.1,12.45-8.43,24.9c-3.18,8.58-6.53,17.24-9.93,25.84l-2.58,6.46c-.41,1-.9,2.18-1.38,3.3l-1.46,3.35q-2.92,6.71-5.92,13.39t-6.08,13.37l-.78,1.67-.85,1.74-1.72,3.46-3.47,6.92q-3.48,6.92-7.08,13.81l-3.6,6.88-.92,1.73-1,1.78-2,3.56q-8.07,14.22-16.57,28.33a722.55,722.55,0,0,1-89.63,116.09q-6.91,7.2-14,14.29l-7.11,7.07-3.55,3.47-3.46,3.28q-6.92,6.53-14,13l-6.65,6-6.66,5.88-6.67,5.81-6.38,5.41-6.43,5.39-6.42,5.29q-6.21,5-12.49,10l-3.15,2.48-3.12,2.43-6.12,4.69c-4.09,3.1-8.24,6.23-12.34,9.26s-8.1,5.89-12.18,8.81l-6.14,4.37-6.06,4.18-12.22,8.31c-4.08,2.72-8.13,5.34-12.22,8s-8.21,5.3-12.31,7.81c-8.23,5.06-16.51,10.15-24.91,14.95a1098.55,1098.55,0,0,1-113.74,45.54l-15.11,5c-2.49.82-5.1,1.62-7.71,2.42l-7.81,2.37-7.82,2.33-3.91,1.16-2,.57-2,.56q-8.11,2.25-16.24,4.42l-8.13,2.15-8.45,2.07q-8.47,2.05-17,4c-2.78.66-5.77,1.28-8.74,1.9l-8.89,1.84-8.9,1.78c-3,.58-5.86,1.17-9,1.71q-9.36,1.65-18.72,3.17l-9.4,1.48-9.88,1.34q-9.88,1.32-19.79,2.47l-2.5.28-2.61.26-5.23.5-10.48.94-10.49.84c-1.76.13-3.45.27-5.28.38l-5.56.3q-11.1.57-22.24.94l-5.57.16-1.39,0h-1.47l-3,0-11.81,0-11.82-.11-5.91-.11-3-.06-3.12-.12q-12.55-.52-25.1-1.34l-6.28-.43-3.13-.23-1.57-.12-1.65-.16q-6.66-.62-13.31-1.33c-8.88-1-17.7-2-26.61-3.23q-14.05-2.13-28.08-4.67-7-1.28-14-2.66c-4.92-1-9.84-2.14-14.74-3.27q-14.73-3.39-29.36-7.29c-10.21-2.87-20.43-6-30.57-9.23q-7.62-2.45-15.18-5-7.89-2.82-15.74-5.82-15.71-6-31.18-12.59-16-7.08-31.68-14.86c-5.24-2.6-10.42-5.2-15.64-8s-10.54-5.76-15.77-8.73-10.44-6-15.61-9.08l-7.73-4.67-3.85-2.37-1.91-1.19-.49-.3-.73-.48-1.45-1q-11.62-7.65-23-15.78-5.67-4.05-11.27-8.23l-5.57-4.19-2.77-2.12-2.69-2.08q-20.54-16.24-40-34-17.82-16.59-34.54-34.32l-2-2.18-1.88-2.05-3.75-4.14q-3.74-4.14-7.41-8.36-7.37-8.41-14.48-17l-3.5-4.29-3.16-4q-3.15-4-6.26-8-6.21-8.09-12.22-16.34l-3-4.13-1.49-2.08-1.33-1.9-5.26-7.63q-5.22-7.66-10.28-15.45l-5-7.82-2.3-3.69-2.2-3.6q-4.38-7.2-8.63-14.49l-4.21-7.32c-1.38-2.42-2.84-5-4-7.14q-3.69-6.72-7.27-13.53t-7-13.67l-1.64-3.29-1.53-3.15-3-6.32q-3-6.33-6-12.72l-2.9-6.36L85,2315.26q-2.57-5.9-5.07-11.84l-2.48-6-2.37-5.83q-4.38-11-8.55-22.17C56,2240.85,48,2215,41.45,2191q-2.37-8.73-4.64-17.51l-1.07-4.26-1-4.16-2-8.34-1-4.18-.95-4.08-1.78-8c-1.18-5.3-2.36-10.73-3.38-15.71-4.3-20.72-7.65-39.8-10.54-58.28s-5.22-36.08-7.13-53c-2.64-23-4.48-44.54-5.85-65.29l-.48-7.71-.44-7.64c-.13-2.55-.27-4.85-.38-7.81l-.16-4.35-.14-4.44c-.29-11.84-.4-23.68-.44-35.52s.28-23.65.67-35.47l.69-17.71c.31-5.9.74-11.78,1.14-17.67s.87-11.78,1.31-17.66l.71-8.82c.27-2.93.59-5.86.89-8.79q.94-8.71,1.9-17.42c.63-5.64,1.27-11.34,2-16.93,5.72-44.32,13.53-86,22.63-125.61s19.59-76.63,30.81-111.92S86,1434,98.45,1402.41c3.11-8.1,6.25-15.72,9.41-23.5l4.76-11.62,4.79-11.32,4.81-11.28,2.42-5.64,2.58-5.78q5.24-11.57,10.46-23.14c28.13-61.53,59.09-120.2,91.7-176.22q4-8.22,8.43-16,2.22-3.9,4.57-7.69c1.55-2.53,3.17-4.9,4.81-7.3a242.4,242.4,0,0,1,21.19-26.54q2.82-3.06,5.7-6c1.93-1.9,3.88-3.72,5.86-5.51q5.93-5.37,12.06-10.14a179.73,179.73,0,0,1,25.15-16.53c17.11-9,34.64-14.4,51.57-15.87a94.84,94.84,0,0,1,48,8.21c17.87,8.49,31.48,22.12,40.77,38.88a107.29,107.29,0,0,1,6.16,13.14,121.53,121.53,0,0,1,4.54,14.29,141.27,141.27,0,0,1,4.13,31.06c4.08-5.7,8.18-11.28,12.4-16.82,8.3-7.75,16.69-15,25-22.45a150.2,150.2,0,0,1,18.7-13.86,136.41,136.41,0,0,1,19.8-10c13.43-5.39,27.2-8.32,40.75-8.12q17.41-.73,34.72-1.3c7.29,1,14.62,1.63,22,2.13s14.79.9,22.22,1.14c14.86.49,29.77.55,44.59.86s29.6,1.09,44.13,2.65a246.36,246.36,0,0,1,42.79,8.06l12.71,16.41,7.85-.4c22.34-4.15,44.54-1,63.07,9l18,16.65a229.76,229.76,0,0,1,46,69.17,79.09,79.09,0,0,1,20.73,22.33c26.69,6.88,50.39,19.31,67.61,44.2,9.8-.63,17.43,6.92,17.34,16.86a19.4,19.4,0,0,1-2.85,9.57c.11,0,.13,0,.13,0a161.8,161.8,0,0,0,18,2.15c5.74-3.74,9.35-5.65,9.35-5.65,14.15-10.76,14.21-10.76,26.92-19.77a80.37,80.37,0,0,1,20.13-3.28,70.64,70.64,0,0,1,9,.16c42.94,16.8,42.87,16.88,56,30.55a59,59,0,0,1,2.39,5.54c12.07-4.72,13-5,16.4-6.11a41,41,0,0,1,9,.51c8.12,6.12,8.12,6.12,12.17,7a44.76,44.76,0,0,1,6.18,4.54c4.67,12.05,4.68,12,7.05,14.23a32.72,32.72,0,0,1,2,6.24c-2.05,7.81-2.87,10.93-3.22,12.24l-30.36-4.58,4.87,8.38-11.64-4.82,9.87,5.41-10.21,1.86,13.22-.84c-14.91,11.88-14.92,11.89-19.33,17.93a30.16,30.16,0,0,0-8.21,12.71,40,40,0,0,1,5,3.17c-7.83,6.34-11.74,9.52-15.67,12.61l-15.48,12.11a65.22,65.22,0,0,1-8.49-1,8.53,8.53,0,0,1-2.63,9.67l-7.62,6.65c0,.91,0,1.8-.06,2.63.4.31.68.49.68.49-.38,3.94-.65,6.66-1,9.77,0,2.07,0,2.13,0,2.13h-.17c-.32,3.35-.71,7.45-1.33,13.93-.33,3.24-.63,7.06-1,11.66s-.75,10-1.23,16.34c-2.24,1.89-4.52,3.63-6.83,5.25s-4.64,3.11-6.92,4.5c2.25-.34,4.42-.63,6.75-.79,4.66-.29,10.81,7.65,12.52,6.9a287.38,287.38,0,0,0,29.11-16.44c9.48-6,18.59-12.37,27.51-19,9.11-6.68,18-13.59,26.86-20.55,9-7,18-14.07,27.07-21a15,15,0,0,1,20.31-5.13,14.56,14.56,0,0,1,4.49,20.27,278,278,0,0,1-8.25,37.27,269.17,269.17,0,0,1-12.47,34.64q-3.51,8.29-7.55,16.27c-1.34,2.66-2.74,5.3-4.17,7.9s-2.93,5.19-4.36,7.72q-4.37,7.62-9.22,14.9-2.43,3.65-5,7.21c-1.72,2.38-3.32,4.7-5,7-27.62,37-62.42,66.48-101.09,89.17l-5.79,5.67-2.87,2.85L1113,1646q-5.49,5.74-10.94,11.57l-5.46,5.84c-1.79,2-3.47,3.92-5.21,5.88L1081,1681.16c1.91-.07,3.79-.14,5.75-.15-2.44,1.68-4.84,3.38-7.25,5.09l-7,5.13a11.6,11.6,0,0,0-1.12,1.33l10.61-1,10.65-.89c3-1.5,5.84-3,8.62-4.65a173.29,173.29,0,0,1,11.79-13.33c4.3-4.25,8.78-8.32,13.38-12.23q3.45-2.94,7-5.76c2.39-1.89,4.91-3.75,7.4-5.58,5-3.66,10.07-7.21,15.18-10.68l3.86-2.59,4-2.58,8-5.12,16-10.13c5.45-3.4,10.86-6.82,16.18-10.31q4-2.61,7.92-5.27c2.65-1.79,5.36-3.62,8-5.46a169.9,169.9,0,0,1,17.69-10.64c3-1.58,6.21-3.14,9.35-4.63s6.35-2.93,9.54-4.34l9.57-4.18,9.65-4.17c6.5-2.83,12.94-5.72,19.22-8.89a11.57,11.57,0,0,1,8.62-3.3,14,14,0,0,1,9.19,3.91c5,4.82,5.37,12.61.94,17.11q-3.74,7-7.78,13.81l-2,3.42-2,3.37c-1.32,2.24-2.67,4.48-4,6.7q-4.14,6.66-8.58,13.17c-2.9,4.32-5.74,8.53-8.77,12.71s-6.16,8.28-9.34,12.29-6.24,7.9-9.52,11.73c-1.64,1.91-3.31,3.81-5,5.68s-3.39,3.69-5.08,5.53q-5,5.42-10.36,10.56c-28.41,27.41-61.2,47.82-101.47,58.77-6.82,11.35-16.37,20.07-31,24.48l-.46.42c5.69-.24,11.29-.27,16.92-.46a22,22,0,0,1-6.65,3.94,68,68,0,0,1-7.74,2.4c-5.25,1.37-10.64,2.61-14.87,5.46,6.53,2,13.09,3.76,19.63,5.8-2,2.29-3.86,4.62-5.73,7s-3.71,4.67-5.48,7.37c-3.55,5.21-7.11,10.65-10.22,15.83l-4.77,7.89-4.48,7.69-2.26,3.84c-.77,1.29-1.43,2.49-2.16,3.73q-2.13,3.7-4.37,7.37l-1.12,1.83-1,1.75-2.16,3.49c-1.44,2.31-3,4.63-4.51,6.86s-3,4.33-4.56,6.45c-.79,1-1.6,2.11-2.44,3.15s-1.59,2-2.42,3a109.5,109.5,0,0,1-10.7,11.14c-1.92,1.72-4,3.39-6.11,5-1.11.84-2.09,1.55-3.19,2.32s-2.2,1.49-3.35,2.22a19,19,0,0,1-2.77,3.13c.62,1.07,1.18,2.18,1.85,3.18l2,3q1.93,3,3.74,6l1.74,2.91,1.82,2.72q1.77,2.68,3.26,5.3c.49.87,1,1.74,1.39,2.6s1,1.59,1.4,2.38a36.45,36.45,0,0,1,2.21,4.62c.3.76.54,1.52.77,2.25a18.84,18.84,0,0,1,.72,2c.1.33.19.66.26,1l.2.93a8.65,8.65,0,0,1,.2,1.66c.7-.66,1.35-1.23,2-1.94l1.94-2.27,4.27-5q1.32,1.85,2.48,3.61a40,40,0,0,0,2.23,3.36c.75,1,1.42,2.08,2,2.94a24.08,24.08,0,0,1,1.64,2.42A14,14,0,0,1,1072,1937a8.58,8.58,0,0,1,.16,1.1,7.12,7.12,0,0,1,.16,1.1,6.71,6.71,0,0,1-.21,2.18,11.78,11.78,0,0,1-.45,1.47c-.18.49-.28,1-.48,1.48a14.42,14.42,0,0,1-1.54,3l-.52.75c-.16.26-.32.51-.5.76s-.37.48-.56.81l-.29.5c-.09.16-.2.5-.3.73a55.4,55.4,0,0,1-2.76,5.91,49.31,49.31,0,0,1-7.18,10.11,42,42,0,0,1-9.43,7.6l-2.72,1.52-2.87,1.25c-.49.2-1,.46-1.49.62l-1.53.49c-1,.31-2.1.72-3.18,1l-3.34.73c-.57.11-1.15.3-1.73.36l-1.76.21-9.19,1.3-10.9,1.67q-10.5,1.46-20.67,3.13c-13.75,2.4-26.12,4.31-38.33,6.74l-4.53.9c-1.5.3-3,.63-4.43.87q-4.29.8-8.48,1.63c-5.6,1.1-11.07,2.27-16.41,3.47l-4,.91c-1.32.32-2.53.54-3.79.82l-7.37,1.62q-7.29,1.63-14.16,3.4c-4.67,1.25-8.81,2.18-12.92,3.22s-8.07,2.1-11.89,3.17l-5.25,1.5c-.87.25-1.77.54-2.6.76l-2.49.67c-3.3.9-6.61,1.84-9.9,2.83s-6.59,2-9.87,3.09l-2.46.82c-.81.27-1.56.47-2.34.72l-4.62,1.44c-3.07,1-6.14,2-9.2,3.09l-4.59,1.66c-1.52.56-3.08,1.17-4.46,1.61q-8.53,2.92-17,6.43c-21.71,8.55-40.32,17.71-55.06,26.7q-2.67,1.56-5.28,3.28c-.88.57-1.74,1.15-2.61,1.75l-1.29.91-1.14.72a94.82,94.82,0,0,0-8.82,6.44,70,70,0,0,0-7.2,5.87c-.28.25-.6.59-.83.77l-.72.6q-.71.61-1.41,1.26c-.93.86-1.85,1.77-2.74,2.72l-.67.72-.32.36-.26.25c-.34.33-.69.68-1,1-.68.71-1.34,1.46-2,2.26-.31.39-.64.82-.94,1.22-.22.25-.45.5-.66.77q-.66.81-1.29,1.71c-.2.3-.41.62-.61.94l-.07.12,0,.06,27.21-40.7.08-.12.17-.24c.22-.32.42-.63.61-.93s.36-.61.52-.9.22-.47.6-1.09a32.09,32.09,0,0,0,1.59-3.06l.33-.74.17-.38.27-.55q.53-1.08,1-2.16t.87-2.13l.38-1.06.18-.53c.06-.17.18-.44.27-.66q1.13-2.79,2-5.53l.4-1.37.19-.68.09-.34.14-.42c.37-1.13.72-2.25,1-3.37.64-2.25,1.16-4.45,1.61-6.68q1-3.95,1.75-7.83c.23-1.3.44-2.59.62-3.88l.78-4.38c.49-2.95.87-5.89,1.14-8.79l.1-1.09.16-1.22.3-2.44c.19-1.63.34-3.26.48-4.88s.23-3.23.31-4.83l.1-2.41.2-2.65q.36-5.28.4-10.49v-3.89l0-1.4c0-1.87.07-3.73.06-5.59q0-5.57-.33-11c-.07-3.88-.21-7.77-.47-11.6s-.67-7.54-.89-11.6a563.82,563.82,0,0,0-16.07-92.25l-.72-2.65-.64-2.54-1.33-5c-.9-3.33-1.89-6.65-2.88-9.89q-1.26-4.53-2.66-9l-1.43-4.42-.73-2.16-.6-1.93c-.82-2.56-1.68-5.1-2.57-7.6l-1.33-3.69-1.08-3.06-.88-2.4a2.31,2.31,0,0,1-.07-.48c0-.16,0-.28,0-.44v-.53c0-.28,0-.72,0-1s-.08-.75-.08-1l-.18-.51-.08-.23,0,0a6.79,6.79,0,0,1,.37.69l1,1.81q1.93,3.62,4,7.22l1,1.79,1.3,2.31,2.78,4.84,2.87,4.81,1.47,2.4.74,1.19.88,1.48q3.57,6,7.38,12l3.93,6.07q2.22,3.54,4.51,7.07c1.53,2.34,3.09,4.68,4.66,7l4.85,7q5.33,8,11,15.89l2.86,3.92c1,1.32,1.9,2.53,3,4.07q3.09,4.38,6.29,8.7c3.53,4.77,7.06,9.37,10.44,13.61,3.44,4.56,6.79,8.94,9.75,12.64s5.6,6.92,7.67,9.39c1,1.22,1.93,2.28,2.65,3.14l5.88,7.11,0,0,0-.07-.09-.11-.15-.18c-.08-.11,0,0,.21.25l.08.12h0c-2.57-3.1,5.74,7-5.76-7h0l-.12-.14-.26-.3-1.16-1.37-3-3.58c-2.28-2.75-5.09-6.21-8.27-10.27-1.59-2-3.27-4.21-5-6.53s-3.53-4.57-5.36-6.92q-4.77-6.12-9.31-12.35-2.28-3.1-4.5-6.26l-1.1-1.55-1-1.4-2.06-2.81q-4.11-5.62-8-11.34l-3.88-5.74-1-1.44c-.32-.49-.59-.85-.89-1.28l-1.72-2.49q-3.45-5-6.74-10.06l-3.26-5.07-1.6-2.55-1.4-2.13q-2.77-4.26-5.44-8.56l-2.63-4.31-1.29-2.16c-.43-.71-.88-1.5-1.21-2l-2.11-3.45-.53-.86-.21-.36,0,0,.1.19.4.78c.18.52.28,1.07.42,1.65a9.94,9.94,0,0,1,.15,1.73,9.48,9.48,0,0,1,0,1.77,63,63,0,0,1-1.11,6.88,19.84,19.84,0,0,0-.34,2.93c0,.23,0,.49,0,.72l.08.61.09.65c0,.1,0,.24.07.31l1,3.25q1,3.58,2,7.22l.94,3.66.46,1.83.53,1.93q2.1,7.73,3.81,15.67c1.26,5.36,2.54,10.87,3.58,16.41l.77,4.18.86,4.21q.82,4.22,1.54,8.49a491.56,491.56,0,0,1,7.08,68.14q.42,8,.19,16.12c0,.7,0,1.33,0,1.94v1.89c0,1.25,0,2.52,0,3.78q-.09,3.8-.35,7.64c-.41,9.72-1.49,19.24-2.66,27.47-2.47,16.76-6.38,30-9.92,38.47.35-.86.66-1.72,1-2.57.45-1.09.9-2.25,1.29-3.36s.76-2.23,1.09-3.34l.47-1.66.64-2a83.75,83.75,0,0,0,2.09-8.13c0-.17.06-.32.11-.51l.15-.6.3-1.2.56-2.39c.35-1.58.66-3.17.93-4.74.41-2.93,1.22-6.79,1.7-10.33q.38-2.68.63-5.34l.11-1.33c.05-.45.13-1,.19-1.47l.36-3c.45-4,.68-7.86.85-11.85q.52-6.46.56-12.81v-3.16c0-1,.06-2.26.07-3.38,0-2.27,0-4.54,0-6.79s-.11-4.5-.22-6.74l-.09-1.67,0-1.77-.1-3.55q-.27-7.1-1-14c-.29-4.87-.72-9.71-1.28-14.49l-.44-3.57-.24-1.78-.19-1.84c-.27-2.45-.56-4.89-.89-7.32s-.68-4.84-1.07-7.24l-.6-3.6-.54-3.63q-1.1-7.27-2.54-14.38c-.52-2.37-.9-4.73-1.36-7.08s-.93-4.68-1.44-7-1-4.63-1.59-6.92c-.3-1.16-.5-2.27-.76-3.39l-.37-1.68,0-.06h0v.06c.1.21.2.45.32.69s.45.31.69.5.22.21.39.25l.51.16a14,14,0,0,0,5.37.6c.53,0,1.07-.08,1.63-.1l1.68-.24a12.59,12.59,0,0,0,1.7-.29c.56-.13,1.16-.19,1.7-.35a50.61,50.61,0,0,0,6-1.84c.23-.4.46-.78.71-1.14s.22-.7.35-1l.09-.22,0-.2,0-.37,0-.16v-.1h0l.06.09.1.16.86,1.29q3.42,5.14,7,10.22t7.19,10l.92,1.23,1,1.38,2,2.76,4,5.5q4,5.47,8.23,10.85l2.1,2.68,1.06,1.33,1.1,1.47q2.21,2.93,4.45,5.82,4.49,5.79,9.17,11.47,2.34,2.82,4.73,5.63l.3.35,5.76,7h0v0l0,0-.12-.15-.25-.31-.48-.62q-2-2.43-4-4.63c-.86-.94-1.72-1.84-2.59-2.71l-.17-.16-.2-.23-.42-.47-.85-.93-1.7-1.82q-3.42-3.6-7-6.77c-.16-.14-.28-.23-.47-.42l-.54-.54-1.08-1.06-2.19-2.08c-1.46-1.37-2.94-2.7-4.42-4s-3-2.54-4.5-3.76c-.69-.52-1.67-1.43-2.54-2.18l-2.7-2.3q-5.4-4.53-11-8.59l-1.39-1-1.6-1.26-3.22-2.49c-2.16-1.63-4.33-3.23-6.51-4.78s-4.38-3.06-6.59-4.53l-1.66-1.09-.83-.54-.93-.66-1.89-1.33-.94-.66c-.23-.16-.15-.11-.16-.12h0a.3.3,0,0,1,.19-.19l.09,0a1.16,1.16,0,0,0,.1-.22c.08-.16.16-.32.25-.47s.19-.3.3-.44l.17-.21.08-.1s.06-.14.1-.2c.24-.55.52-1.09.81-1.62.15-.26.31-.52.47-.77l.49-1.15c.34-.76.7-1.52,1.08-2.26a12.57,12.57,0,0,0,.56-1.36l.59-1.47.6-1.46a15.84,15.84,0,0,0,.62-1.56l1.24-3.54.65-1.76.62-2.05,1.28-4.11c.1-.35.21-.66.32-1l.3-1.17.62-2.32c.41-1.57.84-3.06,1.24-4.7l1.17-5.15c.38-1.73.78-3.39,1.13-5.34.71-3.79,1.45-7.37,2-11.55a397.19,397.19,0,0,0,4.5-55.73c.23-18,.12-36.64-.19-56.2s-.82-40-1.25-62.19c-.2-11.15-.4-22.59-.46-34.89,0-3.08,0-6.17,0-9.26s0-6.46,0-9.7l0-4.9v-3.67l0-1c-.08-2.66-.17-5.32-.25-8q-.27-8-.54-16.06t-.64-16.37c-.45-10.92-1-22.2-1.51-33.57-3.21-64.22-7-127.66-6.55-192.61.22-32.51,1.5-65.38,4.43-98.9,1.44-16.73,3.37-33.71,5.73-50.79q.95-6.44,1.89-12.89c.34-2.15.67-4.3,1-6.45l.51-3.23.26-1.62.41-2.29c2.47-13.72,4.24-22.39,4.93-26v-.22l0-.11v-.22a3.05,3.05,0,0,1,0-.43,2,2,0,0,1,.1-.41,1.13,1.13,0,0,1,.07-.18l0,0a.58.58,0,0,0,.14.08l18.44,3.4,18.75,3.39,18.64,3.3,9.27,1.61,5.93,1.1q11.21,2.07,22.26,4,22.11,3.89,43.46,7.25l5.3.84,3.56.61,7.07,1.19,13.91,2.22q13.74,2.13,26.8,3.89c6.23,1,12.3,1.84,18.15,2.63s11.51,1.47,16.93,2.08l12.13,1.5q5.55.63,10.5,1.11l4.79.43,2.27.2,1.7.18c8.81.93,14.79,1.26,17,1.4s.55.06-4.43-.29c-2.48-.17-5.78-.43-9.81-.83l-3.15-.32-.83-.09-.43,0-.55,0-2.26-.19c-3.06-.27-6.34-.58-9.82-1s-7.17-.8-11-1.29l-2.94-.39-.75-.09-.85-.11-2-.23-8.29-1c-5.65-.7-11.54-1.48-17.63-2.37l-9.53-1.42L941,1124.79q-13.56-2-27.91-4.36l-7.21-1.21-1.82-.32-2.61-.41-5.44-.86q-10.9-1.74-22.07-3.61-22.32-3.75-45.57-8.09l-9.18-1.61-2.4-.42-.3-.05-.14,0h0l0,0,.12.1a1.45,1.45,0,0,1,.17.19l.25.21.06.05,0,.16.08.3.34,1.21.08.31,0,.5.08,1,.09,1,0,.5,0,.25v4.47l-.07,1.76-.15,3.5,0,.44,0,.53-.08,1.06-.14,2.12-.14,2.13-.08,1.06L817,1128l-.41,5-.1,1.25,0,.63v.44l0,1.72-.07,3.45-.29,13.75c-.21,9.19-.3,18.25-.41,27.33l-.15,13.6-.06,13.49c-.16,36,.15,71.32.58,106.11.86,69.58,2.23,136.93,1.57,202.58q-.24,24.62-.9,48.93l-.17,6.09-.09,3-.08,1.71-.09,1.82q-.37,7.23-.74,14.47-.6,13.64-1.19,27.3c-.72,17.61-1.39,34.26-2.2,50.29s-1.76,31.18-3,45.94-2.68,28.72-4.45,42.25c-.47,3.33-.93,6.66-1.4,10s-1,6.45-1.53,9.68l-.8,4.81-.85,4.63-.87,4.64-.44,2.32-.47,2.22c-.63,3-1.27,5.92-1.9,8.88s-1.37,5.64-2.05,8.47c-.35,1.39-.68,2.86-1,4.18l-1.12,4-1.11,4-.57,2-.59,1.85-2.37,7.43q-1.26,3.42-2.5,6.84l-.62,1.71c-.21.59-.44,1-.65,1.58l-1.3,3.1-1.29,3.1c-.43,1-.89,1.85-1.32,2.79l-2.24,4.7q-1.14,2-2.19,4.07l-.53,1a8.46,8.46,0,0,1-.52,1l-1,1.68-1,1.69a12.85,12.85,0,0,1-1,1.58c-.64.88-1.24,1.76-1.82,2.65l-.42.68c-.14.2-.29.32-.42.48-.28.31-.54.63-.8,1s-.51.63-.75,1c-.11.14-.23.38-.35.44l-.33.27a10.08,10.08,0,0,0-1.19,1.16c1.74,1.11,3.46,2.21,5.2,3.38,3.46,2.34,6.73,4.71,9.73,7s5.73,4.48,8.13,6.67c.32-.22.65-.33,1-.61s.72-.69,1.1-1a19.1,19.1,0,0,0,2.53-2.19c.89-.95,1.86-1.76,2.88-2.76q1.51-1.77,3.19-3.49a240.89,240.89,0,0,0,15.06-19.39c.67-13.67,1.11-29.16,1.63-45.85s1.11-34.7,2.26-53.79,2.86-39.33,5.72-60.81a664.77,664.77,0,0,1,12.8-68.92c1-4.28,2.12-8.43,3.28-12.74s2.35-8.65,3.58-12.93,2.57-8.82,3.91-13.19c.69-2.24,1.39-4.47,2.08-6.7l2.16-6.76c1.5-4.79,2.82-8.22,4.24-12.06s2.84-7.52,4.3-11.25c2.92-7.45,5.9-15,9-22.35,12.27-29.69,25.63-59,38.74-89,3-80.78,3.39-163.74,10.71-249.65a6.67,6.67,0,0,1,4.87-7.47c3.15-.67,5.75,1.68,6.18,5.27,8.12,61.38,12.79,121.78,16.36,181.59,10.9-7.64,24-11.12,37.3-8.26,13.81,2.92,25.09,12,32.17,24.07,2.46-13,4.64-26,7.23-39,1.8-8,8.2-13.51,15-12.17,7.49,1.4,11.81,8.68,10.38,16.33q-14,79.08-27.88,158l-.9,24q-.51,11.94-1,23.88t-1.17,23.81l-.65,11.88-.73,12.33c-1,16.83-1.89,33.24-2.74,49.32s-1.73,32-2.75,47.63a75.46,75.46,0,0,1,36-13,.82.82,0,0,1,.23,0c1.2-9.77,2.24-19.58,3.37-29.41-.38-5.81-.74-11.59-1-17.46l-.47-8.78-.39-8.86c-.27-5.89-.45-11.88-.62-17.88q-.25-8.68-.51-17.39c-.63-22.95-1.07-46-1.2-69-.27-46.15.59-92.5,3.21-139.17s7-93.58,13.69-140.66c1.65-11.76,3.51-23.54,5.47-35.31,1-5.88,2-11.78,3.1-17.67l1.63-8.83.83-4.41,1-4.88c1.34-6.72,2.65-12.69,3.79-18s2.11-9.68,2.88-13.39,1.31-6.64,1.69-8.69.56-3.09.8-3.31t.09-.06c.16,0-.09,0,.89,0,1.41,0,2.68-.12,3.77-.21s2-.16,2.59-.23l1-.1-.18,0-.27,0h.2c.69-.06,1.32-.09,1.84-.1a10.41,10.41,0,0,1,1.21,0l.31.06a.12.12,0,0,1,0,.17c-.26.87-.54,2.92-1.11,6.14s-1.41,7.57-2.55,12.92l-4.11,19-1.18,5.66-1.19,6-2,10.63q-7.89,42.55-13.06,85.06l.19-.2a5.21,5.21,0,0,1,7.82,1.13c1.66,2.5.94,6.93-1.3,8.84a5.19,5.19,0,0,1-7.78-1.07c-6.26,52.78-9.76,105.38-11.3,157.63s-1.16,104.2.33,155.9c12-93.64,23.84-188.17,45.73-281.7-2.27-11-4.64-21.93-6.62-33.09a7.21,7.21,0,0,1,5.42-7c2.75-.34,5.64,2.31,5.87,5.36.4,3.07,1,6.13,1.48,9.2a36.06,36.06,0,0,1,13.7-20.84,29.26,29.26,0,0,1,22.78-5.15,30.53,30.53,0,0,1,19.32,14.51,35.45,35.45,0,0,1,4,25.24c-5.11,49.88-11.17,99.35-18,148.74l.48,16.44c1.75,5.79,3.57,11.53,5.44,17.31,18.47-75.61,38.29-150.76,60.26-224.34,1-6.47,6.76-11.1,12.65-10.17s9.89,7,8.88,13.46c0,68-.56,136.18-2.77,205q-1.67,51.65-4.68,103.77-1.54,26.07-3.52,52.26l-1,12.92-.86,12.23-1.74,25.1c9.4,23.88,18.9,48.47,28,74s17.75,52,25.46,79.82c1.69-6.38,3.11-12.7,4.32-19.14a464.2,464.2,0,0,0,6.64-59.26,552.57,552.57,0,0,0-.25-55.31c-.23-4.43-.5-8.89-.82-13.18q-.26-3.26-.5-6.49c-.19-2.14-.37-4.28-.56-6.42-.38-4.19-.8-8.48-1.24-12.6s-.93-8.24-1.39-12.35q-1.23-13.63-2.72-27.21t-3.2-27c-9-71.85-20.73-142.28-16.74-214.36a5.88,5.88,0,0,1,5.86-6.19,5.55,5.55,0,0,1,5,6.58c-1.27,70.7,14,138.13,20.1,211.17q1.9,22.82,3.76,45.08c1.11,15.67,2.85,27.75,4.58,41.6.45,3.45.9,6.91,1.34,10.35s1,7,1.42,10.45,1,7,1.48,10.54,1,7.16,1.55,10.73,1.09,7.21,1.63,10.81,1.14,7.27,1.71,10.89,1.19,7.39,1.78,11.07,1.25,7.44,1.88,11.16c.37-3.71.68-7.32,1-10.93s.55-7.23.79-10.83l.6-10.63.26-5.32.2-5.21c.1-3.47.21-6.94.31-10.41l.18-10.18.05-5.09v-5l0-9.91c-.06-6.37-.18-13-.34-19.06l-.12-4.65-.07-2.33,0-2.61c0-3.52-.07-7-.1-10.56-.16-14.1-.56-28.09-1-42.09-.93-27.92-2.18-55.66-3-83.26s-1.32-55-.63-82.35a12.42,12.42,0,0,1,5.13-11.85,6.24,6.24,0,0,1-3.72-3.28,167.72,167.72,0,0,1-7.3-22.5c-1.93-7.64-3.43-15.43-4.65-23.21a6,6,0,0,1,4.43-7.39C1308.52,1368.75,1311.18,1371,1312.4,1374.39ZM959.32,1513.72l4.31-.17c-3,1.22-6.21,2.55-9.73,4.06l-3.37-.34c-3.37-.32-10.09-1-23.64-2.22C926.89,1515.05,943,1514.12,959.32,1513.72Zm16.52-180.18-.06.08,15.37,2.19ZM738.1,1937.64c1.63,26.92.52,51.95-2.65,71.84l-.35,1.93c-.11.63-.28,1.35-.33,1.87-.16,1.11-.34,2.24-.54,3.36-.4,2.26-.89,4.52-1.45,6.8l-.43,1.69-.3,1.44c-.21,1-.43,1.93-.68,2.89-.5,1.94-1.07,3.89-1.73,5.84-.44,1.61-.9,3.17-1.46,4.78-.27.8-.57,1.6-.88,2.4l-.49,1.21c-.16.4-.22.63-.34,1-.43,1.22-.93,2.45-1.49,3.7-.28.62-.58,1.25-.89,1.88l-.11.23-.07.16-.14.32-.28.64c-.4.87-.85,1.75-1.36,2.65-.65,1.08-.72,1.31-1.06,1.89s-.65,1.05-1,1.61l-.07.1-27.24,40.74.06-.1.27-.42.53-.79c.36-.52.74-1,1.11-1.48l.58-.68.14-.16.21-.27.41-.53c.55-.7,1.11-1.37,1.69-2s1.17-1.25,1.76-1.82a6.27,6.27,0,0,0,.53-.57l.58-.62c.39-.41.78-.82,1.17-1.21.79-.79,1.59-1.55,2.41-2.27q.62-.54,1.23-1c.19-.14.46-.42.71-.65l.75-.69a72.63,72.63,0,0,1,6.22-5.07l.4-.28.47-.38.93-.75,1.89-1.45q1.89-1.43,3.83-2.73l1.95-1.28c.33-.22.64-.39,1-.64l1.11-.79c1.5-1,3-2,4.52-3s3.05-1.87,4.59-2.75l1.16-.65.59-.32.65-.41,2.6-1.57q5.24-3.08,10.6-5.68c3.85-2.08,7.88-4.15,11.87-6l3-1.36c1-.46,2-.83,3.11-1.4q3.3-1.58,6.63-3c2.22-1,4.44-1.91,6.68-2.81s4.4-1.68,6.9-2.77q7.27-3,14.64-5.63Q795,2035,787.91,2038l-1.77.74c-.6.26-1.18.51-1.72.7l-3.28,1.28q-3.27,1.32-6.52,2.73c-2.17.94-4.32,1.92-6.47,2.94l-1.61.77c-.53.25-1,.43-1.5.65l-2.94,1.32q-5.88,2.68-11.64,5.8l-.72.39-.65.32-1.3.65-2.6,1.33c-1.73.91-3.44,1.85-5.15,2.83l-2.55,1.5-1.26.78c-.43.26-.85.53-1.21.72q-2.26,1.25-4.5,2.61c-1.49.91-3,1.86-4.43,2.84l-2.18,1.51-.54.38-.48.3-.95.61q-3.8,2.48-7.45,5.38c-1,.84-1.75,1.34-2.56,2s-1.59,1.22-2.37,1.87-1.56,1.31-2.33,2l-1.14,1.05c-.19.17-.39.38-.55.52l-.47.39q-1.87,1.58-3.66,3.39c-.59.61-1.18,1.23-1.75,1.88-.46.44-.91.88-1.35,1.36a36.78,36.78,0,0,0-2.58,3l-.31.4-.22.26-.43.51c-.29.35-.57.71-.85,1.09s-.55.78-.82,1.19l-.2.31-.1.16,0,.08,0,0v0l27.21-40.71.22-.31c.29-.42.55-.83.79-1.22s.45-.78.63-1.16l.25-.43.3-.51.55-1c.36-.67.68-1.33,1-2l.21-.49a4.08,4.08,0,0,1,.26-.56l.68-1.42c.43-1,.83-1.89,1.19-2.82l.52-1.39.24-.69.37-.92a65.72,65.72,0,0,0,2.41-7.22,206.3,206.3,0,0,0,7.87-41.75q.35-3.21.54-6.39c.15-2.16.15-4.12.37-6.54q.5-7,.44-13.79c0-1.09,0-2.39,0-3.6l0-3.68c0-2.45,0-4.88-.12-7.31C738.45,1948,738.44,1942.67,738.1,1937.64Zm353.51-455.95a163.3,163.3,0,0,1-27.54,2.91c-4.66.13-9.36.12-14.09,0q-3.54-.08-7.1-.21l-7.05-.28a71.92,71.92,0,0,1-12.79,24.69c-3.85,5-7.64,9.91-11.55,14.75q-2.93,3.63-5.9,7.21c-2,2.38-4,4.74-5.92,7.11q-5.82,7.06-11.84,13.95l-12.06,13.62c8.89,1.8,5.12,6.13,4.52,9.13-.89,2.93-1.9,5.75-2.77,8.65q6.79-6.91,13.65-13.73c2.25-2.28,4.69-4.52,7.05-6.78l7.15-6.74,7.18-6.71c2.41-2.23,4.79-4.46,7.32-6.68q7.48-6.6,15-13.25,3.39-3,6.73-6.1l6.86-6.27c4.57-4.21,9.12-8.47,13.73-12.63s9.44-8.23,14.3-12.06A169.11,169.11,0,0,1,1091.61,1481.69Zm87.88-168c1.33.08,2.52.15,3.91.14l6.63,12.05Zm-11.59-20c-1.26.63-2.57,1.22-3.91,1.94C1161.21,1291.52,1163.37,1291.62,1167.9,1293.69Zm-35.54,18.18c4,.46,6.46.75,8.58.3ZM821.49,1098.64q20.22,26,40.61,51.78-19-25.55-37.75-51.31Z"/><path class="cls-2" d="M528.65,877.71c.74,1.38,1.37,2.79,2.11,4s1.37,2.39,1.94,3.37l1.85,3.26c.78-.45,1.48-1,2.24-1.54C533.9,883.5,531,880.61,528.65,877.71Z"/><path class="cls-2" d="M493.61,881c.59,1.29,1.19,2.61,1.79,3.91a9,9,0,0,1,1.64-1.72A34.16,34.16,0,0,1,493.61,881Z"/><path class="cls-2" d="M536.86,886.79c4.11-2.93,7.73-6.69,11.81-9.65s8.59-5.18,14.26-5.33c1.36,2.62,3.9,6.3,6.22,10.1l.88,1.42c.3.47.64.92,1,1.37l1.84,2.62,3.1,4.48c4,.83,6.21-.86,8-3,.88-1.1,1.65-2.34,2.48-3.5a13.69,13.69,0,0,1,2.88-3.08c3.4,4.5,6.85,9,9,7.3,2.28,0,3.86-.68,4.8-1.87a5,5,0,0,0,1-2.18c0-.21.07-.44.1-.65a5.18,5.18,0,0,0,.17-.56,7.59,7.59,0,0,0,.23-1.19,14.5,14.5,0,0,0-.5-5.53,49.67,49.67,0,0,0-2.51-6.5,52.3,52.3,0,0,1-7.18-.64c-1.21-.19-2.46-.4-3.66-.67s-2.35-.6-3.53-.95c-2.37-.69-4.75-1.5-7.13-2.38-1.22-.43-2.32-.93-3.45-1.44l-3.37-1.56-3.35-1.61c-1.1-.55-2.23-1.09-3.24-1.68l-6.09-3.41-3-1.6c-1-.52-1.83-1.07-2.72-1.57-1.77-1-3.48-1.91-5.11-2.68a33.35,33.35,0,0,0-4.61-1.81,13.14,13.14,0,0,0-3.89-.7,6.31,6.31,0,0,0-5.79,3.47C532.7,856.61,531.83,867.34,536.86,886.79Z"/><path class="cls-2" d="M494,845.53l3.23,9c.49,1.51,1.16,2.94,1.75,4.42l1.79,4.4c.61,1.46,1.18,2.94,1.81,4.39l2,4.31,2,4.32,1,2.16c.33.72.72,1.41,1.07,2.11,3.73.36,7.57,1,11,.68s6.31-1.46,8.28-4.51c-1.56-1.78-3.09-3.46-4.61-5.06s-2.81-3.2-4.21-4.68-2.77-2.89-4.16-4.23-2.63-2.69-4-3.94-2.67-2.46-4-3.61l-4.12-3.38A104.44,104.44,0,0,0,494,845.53Z"/><path class="cls-2" d="M964.29,502.22c.56.62.88,1.2.33,1.88s-2.09,1.4-5,2.33l2.44-2.12,1.17-1,1.11-1.07c-1-1.21-2.78-2.69-1.45-5.26l-2.54,3.15-2.8,3.1c-.92,1.09-2,2-3,3.09L953,507.86l-1.65,1.49a107.43,107.43,0,0,1-14.64,11.34C926.05,527.57,913.79,533,902,535.35c-1.31,1.71-2.63,3.3-4,5-.68.86-1.35,1.63-2,2.42l-2,2.38c15.61-1.54,32.18-6.9,46.94-15.08s27.93-19,37.36-31.09a82.22,82.22,0,0,0,11.12-18.61,56.1,56.1,0,0,0,4.47-18.22,40.87,40.87,0,0,0-2.07-15.88l-.28-.9-.36-1c-.25-.66-.46-1.35-.74-2l-.81-1.84c-.27-.61-.6-1.14-.89-1.7a22.14,22.14,0,0,0-4-5.38,57.71,57.71,0,0,1,2,8.15c.13.76.29,1.5.37,2.32l.17,1.19.09.6,0,.5c0,.67.12,1.34.2,2l.13,1v1a56.37,56.37,0,0,1-1.5,16.29C983.55,477.77,976.81,490.38,964.29,502.22Z"/><path class="cls-2" d="M889.39,561.85l-1.88.08-1.83,0-3.68-.06c3.25,1.3,5.14,1.81,6.16,1.66S889.37,562.7,889.39,561.85Z"/><path class="cls-2" d="M1043.92,777.15c14.87-15.39,26.47-32.71,35.87-50.63s16.64-36.57,23-55.47a445.16,445.16,0,0,1-31,53.06,416.71,416.71,0,0,1-36.12,45.82,373.61,373.61,0,0,1-38,36.35q-9.47,7.83-18.68,14.46c-3.07,2.23-6.09,4.34-9.12,6.36s-6,4-9,5.91l10.89-4.94,5.36-2.7,5.34-2.86q10.67-5.87,21.09-12.94A339.12,339.12,0,0,0,1043.92,777.15Z"/><path class="cls-2" d="M1141.39,482c-8.28,24.54-14.8,47.18-20.41,69s-10.31,42.73-15.38,63.34a607.31,607.31,0,0,0,37-120.08c-.17-2-.35-4.11-.53-6.18S1141.68,484,1141.39,482Z"/><path class="cls-2" d="M1141.86,542.89c-7.92,23.23-14.43,45-20.51,66.21s-11.84,41.73-18.6,61.95C1123.65,629.13,1137.35,584,1141.86,542.89Z"/><path class="cls-2" d="M594.37,382.26q3-4.25,5.77-8.28c1.91-2.67,3.86-5.15,5.73-7.62,3.78-4.9,7.35-9.66,11-13.82s7-8.22,10.29-12,6.53-7,9.56-10.12c1.53-1.56,3-3.08,4.43-4.55s2.88-2.76,4.26-4.07c2.76-2.61,5.37-5,7.8-7.22l3.54-3.16c1.16-1,2.28-1.9,3.36-2.78,2.15-1.76,4.15-3.34,6-4.77,2.29-3.9,5-8.49,8.46-13.48,1.72-2.53,3.59-5.23,5.64-8.11s4.26-6,6.75-9.11c-2.77,1.59-5.65,3.44-8.34,5.15a552.2,552.2,0,0,0-64.78,57.4,500.67,500.67,0,0,0-56,69.38l-4.55,8.07c-1.46,2.71-2.82,5.48-4.19,8.19s-2.67,5.41-4,8.08c-.64,1.34-1.28,2.66-1.89,4l-1.74,4.06c-2.28,5.37-4.41,10.61-6.33,15.72s-3.42,10.27-4.84,15.12l7-11.84c1.15-2,2.43-3.86,3.66-5.77l3.73-5.71c4.91-7.7,10.29-14.89,15.57-22.18,1.31-1.84,2.69-3.59,4.07-5.34l4.15-5.24,4.15-5.23,2.09-2.6,2.15-2.52C582.67,395.27,588.37,388.52,594.37,382.26Z"/><path class="cls-2" d="M666.07,303.92c-2.43,4.2-4.29,7.68-5.67,10.54a50.63,50.63,0,0,0-2.78,6.94c-1,3.49-.62,4.79.69,4.59s3.51-1.9,6.11-4.43a113.35,113.35,0,0,0,8.63-9.12c5.82-7,11.49-14.16,11.94-17.34.22-1.56-.86-2.07-3.84-.86a43.77,43.77,0,0,0-6,3.18C672.66,298.94,669.68,301.17,666.07,303.92Z"/><path class="cls-2" d="M643.67,631.08c-.11.87-.27,1.74-.34,2.63l-.21,2.66c.09,2.56.17,5.17.26,7.77l.06,1.94c0,.65.12,1.29.18,1.94.12,1.28.25,2.57.37,3.84-.11-1.77-.23-3.51-.34-5.24s0-3.44,0-5.16l0-5.17c0-.86,0-1.73,0-2.6S643.64,632,643.67,631.08Z"/><path class="cls-2" d="M916.48,974.77a367.5,367.5,0,0,1-120.72-4.07A318.54,318.54,0,0,0,857.33,979a312.18,312.18,0,0,0,60.24-3.66l7.27-1.17c2.4-.43,4.78-1,7.15-1.48l7.08-1.55,3.52-.79,3.46-1c4.6-1.28,9.17-2.51,13.65-3.88s8.84-3,13.17-4.52c2.18-.73,4.29-1.62,6.39-2.48l6.27-2.59c2.06-.88,4.13-1.72,6.15-2.63l6-2.89,5.86-2.9,2.88-1.45c1-.49,1.88-1.05,2.81-1.56q5.58-3.16,10.93-6.33a102.18,102.18,0,0,1-14.06,4.58,117.24,117.24,0,0,0-14.25,3.89c-2,1.54-4.32,3-6.73,4.43s-5,3-7.67,4.5-5.56,2.94-8.55,4.34-6.11,2.78-9.33,4.15-6.61,2.43-10.06,3.59-7,2.32-10.6,3.13-7.32,1.69-11,2.42c-1.86.4-3.75.64-5.64.89S918.38,974.57,916.48,974.77Z"/><path class="cls-2" d="M764.75,414.22a345.49,345.49,0,0,0-51.41,46.36,298.85,298.85,0,0,0-39.07,54.66l-2,3.59-1.85,3.68-3.67,7.34c-.64,1.2-1.16,2.46-1.71,3.71l-1.63,3.74L661.75,541c-.53,1.24-1.12,2.46-1.56,3.74l-2.85,7.56-1.41,3.76-1.21,3.83-2.4,7.61c-.43,1.25-.72,2.55-1.06,3.83l-1,3.84a221.64,221.64,0,0,0-7.16,61.18,227.7,227.7,0,0,0,2.53,60.32c.33,2.49,1,4.94,1.48,7.4s1.08,4.92,1.61,7.37c.24,1.24.61,2.44,1,3.66l1,3.64c.68,2.42,1.35,4.84,2,7.26,1.6,4.78,3.27,9.53,4.89,14.28l2.84,6.9,1.4,3.44.71,1.72c.23.57.52,1.11.78,1.67a222.19,222.19,0,0,0,30.89,49.49l2.26,2.8L699,809l4.83,5.31c.4.43.79.89,1.21,1.31l1.28,1.25,2.56,2.5c1.71,1.65,3.38,3.34,5.11,5l5.37,4.66c1.78,1.55,3.52,3.14,5.43,4.53,3.76,2.86,7.36,5.86,11.3,8.41a207.06,207.06,0,0,0,101.19,36.64,205.88,205.88,0,0,0,51.28-1.89,198.51,198.51,0,0,0,47-13.85,362.61,362.61,0,0,0,39.94-21.19,323.15,323.15,0,0,0,41.07-30,371.17,371.17,0,0,0,40-40,417.56,417.56,0,0,0,35.83-48.36,437.08,437.08,0,0,0,29.2-53.9,411.43,411.43,0,0,0,20.68-56c10.67-37.27,14.72-73.46,11.67-104-4.4,11.59-8.38,22.73-12.05,33.51a249.18,249.18,0,0,0,.78-48.62,540.48,540.48,0,0,0,9-67.26c.77-11,1.16-21.95,1.16-32.66s-.45-21.22-1.25-31.43a299,299,0,0,0-9.74-56.79,208,208,0,0,0-8.23-23.9c-1.56-3.64-3.12-7.2-4.83-10.49s-3.41-6.48-5.18-9.47l-1.34-2.21c-.44-.74-.92-1.41-1.37-2.12-.88-1.45-1.87-2.72-2.76-4.09l-1.43-1.93c-.46-.65-.93-1.29-1.42-1.88s-1-1.21-1.43-1.83-1-1.15-1.47-1.74l-.71-.87-.76-.82-1.46-1.66c-1-1-2-2.14-3-3.1-2-2.05-4.11-3.86-6.21-5.66-.54-.43-1.07-.86-1.6-1.31s-1.1-.82-1.64-1.25c-1-.88-2.23-1.61-3.32-2.44-2.31-1.52-4.58-3.09-7.08-4.45a110.38,110.38,0,0,0-16.29-7.65c-.72-.31-1.52-.56-2.29-.83l-2.33-.84-2.43-.76c-.8-.27-1.6-.54-2.46-.76-1.69-.47-3.34-1-5.13-1.41L1053,212l-2.74-.61a191.35,191.35,0,0,0-24-3.78,272.9,272.9,0,0,0-27.52-1.24c-2.44,0-4.84,0-7.36.1l-3.73.11-.94,0c-.3,0-.61,0-1,.05l-2.17.13-17.34,1c-1.73.05-3.35.31-5,.51s-3.23.46-4.8.72c-3.16.53-6.22,1.13-9.22,1.79s-5.84,1.55-8.68,2.38l-8.38,2.64-4.16,1.3L922,218.54c-2.71,1-5.44,1.91-8.23,2.78-5.66,1.61-11.17,3.55-17.3,4.83l-4.61,1.06c-1.54.35-3,.84-4.49,1.25L878.45,231c-1.47.44-3,.78-4.41,1.28l-4.27,1.46-8.54,2.84c-1.45.43-2.81,1-4.17,1.53l-4.1,1.62-8.2,3.16-7.88,3.55-4,1.73c-.65.29-1.33.55-2,.87l-1.9,1a2.09,2.09,0,0,0,1.49,1.3A294.48,294.48,0,0,0,773,289a325.11,325.11,0,0,0-47.9,51.59c-29,39.4-53,88.59-71.25,145.83q-1.73,5-3.52,9.93c-.61,1.64-1.18,3.32-1.75,5l-1.72,5.07-3.54,10.1c-1.2,3.36-2.29,6.85-3.46,10.26l-3.53,10.27c-1.16,3.44-2.26,7-3.41,10.44L629.45,558l-3.34,10.48c-4.38,13.94-8.47,27.68-12.09,41.22s-6.68,26.82-9.13,39.86c-3.49,19.42-14.13,17.63-18.61,30.22-5.06,12.42-9.19,23.9-12.7,35.07-1.85,5.63-3.27,11-4.77,16.54-.64,2.72-1.28,5.43-1.93,8.15l-.47,2-.39,2-.78,4.06c-4,21.68-5.08,43.67-.38,67.86L557,818c.41.89.78,1.78,1.14,2.66.18.44.35.87.52,1.31l.56,1.26q1.1,2.5,1.94,4.9c1,3.24,2.14,6.12,2.74,8.91a54.77,54.77,0,0,1-7-2.48l-1.75-.77c-.57-.28-1.12-.58-1.68-.88-1.11-.6-2.23-1.23-3.34-1.9-2.21-1.34-4.45-2.77-6.59-4.33s-4.13-3.26-6.16-5l-3-2.57-2.8-2.65-5.43-5.2c-3.44-3.4-6.53-6.6-9.49-9-5.72-5-10.45-7.13-14.2-2.61a17.75,17.75,0,0,0-2.59,4.72,45.85,45.85,0,0,0-1.89,7.51c-.27,1.51-.52,3.16-.74,5s-.28,3.68-.39,5.75-.15,4.28-.18,6.66.15,4.85.27,7.53l-.08,0c-1.11-2.06-2.2-4-3.26-5.91s-1.94-3.77-2.91-5.58l-.37-1.36c-.08.07-.19.1-.26.16-2.5-4.44-4.54-8.6-6.75-12.36s-4.18-7.28-6.37-10.53c-1.07-1.63-2.19-3.2-3.3-4.73s-2.17-3.06-3.31-4.53-2.34-2.93-3.58-4.37l-3.81-4.3a381.56,381.56,0,0,0,7.4,40.05c-4.29-1.58-8.42-2.38-11.84-.1-1-1-1.95-1.94-2.94-3.11-.67-3.06-1.4-5.83-1.74-7.91s-.63-3.35-.63-3.35a25.87,25.87,0,0,0-7.07-3.38l-1.74-3.34c-.57-1.14-1.07-2.31-1.61-3.49-1.06-2.37-2.11-4.83-3.15-7.33s-2-5.08-2.94-7.69-1.83-5.26-2.76-7.89c-1.71-5.31-3.26-10.66-4.8-15.84-1.37-5.19-2.76-10.21-4-14.88s-2.36-9-3.54-12.71a69.23,69.23,0,0,0-3.35-9.32c-2.29-4.82-4.79-6.58-7.67-3.6-1.49,2.31-2.31,5.91-2.67,10.53a114.23,114.23,0,0,0,.63,16.62c1.48,12.74,4.61,28.34,8.49,44.63a42.29,42.29,0,0,0-1.7,7c-.57-2.69-1.18-5-1.73-7.1a55.06,55.06,0,0,0-1.56-5.29,16.5,16.5,0,0,0-3.28-6c-2.24-2.28-4.56-1.51-6.82-.14s-4.44,3.32-6.43,3.25a3.52,3.52,0,0,1-2.82-2,12.7,12.7,0,0,1-1.25-2.76,36.58,36.58,0,0,1-1-4.28c-1.63-18.37-2.87-36.7-3.12-55a434.54,434.54,0,0,1,2.29-54.55c2-18.34,4.75-36.12,7.9-53.48s6.7-34.29,10.66-50.85,8.15-32.84,12.6-48.88c2.28-8,4.49-16,6.92-23.9q1.77-5.94,3.55-11.88L433,469.4l1.89-5.91c9.91-31.58,20.89-62.95,33.74-94.56a874.83,874.83,0,0,1,45.54-95.67q2.39-4.26,4.77-8.48c.78-1.42,1.62-2.8,2.48-4.18l2.55-4.15a491.34,491.34,0,0,1,64.55-84.71c3-3.29,6.2-6.34,9.37-9.45l9.57-9.25c.79-.78,1.61-1.53,2.45-2.26l2.51-2.2,5-4.4,5-4.38,2.53-2.19c.83-.73,1.69-1.45,2.58-2.13l10.55-8.27c3.53-2.74,7-5.53,10.75-8l11.07-7.71c1.86-1.26,3.67-2.6,5.6-3.78l5.75-3.58q-2.1,3.07-4.34,6.15c-1.48,2.06-2.9,4.24-4.4,6.34A635,635,0,0,1,737.34,74L747,69.34c1.62-.76,3.21-1.62,4.86-2.31l4.91-2.15,9.82-4.35c3.27-1.45,6.51-3,9.85-4.27,6.62-2.66,13.23-5.42,19.85-8.17q10-3.73,20.05-7.66A612.7,612.7,0,0,1,917.53,11.78c4.3-1,8.61-1.62,12.92-2.36l13-2.18,6.51-1.07,6.5-.84,13-1.66c4.39-.52,8.62-1.15,13.27-1.52l6.85-.62c2.28-.21,4.6-.33,6.9-.49l6.93-.45,7-.28c4.65-.22,9.37-.24,14.08-.3a393.72,393.72,0,0,1,57.8,3.85c2.45.31,4.91.74,7.37,1.14s4.92.79,7.38,1.27c4.94,1,9.88,1.91,14.83,3.11s9.91,2.45,14.87,3.79c2.48.67,5,1.46,7.43,2.2l3.72,1.14,3.71,1.24a301.26,301.26,0,0,1,29.5,11.53,288.14,288.14,0,0,1,28.74,14.9c4.72,2.73,9.32,5.72,13.92,8.71l6.79,4.71c2.28,1.56,4.45,3.26,6.68,4.9a293.45,293.45,0,0,1,25.42,21.56,327.17,327.17,0,0,1,44.42,53,365.38,365.38,0,0,1,32,58.82c4.36,10.07,8.26,20.23,11.78,30.43s6.53,20.45,9.26,30.72,5,20.54,7.07,30.82c1,5.14,1.91,10.28,2.81,15.42s1.63,10.28,2.3,15.41c5.57,41.08,6.59,81.93,4.34,122.48a796.35,796.35,0,0,1-16.4,121.1c3-16.58,5.35-33.24,7.33-50s3.49-33.52,4.52-50.44,1.64-33.93,1.71-51.11-.3-34.5-1.29-52c-.58-31.5-4-63.44-11.25-94.33a732.28,732.28,0,0,1,11.25,94.33,660.91,660.91,0,0,1-4.73,89.66c-3.41,29.28-8.27,57.79-13.62,85.31s-11.2,54.08-16.62,79.64-10.46,50.13-14.2,73.84c-6.24,8.16-8.74,7-12.91,15.67-7.43,15.27-15.52,30.26-24,44.91s-17.33,29-26.26,43c-17.86,28.08-36.19,54.81-52.85,81.32,1,.93-3.72,7.1-7.46,12.52s-6.49,10.14-.87,8.29a462.47,462.47,0,0,1-35.14,35.19,490.45,490.45,0,0,1-41.5,33.56l-5.56,4-5.67,3.91c-3.75,2.63-7.68,5.12-11.52,7.66-7.82,5-15.72,9.85-23.85,14.43s-16.34,9-24.59,13.06l-6.15,3.09c-1,.5-2,1-3.07,1.52l-3.12,1.42-12.33,5.64c-28.59,12.11-58,24.25-89.51,34.18a407.38,407.38,0,0,1-202.79-18c-4.13-1.49-8.26-3-12.39-4.56s-8.16-3.39-12.23-5.12l-6.1-2.63c-2-.86-4-1.89-6-2.83q-6-2.9-12-5.87c-2-1-4-2.05-5.92-3.12l-5.88-3.23-5.87-3.28-2.93-1.66L652,998.43c-7.64-4.74-15.36-9.42-22.71-14.73-3.7-2.61-7.44-5.19-11.08-7.91s-7.18-5.58-10.76-8.41l-5.36-4.27-5.18-4.48q-5.19-4.51-10.33-9.1c-3.36-3.13-6.63-6.36-9.93-9.58s-6.61-6.43-9.7-9.86-6.27-6.8-9.38-10.24l-2.32-2.59L553,914.6l-4.43-5.36-4.41-5.4c-1.45-1.81-3-3.6-4.32-5.48q-4.17-5.58-8.27-11.25c-1.36-1.89-2.75-3.77-4.08-5.69l-3.85-5.82q-3.82-5.85-7.6-11.77c-2.44-4-4.73-8-7.07-12.08l-3.47-6.1c-.57-1-1.16-2-1.71-3.06l-1.6-3.11Q499,833.26,495.9,827c-1-2.1-2.13-4.18-3-6.31L490,814.28q-2.82-6.4-5.56-12.86c-1.69-4.25-3.25-8.46-4.85-12.72l-2.37-6.4c-.77-2.15-1.61-4.24-2.29-6.46-1.41-4.39-2.8-8.81-4.16-13.23l-2-6.66c-.34-1.1-.66-2.23-.94-3.37l-.89-3.42q-1.76-6.82-3.43-13.72c-1.19-4.55-2.05-9.28-3-14s-1.79-9.42-2.65-14.15a425.69,425.69,0,0,1-2.15-118.51c.67-5,1.45-10,2.23-15l1.21-7.49c.4-2.51,1-5,1.46-7.44q1.55-7.42,3.19-14.86c.52-2.49,1.23-4.9,1.85-7.35l2-7.33c2.53-9.86,5.79-19.37,9-29,.78-2.42,1.69-4.76,2.59-7.11l2.71-7.06c1.86-4.69,3.63-9.48,5.71-14s4.18-9.12,6.36-13.72c.55-1.14,1.08-2.31,1.66-3.44l1.75-3.37c1.19-2.24,2.38-4.5,3.57-6.76,4.72-9.14,10.09-17.87,15.52-26.73,1.34-2.25,2.81-4.34,4.23-6.5l4.35-6.44q2.19-3.21,4.41-6.44c1.47-2.15,3-4.17,4.58-6.25q4.63-6.22,9.39-12.4c3.23-4,6.53-8,9.83-11.91l5-5.9,5.14-5.67c3.45-3.76,6.89-7.54,10.39-11.21s7.12-7.14,10.69-10.67c1.8-1.75,3.56-3.55,5.39-5.23l5.48-5c3.66-3.32,7.29-6.67,11-9.86l11.14-9.29c1.85-1.52,3.69-3.08,5.56-4.54l5.61-4.32L639.82,288a556.22,556.22,0,0,0-58.41,58.86,506.31,506.31,0,0,0-50,69.61,459.78,459.78,0,0,0-37.9,80.27,424.55,424.55,0,0,0-21.37,88.64A380,380,0,0,0,464.72,673a368.26,368.26,0,0,0,12,82.26c13.47,50.14,38,97,69.33,130.51l5.19,6c1.75,2,3.6,3.89,5.4,5.83,3.64,3.84,7.22,7.68,10.92,11.41s7.57,7.29,11.36,10.89l2.85,2.69c1,.9,2,1.74,2.94,2.6l5.91,5.15a394.5,394.5,0,0,1-59-73.5c-1.09-1.65-2.08-3.34-3.06-5l-3-5.09-5.85-10.23c-3.66-6.92-7.16-13.92-10.63-21-3.16-7.09-6.37-14.26-9.33-21.4q-4.09-10.57-8-21.25a416.36,416.36,0,0,1-20.59-91.29,407.81,407.81,0,0,1,1-96.17A416.39,416.39,0,0,1,506,486.59a480,480,0,0,1,53.84-84.9c-.67,1.17-1.25,2.25-1.95,3.46a457.53,457.53,0,0,0-37.69,68.32,416.83,416.83,0,0,0-25.4,75.94,373.32,373.32,0,0,0-14.91,74.1,366.91,366.91,0,0,0-1.67,37q.24,9.15.68,18.2c.09,3,.44,6,.71,9s.61,5.93.92,8.88a321.84,321.84,0,0,0,14.71,66.49q1.31,3.85,2.59,7.69c.93,2.5,1.92,5,2.89,7.4q3,7.34,6,14.45c2.25,4.81,4.59,9.55,6.94,14.18,1.2,2.32,2.33,4.63,3.61,6.88s2.6,4.48,3.91,6.68l4,6.54c1.35,2.15,2.61,4.31,4.08,6.37,2.86,4.16,5.74,8.2,8.64,12.08,2.82,4.2,6,8.21,9.08,12.26s6.09,8.09,9.43,11.94l9.82,11.55c3.37,3.77,6.86,7.42,10.28,11.08-3-3.6-5.94-7.22-8.87-10.87s-5.57-7.49-8.33-11.27c-1.37-1.9-2.76-3.78-4.1-5.7l-3.86-5.84c-2.56-3.9-5.13-7.81-7.61-11.77s-4.71-8-7-12.1c-1.16-2-2.33-4-3.46-6.09l-3.18-6.2q-3.18-6.21-6.28-12.47-2.87-6.32-5.64-12.69l-2.77-6.38c-.9-2.12-1.65-4.21-2.48-6.32L508,771.83l-1.18-3.18-1.06-3.26-2.09-6.52c-1.37-4.37-2.81-8.7-4.06-13.13s-2.32-9-3.49-13.44l-1.69-6.74c-.5-2.27-.95-4.57-1.42-6.86q-1.38-6.87-2.69-13.77l-.33-1.72-.26-1.75-.51-3.5-1-7a380.5,380.5,0,0,1-3.19-70.83,410.26,410.26,0,0,1,9.68-70.72,403.54,403.54,0,0,1,35.59-81c-.44,1.49-.91,3-1.36,4.55s-.78,3.05-1.08,4.47a72.66,72.66,0,0,0-3,11.2c-.41,2.19-.85,4.45-1.12,6.88s-.49,4.94-.65,7.49-.25,5.14-.29,7.72,0,5.13.15,7.73a122.26,122.26,0,0,0,1.78,14.6c.43,2.23.9,4.34,1.46,6.29a48,48,0,0,0,2,5.41c1.41,3.24,3,5.69,4.79,7.09,3.54,2.79,7.67,1.42,12.28-6.13A398.26,398.26,0,0,1,573.11,483a417.15,417.15,0,0,1,39-58.28,451.54,451.54,0,0,1,46.42-49.87,472.54,472.54,0,0,1,49.1-39.42l6-4.2,3-2.07,3-1.94,11.83-7.55c3.89-2.42,7.77-4.62,11.53-6.84l5.6-3.25c1.84-1.06,3.7-2,5.52-3L764.79,301c3.45-1.81,6.85-3.38,10.11-5s6.41-3.1,9.44-4.51l8.78-3.82,8-3.42c.58-.25,1.34-.55,2-.83l2.11-.82c1.4-.55,2.7-1,4-1.51,5.11-1.89,9.43-3.35,12.94-4.44,7-2.19,10.84-3.06,10.93-2.74,1.75,1-1.3,3.18-7.88,6.61-3.29,1.73-7.47,3.77-12.43,6.21l-8,4-7.82,4.22c-21.77,11.58-50.9,28.21-77.6,48.39l-10,7.57c-3.25,2.59-6.45,5.25-9.63,7.85L695,362.62c-1.54,1.32-3,2.69-4.56,4l-8.88,7.91c-2.86,2.65-5.61,5.35-8.3,7.94s-5.35,5.09-7.78,7.71l-7.12,7.49c-1.14,1.22-2.27,2.38-3.34,3.57l-3.1,3.55-5.73,6.62-2.61,3.05-2.36,3c-3,3.83-5.55,7.12-7.53,9.77-1,1.3-1.81,2.52-2.48,3.54s-1.21,1.85-1.58,2.49c-.75,1.29-.89,1.79-.34,1.4l4.14-4.16c1.38-1.37,2.84-2.66,4.25-4l8.51-7.94c2.86-2.6,5.81-5.08,8.71-7.61s5.77-5.07,8.78-7.42c-1.14,1.44-2.32,2.81-3.4,4.29L657,412.2q-3.22,4.37-6.31,8.66c-2,2.94-3.88,5.88-5.73,8.77l-2.72,4.31-1.32,2.13-1.23,2.18c-9.15,12.43-20.09,26.73-29.18,40.92-4.37,7.22-8.58,14.14-11.59,20.87-1.55,3.34-3,6.49-4.06,9.52a74.83,74.83,0,0,0-2.41,8.57l-1.7,6.74c-.52,2.27-1,4.54-1.57,6.83s-1.08,4.54-1.62,6.82l-.84,3.39c-.25,1.15-.49,2.3-.74,3.45-1,4.61-2,9.2-3,13.79s-1.79,9.33-2.73,14a424.76,424.76,0,0,0-6.89,57.55l-.24,7.35-.12,3.68c0,1.23,0,2.46,0,3.69.11,4.92.15,9.84.38,14.77s.77,9.84,1.2,14.76c.09,1.24.28,2.46.45,3.68l.53,3.67c.36,2.44.73,4.88,1.09,7.33a230.38,230.38,0,0,0,17,56.25q2.1,4.07,4.27,8.22l2.17,4.15c.38.69.72,1.38,1.12,2.07l1.22,2.07,5,8.3c.84,1.38,1.65,2.78,2.53,4.16l2.77,4.08,5.6,8.19c1.92,2.7,4,5.33,6.07,8l3.09,4c.53.66,1,1.33,1.57,2l1.66,1.92,6.7,7.68,1.68,1.91c.57.63,1.18,1.23,1.78,1.85l3.58,3.67c1.2,1.21,2.39,2.43,3.59,3.65l1.8,1.82c.6.6,1.26,1.17,1.89,1.75l7.61,6.91,1.9,1.71,2,1.64,4,3.23,4,3.22c.67.53,1.32,1.07,2,1.58l2.09,1.51,8.3,5.95c1.35,1,2.83,1.89,4.25,2.82l4.29,2.72,4.27,2.7c1.42.9,2.94,1.68,4.39,2.52.91-1,2.71-.58,4.85.48a37.85,37.85,0,0,1,3.38,2l1.75,1.14,1.79,1.07c4.71,2.8,8.49,4.87,6.79.07,4.64,3.8,9.75,7.17,14.79,10.69,1.24.9,2.58,1.66,3.89,2.48l3.94,2.4,4,2.39c1.3.82,2.7,1.47,4,2.2l8.12,4.22c2.72,1.32,5.51,2.47,8.23,3.66l4.07,1.73c1.34.58,2.75,1,4.11,1.5,2.73,1,5.43,1.87,8.08,2.73,1.32.45,2.67.77,4,1.11l4,1c2.61.59,5.14,1.23,7.65,1.62s5,.68,7.36.92c1.19.12,2.36.22,3.5.31l1.71.11h1.7a72.75,72.75,0,0,0,12.25-1,37.32,37.32,0,0,0,9.72-3.44l3.28.23c3.13.53,7.77.25,12.66-.26a164.61,164.61,0,0,0,52,.39,179.14,179.14,0,0,0,45.14-13.26l5.2-2.3c1.72-.76,3.39-1.7,5.07-2.55l5-2.61,2.49-1.31c.82-.44,1.63-1,2.44-1.43l9.64-5.82,9.33-6.36a338.55,338.55,0,0,0,35.92-29.61,535.6,535.6,0,0,0,51.24-45.09c-5.49,5.42-13,11.5-20.39,17.42s-14.8,11.77-20.07,17.3c-1.79,1.8-3.61,3.5-5.39,5.26s-3.61,3.4-5.39,5.11c-5.7,4.29-11.41,8.49-17.23,12.4s-11.68,7.69-17.66,11.17a319.68,319.68,0,0,1-37.08,18.41,269.49,269.49,0,0,1-39.49,12.56l-5.08,1.12c-1.7.36-3.4.82-5.11,1.06l-10.31,1.73c-6.9.84-13.87,1.74-20.88,2-2.32.69-5.38,1.69-8.75,2.37s-7.1,1.56-10.69,2c-4.07-.77-8.12-1.5-12.18-2.44a28,28,0,0,1-3.76,2.47l-5.25-.31c-1.75-.14-3.54-.18-5.29-.44l-10.65-1.35c-3.55-.58-7.09-1.31-10.68-2l-2.7-.52-2.65-.66-5.34-1.35a249,249,0,0,1-41.66-15.09,294.94,294.94,0,0,1-37.66-21.61l-8.63-6-8.18-6.18c-2.78-2-5.25-4.18-7.84-6.24L684,836.39c-.63-.51-1.28-1-1.89-1.53l-1.8-1.58L674,826.91l-1.59-1.61-1.5-1.69-3-3.41-3-3.44c-1-1.15-2-2.29-2.9-3.52L656.44,806c-1.9-2.41-3.55-5-5.25-7.56s-3.41-5.13-5-7.76-3.06-5.37-4.59-8.06l-2.28-4.06-2-4.18q-2-4.22-4.06-8.43c-1.3-2.83-2.41-5.75-3.61-8.64l-1.76-4.36c-.29-.72-.59-1.45-.86-2.18l-.76-2.22q-1.48-4.46-3-8.91c-.48-1.49-1-3-1.46-4.47l-1.23-4.55c-.81-3-1.61-6.08-2.42-9.12-.44-1.52-.71-3.07-1-4.61l-.94-4.64-.92-4.64c-.31-1.54-.65-3.08-.83-4.66l-1.29-9.38c-.21-1.56-.45-3.12-.61-4.7l-.37-4.72-.7-9.45c-.11-3.16-.12-6.32-.17-9.48-.25-6.31.26-12.62.51-18.92,0-1.57.21-3.14.38-4.71l.49-4.69.49-4.7.26-2.34.37-2.33a266.41,266.41,0,0,1,21-71.39A247.27,247.27,0,0,0,622.51,627c0,1.47-.14,2.93-.13,4.41l.09,4.41q.1,4.38.19,8.75c.19,2.91.46,5.82.68,8.7s.39,5.76.87,8.62c.84,5.72,1.46,11.39,2.74,17q.84,4.17,1.69,8.34l2.16,8.21c-.39-1.72-.79-3.43-1.18-5.14l-.59-2.57c-.19-.86-.31-1.72-.46-2.58q-.89-5.19-1.77-10.34c-.34-1.73-.46-3.46-.67-5.19s-.4-3.46-.59-5.18-.4-3.46-.59-5.19l-.3-5.19a242.54,242.54,0,0,1,.73-41.33,272,272,0,0,1,20.5-79l6.23-10.83,6.66-10.48a318,318,0,0,1,32.09-40.85l-4.45,4.15c-1.45,1.41-2.84,2.89-4.26,4.33l-4.22,4.37-2.1,2.19-2,2.28c-2.64,3-5.32,6.08-7.92,9.17l-7.45,9.54,6-10.72L671,486.41l1.64-2.61,1.74-2.53,3.5-5.06c1.17-1.68,2.31-3.4,3.52-5.06l3.7-4.9c4.85-6.65,10.14-12.89,15.4-19.2l8.19-9.18c1.34-1.56,2.79-3,4.21-4.47l4.26-4.42a370.43,370.43,0,0,1,53.55-41.91c4.85-3,9.72-6,14.64-9l7.5-4.19,3.77-2.1c1.26-.7,2.51-1.4,3.8-2l7.7-3.89c2.58-1.28,5.12-2.65,7.76-3.8l7.88-3.58,4-1.78c1.3-.6,2.76-1.17,4.13-1.76a290.44,290.44,0,0,1,33.92-11.37,300.67,300.67,0,0,1,35.12-7.25,251,251,0,0,1,36.67-2.65,185.94,185.94,0,0,1,38.56,4A130.51,130.51,0,0,1,1015.81,353a107.23,107.23,0,0,1,18.44,14,99.73,99.73,0,0,1,15.18,18.32,105.7,105.7,0,0,1,10.44,21,118.45,118.45,0,0,1,5.65,21.59c.58,3.57,1,7.11,1.34,10.61.2,1.72.26,3.58.33,5.43l.18,5.53c0,1.84-.1,3.68-.17,5.52s-.11,3.7-.31,5.52l-.63,5.48-.34,2.74-.5,2.69a137.67,137.67,0,0,1-14.09,40.4,163.88,163.88,0,0,1-23.73,33.09,194,194,0,0,1-62.86,45c1.07-2.4,2.29-4.74,3.49-7.29s2.51-5.08,3.84-7.68c20.24-11.9,38.59-27.21,53.1-46a142,142,0,0,0,18.14-30.72,116.17,116.17,0,0,0,8.76-34.73c.11-1.49.22-3,.34-4.45s0-3,.07-4.45,0-3,0-4.43-.21-2.94-.32-4.4-.25-2.91-.38-4.37-.41-2.8-.61-4.2-.51-2.8-.76-4.18-.58-2.78-.92-4.17a97,97,0,0,0-5.36-16.2,83.94,83.94,0,0,0-8.31-14.82A75,75,0,0,0,1012,376a80.64,80.64,0,0,0-27.37-9.62,115.76,115.76,0,0,1,16.72,7.87,90.57,90.57,0,0,1,14.32,10.27,80.55,80.55,0,0,1,20.1,27,99.55,99.55,0,0,1,5,68.36c-1.5-.49-3.77-.74-3.67-5-2.43,15.71-9.31,32.14-19.43,46.94a150.93,150.93,0,0,1-38.44,38.33l1.1-2.3c.34-.78.7-1.57,1-2.36l2.1-4.73c1.35-3.19,2.64-6.44,3.88-9.66l1.74-4.92.84-2.43.76-2.49,1.44-4.93c.45-1.63.82-3.32,1.21-5,3.73-7.69,9-16.07,13.72-25.54a109.5,109.5,0,0,0,6.08-14.95,79.87,79.87,0,0,0,2.13-7.89c.31-1.33.45-2.68.68-4l.3-2c.11-.67.11-1.35.17-2l.61-4.26.3-4.27c.17-1.41.06-2.83.09-4.24a36.93,36.93,0,0,0-.11-4.21l-.29-4.19c-.19-1.44-.36-2.89-.57-4.31a79.06,79.06,0,0,0-1.7-8.27,73.23,73.23,0,0,0-2.45-7.72,61.74,61.74,0,0,0-3.29-7c-.29-.57-.61-1.12-1-1.65s-.64-1.08-1-1.6c-.71-1-1.37-2.09-2.15-3.05a47.65,47.65,0,0,0-4.86-5.57c-7-6.94-16.18-12-26.74-15.38a128,128,0,0,0-34.21-5.4c-6-.2-12.07-.1-18.18.29s-12.24,1-18.36,1.92a250.8,250.8,0,0,0-36.37,8.07c-5.94,1.8-11.79,3.8-17.45,6.05-1.43.57-2.77,1.11-4.23,1.75l-4.38,1.94c-2.91,1.3-5.83,2.56-8.73,3.9l-8.56,4.27c-1.43.72-2.87,1.41-4.28,2.15l-4.19,2.33c-2.78,1.55-5.58,3.09-8.35,4.67l-8.16,5a335.32,335.32,0,0,0-56.58,37.43c-4.46,3.47-8.58,7.3-12.82,11-2.15,1.83-4.09,3.85-6.13,5.79s-4.07,3.87-6,5.88l-5.77,6.11-2.89,3.05-2.73,3.18L699.45,505c-1.76,2.16-3.45,4.38-5.18,6.56-27.51,35-45.56,76.64-50.6,119.49.33-5.35.42-10.74,1.14-16,.3-2.66.54-5.34.88-8s.87-5.29,1.3-7.92l.64-4c.25-1.31.57-2.61.85-3.91q.85-3.93,1.71-7.83c.25-1.32.65-2.59,1-3.88l1.06-3.86,1.06-3.86c.34-1.29.69-2.58,1.14-3.84a284,284,0,0,1,26-58.3c.63-1.18,1.36-2.28,2.07-3.42l2.12-3.38c1.42-2.25,2.79-4.55,4.27-6.76s3-4.39,4.54-6.58,3-4.42,4.63-6.51l4.82-6.38c.81-1.06,1.58-2.16,2.43-3.18l2.54-3.08,5.09-6.18c.83-1.05,1.72-2,2.61-3l2.67-3A383.35,383.35,0,0,1,764.75,414.22Zm-269.22,267c-.3-7.86-.7-16.08-.93-24.4-.78,1.18-1.56,2.3-2.41,3.37a32.83,32.83,0,0,0-.32,5.59,41.53,41.53,0,0,0,.61,5.49A40.31,40.31,0,0,0,495.53,681.23ZM540,502.73A374.31,374.31,0,0,0,525,544.58c-4.49,15-8.27,30.93-11.45,47.26a582.41,582.41,0,0,0-10.41,99.51,4.94,4.94,0,0,0,2.05.76c3.55-26.86,7.24-57.55,12.91-90.05,2.8-16.23,6-32.88,9.67-49.59,1.81-8.35,3.79-16.74,5.82-25.05q1.61-6.23,3.19-12.41c.54-2.06,1.07-4.12,1.61-6.17l.8-3.08ZM679.86,344.92c-.46.1-.92.24-1.38.35.36.23.74.41,1.07.65C679.64,345.6,679.74,345.27,679.86,344.92Zm561.26,92.25c-1.53-16.23-2.8-33.1-4.42-50.37s-3.58-34.94-6.45-52.61a378.73,378.73,0,0,0-12.08-52.28,234.35,234.35,0,0,0-20.61-47.78,56.72,56.72,0,0,0-8.44-12.55c-.86-1-1.73-1.89-2.62-2.83l-1.33-1.41-1.41-1.35-2.84-2.7-3-2.62-1.49-1.32-1.54-1.28-3.06-2.61c-2.11-1.68-4.14-3.48-6.27-5.22s-4.21-3.57-6.26-5.52-4.17-3.89-6.27-6a106.58,106.58,0,0,0-16.55-11.46,114.19,114.19,0,0,0-15.63-7.33l-1.89-.75-1.93-.67c-1.29-.44-2.53-.92-3.81-1.34-2.58-.8-5.09-1.66-7.71-2.38s-5.24-1.46-7.88-2.25-5.43-1.49-8.34-2.17c1.22,1,2.42,1.88,3.56,2.89s2.31,1.94,3.43,2.93l3.27,3c1.09,1,2.09,2.06,3.13,3.06a75.94,75.94,0,0,0-25.3-9.33,143.85,143.85,0,0,0-25.29-2.08c-8.48-.06-17.06.15-26.41.07a312.28,312.28,0,0,1-31.2-1.79c0,1.37-1.63,3.43-4.11,5.23a18.22,18.22,0,0,1-9.41,3.45c-4.55.6-9.11,1.07-13.65,1.44l-3.41.26c-1.14.07-2.27.15-3.38.28-2.23.24-4.46.45-6.68.65-4.45.4-8.87.73-13.26,1l-12.8,1.42a213.82,213.82,0,0,0-24.15,3.88l-2.85.62c-.95.21-1.89.43-2.79.71-1.81.54-3.6,1.09-5.36,1.67-3.51,1.16-6.9,2.42-10.12,3.81-2.1.56-4.09,1.35-6.12,2l-6.06,2-6.05,2-1.5.48-1.47.57-2.92,1.11-11.58,4.31c-1,.33-1.87.76-2.8,1.16l-2.75,1.19-5.46,2.38-5.37,2.35c-1.76.8-3.42,1.74-5.11,2.59q-5,2.63-9.83,5.23c-3.13,1.83-6.06,3.83-8.94,5.74a78.61,78.61,0,0,0-8.11,6c-2.81,1.52-6.1,5.57-9.78,10.24-1.75,2.46-3.61,5.08-5.6,7.6-1,1.26-2,2.5-3.09,3.69L778.38,246c-.52.61-1.06,1.2-1.6,1.78q-4.46,3.47-8.95,6.8l-1.13.84c-.37.28-.72.6-1.08.9l-2.16,1.8-4.34,3.57-4.37,3.52L750.56,269l-4.2,3.74c-1.39,1.26-2.85,2.42-4.16,3.8A25.46,25.46,0,0,1,745,277c2.39-1.85,4.77-3.75,7.11-5.69s4.63-4,7.06-5.83,4.73-3.87,7-5.92L767.9,258c.57-.52,1.18-1,1.76-1.48q1.77-1.48,3.5-3a282,282,0,0,1,47.91-35l6.82-3.78,3.42-1.9,1.71-1,1.77-.85,14.15-6.78,14.44-5.93c.6-.24,1.19-.5,1.79-.72L867,197l3.65-1.26,7.22-2.46A565.85,565.85,0,0,1,953,175.68l9.68-1.66,9.82-1.31,9.81-1.35,2.46-.35,2.23-.26,4.43-.53c11.77-1.33,23.26-2.16,34.31-2.33a281.76,281.76,0,0,1,32,1.2,216,216,0,0,1,29.27,5c18.55,4.66,35.29,11.86,50.67,22.52,6.67,4.47,13.72,9,20.48,14.56a112.74,112.74,0,0,1,19,19.1c9.09,10.66,17,24.11,23.33,39s11.31,31.09,15.28,47.3c2,8.1,3.72,16.21,5.33,24.17s3.15,15.88,4.62,23.31c3,15.07,6,29,10.09,41,1.14,4,1.43,9.91,1.92,15.89S1238.88,432.88,1241.12,437.17Zm97.71,118.6c7.33-49.85,11.94-102.37,11.65-154.74s-5.56-104.63-17.3-153.14a291.1,291.1,0,0,0-11.69-34.65,303.58,303.58,0,0,0-20.84-41.61c-4.33-7.13-9-14.28-14.14-21.24-2.51-3.51-5.24-6.92-7.93-10.33-1.37-1.69-2.8-3.35-4.2-5s-2.82-3.32-4.3-4.93l-4.4-4.83c-1.52-1.56-3-3.11-4.55-4.67s-3.07-3.06-4.64-4.54-3.1-3-4.69-4.4c-3.22-2.83-6.36-5.66-9.66-8.27-1.63-1.31-3.23-2.63-4.88-3.88l-4.94-3.68a197.31,197.31,0,0,0-38.74-22.18c-12.22-5.2-23.27-8.18-32.07-9.33A54.6,54.6,0,0,0,1150,64a18.68,18.68,0,0,0-7.64,2.21c-3.69,2.26-4.5,6.13-2.15,11.73,6.62-1.11,14.61-.74,23.8,1.08a129.41,129.41,0,0,1,30.25,10.72,181,181,0,0,1,33.48,21.55,223.46,223.46,0,0,1,32.53,32.57q1.9,2.35,3.81,4.76c1.25,1.62,2.46,3.27,3.7,4.93l1.85,2.49,1.77,2.56c1.18,1.71,2.39,3.42,3.55,5.17,4.61,7,9,14.31,13.1,21.89a317.34,317.34,0,0,1,20.74,48c11.35,33.35,17.51,68.43,20.18,102,1.3,16.79,1.82,33.25,1.71,49.08s-.77,31-1.72,45.4c-1.9,28.73-5,54.06-7,74.48s-2.79,36-.56,45.17c1.15,4.58,3,7.53,5.85,8.64S1334,558.74,1338.83,555.77Zm-640.44,449a442.41,442.41,0,0,0,75,24,540.27,540.27,0,0,0,81.57,12A388.49,388.49,0,0,1,698.39,1004.73Zm404.92-158.45a311.1,311.1,0,0,1-65.22,62.13,299.08,299.08,0,0,1-85.64,41.47l-11.72,3.28c-1,.28-2,.52-3,.74l-3,.67-6,1.34c-2,.42-4,.91-6,1.28l-6,1-6.05,1-3,.5-3,.37-12.2,1.43c-4.08.36-8.17.58-12.26.86s-8.2.35-12.3.42-8.22.21-12.32,0-8.22-.25-12.33-.44l-12.3-1-3.07-.26-3.06-.39-6.12-.8-6.12-.81c-2-.31-4-.7-6.08-1.06L800.51,957c-2-.38-4.07-.69-6.06-1.19l-12-2.75c-2-.43-4-1-6-1.58l-5.94-1.66c-2-.56-4-1.08-5.93-1.69l-5.86-1.93c-3-1-6-2-9-3.09s-5.92-2.41-8.88-3.65c-6-2.38-11.69-5.4-17.5-8.33-2.92-1.42-5.69-3.14-8.52-4.77s-5.64-3.31-8.43-5l-8.17-5.51L694.14,913c-1.37-.91-2.64-2-4-3A302.45,302.45,0,0,1,634,854.52a415.9,415.9,0,0,1-41-65.35L590.75,785l-1.09-2.09c-.35-.7-.67-1.41-1-2.11q-2-4.23-4-8.42c-2.83-5.59-5.13-11.15-7.68-16.65-.64-1.38-1.27-2.75-1.91-4.12s-1.29-2.74-1.85-4.14c-1.17-2.78-2.35-5.56-3.56-8.32s-2.48-5.5-3.65-8.27-2.26-5.57-3.43-8.34l-8.06,1.61c1.61,3.31,3.18,6.6,4.83,9.84q1.42,6.81,2.7,13.36c.22,1.09.43,2.18.64,3.26s.41,2.16.68,3.2q.74,3.16,1.47,6.27c1,4.14,1.86,8.22,2.84,12.26l3.29,12c.56,2,1.07,4,1.66,5.91l1.9,5.79c1.27,3.85,2.54,7.68,3.85,11.49q2.21,5.63,4.5,11.22l2.34,5.6c.84,1.83,1.74,3.65,2.63,5.48l-3.48-4.57,5.32,8.28c1.22,2.44,2.46,4.87,3.74,7.31s2.79,4.77,4.24,7.16,3,4.79,4.49,7.19c.74,1.21,1.58,2.38,2.42,3.54l2.57,3.52q2.6,3.51,5.34,7l1.39,1.77c.48.58,1,1.14,1.48,1.72l3,3.42q3.07,3.43,6.33,6.87c1.07,1.16,2.22,2.27,3.39,3.36l3.56,3.31,6.82,5.89c2.29,2,4.72,3.76,7.08,5.64l7.15,5.57c2.42,1.82,4.92,3.53,7.38,5.29l5,4,2.51,2,2.58,1.89,10.39,7.51c3.51,2.42,7.13,4.69,10.7,7,1.8,1.14,3.57,2.33,5.4,3.42l5.53,3.2,5.55,3.17,2.77,1.58c.93.52,1.89,1,2.83,1.47l11.37,5.74c1.88,1,3.85,1.78,5.78,2.66l5.81,2.56,5.81,2.53,5.92,2.26,5.92,2.24c2,.72,3.93,1.51,5.94,2.12l12,3.82c2,.67,4,1.18,6,1.72l6.07,1.59,6.06,1.55c2,.48,4.07.87,6.11,1.3a308.39,308.39,0,0,0,49,6.5l12.2.45c4,0,8.1-.08,12.13-.15l6-.14,6-.42c4-.3,8-.54,11.93-1,7.89-1,15.74-1.89,23.42-3.49l5.75-1.11c1.91-.37,3.82-.72,5.7-1.22l11.26-2.82c3.74-.88,7.38-2.13,11-3.24l5.43-1.73c1.81-.59,3.61-1.14,5.37-1.84,7.07-2.7,14.09-5.22,20.78-8.41,3.36-1.55,6.71-3,10-4.65s6.46-3.4,9.63-5.11l4.74-2.58c1.56-.89,3.08-1.85,4.6-2.78q4.56-2.79,9-5.62A248.13,248.13,0,0,0,1041.18,924c6.66-4.93,12.9-10.12,18.88-15.39a347.44,347.44,0,0,0,32.55-33.26c19.83-23.06,36.66-47.47,53.52-73.59-5.7,6.69-13.53,14.48-21.41,22.18S1109,839.32,1103.31,846.28Z"/><path class="cls-2" d="M648.37,522.06c16.46-34.36,40.14-66,68.82-93.08,1.33-1.37,2.64-2.77,4-4.11l4.13-4,4.15-4c1.39-1.32,2.75-2.68,4.2-3.92l8.6-7.63c1.43-1.3,2.91-2.51,4.39-3.72l4.45-3.66,4.47-3.67c1.48-1.23,3-2.35,4.56-3.53l9.22-7,9.47-6.69c1.59-1.1,3.15-2.27,4.78-3.32l4.86-3.18c7.83-4.94,16-9.39,24.44-13.76l12.84-6.22c4.54-2.08,9.25-4,13.92-5.8a287.42,287.42,0,0,1,58.76-15.42c20.53-3.05,42.12-4.2,65.15-1.17a158,158,0,0,1,35.47,8.86,121.2,121.2,0,0,1,35.3,20.66,108.28,108.28,0,0,1,26.88,34.41A125,125,0,0,1,1073,431.66c.25,1.63.41,3.22.56,4.82s.36,3.14.41,4.87l.21,5.07c0,1.7.16,3.39.07,5.08l-.17,5.08c-.08,1.69-.1,3.39-.32,5.06l-.54,5c-.2,1.67-.37,3.36-.7,5a144.87,144.87,0,0,1-11.65,37.63,169.45,169.45,0,0,1-19.51,32A198.92,198.92,0,0,1,1017,567.64a225.6,225.6,0,0,1-58.08,38c-1,4.78-1.06,9.1.43,13s4.51,7.22,9.56,9.69a228.73,228.73,0,0,0,37.8-18,226,226,0,0,0,34.3-25,208.42,208.42,0,0,0,30-32.84,186.32,186.32,0,0,0,23.15-41.86c.81-1.88,1.45-3.93,2.15-5.9l2-6c1.21-4.09,2.31-8.24,3.33-12.4.86-4.26,1.75-8.49,2.37-12.81.28-2.18.55-4.35.79-6.53s.5-4.35.57-6.56.21-4.41.28-6.61l.1-3.3-.08-3.31c-.06-2.2-.14-4.41-.24-6.61-.06-1.08-.09-2.25-.18-3.25l-.29-3.05a168.83,168.83,0,0,0-4.28-25.22,152,152,0,0,0-9.24-26.38A142,142,0,0,0,1076.35,357,137.8,137.8,0,0,0,1056,335.13a146.31,146.31,0,0,0-23.15-16.42,170.46,170.46,0,0,0-46.59-18,225.87,225.87,0,0,0-42.62-5.46,295.22,295.22,0,0,0-39.1,1.26,358.4,358.4,0,0,0-36.89,5.56c-12.07,2.45-24,5.45-35.92,9.13-6,1.85-12.06,3.88-18.09,6.15l-16.32,6.39a535.49,535.49,0,0,0-63.18,31c-1.11,1-2.25,2-3.31,3.09-15,14.09-32.22,29.68-49.69,47.66S646,443.86,630.31,466.65c-2,2.78-3.86,5.75-5.75,8.68s-3.76,5.85-5.6,8.83-3.49,6.07-5.23,9.12l-2.6,4.56c-.83,1.55-1.61,3.13-2.42,4.7L604,512c-1.53,3.16-2.89,6.42-4.32,9.63-2.93,6.36-5.29,13-7.7,19.53l-.89,2.45c-.29.82-.53,1.66-.8,2.49q-.76,2.51-1.53,5c-1,3.33-2,6.61-2.9,9.94s-1.6,6.68-2.36,10q-.57,2.49-1.12,5c-.29,1.67-.58,3.34-.86,5q-.84,5-1.59,9.9c-.28,1.62-.41,3.28-.57,4.92l-.45,4.91c-.27,3.26-.61,6.47-.72,9.68s-.12,6.4-.13,9.55a342.89,342.89,0,0,0,9.87,73.27,335.11,335.11,0,0,0,24.33,66.49,275.66,275.66,0,0,0,37.9,57.83l2.76,3.25c.91,1.09,1.94,2.09,2.9,3.14l5.88,6.17c1.91,2.08,4,4,6.1,5.91l6.2,5.74c2.13,1.85,4.34,3.6,6.5,5.39l3.25,2.65c1.08.89,2.16,1.77,3.32,2.57l6.79,4.89,3.39,2.41,3.53,2.23a287.78,287.78,0,0,1-32.51-34.23,279.34,279.34,0,0,1-25.86-39A266.68,266.68,0,0,1,623.6,746c-1.21-3.68-2.52-7.32-3.65-11s-2.07-7.47-3.1-11.2-1.8-7.53-2.66-11.31-1.72-7.56-2.23-11.4l-1.8-11.5L609,677.94c-.47-3.86-.47-7.75-.65-11.63l-.21-5.83c-.06-1,0-1.94,0-2.91l.06-2.92a237.24,237.24,0,0,1,4.9-46.38c1.41-7.68,3.56-15.19,5.66-22.7l3.69-11.11c.58-1.86,1.36-3.66,2.07-5.47l2.16-5.44A258.15,258.15,0,0,1,648.37,522.06Z"/><path class="cls-2" d="M1105.6,614.35a543.05,543.05,0,0,1-37.85,73.15c-19.34,32.6-40.35,60.54-62.67,83.44a288.46,288.46,0,0,1-34.5,30.39A213.87,213.87,0,0,1,933,823.78c2.58-.66,5.08-1.68,7.61-2.55l3.79-1.31c1.27-.43,2.49-1,3.74-1.51l3.74-1.52c1.25-.52,2.52-.94,3.73-1.57,2.44-1.16,4.9-2.31,7.36-3.42a237.09,237.09,0,0,0,28.93-16.82c19.11-12.91,37.76-29.09,55.39-47.61a206,206,0,0,0,21.54-31,268.9,268.9,0,0,0,15.81-33.09C1093.55,660.87,1099.83,637.82,1105.6,614.35Z"/><path class="cls-2" d="M887,838.88a29.58,29.58,0,0,0,3-.65l3-.71,3-.69c1-.22,2-.43,3-.75l5.88-1.68c1-.28,2-.51,2.91-.83l2.88-1,5.7-1.91c1.89-.69,3.74-1.49,5.6-2.2l2.77-1.08,1.39-.53,1.36-.62,5.42-2.46-5.68,1.71c-.48.14-.95.3-1.42.42l-1.44.34-2.87.69c-1.92.45-3.82,1-5.75,1.4L910,829.45l-2.89.59-2.92.4-5.83.86c-1,.19-1.94.21-2.92.31l-2.92.27-2.93.29-1.46.16-1.47.06c-3.9.09-7.83.5-11.73.34h-5.87l-5.85-.33-2.93-.13c-1,0-1.94-.2-2.91-.29l-5.83-.58c-1-.06-1.94-.26-2.9-.4l-2.89-.45-2.9-.42-1.45-.21-1.43-.3c-30.66-5.71-59.78-19.07-83.39-39.21a174.23,174.23,0,0,1-49.81-60.52l-2.31-4.61-.59-1.15-.51-1.23-1-2.45-2.1-4.92-1.07-2.47-.89-2.48-1.82-5c-.58-1.67-1.3-3.32-1.74-5l-1.52-5-.78-2.52c-.25-.85-.56-1.69-.73-2.53a190.22,190.22,0,0,1-6.53-41.3c-1.33-27.92,3.67-56.77,15.13-84.77s29-55,51.36-79.1a264.27,264.27,0,0,1,33.61-29.73C759,472.18,735,492.26,715.51,515.53s-34.74,49.35-44,77a201.1,201.1,0,0,0-9.75,85.4l.5,5.37c.24,1.79.55,3.57.82,5.35.6,3.56,1,7.13,1.85,10.65l1.14,5.3.57,2.65.28,1.32.36,1.31c1,3.49,1.94,7,2.9,10.47A227,227,0,0,0,686.48,760a193.54,193.54,0,0,0,23.27,34.48,195.75,195.75,0,0,0,29.41,28.2,191.88,191.88,0,0,0,70.73,34.67,197.56,197.56,0,0,0,37.84,5.81l4.72.18,2.35.09,1.17.05,1.18,0,9.35-.18c3.11-.18,6.21-.47,9.27-.68l2.3-.18,2.29-.31,4.56-.62c1.52-.22,3-.36,4.53-.64l4.49-.88c3-.59,5.94-1.07,8.86-1.91l4.36-1.12,2.17-.55,1.08-.28,1.07-.34L920,853a203.18,203.18,0,0,0,31.73-14.46c2.85-1.86,6.07-3.73,9.08-5.54-5,1.9-9.83,4.08-14.88,5.65L942.16,840c-.63.21-1.24.46-1.88.64l-1.9.54q-3.81,1.08-7.6,2.23a242.48,242.48,0,0,1-31,5.92,210.13,210.13,0,0,1-62.54-2A227.34,227.34,0,0,1,807,839.29q-3.64-1.38-7.33-2.72c-1.25-.41-2.4-1-3.61-1.51l-3.59-1.54c-1.19-.53-2.42-1-3.59-1.57l-3.49-1.74c-2.32-1.18-4.75-2.19-7-3.55l-6.83-3.79q-3.29-2.1-6.61-4.16l-1.67-1c-.55-.36-1.06-.75-1.6-1.12l-3.19-2.26-3.21-2.23c-1.06-.76-2.05-1.61-3.08-2.4l-3.08-2.42c-1-.82-2.11-1.55-3-2.45-2-1.73-3.91-3.45-5.9-5.15-1-.83-1.91-1.79-2.85-2.69l-2.8-2.74c-.94-.92-1.9-1.81-2.82-2.74l-2.65-2.9a185.58,185.58,0,0,0,34.69,26.73,181,181,0,0,0,39.45,17.49A185.87,185.87,0,0,0,887,838.88Z"/><path class="cls-2" d="M634.74,556.09c3.36-7.72,7.21-15.08,11.14-22.4,1-2.23,2-4.44,3-6.65.49-1.11,1-2.21,1.48-3.32l.74-1.66.81-1.61,3.25-6.46,1.62-3.24.82-1.62.89-1.57c-.93,1.15-1.77,2.36-2.6,3.58l-2.53,3.63c-1.65,2.44-3.4,4.81-5,7.29q-1.9,4.22-3.83,8.41c-.62,1.41-1.29,2.78-1.87,4.2L641,539q-1.68,4.26-3.35,8.5Q636.17,551.79,634.74,556.09Z"/><path class="cls-2" d="M587.82,829.83c.59,1.22,1.19,2.46,1.84,3.71,4.6,7.43,9.93,14.44,15.07,21.57,2.72,3.46,5.5,6.88,8.27,10.31l2.09,2.57c.69.86,1.39,1.71,2.14,2.53l4.42,4.94,4.44,4.93,2.23,2.45,2.34,2.36,9.4,9.4c3.22,3,6.55,6,9.84,8.95,1.67,1.46,3.27,3,5,4.39l5.16,4.2A355.92,355.92,0,0,0,795.76,970.7,335.31,335.31,0,0,1,732,948.8a348.75,348.75,0,0,1-57.3-33.32,380.29,380.29,0,0,1-48.26-41.18A428.45,428.45,0,0,1,587.82,829.83Z"/><path class="cls-2" d="M822.6,1059.78l5.36.78c1.95.28,4,.59,6.26.79,4.42.46,9.24.94,14.06,1.39l3.61.33c1.2.1,2.4.14,3.58.21l6.9.35c4.44.2,8.48.4,11.72.49l11.7-2.49,5.79-1.27,2.88-.65,2.88-.75c-3,.16-6,.09-9,.08l-9-.09c-6,0-12-.48-18-.85-3.19.29-6.4.63-9.62.83l-9.68.47-9.73.38C829.12,1059.83,825.87,1059.79,822.6,1059.78Z"/><path class="cls-2" d="M1313.33,687.17a766.15,766.15,0,0,1-56.18,116.69c-22.17,37.31-47.91,73.07-78.65,106.32a517.69,517.69,0,0,1-50.18,47.56,451.6,451.6,0,0,1-59.23,41.47c-2.66,1.57-5.34,3.13-8.09,4.62s-5.43,3-8.23,4.45q-8.37,4.25-16.8,8.4c-5.72,2.6-11.49,5.11-17.27,7.62-2.87,1.29-5.85,2.36-8.8,3.51l-8.87,3.36a414.88,414.88,0,0,1-74,19.37l-7.31,2.27c-2.45.76-4.91,1.54-7.39,2.17l-15,4a383.21,383.21,0,0,0,150.91-34.59q5.77-2.65,11.5-5.36c3.75-1.9,7.5-3.81,11.19-5.78s7.32-4,10.88-6.07,7.12-4.16,10.55-6.34a404.45,404.45,0,0,0,72.76-58,418.78,418.78,0,0,0,53.42-65.74c6-8.83,12.24-20.65,18.3-32.28s11.94-23.09,17.72-31.37a558.88,558.88,0,0,0,35-61.1c5.13-10.33,9.87-20.73,14.31-31.16s8.61-20.91,12.44-31.43a753.31,753.31,0,0,0,33.89-127.49,852,852,0,0,1-35.59,121.54Z"/></g></g></svg>