<svg width="419" height="687" viewBox="0 0 419 687" fill="none" xmlns="http://www.w3.org/2000/svg">
<path d="M1 686L7.69697 678L14 686" stroke="#595959"/>
<path d="M216 686L223.212 678L230 686" stroke="#595959"/>
<path d="M108 686L115.212 678L122 686" stroke="#595959"/>
<path d="M324 686L330.697 678L337 686" stroke="#595959"/>
<path d="M54 686L60.697 678L67 686" stroke="#595959"/>
<path d="M269 686L275.697 678L282 686" stroke="#595959"/>
<path d="M161 686L167.697 678L174 686" stroke="#595959"/>
<path d="M376 686L383.212 678L390 686" stroke="#595959"/>
<path d="M14 686L21.2121 678L28 686" stroke="#595959"/>
<path d="M230 686L237.212 678L244 686" stroke="#595959"/>
<path d="M122 686L129.212 678L136 686" stroke="#595959"/>
<path d="M337 686L344.212 678L351 686" stroke="#595959"/>
<path d="M67 686L74.2121 678L81 686" stroke="#595959"/>
<path d="M282 686L289.212 678L296 686" stroke="#595959"/>
<path d="M174 686L181.212 678L188 686" stroke="#595959"/>
<path d="M390 686L397.212 678L404 686" stroke="#595959"/>
<path d="M28 686L35.2121 678L42 686" stroke="#595959"/>
<path d="M244 686L250.697 678L257 686" stroke="#595959"/>
<path d="M136 686L142.697 678L149 686" stroke="#595959"/>
<path d="M351 686L357.697 678L364 686" stroke="#595959"/>
<path d="M81 686L87.697 678L94 686" stroke="#595959"/>
<path d="M296 686L303.212 678L310 686" stroke="#595959"/>
<path d="M188 686L195.212 678L202 686" stroke="#595959"/>
<path d="M404 686L411.212 678L418 686" stroke="#595959"/>
<path d="M42 686L48.1818 678L54 686" stroke="#595959"/>
<path d="M257 686L263.182 678L269 686" stroke="#595959"/>
<path d="M149 686L155.182 678L161 686" stroke="#595959"/>
<path d="M364 686L370.697 678L377 686" stroke="#595959"/>
<path d="M94 686L101.212 678L108 686" stroke="#595959"/>
<path d="M310 686L317.212 678L324 686" stroke="#595959"/>
<path d="M202 686L209.212 678L216 686" stroke="#595959"/>
<line x1="418.5" y1="686" x2="418.5" stroke="#595959"/>
<line x1="418" y1="0.5" y2="0.5" stroke="#595959"/>
<line x1="0.5" y1="686" x2="0.5" stroke="#595959"/>
</svg>
