<svg viewBox="0 0 352 10" fill="none" xmlns="http://www.w3.org/2000/svg">
<path d="M1 9L7.69697 1L14 9"/>
<path d="M216 9L223.212 1L230 9"/>
<path d="M108 9L115.212 1L122 9"/>
<path d="M324 9L330.697 1L337 9"/>
<path d="M54 9L60.697 1L67 9"/>
<path d="M269 9L275.697 1L282 9"/>
<path d="M161 9L167.697 1L174 9"/>
<path d="M14 9L21.2121 1L28 9"/>
<path d="M230 9L237.212 1L244 9"/>
<path d="M122 9L129.212 1L136 9"/>
<path d="M337 9L344.212 1L351 9"/>
<path d="M67 9L74.2121 1L81 9"/>
<path d="M282 9L289.212 1L296 9"/>
<path d="M174 9L181.212 1L188 9"/>
<path d="M28 9L35.2121 1L42 9"/>
<path d="M244 9L250.697 1L257 9"/>
<path d="M136 9L142.697 1L149 9"/>
<path d="M81 9L87.697 1L94 9"/>
<path d="M296 9L303.212 1L310 9"/>
<path d="M188 9L195.212 1L202 9"/>
<path d="M42 9L48.1818 1L54 9"/>
<path d="M257 9L263.182 1L269 9"/>
<path d="M149 9L155.182 1L161 9"/>
<path d="M94 9L101.212 1L108 9"/>
<path d="M310 9L317.212 1L324 9"/>
<path d="M202 9L209.212 1L216 9"/>
</svg>
