<svg xmlns="http://www.w3.org/2000/svg" viewBox="0 0 1511.35 1709"><defs><style>.bottom-1{fill:#dbdbdb;}</style></defs><g id="Layer_2" data-name="Layer 2"><g id="Layer_2-2" data-name="Layer 2"><path class="bottom-1" d="M1305.82,424.83c-3,.44-6.21.59-9.19.95-.55-5.8,3.15-10.7,9.22-15-42.06,10.31-70.74,38.27-86.53,72.44q-2.92,6.4-5.33,13.09c-.81,2.22-1.56,4.46-2.28,6.73s-1.3,4.52-1.89,6.8a197,197,0,0,0-4.91,27.92,192.39,192.39,0,0,0,3.26,55.7,29.47,29.47,0,0,0-6,11.88,26.55,26.55,0,0,0-.77,6.52,33.33,33.33,0,0,0,.66,6.65c1.77,8.87,7.12,17.54,15.62,24a45.08,45.08,0,0,0,27.68,9.41c9.23-.16,17.49-3.51,23.41-10.3,4.3-1.8,8.27-4.59,12.78-4.91,41.56-2.31,77.67-14.18,112.85-32.61-9.06,1.69-18.34,3.68-27.47,5.48,5.16-2.6,10.34-5.12,15.11-8.11a52.38,52.38,0,0,0,13-11.09c-3.86-1.4-7.93-2.5-11.83-3.9a79.83,79.83,0,0,0,15.68-5.92,76.37,76.37,0,0,0,7-4,79.19,79.19,0,0,0,6.53-4.74,74.59,74.59,0,0,0,11.24-11.23,75.89,75.89,0,0,0,4.63-6.4,81.37,81.37,0,0,0,10.23-22c.77-2.62,1.41-5.3,1.92-8s1-5.54,1.27-8.35a89,89,0,0,0-3.35-34.85,89.93,89.93,0,0,0-42.4-53.92,89.13,89.13,0,0,0-68.24-7.79Z"/><path class="bottom-1" d="M1161.92,407.74q9.72-4,19.44-7.81,9.87-3.8,19.74-7.36c6.6-2.39,13.11-4.69,19.79-7s13.37-4.55,20.07-6.78l8.59.9L1223,360.41l1.34,1.68a97.31,97.31,0,0,1,1.89,26c-.28,4.34-.7,8.64-1.35,12.92s-1.51,8.55-2.54,12.78-2.24,8.44-3.58,12.6-2.67,8.25-4.17,12.3c-2.95,8.1-6.34,16-9.65,23.61l-3,12a27.72,27.72,0,0,0,8,18.65c11.08,11.48,28.83,12.45,39.61,2.4l12.67-11.79a129.14,129.14,0,0,0,15-9.4,136.48,136.48,0,0,0,14.47-11.95,127.72,127.72,0,0,0,23.74-30.17c1.56-2.82,2.93-5.68,4.25-8.63a90.77,90.77,0,0,0,3.47-9,80,80,0,0,0,3.76-18.92,76.92,76.92,0,0,0-7.84-40.23c-6.3-12.55-22-19.12-34.29-27.71a37.9,37.9,0,0,0-28.35-10.62,41.12,41.12,0,0,0-15.13,3.67,42.17,42.17,0,0,0-21.73,23.24A40.28,40.28,0,0,0,1217,359a38.8,38.8,0,0,0,12.64,27.54c-3.56,1.93-7.16,4-10.57,6-.38-3.95-.4-7.77-.63-11.75,5.41,8.34,5.94,17.05,5,25.89s-3.52,17.82-4,26.64l-9,20.37q23.88,10.55,47.63,21.26l1.42-12.87c-2.21-.65-5.73-1.31-5.8-1.54.21-3.15.51-6.32.79-9.47l.87-9.41c.6-6.25,1.27-12.46,2.11-18.64.22-1.55.43-3.09.67-4.63s.54-3.09.82-4.65q.84-4.63,1.88-9.25a190.83,190.83,0,0,1,5.07-18.41c1.6-11.8,3.4-23.7,5.13-35.6a23.66,23.66,0,0,0-26.39-19.54l-17.26,3.82c3.1-.19,5.91-.6,9-.77q-5.46,3.29-10.81,6.76c-3.58,2.31-7.12,4.67-10.56,7.05-6.94,4.76-13.81,9.66-20.7,14.55l-10.25,7.28q-5.1,3.62-10.27,7.15c-3.45,2.35-6.92,4.66-10.44,6.92s-7,4.45-10.51,6.57a9.86,9.86,0,1,0,9.05,17.51Z"/><path class="bottom-1" d="M1225.82,316.37a54.07,54.07,0,0,0,9.16-2.8,16.71,16.71,0,0,0,7.54-6.39c-.61-2.85-.93-4.3-1.09-5l-13.27,2.38C1218.66,306.24,1220,312.2,1225.82,316.37Z"/><path class="bottom-1" d="M1241.43,302.14l5.56-1c-2-.32-3.74-.56-5.52-.83a3.28,3.28,0,0,0-.23.9Z"/><path class="bottom-1" d="M795.18,887.1q-3.43-3.68-7-6.93l-.9-.81c-.15-.15-.27-.23-.47-.43l-.54-.54-2.2-2.13c-1.47-1.4-3-2.77-4.46-4.09s-3-2.62-4.55-3.87l-1.14-.93-.58-.46-.68-.6L769.93,864q-5.48-4.66-11.12-8.83l-1.42-1c-.47-.35-.92-.64-1.49-1.12l-3.28-2.55q-3.29-2.52-6.63-4.91t-6.72-4.66l-3.4-2.25L732,835.88q-7.72-5.37-15.65-10.2l-4-2.38c-.63-.35-1.41-.88-2.15-1.35L708,820.53q-4.47-2.82-9-5.5T690,809.8l-4.57-2.51c-.77-.43-1.49-.79-2.32-1.27l-2.55-1.48-5.1-2.91L673,800.3l.09,0,.41.13c.15,0,.3.14.47.09s.35-.21.54-.31c.38-.21.79-.4,1.22-.59.45-.4.92-.93,1.41-1.38a8.18,8.18,0,0,0,1.56-1.66c.55-.72,1.11-1.45,1.69-2.17l.44-.54a6.7,6.7,0,0,0,.44-.68l.9-1.44,1.88-2.91,1.92-3.54,1-1.76.25-.45.24-.52.5-1,2-4.14.51-1c.17-.34.33-.77.5-1.15l1-2.35,2.06-4.71,2-5.21c.68-1.76,1.39-3.4,2-5.37,5.44-14.85,10.76-32.48,15.81-52.19.7-2.61-1.15-5.42-4.29-6.11-2.68-.64-5.87,1-6.28,3.49-5.13,19.56-10.49,37-15.93,51.51s-11,26-15.75,33.15l-.88,1.35-.43.67a3.52,3.52,0,0,1-.43.53c-.56.65-1.11,1.3-1.63,2-.26.31-.52.7-.77.94l-.73.59c-.47.39-.92.79-1.34,1.19-.11.14-.21.1-.31.14l-.29.09-.54.17c-.35.08-.68.41-.93.09l-.19-.14,4.53,2.4q5.13,2.76,10.24,5.66l5.08,2.94,4.6,2.5q4.56,2.51,9.08,5.15t9,5.43c2.94,1.81,6.09,3.92,8.59,5.34q7.92,4.75,15.67,10l3.87,2.68,1.92,1.37c.61.42,1.14.75,1.72,1.13q3.39,2.22,6.73,4.58t6.64,4.84l3.29,2.52,1.63,1.28c.27.2.56.45.8.62l.71.51q5.66,4.1,11.15,8.69L771.2,865l1.36,1.19.68.6c.23.21.39.32.59.48q2.29,1.85,4.56,3.8t4.48,4l2.21,2.1,1.1,1.07c.35.34.76.77,1,1q3.59,3.19,7,6.81c1.24,1.29,2.36,2.53,3.19,3.47l1.24,1.25-.8-.81-.44-.45-.67-.74Z"/><path class="bottom-1" d="M1073,289.77a5,5,0,0,0,7.85,1.11,6.92,6.92,0,0,0,1.31-8.8,5.52,5.52,0,0,0-7.82-1.1A6.94,6.94,0,0,0,1073,289.77Z"/><path class="bottom-1" d="M1312.42,352.41c2.14,15.16,5.1,29.79,11.52,43.4a6.79,6.79,0,0,1-1.35,6.77c5.16-.05,9.24,3.45,10.53,9,12.62,54.93,18.92,111.44,22.12,169.46.42,7.23.74,14.54,1.06,21.83s.59,14.59.8,22l.33,11,.14,5.52,0,1.38,0,.69,0,.6.14,2.37.54,9.45.52,9.87q.5,10.18,1,20.37l.88,21.31.81,22q.35,11.35.7,22.7a29.58,29.58,0,0,1,10.89,6.93,35.17,35.17,0,0,1,7,9,40.41,40.41,0,0,1,4,11.26A49.37,49.37,0,0,1,1385,792a57.91,57.91,0,0,1-2.41,13.38l-5.58,13.38c-8.76,27.6-17.9,56.24-28.44,85.79S1326,964.72,1311.25,996c1,15.18-1.08,32.38-7.18,50.63a538.05,538.05,0,0,1-25.52,104.4c-3.41,9.3-6.7,18.47-11,28.08q-3.07,7.14-6.3,14.27l-1.62,3.57-1.81,3.64-3.67,7.28q-3.72,7.27-7.59,14.54c-1.24,2.4-2.76,4.91-4.18,7.36l-4.37,7.38q-4.41,7.38-9,14.71c-3.29,4.95-6.7,9.91-10.15,14.83,6.59-2.16,12.2-2.18,15.61.87,3.51,4.28,3,12.07-.82,21.29-3.61,9.16-11.67,20-21.85,29.67l-3.75,3.81c-1.26,1.26-2.47,2.52-3.83,3.78q-4,3.78-8.06,7.5-8.12,7.45-16.41,14.68c34.58-25.35,64.76-53.18,91.23-81a97.77,97.77,0,0,1,11-10.84,575.53,575.53,0,0,0,61.94-98.13,667.82,667.82,0,0,0,40-101,734.25,734.25,0,0,0,21.45-90.49q1.74-10.61,3.33-21.16c1-6.91,1.82-13.75,2.66-20.61,1.54-13.52,2.81-26.87,3.66-39.77,1.76-25.89,2.3-50.61,2-74.29-.11-5.85-.2-11.77-.38-17.55s-.45-11.45-.67-17.16-.63-11.16-.94-16.73-.76-10.89-1.17-16.33c-1.69-21.5-3.92-41.95-6.46-61l-.48-3.58-.49-3.51-1-6.86c-.67-4.69-1.36-8.94-2.07-13.31l-.53-3.27-.13-.82-.1-1-.21-2-.85-7.84q-.88-7.84-1.75-15.67-1.83-15.6-3.79-31.1c-1.33-10.29-2.68-20.6-4.09-30.84a7.05,7.05,0,0,1,2.53-8.66c2.81-1.12,6.32-.29,7.3,2.8,4.85,13.33,9.92,26.68,15.2,39.87q3.94,9.95,8,19.87T1433,636.3q4.11,10,8.19,19.9l.51,1.24.55,1,1.11,2,2.2,4.08,2.21,4.06,1.1,2.05,1.09,2.15c2.91,5.77,5.84,11.29,8.69,17.41q2.13,4.49,4.27,9,2.08,4.66,4.18,9.36l2.07,4.7,1,2.35,1,2.44,4,9.79,2,4.91q.94,2.54,1.91,5.09,1.88,5.1,3.76,10.23l.93,2.57.9,2.65,1.77,5.31q1.76,5.33,3.46,10.7t3.23,11.09q.78,2.79,1.57,5.59l.76,2.81.74,2.88A470.61,470.61,0,0,1,1510.84,894c1.4,45.51.18,94.68-7.25,149.9l-.68,5.15c-.23,1.72-.43,3.4-.73,5.2l-1.71,10.65-1.76,10.67-.91,5.34-1.07,5.52q-2.18,11.07-4.49,22.17c-.37,1.82-.82,3.74-1.28,5.67l-1.36,5.75-2.8,11.52-1.43,5.77c-.5,1.93-.93,3.8-1.52,5.83l-3.38,12-3.48,12-1.79,6-2,6.22q-4.08,12.45-8.42,24.9c-3.18,8.58-6.53,17.23-9.93,25.84l-2.58,6.45c-.41,1.06-.9,2.18-1.39,3.31l-1.45,3.35q-2.92,6.71-5.92,13.39t-6.09,13.37l-.77,1.67-.85,1.73-1.72,3.47-3.47,6.92q-3.49,6.91-7.08,13.8l-3.61,6.89-.91,1.72-1,1.79-2,3.55q-8.07,14.24-16.58,28.34a721.84,721.84,0,0,1-89.63,116.09q-6.9,7.2-14,14.29l-7.11,7.06-3.56,3.48-3.45,3.27q-6.92,6.54-14,13l-6.66,6-6.65,5.88-6.67,5.81-6.39,5.41-6.42,5.38-6.42,5.29q-6.21,5-12.5,10l-3.15,2.48-3.11,2.43-6.13,4.68c-4.08,3.11-8.23,6.24-12.34,9.27s-8.09,5.89-12.18,8.81l-6.13,4.36-6.07,4.19-12.21,8.31c-4.08,2.72-8.13,5.33-12.23,8s-8.2,5.31-12.31,7.82c-8.22,5.06-16.51,10.15-24.9,15a1101.69,1101.69,0,0,1-113.74,45.54l-15.12,5c-2.48.82-5.09,1.62-7.7,2.41l-7.81,2.37-7.82,2.34-3.91,1.15-2,.58-2,.56q-8.11,2.25-16.24,4.42l-8.14,2.15-8.45,2.07q-8.47,2.06-17,4c-2.78.65-5.77,1.28-8.73,1.9l-8.89,1.84-8.9,1.78c-3,.58-5.86,1.17-9,1.71q-9.35,1.65-18.72,3.16l-9.39,1.49-9.88,1.34q-9.88,1.32-19.79,2.47l-2.5.28-2.61.26-5.24.5-10.47.93-10.49.85c-1.76.13-3.45.27-5.28.38l-5.56.3q-11.12.57-22.24.93l-5.57.17-1.39,0h-1.48l-2.95,0-11.81,0-11.82-.11-5.91-.11-3-.06-3.12-.12q-12.54-.52-25.1-1.34l-6.27-.44-3.13-.23-1.57-.12-1.66-.15q-6.65-.61-13.3-1.33c-8.88-1-17.7-2-26.61-3.24q-14.05-2.12-28.08-4.66-7-1.27-14-2.66c-4.92-1-9.84-2.14-14.75-3.27q-14.72-3.39-29.35-7.29c-10.21-2.88-20.43-6-30.58-9.23q-7.6-2.45-15.18-5-7.87-2.82-15.73-5.82-15.7-6-31.18-12.59-16-7.08-31.68-14.86c-5.24-2.6-10.42-5.2-15.64-8s-10.54-5.76-15.78-8.73-10.43-6-15.6-9.08l-7.73-4.67-3.85-2.37-1.92-1.19-.49-.31-.72-.47-1.46-1q-11.61-7.65-23-15.77-5.69-4.07-11.27-8.23l-5.57-4.19-2.77-2.12-2.69-2.09c-13.69-10.82-27.06-22.18-40-34q-17.83-16.58-34.55-34.31l-2-2.18-1.88-2.06-3.75-4.13q-3.73-4.15-7.42-8.36-7.35-8.42-14.47-17.05l-3.5-4.28-3.16-4q-3.17-4-6.26-8-6.21-8.08-12.22-16.34l-3-4.13-1.48-2.08-1.33-1.9-5.26-7.63q-5.22-7.67-10.28-15.45l-5-7.82-2.3-3.7-2.2-3.59q-4.38-7.2-8.63-14.49l-4.22-7.32c-1.38-2.42-2.83-5-4-7.14q-3.67-6.72-7.26-13.53T102.71,1331l-1.64-3.29-1.54-3.15-3-6.32q-3-6.33-6-12.72l-2.9-6.36-2.58-5.89q-2.58-5.9-5.07-11.84l-2.48-6-2.37-5.82q-4.39-11-8.55-22.17C56,1218.87,48.06,1193,41.46,1169.06q-2.37-8.73-4.63-17.52l-1.08-4.26-1-4.15-2-8.34-1-4.18-.95-4.08-1.79-8c-1.17-5.31-2.36-10.73-3.37-15.72-4.3-20.71-7.65-39.79-10.54-58.27s-5.22-36.08-7.13-53c-2-17.73-3.61-34.7-4.85-51l-.45-6.11c-.14-2-.28-4-.41-6q-.39-5.93-.75-11.83T.83,905q-.12-3.28-.26-6.56c-.07-2.25-.15-4.5-.22-6.74a1132.73,1132.73,0,0,1,4-128.25c.43-5.32,1.06-10.61,1.6-15.92s1.15-10.41,1.73-15.62l.88-7.67c.3-2.55.59-5.15.94-7.58l2.07-14.83,2.16-14.81,1.12-7.4,1.2-7.16q2.46-14.31,5.07-28.57l.66-3.56.69-3.45,1.4-6.9,2.85-13.77,2.94-13.75,3.1-13.3L36,575.91c1.07-4.39,2.13-8.92,3.26-13.14q3.34-12.82,6.81-25.63l1.74-6.38,1.78-6.2,3.61-12.37,3.66-12.37c.61-2.08,1.23-4.07,1.86-6.06l1.89-6c2.52-8,5.07-16,7.65-23.88q4-11.56,7.9-23.13c2.65-7.8,5.36-15.16,8.09-22.64L88.31,407l2.06-5.57L92.46,396l8.4-21.67c2.83-7.11,5.67-14.05,8.53-21.07l4.31-10.46,4.33-10.2,4.35-10.19,2.19-5.1,2.32-5.21q9.39-20.93,19-41.78c26-55,54.06-107.74,83.52-158.35q4-8.24,8.43-16,2.22-3.9,4.56-7.68c1.56-2.53,3.18-4.9,4.82-7.3A241.22,241.22,0,0,1,268.4,54.37q2.81-3.06,5.7-6C276,46.5,278,44.68,280,42.88q5.91-5.35,12.06-10.14a180.14,180.14,0,0,1,25.14-16.52C334.28,7.27,351.81,1.82,368.73.34a95.07,95.07,0,0,1,48,8.21c17.86,8.5,31.48,22.12,40.77,38.89a107.24,107.24,0,0,1,6.15,13.14,120.13,120.13,0,0,1,4.55,14.28,141.36,141.36,0,0,1,4.13,31.07c4.08-5.7,8.18-11.28,12.4-16.82,8.3-7.75,16.69-15,25-22.45A150.29,150.29,0,0,1,528.5,52.8a135.91,135.91,0,0,1,19.8-10c13.43-5.4,27.2-8.32,40.75-8.12q17.41-.73,34.72-1.3c7.29,1,14.62,1.62,22,2.13s14.8.9,22.23,1.14c14.85.49,29.77.55,44.58.86s29.61,1.09,44.13,2.65a246.47,246.47,0,0,1,42.8,8.06l12.71,16.41,7.85-.4c22.34-4.15,44.54-1,63.06,9l18,16.65a230,230,0,0,1,46,69.16,79.22,79.22,0,0,1,20.72,22.34c26.69,6.88,50.4,19.3,67.62,44.2,9.79-.63,17.43,6.92,17.34,16.86a19.51,19.51,0,0,1-2.85,9.57c.11,0,.12,0,.12,0a164.71,164.71,0,0,0,18,2.15c5.73-3.74,9.34-5.66,9.34-5.66,14.16-10.76,14.22-10.75,26.92-19.76a80.37,80.37,0,0,1,20.14-3.28,72,72,0,0,1,9,.15c42.93,16.81,42.87,16.89,56,30.56a57.84,57.84,0,0,1,2.39,5.54c12.07-4.73,13-5,16.4-6.11a41,41,0,0,1,9,.51c8.12,6.12,8.12,6.12,12.17,7a45.18,45.18,0,0,1,6.18,4.53c4.67,12.06,4.67,12.05,7,14.24a31.9,31.9,0,0,1,2,6.24c-2,7.81-2.86,10.92-3.21,12.24l-30.36-4.58,4.86,8.38-11.63-4.82,9.87,5.41L1204,306.57l13.22-.83c-14.91,11.88-14.92,11.89-19.33,17.93a30.17,30.17,0,0,0-8.22,12.71,37.81,37.81,0,0,1,5,3.17c-7.82,6.34-11.74,9.52-15.66,12.61l-15.48,12.1a67.41,67.41,0,0,1-8.5-1,8.54,8.54,0,0,1-2.62,9.67l-7.62,6.65c0,.91,0,1.79-.06,2.63.4.3.68.49.68.49-.39,3.94-.66,6.66-1,9.77,0,2.07,0,2.13,0,2.13a1.09,1.09,0,0,1-.17,0c-.32,3.36-.71,7.46-1.34,13.94-.32,3.23-.62,7.05-1,11.66s-.75,10-1.23,16.34q-3.37,2.82-6.83,5.25c-2.31,1.61-4.64,3.11-6.93,4.5,2.26-.34,4.42-.63,6.76-.79,4.66-.29,10.81,7.65,12.52,6.89A285.4,285.4,0,0,0,1175.35,436c9.48-6,18.59-12.37,27.51-19,9.11-6.67,18-13.58,26.86-20.54,9-7,18-14.07,27.07-21a15,15,0,0,1,20.3-5.13,14.55,14.55,0,0,1,4.5,20.27,276.46,276.46,0,0,1-8.26,37.27,267.68,267.68,0,0,1-12.47,34.64q-3.49,8.29-7.54,16.27-2,4-4.17,7.9c-1.44,2.61-2.94,5.19-4.36,7.72q-4.36,7.61-9.23,14.9-2.43,3.64-5,7.21c-1.71,2.38-3.32,4.7-5,7-27.63,37-62.42,66.48-101.1,89.16l-5.78,5.67-2.87,2.86-2.75,2.86q-5.49,5.75-11,11.57l-5.45,5.84c-1.79,2-3.47,3.91-5.21,5.88q-5.19,5.91-10.37,11.84c1.91-.07,3.79-.14,5.75-.15q-3.66,2.52-7.25,5.09l-7,5.13a11.6,11.6,0,0,0-1.12,1.33l10.61-1,10.65-.89c3-1.5,5.84-3,8.62-4.65a169.25,169.25,0,0,1,11.78-13.33c4.31-4.26,8.78-8.32,13.39-12.23q3.45-2.94,7-5.76c2.38-1.89,4.91-3.75,7.39-5.58,5-3.66,10.08-7.21,15.19-10.68l3.86-2.59,4-2.59,8-5.11,16-10.13c5.45-3.41,10.85-6.83,16.18-10.31q4-2.61,7.91-5.28c2.66-1.78,5.37-3.61,8-5.45a169.35,169.35,0,0,1,17.7-10.64c3-1.59,6.21-3.15,9.35-4.63s6.34-2.93,9.53-4.35l9.58-4.17,9.65-4.17c6.5-2.83,12.94-5.73,19.22-8.89a11.56,11.56,0,0,1,8.62-3.3,14,14,0,0,1,9.18,3.91c5,4.82,5.38,12.6,1,17.11q-3.75,6.95-7.79,13.81c-.67,1.14-1.35,2.28-2,3.42l-2,3.37q-2,3.36-4.06,6.69-4.12,6.66-8.57,13.17c-2.9,4.32-5.74,8.54-8.78,12.71s-6.16,8.28-9.34,12.3-6.23,7.9-9.52,11.73q-2.46,2.86-5,5.68l-5.08,5.52q-5,5.43-10.36,10.57c-28.41,27.4-61.2,47.82-101.47,58.76-6.82,11.36-16.37,20.08-31,24.49l-.46.42c5.69-.24,11.29-.28,16.92-.46a21.94,21.94,0,0,1-6.66,3.94,69.93,69.93,0,0,1-7.73,2.4c-5.25,1.37-10.65,2.61-14.87,5.46,6.53,2,13.09,3.76,19.63,5.8q-2.94,3.44-5.73,7c-1.87,2.4-3.71,4.67-5.49,7.37-3.54,5.21-7.1,10.65-10.21,15.83-1.59,2.62-3.18,5.26-4.77,7.89l-4.48,7.69-2.26,3.84c-.77,1.29-1.43,2.49-2.16,3.73-1.43,2.47-2.88,4.93-4.37,7.37l-1.12,1.82-1.06,1.76-2.15,3.49c-1.45,2.31-3,4.63-4.52,6.86s-3,4.32-4.55,6.44c-.79,1.06-1.61,2.11-2.44,3.16s-1.59,2-2.42,3a110.65,110.65,0,0,1-10.71,11.14q-2.87,2.57-6.1,5c-1.11.85-2.09,1.56-3.19,2.32s-2.2,1.5-3.35,2.23a19,19,0,0,1-2.78,3.13c.63,1.06,1.18,2.18,1.86,3.18s1.3,2,2,3c1.29,2,2.54,4,3.73,5.95l1.75,2.91,1.82,2.72c1.18,1.79,2.27,3.56,3.25,5.3.5.87,1,1.74,1.4,2.59s1,1.6,1.39,2.39a35.91,35.91,0,0,1,2.22,4.62c.3.75.54,1.52.77,2.25s.52,1.35.72,2c.1.34.19.67.26,1l.2.93a8.55,8.55,0,0,1,.2,1.65c.7-.65,1.35-1.22,2-1.94l1.93-2.27,4.28-5q1.32,1.84,2.48,3.61a40,40,0,0,0,2.23,3.36c.75,1,1.42,2.07,2,2.94a22.35,22.35,0,0,1,1.63,2.42A13.58,13.58,0,0,1,1072,915a125.11,125.11,0,0,1,.33,2.2,6.48,6.48,0,0,1-.22,2.18,11.74,11.74,0,0,1-.54,1.72,10.76,10.76,0,0,1-.58,1.74,18.05,18.05,0,0,1-2,3.51c-.28.46-.6.81-.92,1.36l-.25.43c-.08.12-.17.42-.26.62l-.54,1.32c-.37.85-.75,1.7-1.16,2.54s-.81,1.62-1.25,2.43-.89,1.57-1.36,2.34-1,1.54-1.46,2.23-1,1.44-1.57,2.15-1.07,1.33-1.65,2-1.16,1.29-1.76,1.91-1.24,1.26-1.87,1.81a40.22,40.22,0,0,1-4,3.21,44.32,44.32,0,0,1-9.37,5c-.85.33-1.71.56-2.61.86l-1.35.44a8.92,8.92,0,0,1-1.38.39l-2.84.62-1.48.34a14.81,14.81,0,0,1-1.49.2l-.76.1-2.29.31-9.41,1.36-9.26,1.41L999.77,963q-8.84,1.34-17.42,2.82l-4.27.75c-1.43.26-2.84.52-4.18.72l-8.1,1.36c-21.68,3.91-40.93,7.72-58.26,11.7-8.47,1.81-16.56,3.76-24.25,5.78-7.4,1.77-14.28,3.51-20.82,5.36l-5.25,1.5c-.87.25-1.77.54-2.61.76l-2.48.66q-5,1.35-9.9,2.84c-3.3,1-6.59,2-9.87,3.09l-2.46.82c-.82.27-1.56.47-2.34.71l-4.62,1.45q-4.61,1.47-9.2,3.09l-4.59,1.66c-1.52.56-3.08,1.16-4.46,1.61q-8.54,2.93-17,6.43c-21.72,8.55-40.33,17.71-55.06,26.7q-2.67,1.56-5.29,3.27c-.87.58-1.74,1.16-2.6,1.76l-1.29.91-1.14.72a94.83,94.83,0,0,0-8.83,6.43,72.53,72.53,0,0,0-7.19,5.88c-.28.25-.61.59-.84.77l-.71.6q-.72.61-1.41,1.26c-.94.86-1.85,1.77-2.74,2.72l-.67.72-.32.36-.26.24c-.35.34-.69.69-1,1-.67.72-1.33,1.47-2,2.27-.32.39-.64.81-.94,1.21-.23.25-.45.51-.67.78-.44.53-.86,1.1-1.28,1.71-.21.3-.41.61-.61.94l-.08.12,0,.06,27.21-40.7.08-.12.17-.24c.22-.32.42-.63.61-.94s.36-.6.52-.89.22-.47.6-1.09c.61-1,1.13-2.06,1.59-3.06l.33-.74.16-.38.27-.55c.36-.72.69-1.44,1-2.16s.6-1.43.86-2.13l.39-1.06.18-.53c.06-.17.18-.45.27-.67.75-1.85,1.4-3.7,2-5.52l.4-1.37.19-.68.09-.34.14-.42c.37-1.13.72-2.25,1-3.37.64-2.25,1.16-4.45,1.61-6.68q1-3.95,1.74-7.84.36-1.94.63-3.87l.78-4.38c.49-3,.87-5.89,1.14-8.8l.1-1.09.16-1.21.3-2.45c.18-1.63.34-3.25.47-4.87s.24-3.23.32-4.83l.1-2.41.2-2.65q.36-5.28.4-10.49v-2.59l0-1.3,0-1.4c.05-1.87.07-3.74.07-5.59q0-5.56-.33-11c-.07-3.87-.21-7.76-.47-11.59s-.67-7.54-.9-11.6a562.76,562.76,0,0,0-16.06-92.25l-.73-2.66-.63-2.53-1.33-5c-.91-3.33-1.89-6.66-2.88-9.89-.85-3-1.73-6-2.67-9l-1.43-4.42L710.7,775l-.61-1.93c-.82-2.56-1.67-5.1-2.56-7.6l-1.34-3.69-1.07-3.06-.88-2.41a2.12,2.12,0,0,1-.07-.47c0-.16,0-.28,0-.44v-.53c0-.28,0-.72,0-1s-.07-.75-.08-1l-.17-.51-.08-.22,0-.06s.23.43.37.7l1,1.81c1.3,2.41,2.64,4.82,4,7.21l1.05,1.8,1.3,2.31,2.78,4.84,2.87,4.81,1.47,2.4.74,1.19.88,1.48q3.57,6,7.38,12l3.92,6.07c1.48,2.36,3,4.72,4.52,7.06s3.08,4.69,4.66,7l4.85,7.06q5.32,8,11,15.89l2.86,3.92c1,1.31,1.9,2.53,3,4.06q3.11,4.38,6.3,8.71c3.53,4.77,7.06,9.36,10.43,13.61,3.45,4.56,6.79,8.93,9.76,12.64s5.6,6.92,7.67,9.38l2.65,3.15,5.88,7.11,0,0-.06-.07-.09-.11-.14-.18.2.25.09.11v0h0l-5.75-7h0l-.12-.14-.25-.3-1.16-1.37c-.85-1-1.85-2.22-3-3.58-2.28-2.75-5.09-6.21-8.27-10.27q-2.38-3-5-6.53c-1.77-2.41-3.53-4.57-5.36-6.92q-4.75-6.12-9.3-12.35c-1.52-2.08-3-4.16-4.5-6.26l-1.1-1.55-1-1.4-2.06-2.81q-4.11-5.62-8-11.34l-3.88-5.74-1-1.44c-.33-.49-.59-.85-.89-1.28l-1.73-2.49q-3.43-5-6.73-10.06l-3.26-5.08-1.6-2.54-1.4-2.13q-2.77-4.26-5.44-8.56l-2.63-4.31-1.29-2.16c-.43-.72-.88-1.5-1.21-2l-2.12-3.45-.52-.86-.21-.36,0,0,.1.19.41.77c.18.53.28,1.08.42,1.66a11,11,0,0,1,.15,1.73,11.56,11.56,0,0,1,0,1.77,64.9,64.9,0,0,1-1.11,6.87,20,20,0,0,0-.35,2.94c0,.23,0,.49,0,.72l.08.6.09.65a1,1,0,0,0,.06.32l1,3.25q1.05,3.59,2,7.22l1,3.65.46,1.84.53,1.93q2.09,7.73,3.81,15.67c1.26,5.35,2.53,10.87,3.58,16.41l.77,4.18.85,4.2c.56,2.82,1.07,5.65,1.55,8.5a491.56,491.56,0,0,1,7.08,68.14q.42,8,.19,16.11c0,.7,0,1.33,0,1.95v1.88c0,1.26,0,2.52,0,3.79-.06,2.53-.18,5.08-.36,7.63-.4,9.73-1.48,19.25-2.65,27.47-2.47,16.76-6.38,30-9.92,38.48.35-.86.66-1.72,1-2.57.44-1.09.9-2.25,1.29-3.36s.76-2.24,1.09-3.34l.46-1.66.64-2a81.75,81.75,0,0,0,2.1-8.13c0-.17.06-.32.11-.51l.15-.6.3-1.2.56-2.39c.35-1.59.65-3.17.92-4.74.42-2.94,1.23-6.79,1.7-10.33q.38-2.69.63-5.34l.12-1.33c.05-.45.13-1,.19-1.47l.36-3c.45-4,.68-7.86.85-11.85q.51-6.47.56-12.81v-3.16c0-1,.06-2.26.06-3.38.05-2.27.05-4.54,0-6.8s-.11-4.5-.22-6.73l-.09-1.67,0-1.77-.11-3.55q-.25-7.1-1-14.05c-.29-4.87-.71-9.71-1.27-14.49l-.44-3.57-.24-1.79-.2-1.83q-.39-3.69-.88-7.32c-.32-2.43-.68-4.84-1.07-7.25l-.6-3.59-.54-3.64q-1.09-7.26-2.55-14.38c-.51-2.37-.9-4.73-1.36-7.07s-.93-4.69-1.43-7-1-4.63-1.59-6.93c-.3-1.15-.51-2.26-.76-3.38l-.38-1.68c0-.1,0-.06,0-.06h0v0l0,0c.1.21.19.45.32.69l.69.49c.13.08.22.22.39.26l.51.16a13.77,13.77,0,0,0,5.36.59c.54,0,1.08-.07,1.63-.09l1.69-.24a12.59,12.59,0,0,0,1.7-.29c.55-.13,1.16-.19,1.7-.35a51.21,51.21,0,0,0,6-1.84c.22-.4.46-.78.7-1.15s.23-.69.35-1l.09-.23,0-.19-.05-.37,0-.16v-.1h0s0,0,0,.09l.11.16.86,1.29q3.42,5.13,7,10.22t7.19,10l.92,1.23,1,1.37,2,2.77,4,5.5q4,5.48,8.23,10.85l2.1,2.68,1.06,1.33,1.1,1.47c1.46,1.95,3,3.89,4.45,5.82q4.49,5.79,9.17,11.46,2.34,2.84,4.73,5.64l.3.35,5.76,7h0v0l0,0-.13-.16-.24-.31-.49-.61c-1.3-1.62-2.63-3.17-4-4.63-.85-.94-1.72-1.84-2.59-2.71l-.16-.17-.21-.22-.42-.47-.84-.94-1.7-1.82q-3.43-3.58-7-6.76c-.15-.14-.27-.23-.46-.42l-.54-.54-1.08-1.06L783,875.26q-2.19-2.06-4.43-4t-4.49-3.76c-.7-.52-1.67-1.43-2.55-2.18l-2.69-2.3q-5.4-4.54-11-8.59l-1.39-1-1.6-1.26-3.22-2.49c-2.16-1.63-4.33-3.23-6.51-4.78s-4.39-3.06-6.59-4.53l-1.66-1.09-.83-.54-.93-.66-1.89-1.33-.94-.66c-.23-.16-.15-.11-.16-.12h0a.3.3,0,0,1,.19-.19l.08,0s.07-.15.11-.22.16-.32.25-.47a4.27,4.27,0,0,1,.3-.44l.16-.21.09-.11a1.72,1.72,0,0,0,.09-.19c.25-.55.52-1.09.82-1.62.15-.26.31-.52.47-.78l.49-1.14c.34-.76.7-1.52,1.07-2.27a11.45,11.45,0,0,0,.57-1.35l.58-1.47L738,824c.2-.49.41-.92.61-1.56l1.25-3.54.64-1.76.63-2,1.27-4.11c.11-.36.22-.66.32-1l.31-1.17.62-2.33c.41-1.57.83-3.05,1.24-4.69l1.16-5.16c.39-1.72.79-3.39,1.14-5.33.7-3.79,1.44-7.37,2-11.55a398.71,398.71,0,0,0,4.5-55.73c.22-18,.11-36.64-.2-56.2s-.81-40-1.24-62.19c-.2-11.15-.41-22.59-.46-34.89,0-3.09,0-6.17,0-9.26s0-6.46,0-9.7l0-4.9v-3.67l0-1-.24-8q-.27-8-.54-16.06t-.64-16.37c-.45-10.92-1-22.2-1.52-33.57-3.2-64.22-7-127.66-6.54-192.61.22-32.51,1.49-65.39,4.43-98.9,1.44-16.73,3.36-33.71,5.72-50.79q1-6.44,1.9-12.89c.33-2.15.67-4.3,1-6.45l.52-3.23.26-1.62.4-2.29c2.47-13.72,4.24-22.4,4.93-26v-.22l0-.12,0-.21a3,3,0,0,1,0-.43,2.71,2.71,0,0,1,.09-.41,1.13,1.13,0,0,1,.07-.18l0,0a.5.5,0,0,0,.13.07l18.44,3.4,18.76,3.39,18.64,3.3L827,83.69l5.92,1.09q11.22,2.09,22.27,4,22.1,3.9,43.46,7.26l5.3.83,3.56.62,7.07,1.18,13.9,2.23q13.75,2.13,26.8,3.89,9.36,1.45,18.16,2.62c5.85.79,11.51,1.48,16.92,2.09l12.13,1.49c3.7.43,7.21.8,10.51,1.11l4.78.44,2.27.19,1.71.19c8.81.93,14.78,1.26,17,1.4s.55.06-4.43-.29c-2.48-.18-5.79-.44-9.81-.83l-3.15-.33-.83-.09-.43,0-.55-.05-2.26-.19c-3.06-.27-6.34-.59-9.82-1s-7.17-.79-11-1.28l-2.94-.39-.75-.1-.85-.1-2-.23-8.3-1q-8.48-1-17.62-2.37l-9.54-1.42-13.36-1.88q-13.56-2-27.91-4.36l-7.21-1.22-1.82-.31-2.61-.41-5.44-.86Q885.17,93.91,874,92q-22.32-3.77-45.57-8.1l-9.18-1.6-2.4-.42-.3-.06-.14,0h0l0,0,.11.11a1.57,1.57,0,0,1,.18.19l.25.21.06.05,0,.15.08.31.33,1.21.09.31,0,.5.08,1,.08,1,0,.5,0,.25v4.47l-.07,1.75-.15,3.51,0,.43,0,.53-.07,1.07-.14,2.12-.15,2.13-.07,1.06-.1,1.25-.41,5-.1,1.25,0,.62v.45l0,1.72-.07,3.44-.29,13.76c-.21,9.18-.31,18.25-.42,27.33l-.14,13.59-.06,13.5c-.16,36,.15,71.32.58,106.1.86,69.59,2.22,136.94,1.57,202.59q-.25,24.62-.9,48.93l-.17,6.08-.09,3-.08,1.71-.09,1.81-.75,14.47q-.59,13.65-1.19,27.31c-.71,17.61-1.39,34.26-2.19,50.29s-1.76,31.18-3,45.93-2.68,28.72-4.44,42.26c-.47,3.33-.93,6.66-1.4,10s-1,6.44-1.53,9.68l-.8,4.8-.86,4.64-.86,4.63-.44,2.32-.47,2.23c-.63,3-1.27,5.91-1.9,8.87s-1.37,5.65-2,8.48c-.36,1.39-.69,2.86-1.06,4.18l-1.11,4-1.12,4-.56,2-.59,1.85c-.79,2.47-1.58,5-2.38,7.42L785.13,823l-.63,1.71c-.2.59-.43,1-.64,1.58l-1.3,3.1-1.29,3.1c-.43,1-.89,1.85-1.33,2.79q-1.11,2.36-2.24,4.7-1.12,2-2.19,4.07l-.52,1a7.51,7.51,0,0,1-.52.95l-1,1.69-1,1.69a11.75,11.75,0,0,1-1,1.58c-.64.87-1.24,1.76-1.82,2.65l-.43.68a5.15,5.15,0,0,1-.42.48c-.27.31-.54.63-.79.94s-.51.64-.75,1c-.12.14-.24.38-.35.44l-.34.27a10.73,10.73,0,0,0-1.18,1.15c1.74,1.12,3.45,2.21,5.19,3.39,3.47,2.34,6.74,4.71,9.74,7s5.72,4.48,8.13,6.66c.31-.22.65-.33,1-.61s.72-.68,1.11-1a19.18,19.18,0,0,0,2.52-2.19c.9-1,1.87-1.76,2.89-2.76q1.51-1.77,3.19-3.49a244.07,244.07,0,0,0,15.06-19.4c.66-13.66,1.11-29.15,1.62-45.85s1.12-34.69,2.27-53.79,2.86-39.32,5.71-60.8a670.11,670.11,0,0,1,12.8-68.92c1.06-4.28,2.13-8.43,3.28-12.74s2.36-8.65,3.59-12.93,2.57-8.83,3.91-13.19q1-3.36,2.08-6.7t2.15-6.76c1.5-4.79,2.83-8.22,4.25-12.06s2.84-7.52,4.29-11.25c2.93-7.45,5.91-15,9-22.36,12.27-29.68,25.63-59,38.73-89,3-80.78,3.4-163.74,10.72-249.65a6.66,6.66,0,0,1,4.87-7.47c3.15-.67,5.75,1.68,6.18,5.27,8.11,61.38,12.79,121.78,16.36,181.58,10.9-7.63,24-11.11,37.3-8.26,13.81,2.93,25.09,12,32.16,24.07,2.47-13,4.65-26,7.24-39,1.79-8,8.2-13.51,15-12.17,7.49,1.4,11.81,8.68,10.38,16.33q-14,79.08-27.87,158l-.9,24q-.51,11.94-1,23.88t-1.18,23.81l-.64,11.88-.73,12.33c-1,16.83-1.89,33.24-2.74,49.32s-1.74,32-2.75,47.63a75.33,75.33,0,0,1,36-13l.23,0c1.2-9.76,2.24-19.58,3.36-29.4-.37-5.81-.73-11.59-1-17.46l-.47-8.78-.4-8.86c-.26-5.89-.44-11.88-.61-17.88l-.51-17.39c-.63-23-1.07-46-1.2-69-.27-46.15.59-92.5,3.21-139.17s7-93.58,13.69-140.66c1.65-11.76,3.51-23.54,5.47-35.31,1-5.88,2-11.78,3.1-17.67l1.63-8.83.82-4.42,1-4.88c1.34-6.71,2.64-12.68,3.79-17.94s2.11-9.68,2.87-13.39,1.31-6.64,1.7-8.69.56-3.1.79-3.31c0,0,0,0,.1-.06s-.09,0,.89,0c1.4,0,2.68-.13,3.76-.21s2-.16,2.6-.23l1-.11-.19,0-.26,0h-.07l.26,0c.7,0,1.33-.08,1.85-.09a10.41,10.41,0,0,1,1.21,0l.3.06a.14.14,0,0,1,0,.17c-.27.87-.55,2.92-1.11,6.14s-1.41,7.57-2.55,12.91l-4.11,19-1.18,5.66-1.19,6-2,10.63c-5.26,28.36-9.56,56.74-13.07,85.06l.2-.2a5.21,5.21,0,0,1,7.82,1.13c1.66,2.5.94,6.93-1.31,8.84a5.2,5.2,0,0,1-7.78-1.07c-6.25,52.78-9.75,105.38-11.29,157.63s-1.16,104.2.33,155.9c12-93.64,23.84-188.17,45.73-281.7-2.27-11-4.64-21.94-6.62-33.1a7.19,7.19,0,0,1,5.42-7c2.75-.34,5.63,2.31,5.87,5.36.4,3.07,1,6.13,1.48,9.2a36.1,36.1,0,0,1,13.69-20.84,29.28,29.28,0,0,1,22.79-5.15,30.57,30.57,0,0,1,19.32,14.5,35.48,35.48,0,0,1,4,25.25c-5.1,49.87-11.17,99.35-18,148.74l.48,16.44c1.76,5.79,3.57,11.53,5.44,17.3,18.48-75.6,38.3-150.75,60.26-224.33,1-6.48,6.77-11.1,12.65-10.17s9.9,7,8.89,13.45c0,68-.57,136.19-2.77,205.06q-1.67,51.64-4.68,103.77-1.54,26.07-3.52,52.26l-1,12.92-.86,12.23q-.87,12.54-1.75,25.09c9.41,23.89,18.9,48.48,28,74s17.76,52,25.47,79.82c1.69-6.38,3.11-12.7,4.32-19.14a464.09,464.09,0,0,0,6.63-59.27,549.48,549.48,0,0,0-.24-55.3c-.23-4.43-.5-8.89-.82-13.18l-.51-6.5c-.18-2.14-.37-4.27-.55-6.41-.38-4.19-.81-8.48-1.25-12.6s-.92-8.24-1.39-12.35q-1.23-13.63-2.72-27.21t-3.2-27c-9-71.85-20.72-142.28-16.74-214.36a5.89,5.89,0,0,1,5.87-6.19,5.55,5.55,0,0,1,5,6.58c-1.27,70.7,14,138.12,20.1,211.17q1.9,22.8,3.76,45.08c1.11,15.67,2.84,27.75,4.57,41.59l1.35,10.36c.47,3.49.95,7,1.42,10.45s1,7,1.48,10.54,1,7.16,1.55,10.72,1.08,7.22,1.63,10.82l1.71,10.89q.88,5.55,1.78,11.07t1.87,11.15c.38-3.7.69-7.31,1-10.92s.56-7.23.8-10.83l.6-10.64.26-5.31.2-5.21c.1-3.48.21-7,.31-10.41l.18-10.19,0-5.08v-5q0-5,0-9.91c-.06-6.38-.17-13-.33-19.06l-.13-4.65-.07-2.33,0-2.61c0-3.52-.07-7-.1-10.56-.16-14.11-.56-28.09-1-42.09-.92-27.93-2.18-55.66-3-83.26s-1.32-55-.62-82.35A12.41,12.41,0,0,1,1317,404.2a6.22,6.22,0,0,1-3.72-3.29,167.12,167.12,0,0,1-7.3-22.49c-1.94-7.65-3.43-15.43-4.65-23.22a6,6,0,0,1,4.42-7.38C1308.54,346.77,1311.19,349,1312.42,352.41ZM959.34,491.74l4.31-.17c-3,1.22-6.21,2.55-9.73,4.06l-3.37-.34c-3.37-.33-10.1-1-23.65-2.22C926.9,493.07,943,492.14,959.34,491.74Zm16.51-180.18-.05.07,15.37,2.2ZM738.12,915.66c1.63,26.92.52,52-2.66,71.84l-.34,1.93c-.11.63-.28,1.35-.34,1.87-.16,1.11-.34,2.24-.54,3.36q-.6,3.38-1.44,6.8l-.43,1.69-.3,1.44c-.21,1-.44,1.92-.69,2.89-.49,1.94-1.07,3.88-1.72,5.84-.44,1.61-.9,3.17-1.46,4.78-.28.79-.57,1.6-.88,2.4l-.49,1.21c-.16.4-.22.63-.34,1-.44,1.22-.93,2.45-1.49,3.7-.28.62-.58,1.25-.89,1.88l-.12.23-.06.16-.14.32-.29.64c-.4.87-.85,1.75-1.36,2.64-.64,1.09-.71,1.32-1.06,1.9s-.64,1-1,1.61l-.07.1-27.24,40.74.06-.1.26-.42.54-.8c.36-.51.73-1,1.11-1.47l.57-.68.15-.16.2-.27.41-.53c.56-.7,1.12-1.37,1.7-2s1.16-1.25,1.76-1.82c.13-.12.34-.36.53-.57l.58-.62c.38-.42.78-.82,1.17-1.21.79-.79,1.59-1.55,2.41-2.27q.6-.54,1.23-1.05c.19-.15.46-.42.7-.65l.76-.69a69.66,69.66,0,0,1,6.22-5.07l.4-.29.47-.38.93-.74,1.89-1.46q1.89-1.42,3.83-2.73l2-1.27c.33-.22.63-.39,1-.64l1.11-.79q2.24-1.55,4.52-3t4.59-2.75l1.16-.65.59-.33.64-.4,2.61-1.57c3.48-2,7-4,10.59-5.69,3.86-2.07,7.88-4.15,11.88-6l3-1.36c1-.46,2-.83,3.12-1.4,2.2-1,4.41-2.07,6.63-3s4.44-1.91,6.68-2.81,4.4-1.68,6.9-2.77q7.27-3,14.63-5.63-7.18,2.54-14.3,5.49l-1.77.74c-.6.26-1.19.51-1.72.7l-3.28,1.28c-2.18.87-4.36,1.78-6.52,2.73s-4.33,1.92-6.47,2.94l-1.61.77c-.53.25-1,.43-1.5.65l-2.94,1.32q-5.88,2.67-11.64,5.8l-.72.39-.65.32-1.31.64-2.59,1.34c-1.73.9-3.45,1.85-5.15,2.83l-2.55,1.5-1.27.77c-.42.27-.85.54-1.21.72q-2.26,1.26-4.49,2.62t-4.43,2.84l-2.18,1.51-.54.38-.48.3-.95.61a91.71,91.71,0,0,0-7.46,5.38c-1,.84-1.75,1.34-2.55,2s-1.59,1.23-2.38,1.88-1.56,1.31-2.32,2l-1.15,1c-.18.17-.39.38-.55.51l-.47.39c-1.24,1.06-2.47,2.19-3.65,3.4-.6.61-1.18,1.23-1.76,1.88-.46.44-.9.88-1.35,1.35-.88.94-1.74,2-2.57,3l-.31.41-.22.26-.43.51c-.29.35-.57.71-.85,1.09s-.55.78-.82,1.19l-.2.31-.1.16-.05.08,0,0,0,0,27.22-40.7.22-.31c.29-.42.55-.83.79-1.23s.44-.78.63-1.15c0-.06.16-.27.25-.43l.3-.51.55-1c.35-.67.67-1.33,1-2l.21-.48a5.3,5.3,0,0,1,.25-.56l.69-1.43c.43-.94.83-1.88,1.19-2.81l.51-1.39.24-.69.37-.92a63.25,63.25,0,0,0,2.42-7.23A206.19,206.19,0,0,0,737.41,972c.23-2.15.4-4.28.54-6.4s.15-4.11.37-6.53q.49-7,.43-13.79c0-1.09,0-2.39.06-3.6l0-3.68q0-3.68-.12-7.31C738.47,926,738.45,920.69,738.12,915.66Zm353.51-455.95a163.41,163.41,0,0,1-27.54,2.91c-4.67.13-9.37.12-14.09,0q-3.54-.07-7.1-.21l-7.05-.29a72.14,72.14,0,0,1-12.79,24.7c-3.85,5-7.64,9.91-11.56,14.75q-2.93,3.63-5.9,7.21c-2,2.38-4,4.74-5.91,7.11q-5.82,7.07-11.84,14l-12.06,13.62c8.89,1.8,5.11,6.13,4.52,9.12-.89,2.94-1.9,5.76-2.77,8.65q6.8-6.9,13.65-13.72c2.24-2.28,4.69-4.53,7-6.78l7.15-6.74,7.18-6.71c2.4-2.23,4.79-4.47,7.31-6.68l15-13.25q3.4-3,6.74-6.1l6.86-6.27c4.57-4.21,9.12-8.47,13.72-12.64s9.44-8.23,14.31-12.05A165.67,165.67,0,0,1,1091.63,459.71Zm87.87-168c1.34.08,2.53.14,3.92.14l6.63,12Zm-11.58-20c-1.26.63-2.58,1.22-3.92,1.94C1161.23,269.54,1163.39,269.63,1167.92,271.71Zm-35.54,18.18c4,.45,6.45.75,8.58.3ZM821.51,76.66q20.22,26,40.61,51.78-19-25.54-37.75-51.32Z"/></g></g></svg>