<svg xmlns="http://www.w3.org/2000/svg" viewBox="0 0 980.56 1064.12"><defs><style>.top-1{fill:#d0d0d0;}</style></defs><g id="Layer_2" data-name="Layer 2"><g id="Layer_2-2" data-name="Layer 2"><path class="top-1" d="M141.47,877.71c.74,1.38,1.37,2.79,2.11,4s1.37,2.39,1.94,3.37l1.85,3.26c.78-.45,1.48-1,2.24-1.54C146.72,883.5,143.86,880.61,141.47,877.71Z"/><path class="top-1" d="M106.43,881c.59,1.29,1.19,2.61,1.79,3.91a9,9,0,0,1,1.64-1.72A34.16,34.16,0,0,1,106.43,881Z"/><path class="top-1" d="M149.68,886.79c4.11-2.93,7.73-6.69,11.81-9.65s8.59-5.18,14.26-5.33c1.36,2.62,3.9,6.3,6.22,10.1l.88,1.42c.3.47.64.92,1,1.37l1.84,2.62,3.1,4.48c4,.83,6.21-.86,7.95-3,.88-1.1,1.65-2.34,2.48-3.5a13.69,13.69,0,0,1,2.88-3.08c3.4,4.5,6.85,9,9,7.3,2.28,0,3.86-.68,4.8-1.87a5,5,0,0,0,1-2.18c0-.21.07-.44.1-.65a5.18,5.18,0,0,0,.17-.56,7.59,7.59,0,0,0,.23-1.19,14.5,14.5,0,0,0-.5-5.53,49.67,49.67,0,0,0-2.51-6.5,52.3,52.3,0,0,1-7.18-.64c-1.21-.19-2.46-.4-3.66-.67s-2.35-.6-3.53-.95c-2.37-.69-4.75-1.5-7.13-2.38-1.22-.43-2.32-.93-3.45-1.44l-3.37-1.56-3.35-1.61c-1.1-.55-2.23-1.09-3.24-1.68l-6.09-3.41-2.95-1.6c-1-.52-1.83-1.07-2.72-1.57-1.77-1-3.48-1.91-5.11-2.68a33.35,33.35,0,0,0-4.61-1.81,13.14,13.14,0,0,0-3.89-.7,6.31,6.31,0,0,0-5.79,3.47C145.52,856.61,144.65,867.34,149.68,886.79Z"/><path class="top-1" d="M106.79,845.53l3.23,9c.49,1.51,1.16,2.94,1.75,4.42l1.79,4.4c.61,1.46,1.18,2.94,1.81,4.39l2,4.31,2,4.32,1,2.16c.33.72.72,1.41,1.07,2.11,3.73.36,7.57,1,11,.68s6.31-1.46,8.28-4.51c-1.56-1.78-3.09-3.46-4.61-5.06s-2.81-3.2-4.21-4.68-2.77-2.89-4.16-4.23-2.63-2.69-4-3.94-2.67-2.46-4-3.61l-4.12-3.38A104.44,104.44,0,0,0,106.79,845.53Z"/><path class="top-1" d="M577.11,502.22c.56.62.88,1.2.33,1.88s-2.09,1.4-5.05,2.33l2.44-2.12,1.17-1,1.11-1.07c-1-1.21-2.78-2.69-1.45-5.26l-2.54,3.15-2.8,3.1c-.92,1.09-2,2-3,3.09l-1.54,1.56-1.65,1.49a107.43,107.43,0,0,1-14.64,11.34c-10.61,6.88-22.87,12.31-34.71,14.66-1.31,1.71-2.63,3.3-4,5-.68.86-1.35,1.63-2,2.42l-2,2.38c15.61-1.54,32.18-6.9,46.94-15.08s27.93-19,37.36-31.09a82.22,82.22,0,0,0,11.12-18.61,56.1,56.1,0,0,0,4.47-18.22,40.87,40.87,0,0,0-2.07-15.88l-.28-.9-.36-1c-.25-.66-.46-1.35-.74-2l-.81-1.84c-.27-.61-.6-1.14-.89-1.7a22.14,22.14,0,0,0-4-5.38,57.71,57.71,0,0,1,2,8.15c.13.76.29,1.5.37,2.32l.17,1.19.09.6,0,.5c0,.67.12,1.34.2,2l.13,1v1a56.37,56.37,0,0,1-1.5,16.29C596.37,477.77,589.63,490.38,577.11,502.22Z"/><path class="top-1" d="M502.21,561.85l-1.88.08-1.83,0-3.68-.06c3.25,1.3,5.14,1.81,6.16,1.66S502.19,562.7,502.21,561.85Z"/><path class="top-1" d="M656.74,777.15c14.87-15.39,26.47-32.71,35.87-50.63s16.64-36.57,23-55.47a445.16,445.16,0,0,1-31,53.06,416.71,416.71,0,0,1-36.12,45.82,373.61,373.61,0,0,1-38,36.35q-9.46,7.83-18.68,14.46c-3.07,2.23-6.09,4.34-9.12,6.36s-6,4-9,5.91l10.89-4.94,5.36-2.7,5.34-2.86q10.66-5.87,21.09-12.94A339.12,339.12,0,0,0,656.74,777.15Z"/><path class="top-1" d="M754.21,482c-8.28,24.54-14.8,47.18-20.41,69s-10.31,42.73-15.38,63.34a607.31,607.31,0,0,0,37-120.08c-.17-2-.35-4.11-.53-6.18S754.5,484,754.21,482Z"/><path class="top-1" d="M754.68,542.89c-7.92,23.23-14.43,45-20.51,66.21s-11.84,41.73-18.6,61.95C736.47,629.13,750.17,584,754.68,542.89Z"/><path class="top-1" d="M207.19,382.26q3-4.25,5.77-8.28c1.91-2.67,3.86-5.15,5.73-7.62,3.78-4.9,7.35-9.66,11-13.82s7-8.22,10.29-12,6.53-7,9.56-10.12c1.53-1.56,3-3.08,4.43-4.55s2.88-2.76,4.26-4.07c2.76-2.61,5.37-5,7.8-7.22l3.54-3.16c1.16-1,2.28-1.9,3.35-2.78,2.16-1.76,4.16-3.34,6-4.77,2.29-3.9,5-8.49,8.46-13.48,1.72-2.53,3.59-5.23,5.64-8.11s4.26-6,6.75-9.11c-2.77,1.59-5.65,3.44-8.34,5.15a552.2,552.2,0,0,0-64.78,57.4,500.67,500.67,0,0,0-56,69.38l-4.55,8.07c-1.46,2.71-2.82,5.48-4.19,8.19s-2.67,5.41-4,8.08c-.64,1.34-1.28,2.66-1.89,4l-1.74,4.06c-2.28,5.37-4.41,10.61-6.33,15.72s-3.42,10.27-4.84,15.12l7-11.84c1.15-2,2.43-3.86,3.66-5.77l3.73-5.71c4.91-7.7,10.29-14.89,15.57-22.18,1.31-1.84,2.69-3.59,4.07-5.34l4.14-5.24,4.16-5.23,2.09-2.6,2.15-2.52C195.49,395.27,201.19,388.52,207.19,382.26Z"/><path class="top-1" d="M278.89,303.92c-2.43,4.2-4.29,7.68-5.67,10.54a50.63,50.63,0,0,0-2.78,6.94c-1,3.49-.62,4.79.69,4.59s3.51-1.9,6.11-4.43a113.35,113.35,0,0,0,8.63-9.12c5.82-7,11.49-14.16,11.94-17.34.22-1.56-.86-2.07-3.84-.86a43.77,43.77,0,0,0-6,3.18C285.48,298.94,282.5,301.17,278.89,303.92Z"/><path class="top-1" d="M256.49,631.08c-.11.87-.27,1.74-.34,2.63l-.21,2.66c.09,2.56.17,5.17.26,7.77l.06,1.94c.05.65.12,1.29.18,1.94.12,1.28.25,2.57.37,3.84-.11-1.77-.23-3.51-.34-5.24s0-3.44-.05-5.16l0-5.17c0-.86,0-1.73,0-2.6S256.46,632,256.49,631.08Z"/><path class="top-1" d="M529.3,974.77a367.5,367.5,0,0,1-120.72-4.07A318.54,318.54,0,0,0,470.15,979a312.18,312.18,0,0,0,60.24-3.66l7.27-1.17c2.4-.43,4.78-1,7.15-1.48l7.08-1.55,3.52-.79,3.46-1c4.6-1.28,9.17-2.51,13.65-3.88s8.84-3,13.17-4.52c2.18-.73,4.29-1.62,6.39-2.48l6.27-2.59c2.06-.88,4.13-1.72,6.15-2.63l6-2.89,5.86-2.9,2.88-1.45c1-.49,1.88-1.05,2.81-1.56q5.58-3.16,10.93-6.33a102.18,102.18,0,0,1-14.06,4.58,117.24,117.24,0,0,0-14.25,3.89c-2,1.54-4.32,3-6.73,4.43s-5,3-7.67,4.5-5.56,2.94-8.55,4.34-6.11,2.78-9.33,4.15-6.61,2.43-10.06,3.59-7,2.32-10.6,3.13-7.32,1.69-11.05,2.42c-1.86.4-3.75.64-5.64.89S531.2,974.57,529.3,974.77Z"/><path class="top-1" d="M377.57,414.22a345.49,345.49,0,0,0-51.41,46.36,298.85,298.85,0,0,0-39.07,54.66l-2,3.59-1.85,3.68c-1.23,2.45-2.45,4.89-3.67,7.34-.64,1.2-1.16,2.46-1.71,3.71l-1.63,3.74L274.57,541c-.53,1.24-1.12,2.46-1.56,3.74l-2.85,7.56-1.41,3.76-1.21,3.83-2.4,7.61c-.43,1.25-.72,2.55-1.06,3.83l-1,3.84a221.64,221.64,0,0,0-7.16,61.18,227.7,227.7,0,0,0,2.53,60.32c.33,2.49,1,4.94,1.48,7.4s1.08,4.92,1.61,7.37c.24,1.24.61,2.44.95,3.66l1,3.64c.68,2.42,1.35,4.84,2,7.26,1.6,4.78,3.27,9.53,4.89,14.28l2.84,6.9,1.4,3.44.71,1.72c.23.57.52,1.11.78,1.67a222.19,222.19,0,0,0,30.89,49.49l2.26,2.8,2.43,2.66,4.83,5.31c.4.43.79.89,1.21,1.31l1.28,1.25,2.56,2.5c1.71,1.65,3.38,3.34,5.11,5l5.37,4.66c1.78,1.55,3.52,3.14,5.43,4.53,3.76,2.86,7.36,5.86,11.3,8.41a207.06,207.06,0,0,0,101.19,36.64,205.88,205.88,0,0,0,51.28-1.89,198.51,198.51,0,0,0,47.05-13.85,362.61,362.61,0,0,0,39.94-21.19,323.15,323.15,0,0,0,41.07-30,371.17,371.17,0,0,0,40-40,417.56,417.56,0,0,0,35.83-48.36,437.08,437.08,0,0,0,29.2-53.9,411.43,411.43,0,0,0,20.68-56c10.67-37.27,14.72-73.46,11.67-104-4.4,11.59-8.38,22.73-12.05,33.51a249.18,249.18,0,0,0,.78-48.62,540.48,540.48,0,0,0,9-67.26c.77-11,1.16-21.95,1.16-32.66s-.45-21.22-1.25-31.43a299,299,0,0,0-9.74-56.79,208,208,0,0,0-8.23-23.9c-1.56-3.64-3.12-7.2-4.83-10.49s-3.41-6.48-5.18-9.47l-1.34-2.21c-.44-.74-.92-1.41-1.37-2.12-.88-1.45-1.87-2.72-2.76-4.09l-1.43-1.93c-.46-.65-.93-1.29-1.42-1.88s-1-1.21-1.43-1.83-1-1.15-1.47-1.74l-.71-.87-.76-.82-1.46-1.66c-1-1-2-2.14-3-3.1-2-2.05-4.11-3.86-6.21-5.66-.54-.43-1.07-.86-1.6-1.31s-1.1-.82-1.64-1.25c-1.05-.88-2.23-1.61-3.32-2.44-2.31-1.52-4.58-3.09-7.08-4.45a110.38,110.38,0,0,0-16.29-7.65c-.72-.31-1.52-.56-2.29-.83l-2.33-.84-2.43-.76c-.8-.27-1.6-.54-2.46-.76-1.69-.47-3.34-1-5.13-1.41l-2.64-.69-2.74-.61a191.35,191.35,0,0,0-24-3.78,272.9,272.9,0,0,0-27.52-1.24c-2.44,0-4.84,0-7.36.1l-3.73.11-.94,0c-.3,0-.61,0-1,.05l-2.17.13-17.34,1c-1.73.05-3.35.31-5,.51s-3.23.46-4.8.72c-3.16.53-6.22,1.13-9.22,1.79s-5.84,1.55-8.68,2.38L543,215.77l-4.16,1.3-4.07,1.47c-2.71,1-5.44,1.91-8.23,2.78-5.66,1.61-11.17,3.55-17.3,4.83l-4.61,1.06c-1.54.35-3,.84-4.49,1.25L491.27,231c-1.47.44-3,.78-4.41,1.28l-4.27,1.46-8.54,2.84c-1.45.43-2.81,1-4.17,1.53l-4.1,1.62-8.2,3.16-7.88,3.55-3.95,1.73c-.65.29-1.33.55-2,.87l-1.9,1a2.09,2.09,0,0,0,1.49,1.3A294.48,294.48,0,0,0,385.81,289a325.11,325.11,0,0,0-47.9,51.59c-29,39.4-53,88.59-71.25,145.83q-1.73,5-3.52,9.93c-.61,1.64-1.18,3.32-1.75,5l-1.72,5.07-3.54,10.1c-1.2,3.36-2.29,6.85-3.46,10.26l-3.53,10.27c-1.16,3.44-2.26,7-3.41,10.44L242.27,558l-3.34,10.48c-4.38,13.94-8.47,27.68-12.09,41.22s-6.68,26.82-9.13,39.86c-3.49,19.42-14.13,17.63-18.61,30.22-5.06,12.42-9.19,23.9-12.7,35.07-1.85,5.63-3.27,11-4.77,16.54-.64,2.72-1.28,5.43-1.93,8.15l-.47,2-.39,2-.78,4.06c-4,21.68-5.08,43.67-.38,67.86L169.84,818c.41.89.78,1.78,1.14,2.66.18.44.35.87.52,1.31l.56,1.26q1.09,2.5,1.94,4.9c1,3.24,2.14,6.12,2.74,8.91a54.77,54.77,0,0,1-7-2.48l-1.75-.77c-.57-.28-1.12-.58-1.68-.88-1.11-.6-2.23-1.23-3.34-1.9-2.21-1.34-4.45-2.77-6.59-4.33s-4.13-3.26-6.16-5l-3-2.57-2.8-2.65-5.43-5.2c-3.44-3.4-6.53-6.6-9.49-9-5.72-5-10.45-7.13-14.2-2.61a17.75,17.75,0,0,0-2.59,4.72,45.85,45.85,0,0,0-1.89,7.51c-.27,1.51-.52,3.16-.74,5s-.28,3.68-.39,5.75-.15,4.28-.18,6.66.15,4.85.27,7.53l-.08,0c-1.11-2.06-2.2-4-3.26-5.91s-1.94-3.77-2.91-5.58l-.37-1.36c-.08.07-.19.1-.26.16-2.5-4.44-4.54-8.6-6.75-12.36S92,804.45,89.76,801.2c-1.07-1.63-2.19-3.2-3.3-4.73s-2.17-3.06-3.31-4.53-2.34-2.93-3.58-4.37l-3.81-4.3a381.56,381.56,0,0,0,7.4,40.05c-4.29-1.58-8.42-2.38-11.84-.1-1-1-1.95-1.94-2.94-3.11-.67-3.06-1.4-5.83-1.74-7.91s-.63-3.35-.63-3.35a25.87,25.87,0,0,0-7.07-3.38l-1.74-3.34c-.57-1.14-1.07-2.31-1.61-3.49-1.06-2.37-2.11-4.83-3.15-7.33s-2-5.08-2.94-7.69-1.83-5.26-2.76-7.89c-1.71-5.31-3.26-10.66-4.8-15.84-1.37-5.19-2.76-10.21-4-14.88s-2.36-9-3.54-12.71A69.23,69.23,0,0,0,31,723c-2.29-4.82-4.79-6.58-7.67-3.6-1.49,2.31-2.31,5.91-2.67,10.53a114.23,114.23,0,0,0,.63,16.62c1.48,12.74,4.61,28.34,8.49,44.63a42.29,42.29,0,0,0-1.7,7c-.57-2.69-1.18-5-1.73-7.1a55.06,55.06,0,0,0-1.56-5.29,16.5,16.5,0,0,0-3.28-6c-2.24-2.28-4.56-1.51-6.82-.14s-4.44,3.32-6.43,3.25a3.52,3.52,0,0,1-2.82-2,12.7,12.7,0,0,1-1.25-2.76,36.58,36.58,0,0,1-1-4.28c-1.63-18.37-2.87-36.7-3.12-55a434.54,434.54,0,0,1,2.29-54.55c2-18.34,4.75-36.12,7.9-53.48S17,576.56,20.92,560s8.15-32.84,12.6-48.88c2.28-8,4.49-16,6.92-23.9q1.77-5.94,3.55-11.88l1.78-5.94,1.89-5.91c9.91-31.58,20.89-62.95,33.74-94.56a874.83,874.83,0,0,1,45.54-95.67q2.38-4.26,4.77-8.48c.78-1.42,1.62-2.8,2.48-4.18l2.55-4.15a491.34,491.34,0,0,1,64.55-84.71c3-3.29,6.2-6.34,9.37-9.45l9.57-9.25c.79-.78,1.61-1.53,2.45-2.26l2.51-2.2,5-4.4,5-4.38,2.53-2.19c.83-.73,1.69-1.45,2.58-2.13l10.55-8.27c3.53-2.74,7-5.53,10.75-8l11.07-7.71c1.86-1.26,3.67-2.6,5.6-3.78l5.75-3.58q-2.1,3.07-4.34,6.15c-1.48,2.06-2.9,4.24-4.4,6.34A635,635,0,0,1,350.16,74l9.68-4.66c1.62-.76,3.21-1.62,4.86-2.31l4.91-2.15,9.82-4.35c3.27-1.45,6.51-3,9.85-4.27,6.62-2.66,13.23-5.42,19.85-8.17q10-3.73,20.05-7.66A612.7,612.7,0,0,1,530.35,11.78c4.3-1,8.61-1.62,12.92-2.36l13-2.18,6.51-1.07,6.5-.84,13-1.66c4.39-.52,8.62-1.15,13.27-1.52l6.85-.62c2.28-.21,4.6-.33,6.9-.49l6.93-.45,7-.28c4.65-.22,9.37-.24,14.08-.3a393.72,393.72,0,0,1,57.8,3.85c2.45.31,4.91.74,7.37,1.14s4.92.79,7.38,1.27c4.94,1,9.88,1.91,14.83,3.11s9.91,2.45,14.87,3.79c2.48.67,4.95,1.46,7.43,2.2l3.72,1.14,3.71,1.24a301.26,301.26,0,0,1,29.5,11.53,288.14,288.14,0,0,1,28.74,14.9c4.72,2.73,9.32,5.72,13.92,8.71l6.79,4.71c2.28,1.56,4.45,3.26,6.68,4.9a293.45,293.45,0,0,1,25.42,21.56,327.17,327.17,0,0,1,44.42,53,365.38,365.38,0,0,1,32,58.82c4.36,10.07,8.26,20.23,11.78,30.43s6.53,20.45,9.26,30.72,5,20.54,7.07,30.82c1,5.14,1.91,10.28,2.81,15.42s1.63,10.28,2.3,15.41c5.57,41.08,6.59,81.93,4.34,122.48a796.35,796.35,0,0,1-16.4,121.1c3-16.58,5.35-33.24,7.33-50s3.49-33.52,4.52-50.44,1.64-33.93,1.71-51.11-.3-34.5-1.29-52c-.58-31.5-4-63.44-11.25-94.33a732.28,732.28,0,0,1,11.25,94.33,660.91,660.91,0,0,1-4.73,89.66c-3.41,29.28-8.27,57.79-13.62,85.31s-11.2,54.08-16.62,79.64-10.46,50.13-14.2,73.84c-6.24,8.16-8.74,7-12.91,15.67-7.43,15.27-15.52,30.26-24,44.91s-17.33,29-26.26,43c-17.86,28.08-36.19,54.81-52.85,81.32,1,.93-3.72,7.1-7.46,12.52s-6.49,10.14-.87,8.29a462.47,462.47,0,0,1-35.14,35.19,490.45,490.45,0,0,1-41.5,33.56l-5.56,4L714,969.54c-3.75,2.63-7.68,5.12-11.52,7.66-7.82,5-15.72,9.85-23.85,14.43s-16.34,9-24.59,13.06l-6.15,3.09c-1,.5-2,1-3.07,1.52l-3.12,1.42-12.33,5.64c-28.59,12.11-58,24.25-89.51,34.18a407.38,407.38,0,0,1-202.79-18c-4.13-1.49-8.26-3-12.39-4.56s-8.16-3.39-12.23-5.12l-6.1-2.63c-2.05-.86-4-1.89-6-2.83q-6-2.9-12-5.87c-2-1-4-2.05-5.92-3.12l-5.88-3.23-5.87-3.28-2.93-1.66-2.87-1.76c-7.64-4.74-15.36-9.42-22.71-14.73-3.7-2.61-7.44-5.19-11.08-7.91s-7.18-5.58-10.76-8.41l-5.36-4.27-5.18-4.48q-5.19-4.51-10.33-9.1c-3.36-3.13-6.63-6.36-9.93-9.58s-6.61-6.43-9.7-9.86-6.27-6.8-9.38-10.24l-2.32-2.59-2.23-2.66-4.43-5.36-4.41-5.4c-1.45-1.81-3-3.6-4.32-5.48q-4.17-5.58-8.27-11.25c-1.36-1.89-2.75-3.77-4.08-5.69l-3.85-5.82q-3.83-5.85-7.6-11.77c-2.44-4-4.73-8-7.07-12.08l-3.47-6.1c-.57-1-1.16-2-1.71-3.06l-1.6-3.11q-3.18-6.22-6.3-12.51c-1-2.1-2.13-4.18-3-6.31l-2.83-6.38q-2.82-6.4-5.56-12.86C95.6,797.17,94,793,92.44,788.7l-2.37-6.4c-.77-2.15-1.61-4.24-2.29-6.46-1.41-4.39-2.8-8.81-4.16-13.23l-2-6.66c-.34-1.1-.66-2.23-.94-3.37l-.89-3.42q-1.75-6.82-3.43-13.72c-1.19-4.55-2-9.28-3-14s-1.79-9.42-2.65-14.15a425.69,425.69,0,0,1-2.15-118.51c.67-5,1.45-10,2.23-15L72,566.35c.4-2.51,1-5,1.46-7.44q1.55-7.42,3.19-14.86c.52-2.49,1.23-4.9,1.85-7.35l2-7.33c2.53-9.86,5.79-19.37,9-29,.78-2.42,1.69-4.76,2.59-7.11l2.71-7.06c1.86-4.69,3.63-9.48,5.71-14s4.18-9.12,6.36-13.72c.55-1.14,1.08-2.31,1.66-3.44l1.75-3.37c1.19-2.24,2.38-4.5,3.57-6.76,4.72-9.14,10.09-17.87,15.52-26.73,1.34-2.25,2.81-4.34,4.23-6.5l4.35-6.44q2.19-3.21,4.41-6.44c1.47-2.15,3-4.17,4.58-6.25q4.63-6.22,9.39-12.4c3.23-4,6.53-8,9.83-11.91l5-5.9,5.14-5.67c3.45-3.76,6.89-7.54,10.39-11.21s7.12-7.14,10.69-10.67c1.8-1.75,3.56-3.55,5.39-5.23l5.48-5c3.66-3.32,7.29-6.67,11-9.86l11.14-9.29c1.85-1.52,3.69-3.08,5.56-4.54l5.61-4.32L252.64,288a556.22,556.22,0,0,0-58.41,58.86,506.31,506.31,0,0,0-50,69.61,459.78,459.78,0,0,0-37.9,80.27A424.55,424.55,0,0,0,85,585.41,380,380,0,0,0,77.54,673a368.26,368.26,0,0,0,12,82.26c13.47,50.14,38,97,69.33,130.51l5.19,6c1.75,2,3.6,3.89,5.4,5.83,3.64,3.84,7.22,7.68,10.92,11.41s7.57,7.29,11.36,10.89l2.85,2.69c.95.9,2,1.74,2.94,2.6l5.91,5.15a394.5,394.5,0,0,1-59-73.5c-1.09-1.65-2.08-3.34-3.06-5l-3-5.09-5.85-10.23c-3.66-6.92-7.16-13.92-10.63-21-3.16-7.09-6.37-14.26-9.33-21.4q-4.09-10.57-8-21.25A416.36,416.36,0,0,1,84,681.58a407.81,407.81,0,0,1,1-96.17,416.39,416.39,0,0,1,33.77-98.82,480,480,0,0,1,53.84-84.9c-.67,1.17-1.25,2.25-2,3.46A457.53,457.53,0,0,0,133,473.47a416.83,416.83,0,0,0-25.4,75.94,373.32,373.32,0,0,0-14.91,74.1,366.91,366.91,0,0,0-1.67,37q.24,9.15.68,18.2c.09,3,.44,6,.71,9s.61,5.93.92,8.88A321.84,321.84,0,0,0,108,763.09q1.3,3.85,2.59,7.69c.93,2.5,1.92,5,2.89,7.4q3,7.34,6,14.45c2.25,4.81,4.59,9.55,6.94,14.18,1.2,2.32,2.33,4.63,3.61,6.88s2.6,4.48,3.91,6.68l3.95,6.54c1.35,2.15,2.61,4.31,4.08,6.37,2.86,4.16,5.74,8.2,8.64,12.08,2.82,4.2,6,8.21,9.08,12.26s6.09,8.09,9.43,11.94L179,881.11c3.37,3.77,6.86,7.42,10.28,11.08-3-3.6-5.94-7.22-8.87-10.87s-5.57-7.49-8.33-11.27c-1.37-1.9-2.76-3.78-4.1-5.7l-3.86-5.84c-2.56-3.9-5.13-7.81-7.61-11.77s-4.71-8-7-12.1c-1.16-2-2.33-4-3.46-6.09l-3.18-6.2q-3.18-6.21-6.28-12.47-2.86-6.32-5.64-12.69l-2.77-6.38c-.9-2.12-1.65-4.21-2.48-6.32l-4.79-12.66-1.18-3.18-1.06-3.26-2.09-6.52c-1.37-4.37-2.81-8.7-4.06-13.13s-2.32-9-3.49-13.44l-1.69-6.74c-.5-2.27-1-4.57-1.42-6.86q-1.38-6.87-2.69-13.77l-.33-1.72-.26-1.75-.51-3.5-1-7a380.5,380.5,0,0,1-3.19-70.83,410.26,410.26,0,0,1,9.68-70.72,403,403,0,0,1,35.59-81c-.44,1.49-.91,3-1.36,4.55s-.78,3.05-1.08,4.47a72.66,72.66,0,0,0-3.05,11.2c-.41,2.19-.85,4.45-1.12,6.88s-.49,4.94-.65,7.49-.25,5.14-.29,7.72-.05,5.13.15,7.73a122.26,122.26,0,0,0,1.78,14.6c.43,2.23.9,4.34,1.46,6.29a48,48,0,0,0,2,5.41c1.41,3.24,3,5.69,4.79,7.09,3.54,2.79,7.67,1.42,12.28-6.13A398.26,398.26,0,0,1,185.93,483a417.15,417.15,0,0,1,39-58.28,451.54,451.54,0,0,1,46.42-49.87,472.54,472.54,0,0,1,49.1-39.42l6.05-4.2,3-2.07,3-1.94,11.83-7.55c3.89-2.42,7.77-4.62,11.53-6.84l5.6-3.25c1.84-1.06,3.7-2,5.52-3L377.61,301c3.45-1.81,6.85-3.38,10.11-5s6.41-3.1,9.44-4.51l8.78-3.82,8-3.42c.58-.25,1.34-.55,2-.83l2.11-.82c1.4-.55,2.7-1,4-1.51,5.11-1.89,9.43-3.35,12.94-4.44,7-2.19,10.84-3.06,10.93-2.74,1.75,1-1.3,3.18-7.88,6.61-3.29,1.73-7.47,3.77-12.43,6.21l-8.05,4-7.82,4.22c-21.77,11.58-50.9,28.21-77.6,48.39l-10,7.57c-3.25,2.59-6.45,5.25-9.63,7.85l-4.73,3.89c-1.54,1.32-3.05,2.69-4.56,4l-8.88,7.91c-2.86,2.65-5.61,5.35-8.3,7.94s-5.35,5.09-7.78,7.71l-7.12,7.49c-1.14,1.22-2.27,2.38-3.34,3.57l-3.1,3.55L259,411.42l-2.61,3.05-2.36,3c-3,3.83-5.55,7.12-7.53,9.77-1,1.3-1.81,2.52-2.48,3.54s-1.21,1.85-1.58,2.49c-.75,1.29-.89,1.79-.34,1.4l4.14-4.16c1.38-1.37,2.84-2.66,4.25-4l8.51-7.94c2.86-2.6,5.81-5.08,8.71-7.61s5.77-5.07,8.78-7.42c-1.14,1.44-2.32,2.81-3.4,4.29l-3.26,4.39q-3.22,4.37-6.31,8.66c-2,2.94-3.88,5.88-5.73,8.77l-2.72,4.31-1.32,2.13-1.23,2.18c-9.15,12.43-20.09,26.73-29.18,40.92-4.37,7.22-8.58,14.14-11.59,20.87-1.55,3.34-3,6.49-4.06,9.52a74.83,74.83,0,0,0-2.41,8.57l-1.7,6.74c-.52,2.27-1,4.54-1.57,6.83s-1.08,4.54-1.62,6.82l-.84,3.39c-.25,1.15-.49,2.3-.74,3.45-1,4.61-2,9.2-3,13.79s-1.79,9.33-2.73,14a424.76,424.76,0,0,0-6.89,57.55l-.24,7.35-.12,3.68c0,1.23,0,2.46,0,3.69.11,4.92.15,9.84.38,14.77s.77,9.84,1.2,14.76c.09,1.24.28,2.46.45,3.68l.53,3.67c.36,2.44.73,4.88,1.09,7.33a230.38,230.38,0,0,0,17,56.25q2.1,4.07,4.27,8.22l2.17,4.15c.38.69.72,1.38,1.12,2.07l1.22,2.07,5,8.3c.84,1.38,1.65,2.78,2.53,4.16l2.77,4.08,5.6,8.19c1.92,2.7,4,5.33,6.07,8l3.09,4c.53.66,1,1.33,1.57,2l1.66,1.92,6.7,7.68,1.68,1.91c.57.63,1.18,1.23,1.78,1.85l3.58,3.67c1.2,1.21,2.39,2.43,3.59,3.65l1.8,1.82c.6.6,1.26,1.17,1.89,1.75l7.61,6.91,1.9,1.71,2,1.64,4,3.23,4,3.22c.67.53,1.32,1.07,2,1.58l2.09,1.51,8.3,5.95c1.35,1,2.83,1.89,4.25,2.82l4.29,2.72,4.27,2.7c1.42.9,2.94,1.68,4.39,2.52.91-1,2.71-.58,4.85.48a37.85,37.85,0,0,1,3.38,2l1.75,1.14,1.79,1.07c4.71,2.8,8.49,4.87,6.79.07,4.64,3.8,9.75,7.17,14.79,10.69,1.24.9,2.58,1.66,3.89,2.48l3.94,2.4,3.95,2.39c1.3.82,2.7,1.47,4,2.2l8.12,4.22c2.72,1.32,5.51,2.47,8.23,3.66l4.07,1.73c1.34.58,2.75,1,4.11,1.5,2.73,1,5.43,1.87,8.08,2.73,1.32.45,2.67.77,4,1.11l3.95,1c2.61.59,5.14,1.23,7.65,1.62s5,.68,7.36.92c1.19.12,2.36.22,3.5.31l1.71.11h1.7a72.75,72.75,0,0,0,12.25-1,37.32,37.32,0,0,0,9.72-3.44l3.28.23c3.13.53,7.77.25,12.66-.26a164.61,164.61,0,0,0,52,.39,179.14,179.14,0,0,0,45.14-13.26l5.2-2.3c1.72-.76,3.39-1.7,5.07-2.55l5-2.61,2.49-1.31c.82-.44,1.63-1,2.44-1.43l9.64-5.82,9.33-6.36a338.55,338.55,0,0,0,35.92-29.61,535.6,535.6,0,0,0,51.24-45.09c-5.49,5.42-13,11.5-20.39,17.42s-14.8,11.77-20.07,17.3c-1.79,1.8-3.61,3.5-5.39,5.26s-3.61,3.4-5.39,5.11c-5.7,4.29-11.41,8.49-17.23,12.4s-11.68,7.69-17.66,11.17a319.68,319.68,0,0,1-37.08,18.41A269.49,269.49,0,0,1,524,890.82l-5.08,1.12c-1.7.36-3.4.82-5.11,1.06l-10.31,1.73c-6.9.84-13.87,1.74-20.88,2-2.32.69-5.38,1.69-8.75,2.37s-7.1,1.56-10.69,2c-4.07-.77-8.12-1.5-12.18-2.44a28,28,0,0,1-3.76,2.47l-5.25-.31c-1.75-.14-3.54-.18-5.29-.44L426,899.07c-3.55-.58-7.09-1.31-10.68-2l-2.7-.52-2.65-.66-5.34-1.35A249,249,0,0,1,363,879.47a294.94,294.94,0,0,1-37.66-21.61l-8.63-6-8.18-6.18c-2.78-2-5.25-4.18-7.84-6.24l-3.83-3.08c-.63-.51-1.28-1-1.89-1.53l-1.8-1.58-6.37-6.37-1.59-1.61-1.5-1.69-3-3.41-3-3.44c-1-1.15-2-2.29-2.9-3.52L269.26,806c-1.9-2.41-3.55-5-5.25-7.56s-3.41-5.13-5-7.76-3.06-5.37-4.59-8.06l-2.28-4.06-2-4.18q-2-4.22-4.06-8.43c-1.3-2.83-2.41-5.75-3.61-8.64l-1.76-4.36c-.29-.72-.59-1.45-.86-2.18L239,748.5q-1.49-4.46-3-8.91c-.48-1.49-1-3-1.46-4.47l-1.23-4.55c-.81-3-1.61-6.08-2.42-9.12-.44-1.52-.71-3.07-1-4.61l-.94-4.64-.92-4.64c-.31-1.54-.65-3.08-.83-4.66l-1.29-9.38c-.21-1.56-.45-3.12-.61-4.7l-.37-4.72-.7-9.45c-.11-3.16-.12-6.32-.17-9.48-.25-6.31.26-12.62.51-18.92,0-1.57.21-3.14.38-4.71l.49-4.69.49-4.7.26-2.34.37-2.33a266.41,266.41,0,0,1,21-71.39A247.27,247.27,0,0,0,235.33,627c0,1.47-.14,2.93-.13,4.41l.09,4.41c.06,2.92.13,5.84.19,8.75s.46,5.82.68,8.7.39,5.76.87,8.62c.84,5.72,1.46,11.39,2.74,17q.84,4.17,1.69,8.34l2.16,8.21c-.39-1.72-.79-3.43-1.18-5.14l-.59-2.57c-.19-.86-.31-1.72-.46-2.58q-.88-5.19-1.77-10.34c-.34-1.73-.46-3.46-.67-5.19s-.4-3.46-.59-5.18-.4-3.46-.59-5.19l-.3-5.19a242.54,242.54,0,0,1,.73-41.33,272,272,0,0,1,20.5-79l6.23-10.83,6.66-10.48a318,318,0,0,1,32.09-40.85l-4.45,4.15c-1.45,1.41-2.84,2.89-4.26,4.33l-4.22,4.37-2.1,2.19-2,2.28c-2.64,3-5.32,6.08-7.92,9.17l-7.45,9.54,6.05-10.72,6.52-10.43,1.64-2.61,1.74-2.53,3.5-5.06c1.17-1.68,2.31-3.4,3.52-5.06l3.7-4.9c4.85-6.65,10.14-12.89,15.4-19.2l8.19-9.18c1.34-1.56,2.79-3,4.21-4.47L330,429a370.43,370.43,0,0,1,53.55-41.91c4.85-3,9.72-6,14.64-9l7.5-4.19,3.77-2.1c1.25-.7,2.51-1.4,3.8-2l7.7-3.89c2.58-1.28,5.12-2.65,7.76-3.8l7.88-3.58,3.95-1.78c1.3-.6,2.76-1.17,4.13-1.76a290.44,290.44,0,0,1,33.92-11.37,300.67,300.67,0,0,1,35.12-7.25,251,251,0,0,1,36.67-2.65,185.94,185.94,0,0,1,38.56,4A130.51,130.51,0,0,1,628.63,353a107.23,107.23,0,0,1,18.44,14,99.73,99.73,0,0,1,15.18,18.32,105.7,105.7,0,0,1,10.44,21,118.45,118.45,0,0,1,5.65,21.59c.58,3.57,1,7.11,1.34,10.61.2,1.72.26,3.58.33,5.43l.18,5.53c0,1.84-.1,3.68-.17,5.52s-.11,3.7-.31,5.52l-.63,5.48-.34,2.74-.5,2.69a137.67,137.67,0,0,1-14.09,40.4,163.88,163.88,0,0,1-23.73,33.09,194,194,0,0,1-62.86,45c1.07-2.4,2.29-4.74,3.49-7.29s2.51-5.08,3.84-7.68c20.24-11.9,38.59-27.21,53.1-46a142,142,0,0,0,18.14-30.72,116.17,116.17,0,0,0,8.76-34.73c.11-1.49.22-3,.34-4.45s0-3,.07-4.45,0-3,0-4.43-.21-2.94-.32-4.4-.25-2.91-.38-4.37-.41-2.8-.61-4.2-.51-2.8-.76-4.18-.58-2.78-.92-4.17a97,97,0,0,0-5.36-16.2,83.94,83.94,0,0,0-8.31-14.82A75,75,0,0,0,624.83,376a80.64,80.64,0,0,0-27.37-9.62,115.76,115.76,0,0,1,16.72,7.87,90.57,90.57,0,0,1,14.32,10.27,80.55,80.55,0,0,1,20.1,27,99.55,99.55,0,0,1,5,68.36c-1.5-.49-3.77-.74-3.67-5-2.43,15.71-9.31,32.14-19.43,46.94A150.93,150.93,0,0,1,592,560.18l1.1-2.3c.34-.78.7-1.57,1.05-2.36l2.09-4.73c1.36-3.19,2.65-6.44,3.89-9.66q.87-2.45,1.74-4.92l.84-2.43.76-2.49,1.44-4.93c.45-1.63.82-3.32,1.21-5,3.73-7.69,9-16.07,13.72-25.54A109.5,109.5,0,0,0,626,480.92a79.87,79.87,0,0,0,2.13-7.89c.31-1.33.45-2.68.68-4l.3-2c.11-.67.11-1.35.17-2l.61-4.26.3-4.27c.17-1.41.06-2.83.09-4.24a36.93,36.93,0,0,0-.11-4.21l-.29-4.19c-.19-1.44-.36-2.89-.57-4.31a79.06,79.06,0,0,0-1.7-8.27,73.23,73.23,0,0,0-2.45-7.72,61.74,61.74,0,0,0-3.29-7c-.29-.57-.61-1.12-1-1.65s-.64-1.08-1-1.6c-.71-1-1.37-2.09-2.15-3.05a47.65,47.65,0,0,0-4.86-5.57c-7-6.94-16.18-12-26.74-15.38a128,128,0,0,0-34.21-5.4c-6-.2-12.07-.1-18.18.29s-12.24,1-18.36,1.92A250.8,250.8,0,0,0,479,394.14c-5.94,1.8-11.79,3.8-17.45,6.05-1.43.57-2.77,1.11-4.23,1.75L453,403.88c-2.91,1.3-5.83,2.56-8.73,3.9l-8.56,4.27c-1.43.72-2.87,1.41-4.28,2.15l-4.19,2.33c-2.78,1.55-5.58,3.09-8.35,4.67l-8.16,5a335.32,335.32,0,0,0-56.58,37.43c-4.46,3.47-8.58,7.3-12.82,11-2.15,1.83-4.09,3.85-6.13,5.79s-4.07,3.87-6,5.88l-5.77,6.11-2.89,3.05-2.73,3.18L312.27,505c-1.76,2.16-3.45,4.38-5.18,6.56-27.51,35-45.56,76.64-50.6,119.49.33-5.35.42-10.74,1.14-16,.3-2.66.54-5.34.88-8s.87-5.29,1.3-7.92l.64-4c.25-1.31.57-2.61.85-3.91l1.71-7.83c.25-1.32.65-2.59,1-3.88l1.06-3.86,1.06-3.86c.34-1.29.69-2.58,1.14-3.84a284,284,0,0,1,26-58.3c.63-1.18,1.36-2.28,2.06-3.42l2.13-3.38c1.42-2.25,2.79-4.55,4.27-6.76s3-4.39,4.54-6.58,3-4.42,4.63-6.51l4.82-6.38c.81-1.06,1.58-2.16,2.43-3.18l2.54-3.08,5.09-6.18c.83-1.05,1.72-2,2.61-3l2.67-3A383.35,383.35,0,0,1,377.57,414.22Zm-269.22,267c-.3-7.86-.7-16.08-.93-24.4-.78,1.18-1.56,2.3-2.41,3.37a32.83,32.83,0,0,0-.32,5.59,41.53,41.53,0,0,0,.61,5.49A40.31,40.31,0,0,0,108.35,681.23Zm44.48-178.5a374.31,374.31,0,0,0-15.06,41.85c-4.49,15-8.27,30.93-11.45,47.26a582.41,582.41,0,0,0-10.41,99.51,4.94,4.94,0,0,0,2,.76c3.55-26.86,7.24-57.55,12.91-90.05,2.8-16.23,6-32.88,9.67-49.59,1.81-8.35,3.79-16.74,5.82-25.05q1.6-6.23,3.19-12.41c.54-2.06,1.07-4.12,1.61-6.17l.8-3.08ZM292.68,344.92c-.46.1-.92.24-1.38.35.36.23.74.41,1.07.65C292.46,345.6,292.56,345.27,292.68,344.92Zm561.26,92.25c-1.53-16.23-2.8-33.1-4.42-50.37s-3.58-34.94-6.45-52.61A378.73,378.73,0,0,0,831,281.91a234.35,234.35,0,0,0-20.61-47.78,56.72,56.72,0,0,0-8.44-12.55c-.86-1-1.73-1.89-2.62-2.83L798,217.34,796.58,216l-2.84-2.7-3-2.62-1.49-1.32-1.54-1.28-3.06-2.61c-2.11-1.68-4.14-3.48-6.27-5.22s-4.21-3.57-6.26-5.52-4.17-3.89-6.27-6a106.58,106.58,0,0,0-16.55-11.46A114.19,114.19,0,0,0,733.7,170l-1.89-.75-1.93-.67c-1.29-.44-2.53-.92-3.81-1.34-2.58-.8-5.09-1.66-7.71-2.38s-5.24-1.46-7.88-2.25-5.43-1.49-8.34-2.17c1.22,1,2.42,1.88,3.56,2.89s2.31,1.94,3.43,2.93l3.27,3c1.09,1,2.09,2.06,3.13,3.06a75.94,75.94,0,0,0-25.3-9.33,143.85,143.85,0,0,0-25.29-2.08c-8.48-.06-17.06.15-26.41.07a312.28,312.28,0,0,1-31.2-1.79c0,1.37-1.63,3.43-4.11,5.23a18.22,18.22,0,0,1-9.41,3.45c-4.55.6-9.11,1.07-13.65,1.44l-3.41.26c-1.14.07-2.27.15-3.38.28-2.23.24-4.46.45-6.68.65-4.45.4-8.87.73-13.26,1l-12.8,1.42a213.82,213.82,0,0,0-24.15,3.88l-2.85.62c-1,.21-1.89.43-2.79.71-1.81.54-3.6,1.09-5.36,1.67-3.51,1.16-6.9,2.42-10.12,3.81-2.1.56-4.09,1.35-6.12,2l-6.06,2-6.05,2-1.5.48-1.47.57-2.92,1.11-11.58,4.31c-1,.33-1.87.76-2.8,1.16l-2.75,1.19-5.46,2.38-5.37,2.35c-1.76.8-3.42,1.74-5.11,2.59q-5,2.63-9.83,5.23c-3.13,1.83-6.06,3.83-8.94,5.74a78.61,78.61,0,0,0-8.11,6c-2.81,1.52-6.1,5.57-9.78,10.24-1.75,2.46-3.61,5.08-5.6,7.6-1,1.26-2,2.5-3.09,3.69L391.2,246c-.52.61-1.06,1.2-1.6,1.78q-4.46,3.47-9,6.8l-1.13.84c-.37.28-.72.6-1.08.9l-2.16,1.8-4.34,3.57-4.37,3.52L363.38,269l-4.2,3.74c-1.39,1.26-2.85,2.42-4.16,3.8a25.85,25.85,0,0,1,2.79.44c2.39-1.85,4.77-3.75,7.11-5.69s4.63-4,7.06-5.83,4.73-3.87,7-5.92l1.72-1.55c.57-.52,1.18-1,1.76-1.48q1.77-1.48,3.5-3a282,282,0,0,1,47.91-35l6.82-3.78,3.42-1.9,1.71-1,1.77-.85,14.15-6.78,14.44-5.93c.6-.24,1.19-.5,1.79-.72l1.84-.63,3.65-1.26,7.22-2.46a565.85,565.85,0,0,1,75.07-17.58l9.68-1.66,9.82-1.31,9.81-1.35,2.46-.35,2.23-.26,4.43-.53c11.77-1.33,23.26-2.16,34.31-2.33a281.76,281.76,0,0,1,32,1.2,216,216,0,0,1,29.27,5c18.55,4.66,35.29,11.86,50.67,22.52,6.67,4.47,13.72,9,20.48,14.56a112.74,112.74,0,0,1,19,19.1c9.09,10.66,17,24.11,23.33,39s11.31,31.09,15.28,47.3c2,8.1,3.72,16.21,5.33,24.17S837,356.56,838.46,364c3,15.07,6,29,10.09,41,1.14,4,1.43,9.91,1.92,15.89S851.7,432.88,853.94,437.17Zm97.71,118.6C959,505.92,963.59,453.4,963.3,401S957.74,296.4,946,247.89a291.1,291.1,0,0,0-11.69-34.65,303.58,303.58,0,0,0-20.84-41.61c-4.33-7.13-9-14.28-14.14-21.24-2.51-3.51-5.24-6.92-7.93-10.33-1.37-1.69-2.8-3.35-4.2-5s-2.82-3.32-4.3-4.93l-4.4-4.83c-1.52-1.56-3-3.11-4.55-4.67s-3.07-3.06-4.64-4.54-3.1-3-4.69-4.4c-3.22-2.83-6.36-5.66-9.66-8.27-1.63-1.31-3.23-2.63-4.88-3.88l-4.94-3.68A197.31,197.31,0,0,0,806.4,73.66c-12.22-5.2-23.27-8.18-32.07-9.33A54.6,54.6,0,0,0,762.84,64a18.68,18.68,0,0,0-7.64,2.21c-3.69,2.26-4.5,6.13-2.15,11.73,6.62-1.11,14.61-.74,23.8,1.08a129.19,129.19,0,0,1,30.24,10.72,180.71,180.71,0,0,1,33.49,21.55,223.46,223.46,0,0,1,32.53,32.57q1.9,2.35,3.81,4.76c1.25,1.62,2.46,3.27,3.7,4.93l1.85,2.49,1.77,2.56c1.18,1.71,2.39,3.42,3.55,5.17,4.61,7,9,14.31,13.1,21.89a317.34,317.34,0,0,1,20.74,48c11.35,33.35,17.51,68.43,20.18,102,1.29,16.79,1.82,33.25,1.71,49.08s-.77,31-1.72,45.4c-1.9,28.73-5,54.06-6.95,74.48s-2.79,36-.56,45.17c1.15,4.58,3,7.53,5.85,8.64S946.8,558.74,951.65,555.77Zm-640.44,449a442.41,442.41,0,0,0,75,24,540.27,540.27,0,0,0,81.57,12A388.49,388.49,0,0,1,311.21,1004.73ZM716.13,846.28a311.1,311.1,0,0,1-65.22,62.13,299.08,299.08,0,0,1-85.64,41.47l-11.72,3.28c-1,.28-2,.52-2.95.74l-3,.67-6,1.34c-2,.42-4,.91-6,1.28l-6,1-6,1-3,.5-3,.37-12.2,1.43c-4.08.36-8.17.58-12.26.86s-8.2.35-12.3.42-8.22.21-12.32,0-8.22-.25-12.33-.44l-12.3-1-3.07-.26-3.06-.39-6.12-.8-6.12-.81c-2-.31-4.05-.7-6.08-1.06L413.33,957c-2-.38-4.07-.69-6.06-1.19l-12-2.75c-2-.43-4-1-6-1.58l-5.94-1.66c-2-.56-4-1.08-5.93-1.69l-5.86-1.93c-3-1-6-2-9-3.09s-5.92-2.41-8.88-3.65c-6-2.38-11.69-5.4-17.5-8.33-2.92-1.42-5.69-3.14-8.52-4.77s-5.64-3.31-8.43-5L311,915.78,307,913c-1.37-.91-2.64-2-4-3a302.45,302.45,0,0,1-56.21-55.51,415.9,415.9,0,0,1-41-65.35L203.57,785l-1.09-2.09c-.35-.7-.67-1.41-1-2.11q-2-4.23-4-8.42c-2.83-5.59-5.13-11.15-7.68-16.65q-1-2.07-1.91-4.12c-.65-1.37-1.29-2.74-1.85-4.14-1.17-2.78-2.35-5.56-3.56-8.32s-2.48-5.5-3.65-8.27-2.26-5.57-3.43-8.34l-8.06,1.61c1.61,3.31,3.18,6.6,4.83,9.84q1.43,6.81,2.7,13.36c.22,1.09.43,2.18.64,3.26s.41,2.16.68,3.2q.74,3.16,1.47,6.27c1,4.14,1.86,8.22,2.84,12.26l3.29,12c.56,2,1.07,4,1.66,5.91l1.9,5.79c1.27,3.85,2.54,7.68,3.85,11.49,1.47,3.75,3,7.49,4.5,11.22l2.34,5.6c.84,1.83,1.74,3.65,2.63,5.48l-3.48-4.57,5.32,8.28c1.22,2.44,2.46,4.87,3.74,7.31s2.79,4.77,4.24,7.16,2.95,4.79,4.49,7.19c.74,1.21,1.58,2.38,2.42,3.54l2.57,3.52q2.59,3.51,5.34,7l1.39,1.77c.48.58,1,1.14,1.48,1.72l3,3.42q3.07,3.43,6.33,6.87c1.07,1.16,2.22,2.27,3.39,3.36l3.56,3.31,6.82,5.89c2.29,2,4.72,3.76,7.08,5.64l7.15,5.57c2.42,1.82,4.92,3.53,7.38,5.29l5,4,2.51,2,2.58,1.89,10.39,7.51c3.51,2.42,7.13,4.69,10.7,7,1.8,1.14,3.57,2.33,5.4,3.42l5.53,3.2,5.55,3.17,2.77,1.58c.93.52,1.89,1,2.83,1.47l11.37,5.74c1.88,1,3.85,1.78,5.78,2.66l5.81,2.56,5.81,2.53,5.92,2.26,5.92,2.24c2,.72,3.93,1.51,5.94,2.12l12,3.82c2,.67,4,1.18,6,1.72l6.07,1.59,6.06,1.55c2,.48,4.07.87,6.11,1.3a308.39,308.39,0,0,0,49,6.5l12.2.45c4.05,0,8.1-.08,12.13-.15l6-.14,6-.42c4-.3,8-.54,11.93-1,7.89-1,15.74-1.89,23.42-3.49l5.75-1.11c1.91-.37,3.82-.72,5.7-1.22l11.26-2.82c3.74-.88,7.38-2.13,11-3.24l5.43-1.73c1.81-.59,3.61-1.14,5.37-1.84,7.07-2.7,14.09-5.22,20.78-8.41,3.36-1.55,6.71-3,10-4.65s6.46-3.4,9.63-5.11l4.74-2.58c1.56-.89,3.08-1.85,4.6-2.78q4.56-2.79,9-5.62A248.13,248.13,0,0,0,654,924c6.66-4.93,12.9-10.12,18.88-15.39a347.44,347.44,0,0,0,32.55-33.26c19.83-23.06,36.66-47.47,53.52-73.59-5.7,6.69-13.53,14.48-21.41,22.18S721.78,839.32,716.13,846.28Z"/><path class="top-1" d="M261.19,522.06c16.46-34.36,40.14-66,68.82-93.08,1.33-1.37,2.64-2.77,4-4.11l4.13-4,4.15-4c1.39-1.32,2.75-2.68,4.2-3.92l8.6-7.63c1.43-1.3,2.91-2.51,4.39-3.72l4.45-3.66,4.47-3.67c1.48-1.23,3-2.35,4.56-3.53l9.22-7,9.47-6.69c1.59-1.1,3.15-2.27,4.78-3.32l4.86-3.18c7.83-4.94,16-9.39,24.44-13.76l12.84-6.22c4.54-2.08,9.25-4,13.92-5.8a287.42,287.42,0,0,1,58.76-15.42c20.53-3.05,42.12-4.2,65.15-1.17a158,158,0,0,1,35.47,8.86,121.2,121.2,0,0,1,35.3,20.66,108.28,108.28,0,0,1,26.88,34.41,125,125,0,0,1,11.81,39.51c.25,1.63.41,3.22.56,4.82s.36,3.14.4,4.87l.22,5.07c0,1.7.16,3.39.07,5.08l-.17,5.08c-.08,1.69-.1,3.39-.32,5.06l-.55,5c-.19,1.67-.36,3.36-.69,5a144.87,144.87,0,0,1-11.65,37.63,169.45,169.45,0,0,1-19.51,32,198.92,198.92,0,0,1-24.39,26.33,225.6,225.6,0,0,1-58.08,38c-1,4.78-1.06,9.1.43,13s4.51,7.22,9.56,9.69a228.73,228.73,0,0,0,37.8-18,226,226,0,0,0,34.3-25,208.42,208.42,0,0,0,30-32.84A186.32,186.32,0,0,0,707,510.47c.81-1.88,1.45-3.93,2.15-5.9l2-6c1.21-4.09,2.31-8.24,3.33-12.4.86-4.26,1.75-8.49,2.37-12.81.28-2.18.55-4.35.79-6.53s.5-4.35.57-6.56.21-4.41.28-6.61l.1-3.3-.08-3.31c-.06-2.2-.14-4.41-.24-6.61-.06-1.08-.09-2.25-.18-3.25l-.29-3.05a168.83,168.83,0,0,0-4.28-25.22,152,152,0,0,0-9.24-26.38A142,142,0,0,0,689.17,357a137.8,137.8,0,0,0-20.31-21.89,146.31,146.31,0,0,0-23.15-16.42,170.46,170.46,0,0,0-46.59-18,225.87,225.87,0,0,0-42.62-5.46,295.22,295.22,0,0,0-39.1,1.26,358.4,358.4,0,0,0-36.89,5.56c-12.07,2.45-23.95,5.45-35.92,9.13-6,1.85-12.06,3.88-18.09,6.15l-16.32,6.39a535.49,535.49,0,0,0-63.18,31c-1.11,1-2.25,2-3.31,3.09-15,14.09-32.22,29.68-49.69,47.66s-35.17,38.32-50.87,61.11c-2,2.78-3.86,5.75-5.75,8.68s-3.76,5.85-5.6,8.83-3.49,6.07-5.23,9.12l-2.6,4.56c-.83,1.55-1.61,3.13-2.42,4.7L216.79,512c-1.53,3.16-2.89,6.42-4.32,9.63-2.93,6.36-5.29,13-7.7,19.53l-.89,2.45c-.29.82-.53,1.66-.8,2.49l-1.53,5c-1,3.33-2,6.61-2.9,9.94s-1.6,6.68-2.36,10q-.57,2.49-1.12,5c-.29,1.67-.58,3.34-.86,5q-.84,5-1.59,9.9c-.28,1.62-.41,3.28-.57,4.92l-.45,4.91c-.27,3.26-.61,6.47-.72,9.68s-.12,6.4-.13,9.55a342.89,342.89,0,0,0,9.87,73.27,335.11,335.11,0,0,0,24.33,66.49A275.66,275.66,0,0,0,263,817.47l2.76,3.25c.91,1.09,1.94,2.09,2.9,3.14l5.88,6.17c1.91,2.08,4,4,6.1,5.91l6.2,5.74c2.13,1.85,4.34,3.6,6.5,5.39l3.25,2.65c1.08.89,2.16,1.77,3.32,2.57l6.79,4.89,3.39,2.41,3.53,2.23a287.78,287.78,0,0,1-32.51-34.23,279.34,279.34,0,0,1-25.86-39A266.68,266.68,0,0,1,236.42,746c-1.21-3.68-2.52-7.32-3.65-11s-2.07-7.47-3.1-11.2-1.8-7.53-2.66-11.31-1.72-7.56-2.23-11.4l-1.8-11.5-1.13-11.59c-.47-3.86-.47-7.75-.65-11.63l-.21-5.83c-.06-1-.05-1.94,0-2.91l.06-2.92a237.24,237.24,0,0,1,4.9-46.38c1.41-7.68,3.56-15.19,5.66-22.7l3.69-11.11c.58-1.86,1.36-3.66,2.07-5.47l2.16-5.44A258.15,258.15,0,0,1,261.19,522.06Z"/><path class="top-1" d="M718.42,614.35a543.05,543.05,0,0,1-37.85,73.15c-19.34,32.6-40.35,60.54-62.67,83.44a288.46,288.46,0,0,1-34.5,30.39,213.87,213.87,0,0,1-37.62,22.45c2.58-.66,5.08-1.68,7.61-2.55l3.79-1.31c1.27-.43,2.49-1,3.74-1.51l3.74-1.52c1.25-.52,2.52-.94,3.73-1.57,2.44-1.16,4.9-2.31,7.36-3.42a237.09,237.09,0,0,0,28.93-16.82c19.11-12.91,37.76-29.09,55.39-47.61a206,206,0,0,0,21.54-31,268.9,268.9,0,0,0,15.81-33.09C706.37,660.87,712.65,637.82,718.42,614.35Z"/><path class="top-1" d="M499.82,838.88a29.58,29.58,0,0,0,3.05-.65l3-.71,3-.69c1-.22,2-.43,3-.75l5.88-1.68c1-.28,2-.51,2.91-.83l2.88-1,5.7-1.91c1.89-.69,3.74-1.49,5.6-2.2l2.77-1.08,1.39-.53,1.36-.62,5.42-2.46-5.68,1.71c-.48.14-1,.3-1.42.42l-1.44.34-2.87.69c-1.92.45-3.82,1-5.75,1.4l-5.79,1.11-2.89.59-2.92.4-5.83.86c-1,.19-1.94.21-2.92.31l-2.92.27-2.93.29-1.46.16-1.47.06c-3.9.09-7.83.5-11.73.34h-5.87l-5.85-.33-2.93-.13c-1,0-1.94-.2-2.91-.29l-5.83-.58c-1-.06-1.94-.26-2.9-.4l-2.89-.45-2.9-.42-1.45-.21-1.43-.3c-30.66-5.71-59.78-19.07-83.39-39.21A174.23,174.23,0,0,1,319.6,729.9l-2.31-4.61-.59-1.15-.51-1.23-1-2.45-2.1-4.92L312,713.07l-.89-2.48-1.82-5c-.58-1.67-1.3-3.32-1.74-5l-1.52-5-.78-2.52c-.25-.85-.56-1.69-.73-2.53a190.22,190.22,0,0,1-6.53-41.3c-1.33-27.92,3.67-56.77,15.13-84.77s29-55,51.36-79.1a264.27,264.27,0,0,1,33.61-29.73c-26.3,16.56-50.27,36.64-69.74,59.91s-34.74,49.35-44,77a201.1,201.1,0,0,0-9.75,85.4l.5,5.37c.24,1.79.55,3.57.82,5.35.6,3.56,1,7.13,1.85,10.65l1.14,5.3.57,2.65.28,1.32.36,1.31c1,3.49,1.94,7,2.9,10.47A227,227,0,0,0,299.3,760a193.54,193.54,0,0,0,23.27,34.48A195.75,195.75,0,0,0,352,822.64a191.88,191.88,0,0,0,70.73,34.67,197.56,197.56,0,0,0,37.84,5.81l4.72.18,2.35.09,1.17.05,1.18,0,9.35-.18c3.11-.18,6.21-.47,9.27-.68l2.3-.18,2.29-.31,4.56-.62c1.52-.22,3-.36,4.53-.64l4.49-.88c3-.59,5.94-1.07,8.86-1.91L520,856.9l2.17-.55,1.08-.28,1.07-.34,8.5-2.72a203.18,203.18,0,0,0,31.73-14.46c2.85-1.86,6.07-3.73,9.08-5.54-5,1.9-9.83,4.08-14.88,5.65L555,840c-.63.21-1.24.46-1.88.64l-1.9.54q-3.81,1.08-7.6,2.23a242.48,242.48,0,0,1-31,5.92,210.13,210.13,0,0,1-62.54-2,227.34,227.34,0,0,1-30.25-8.05q-3.64-1.38-7.33-2.72c-1.25-.41-2.4-1-3.61-1.51l-3.59-1.54c-1.19-.53-2.42-1-3.59-1.57l-3.49-1.74c-2.32-1.18-4.75-2.19-7-3.55l-6.83-3.79q-3.29-2.1-6.61-4.16l-1.67-1c-.55-.36-1.06-.75-1.6-1.12l-3.19-2.26-3.21-2.23c-1.06-.76-2.05-1.61-3.08-2.4L362,807.25c-1-.82-2.11-1.55-3.05-2.45q-2.93-2.59-5.9-5.15c-1-.83-1.91-1.79-2.85-2.69l-2.8-2.74c-.94-.92-1.9-1.81-2.82-2.74l-2.65-2.9a185.58,185.58,0,0,0,34.69,26.73,181,181,0,0,0,39.45,17.49A185.87,185.87,0,0,0,499.82,838.88Z"/><path class="top-1" d="M247.56,556.09c3.36-7.72,7.21-15.08,11.14-22.4,1-2.23,2-4.44,3-6.65.49-1.11,1-2.21,1.48-3.32l.74-1.66.81-1.61L268,514l1.62-3.24.82-1.62.89-1.57c-.93,1.15-1.77,2.36-2.6,3.58l-2.53,3.63c-1.65,2.44-3.4,4.81-5,7.29q-1.9,4.22-3.83,8.41c-.62,1.41-1.29,2.78-1.87,4.2l-1.7,4.28q-1.68,4.26-3.35,8.5Q249,551.79,247.56,556.09Z"/><path class="top-1" d="M200.64,829.83c.59,1.22,1.19,2.46,1.84,3.71,4.6,7.43,9.93,14.44,15.07,21.57,2.72,3.46,5.5,6.88,8.27,10.31l2.09,2.57c.69.86,1.39,1.71,2.14,2.53l4.42,4.94,4.44,4.93,2.23,2.45,2.34,2.36,9.4,9.4c3.22,3,6.55,6,9.84,8.95,1.67,1.46,3.27,3,5,4.39l5.16,4.2A355.92,355.92,0,0,0,408.58,970.7a335.31,335.31,0,0,1-63.81-21.9,348.75,348.75,0,0,1-57.3-33.32,380.29,380.29,0,0,1-48.26-41.18A428.45,428.45,0,0,1,200.64,829.83Z"/><path class="top-1" d="M435.42,1059.78l5.36.78c2,.28,4.05.59,6.26.79,4.42.46,9.24.94,14.06,1.39l3.61.33c1.2.1,2.4.14,3.58.21l6.9.35c4.44.2,8.48.4,11.72.49l11.7-2.49,5.79-1.27,2.88-.65,2.88-.75c-3,.16-6,.09-9,.08l-9-.09c-6,0-12-.48-18-.85-3.19.29-6.4.63-9.62.83l-9.68.47-9.73.38C441.94,1059.83,438.69,1059.79,435.42,1059.78Z"/><path class="top-1" d="M926.15,687.17A766.15,766.15,0,0,1,870,803.86c-22.17,37.31-47.91,73.07-78.65,106.32a517.69,517.69,0,0,1-50.18,47.56,451.6,451.6,0,0,1-59.23,41.47c-2.66,1.57-5.34,3.13-8.09,4.62s-5.43,3-8.23,4.45q-8.37,4.25-16.8,8.4c-5.72,2.6-11.49,5.11-17.27,7.62-2.87,1.29-5.85,2.36-8.8,3.51l-8.87,3.36a414.88,414.88,0,0,1-74,19.37l-7.31,2.27c-2.45.76-4.91,1.54-7.39,2.17l-15,4a383.21,383.21,0,0,0,150.91-34.59q5.77-2.65,11.5-5.36c3.75-1.9,7.5-3.81,11.19-5.78s7.32-4,10.88-6.07,7.12-4.16,10.55-6.34a404.45,404.45,0,0,0,72.76-58,418.78,418.78,0,0,0,53.42-65.74c6-8.83,12.24-20.65,18.3-32.28s11.94-23.09,17.72-31.37a558.88,558.88,0,0,0,35-61.1c5.13-10.33,9.87-20.73,14.31-31.16s8.6-20.91,12.44-31.43a753.31,753.31,0,0,0,33.89-127.49,852,852,0,0,1-35.59,121.54Z"/></g></g></svg>