<svg xmlns="http://www.w3.org/2000/svg" viewBox="0 0 1381.27 1482.09"><defs><style>.cls-1{fill:#202020;}</style></defs><g id="Layer_2" data-name="Layer 2"><g id="Layer_2-2" data-name="Layer 2"><g id="darkmode"><path class="cls-1" d="M1206.67,471c-2.54-.08-5.39-.44-8-.59-1.35-4.81,1.19-8.24,5.91-10.88-35.54,2.27-56.8,20.81-65.62,45.7a88.08,88.08,0,0,0-2.75,9.62,74.06,74.06,0,0,0-1.63,10.1,120.31,120.31,0,0,0,0,21.23,147.88,147.88,0,0,0,11.67,43.6,13.27,13.27,0,0,0-3.47,8.11,21.3,21.3,0,0,0,2,9.93c3,7,9.23,14.32,17.89,20.56s18.09,10.16,26.25,11.6,15,.41,19.07-3.75c3.5-.64,6.55-2.07,10.49-1.55,36.4,5.22,66,2.44,93.8-6.19-7.65-.21-15.44-.2-23.16-.3a107.88,107.88,0,0,0,11.91-3.82,24.42,24.42,0,0,0,9.56-6.58c-3.61-1.72-7.36-3.25-11-5a55.18,55.18,0,0,0,12.77-2.13,41.78,41.78,0,0,0,5.45-2,39,39,0,0,0,5-2.72,34.89,34.89,0,0,0,8-7.18,33,33,0,0,0,3-4.36,39.51,39.51,0,0,0,2.52-4.94,43,43,0,0,0,3-11.19,51.48,51.48,0,0,0,.44-6.17c0-2.12,0-4.34-.16-6.58a81.5,81.5,0,0,0-8.21-28.88c-9.5-20.46-26-38.38-45.2-50.53a111.84,111.84,0,0,0-30.36-13.54,82.24,82.24,0,0,0-30.83-2.87l-9.25.69Z"/><path class="cls-1" d="M1076.86,436c5.37-1.25,10.73-2.41,16.13-3.5s11-2.16,16.43-3.14,10.93-1.9,16.51-2.82,11.17-1.8,16.76-2.65l7.73,2-26.24-19.67,1.43,1.57c11.38,29.58,4.74,56.17-2.49,78.6l-.89,9.12c1.16,5.54,4.8,11.34,9.9,16.08,11.58,10.81,27.47,14.28,35.46,8L1177,512a73,73,0,0,0,11.77-5.25,70.77,70.77,0,0,0,11-7.48,61,61,0,0,0,16.41-21,58.88,58.88,0,0,0,2.46-6.4,52.77,52.77,0,0,0,1.74-6.9,54.2,54.2,0,0,0,.55-15,71.16,71.16,0,0,0-3.79-16.5,89.89,89.89,0,0,0-8.92-17.83c-7.35-11.28-22.1-19-34.19-27.82-8-7.38-17.51-11.75-26.54-12.81a32.72,32.72,0,0,0-12.85.9,23.25,23.25,0,0,0-10.26,6,22,22,0,0,0-5.65,10.14,27.72,27.72,0,0,0,0,12.1c1.75,8.41,6.95,17.18,15.15,24.4-2.86,1.06-5.74,2.28-8.48,3.35-.91-3.27-1.48-6.4-2.26-9.7a36.92,36.92,0,0,1,8.16,21.84c.45,7-.5,14,.4,21.06l-4.92,15.09q22.74,12,45.34,24.24l-.69-10.12c-2-.86-5.25-1.93-5.35-2.12-1-10.05-1.89-20.06-2.25-29.83q-.15-3.66-.06-7.34t.31-7.28a117.69,117.69,0,0,1,1.79-14.32c-.3-9.44-.42-19-.6-28.56-3.71-10.7-15.13-19.39-26.1-19.89l-14.71.69c2.71.29,5.14.35,7.84.65q-4.35,1.92-8.6,4c-2.84,1.41-5.63,2.85-8.34,4.3-5.45,2.92-10.84,5.95-16.24,9l-8,4.49q-4,2.22-8.08,4.36t-8.27,4.16c-2.81,1.34-5.54,2.6-8.4,3.82-4,1.23-4.84,5.81-1.92,10.29C1067.39,435,1073,437.41,1076.86,436Z"/><path class="cls-1" d="M1120.38,370.3a40.58,40.58,0,0,0,7.7-1,9,9,0,0,0,5.77-4.25c-.94-2.44-1.43-3.69-1.67-4.33l-11.4.12C1112.62,360.93,1114.68,366,1120.38,370.3Z"/><path class="cls-1" d="M1132.18,360.72l4.77,0c-1.77-.54-3.39-1-5-1.47a2.57,2.57,0,0,0-.07.72S1131.89,360,1132.18,360.72Z"/><path class="cls-1" d="M741.22,733.65c-1.67-1.78-3.37-3.47-5.11-5-.78-.67-1.93-1.85-3-2.86s-2.16-2-3.26-3-2.2-1.91-3.31-2.82l-.84-.68-.42-.34-.5-.44-2-1.72q-4-3.4-8.12-6.44l-1-.76c-.35-.25-.67-.47-1.09-.81l-2.39-1.87c-1.6-1.22-3.21-2.42-4.84-3.58s-3.25-2.3-4.9-3.4L698,698.26l-2.82-2q-5.64-3.91-11.42-7.44l-2.9-1.74c-.46-.26-1-.64-1.56-1l-1.63-1c-2.18-1.37-4.36-2.71-6.56-4s-4.4-2.57-6.62-3.81l-3.33-1.83c-.57-.32-1.1-.58-1.7-.93l-1.86-1.08q-7.44-4.29-15-8.18l-7.68-3.86q-4.2-2.24-8.43-4.35-8.48-4.24-17-8.08L600,644.52q-4.74-2.21-9.51-4.29c-6.43-2.85-12.47-5.21-19.79-8.46q-5.29-2.28-10.6-4.44l-1.33-.54-.33-.13-.15-.06h0l.09,0,.18.09.18.08c.06,0,.14,0,.2-.05l.43-.18c.29-.13.6-.2.93-.37.33-.33.68-.66,1-1l.55-.49.14-.13.14-.2.29-.39,1.19-1.56.31-.39c.1-.13.21-.34.31-.5l.63-1.06,1.3-2.11,1.32-2.6c.45-.89.91-1.67,1.36-2.76A232.24,232.24,0,0,0,580.11,582c.52-1.66-1.47-3.67-4.62-4.31-2.69-.59-5.74.31-6,1.92A221.68,221.68,0,0,1,558.19,610c-3.63,7.65-7.12,12.13-9.37,12.55l-.4.08c-.13,0-.26.09-.37,0-.44-.19,1,.36,1.75.66l2.66,1,5.31,2.1q5.31,2.14,10.58,4.38l10.43,4.5q4.79,2,9.55,4,9.52,4.13,18.94,8.67l1.17.57,1.09.49,2.13,1,4.27,2q4.25,2,8.48,4.08c5.57,2.72,11.49,6,16.29,8.28q7.57,3.83,15,8.07l3.71,2.14,3.36,1.83c2.21,1.21,4.42,2.47,6.62,3.75s4.38,2.61,6.56,4,4.44,2.87,6.27,3.9q5.78,3.46,11.44,7.33l2.82,2,1.4,1c.45.31.83.55,1.25.83q2.48,1.62,4.91,3.34t4.85,3.53l2.4,1.84c.77.59,1.65,1.32,2.29,1.76q4.13,3,8.14,6.34l2,1.69,1,.87c.33.29.67.59.93.79q1.67,1.35,3.32,2.77t3.27,2.94l1.62,1.53.8.78c.25.25.55.57.75.73,1.74,1.56,3.45,3.21,5.13,5,.9,1,1.72,1.85,2.33,2.53l.9.92-.58-.6-.33-.32-.48-.54Z"/><path class="cls-1" d="M918.93,293.61a6.17,6.17,0,0,0,7.84,1.16,4.08,4.08,0,0,0,.91-6.45,7,7,0,0,0-7.81-1.16A4.11,4.11,0,0,0,918.93,293.61Z"/><path class="cls-1" d="M1159.33,350.15c2.8,11.19,6.36,22,13.32,32.27a3.82,3.82,0,0,1-1.06,4.91c5.13.18,9.33,2.92,10.85,7.06,14.86,40.79,23.39,82.61,29,125.74.71,5.36,1.34,10.81,1.95,16.24s1.2,10.86,1.72,16.35l.78,8.22.38,4.11.09,1,0,.51.06.43.25,1.66,1,6.65,1,7,.47,3.57.46,3.7.9,7.47.87,7.73.43,3.93.42,4c.58,5.27,1.1,10.85,1.65,16.37q.79,8.55,1.57,17.08a35,35,0,0,1,11.1,5.66,30.55,30.55,0,0,1,11.73,15.86,29.81,29.81,0,0,1,1.39,9.73,33.91,33.91,0,0,1-1.85,10.21l-5,10.12c-7.57,21.05-15.38,43.17-24.37,66.26s-19.23,47.26-31.9,72.31c1.83,12.62.85,26.85-4,41.93a415,415,0,0,1-18,88.89c-2.66,8-5.25,16-8.73,24.38q-2.49,6.23-5.11,12.44l-1.33,3.11-1.48,3.2-3,6.4q-3.08,6.39-6.31,12.77c-1,2.1-2.32,4.33-3.51,6.49l-3.68,6.53q-3.73,6.52-7.65,13c-2.8,4.4-5.72,8.81-8.68,13.19,6.1-1.61,11.4-1.3,14.83,1.74,3.58,4.2,3.59,11.44.48,19.84-2.9,8.31-9.89,18.11-18.94,26.68l-3.32,3.38c-1.13,1.13-2.2,2.24-3.41,3.37q-3.56,3.39-7.16,6.71-7.2,6.66-14.61,13.09a619.29,619.29,0,0,0,81.64-71.17,76.51,76.51,0,0,1,9.81-9.41A484,484,0,0,0,1228,977.71a540.21,540.21,0,0,0,33.11-85.63,556.22,556.22,0,0,0,16.3-74.72,568,568,0,0,0,5.74-65.61c.61-20.58.13-40-1.09-58.35-.34-4.53-.67-9.13-1.06-13.58s-.89-8.8-1.33-13.19-1-8.51-1.57-12.76-1.17-8.25-1.78-12.37c-2.5-16.21-5.5-31.4-8.84-45.16l-.63-2.6-.31-1.3-.32-1.22-1.31-4.91c-.86-3.37-1.77-6.31-2.69-9.38l-.68-2.29-.18-.57-.14-.74-.29-1.47L1259.8,566q-1.2-5.88-2.39-11.76-2.46-11.67-5.05-23.28c-1.74-7.68-3.51-15.39-5.33-23-1.4-2.15-.69-5,2.16-6.3,2.75-.72,6.28,0,7.37,2.36,5.36,10,11,20.18,16.74,30.18q4.32,7.56,8.75,15.11l8.89,15.13,9,15.21.56.94.6.73,1.2,1.46,2.4,2.9,2.39,2.89c.4.49.8,1,1.2,1.46l1.18,1.56c3.16,4.21,6.33,8.16,9.42,12.7l4.63,6.63c1.52,2.29,3,4.66,4.54,7l2.24,3.5,1.12,1.76,1.1,1.84c1.45,2.46,2.91,4.92,4.36,7.39.72,1.24,1.44,2.47,2.15,3.71l2.1,3.89,4.13,7.8,1,2,1,2,2,4.09q2,4.1,3.84,8.23,1.85,4.29,3.63,8.62l1.76,4.34.86,2.18.84,2.25a309,309,0,0,1,18.46,81.27,649.93,649.93,0,0,1-.54,124l-.42,4.34c-.15,1.46-.27,2.87-.48,4.41l-1.16,9.08-1.22,9.09-.64,4.55-.77,4.73q-1.59,9.51-3.33,19c-.26,1.56-.61,3.22-1,4.89l-1,5-2.17,10-1.12,5c-.38,1.68-.72,3.29-1.19,5.06l-2.69,10.45-2.8,10.45-1.45,5.25-1.67,5.47q-3.36,10.95-7,21.9c-2.66,7.59-5.48,15.26-8.36,22.88l-2.18,5.71c-.35.94-.76,1.94-1.18,2.94l-1.24,3q-2.49,6-5.07,11.95t-5.23,11.93l-.66,1.49-.74,1.55-1.49,3.11-3,6.22q-3,6.21-6.17,12.4l-3.15,6.18-.8,1.55-.88,1.61-1.76,3.22q-7.1,12.87-14.61,25.6a644.22,644.22,0,0,1-80.54,106.14q-6.29,6.64-12.72,13.17l-6.47,6.51-3.24,3.19-3.12,3q-6.25,6-12.65,11.93l-6,5.46-6,5.37-6,5.3-5.69,4.93-5.73,4.89-5.72,4.81q-5.5,4.56-11.08,9.06l-5.55,4.44-5.4,4.23c-3.6,2.81-7.28,5.64-10.89,8.37s-7.12,5.31-10.71,7.94l-5.4,3.94-5.32,3.77q-5.33,3.76-10.72,7.47c-3.58,2.45-7.12,4.81-10.71,7.19s-7.2,4.77-10.79,7c-7.2,4.57-14.46,9.13-21.81,13.46a992.45,992.45,0,0,1-100.47,40.36l-13.43,4.45c-2.21.73-4.53,1.45-6.86,2.17l-7,2.13-7,2.1c-2.36.7-4.59,1.39-7,2.07q-7.26,2-14.54,4l-7.28,1.94-7.59,1.89q-7.62,1.86-15.25,3.64c-2.5.59-5.2,1.17-7.87,1.74l-8,1.69-8,1.63c-2.7.53-5.29,1.06-8.18,1.57q-8.49,1.53-17,2.92l-8.53,1.37-9,1.26q-9,1.21-18.06,2.29l-2.28.27-2.4.24-4.79.48-9.61.88-9.61.79-4.85.36-5.12.3q-10.25.55-20.51.91l-5.13.16-1.28,0-1.37,0-2.74,0-10.94,0-11-.08-5.48-.09-2.73-.06-2.91-.1q-11.67-.43-23.36-1.19l-5.84-.4-2.92-.21-1.46-.11-1.55-.14q-6.22-.56-12.44-1.21c-8.31-.88-16.56-1.85-24.89-3q-13.2-2-26.38-4.32-6.58-1.18-13.14-2.48-7-1.47-13.9-3-13.89-3.18-27.68-6.84c-9.66-2.69-19.33-5.6-28.93-8.67q-7.2-2.31-14.36-4.76-7.49-2.67-14.93-5.49-14.91-5.64-29.58-11.91-15.19-6.69-30.13-14.07c-5-2.47-9.9-4.94-14.87-7.56s-10.05-5.46-15-8.27-9.94-5.7-14.86-8.63l-7.36-4.45-3.67-2.25-1.82-1.13-.47-.29-.7-.46-1.41-.93q-11.28-7.38-22.28-15.25-5.49-3.93-10.92-8l-5.39-4.07-2.68-2.05-2.6-2c-13.26-10.44-26.19-21.42-38.66-32.84q-17.24-16-33.34-33l-2-2.1-1.81-2-3.61-4q-3.6-4-7.14-8-7.08-8.09-13.91-16.38l-3.36-4.11-3-3.81q-3-3.83-6-7.69-6-7.74-11.72-15.63l-2.86-4-2.69-3.79-5-7.26q-5-7.3-9.81-14.72l-4.78-7.44-2.19-3.51-2.09-3.4q-4.17-6.81-8.21-13.73l-4-6.93c-1.3-2.3-2.69-4.74-3.79-6.75q-3.5-6.33-6.88-12.74t-6.66-12.88l-3-6L90.43,1110Q87.58,1104,84.82,1098l-2.72-6-2.43-5.48q-2.42-5.49-4.75-11L72.59,1070l-2.22-5.41q-4.09-10.19-8-20.49c-9.84-26.38-17.2-49.93-23.29-71.59q-2.19-7.84-4.27-15.77l-1.94-7.54L31,941.78l-1.79-7.37-1.64-7.08c-1.08-4.71-2.17-9.55-3.1-13.94-4-18.35-7-35-9.73-51.11S9.93,831,8.12,816.55c-2.51-19.69-4.3-37.95-5.69-55.42l-1-12.89q-.4-6.24-.8-12.45L.5,732.72c0-.28,0-.45,0-.82l0-1,0-2-.18-8.16q-.15-8.16-.2-16.33A1007.14,1007.14,0,0,1,7.08,582.3c4.59-38,11-73.41,18.38-106.8s15.95-64.36,25-93.63S69.32,325,79.29,299.3c2.51-6.62,5-12.79,7.53-19.11l3.8-9.43,3.8-9.14,3.83-9.1,1.93-4.55,2.07-4.69,8.4-18.82c22.63-50,47.49-97.41,73.49-142.33q3-6.67,6.58-12.94,1.77-3.14,3.65-6.16c1.26-2,2.56-3.89,3.89-5.79a155.74,155.74,0,0,1,17.55-20.75c1.59-1.56,3.2-3.09,4.83-4.57s3.3-2.82,5-4.16q5.06-4,10.36-7.53A128.83,128.83,0,0,1,258,8.51,117.39,117.39,0,0,1,304.52,0,107.69,107.69,0,0,1,350,12a115,115,0,0,1,41.87,37.32,123.26,123.26,0,0,1,19.89,51.08c3.2-4.38,6.41-8.66,9.75-12.9,6.91-5.68,13.84-10.93,20.75-16.31a91.44,91.44,0,0,1,32.87-15.93,93.27,93.27,0,0,1,36.48-2.29q15.84,1.38,31.58,2.9c6.76,1.67,13.54,3.08,20.32,4.38s13.56,2.5,20.34,3.58c13.57,2.18,27.11,4,40.59,6.08,27,4.32,53.67,9.43,79.81,19.75L717.72,105l7,.66c19.56-.68,39.88,4.84,57.76,15.58l18.29,16.31a295.77,295.77,0,0,1,50.16,63.91,106.5,106.5,0,0,1,21.5,21.37c24.78,9.26,47.59,22.81,66.31,45.83,8.65.79,16.48,8.11,17.76,16.34a12.27,12.27,0,0,1-1.24,7.55c.1,0,.12,0,.12,0,6.63,2,8.57,2.51,16.31,4.23a81.14,81.14,0,0,1,7.55-3.41c11.13-7,11.17-7,21.23-12.72a69.58,69.58,0,0,1,17.42,0,78,78,0,0,1,8,1.36c40.38,19.9,40.32,20,53.86,33.17,1,1.64,2,3.32,2.89,4.94,10-2.26,10.76-2.37,13.66-2.8a43.09,43.09,0,0,1,8.06,1.68c8,6.23,8,6.23,11.73,7.5a63.85,63.85,0,0,1,6.1,4.64c5.81,10.68,5.81,10.67,8.21,12.82a34.71,34.71,0,0,1,2.64,5.47c-.71,6.19-1,8.66-1.12,9.7l-27.49-8.05,5.49,7.62-11-5.64,9.49,5.88-8.76.09,11.57,1.18c-11.51,7.71-11.52,7.72-14.57,12.09-4.49,3.44-5.3,8.72-5.47,9.3a53.65,53.65,0,0,1,4.9,3.32c-6,4.1-9,6.15-12.08,8.14s-6,3.87-12,7.69a77.52,77.52,0,0,1-7.68-2c1.56,2.87,1.38,6-.95,7.53-1.94,1.5-3.92,2.88-5.82,4.32.1.74.21,1.46.32,2.13l.68.5c.22,3.14.37,5.32.55,7.8.25,1.67.26,1.72.26,1.72a.56.56,0,0,1-.15,0c.41,5.34.83,13.19,2.94,33.37a58.94,58.94,0,0,1-10.84,5.82c2,.07,3.85.16,5.91.36,4.11.45,10.76,7.72,12.18,7.36a177.21,177.21,0,0,0,23.47-8.91,241.25,241.25,0,0,0,21.62-11.32c7.09-4.1,14-8.43,20.77-12.79,7-4.43,13.89-8.91,20.88-13.25,2.69-5.13,10.55-5.65,17.19-1.3,6.7,4.51,9.76,12.2,6.9,17.32a181.86,181.86,0,0,1-1.82,29.25,151.27,151.27,0,0,1-5.84,26.2q-1.84,6.14-4.21,11.92-1.19,2.9-2.49,5.71c-.87,1.87-1.8,3.72-2.68,5.51-1.79,3.58-3.76,7.06-5.88,10.42-1.06,1.68-2.16,3.34-3.3,5s-2.22,3.19-3.39,4.75c-18.78,24.89-45.09,41.92-76.51,53l-4.34,3.37-2.16,1.7-2.05,1.7q-4.09,3.4-8.15,6.89l-4.06,3.51c-1.33,1.17-2.57,2.33-3.86,3.5l-7.66,7.09c1.73.24,3.44.47,5.23.76-2,.86-3.91,1.74-5.85,2.63l-5.65,2.64a5.24,5.24,0,0,0-.83.79c6.43.58,12.73,1.25,19.2,1.9,2.47-.64,4.87-1.32,7.15-2.07a79.77,79.77,0,0,1,8.68-7.88A117,117,0,0,1,1080,610.7q2.67-1.62,5.43-3.14c1.86-1,3.84-2,5.79-3,3.93-2,8-3.81,12-5.59l3.06-1.32,3.17-1.33,6.36-2.61,12.69-5.13c4.33-1.75,8.61-3.51,12.81-5.32q3.14-1.37,6.21-2.77c2.08-1,4.2-2,6.25-3a98.32,98.32,0,0,1,14-5.42c2.4-.73,5-1.47,7.56-2.13s5.15-1.3,7.75-1.89l15.68-3.49c5.29-1.22,10.52-2.49,15.56-4,1.69-1.46,4.26-1.83,7.08-1.24a19.39,19.39,0,0,1,8.7,4.54c5.16,4.63,6.73,10.81,3.54,13.65q-2.17,4.86-4.65,9.61l-2.43,4.66q-1.21,2.29-2.49,4.54-2.57,4.5-5.43,8.83c-1.85,2.86-3.67,5.6-5.67,8.31s-4.08,5.33-6.23,7.87-4.22,4.91-6.49,7.25c-1.14,1.17-2.3,2.33-3.5,3.46s-2.43,2.24-3.58,3.29q-3.54,3.18-7.45,6.11c-20.7,15.55-46.69,24.35-81.72,25.53-4.38,6.93-11.79,11.27-24.6,12.08l-.36.22c5.21.71,10.36,1.55,15.51,2.32a14.82,14.82,0,0,1-5.5,1.66,56.62,56.62,0,0,1-6.76.43c-4.64.1-9.45.11-12.94,1.4,6.36,2.35,12.71,4.56,19.08,7q-2.17,1.84-4.22,3.81a48.06,48.06,0,0,0-4,4.16c-2.57,3.06-5.13,6.32-7.3,9.3l-3.34,4.6-3.1,4.37-3.06,4.25q-1.47,2-3,4c-8.22,10.54-16.69,17.81-32.83,21.18a9.22,9.22,0,0,1-2.24,1.21,166.7,166.7,0,0,0,17.05,12c4.86,3.07,8.52,4.92,9.32,5.61l3.31-.19a3.77,3.77,0,0,0,.83-.12l.88-.19,1.75-.34,2.92,1.25a13.92,13.92,0,0,0,2.66,1l2.41.62,1,.26.47.12.23.06.11,0h0l-.4-.06-1.59-.2-1.44-.23-2.9-.44-5.85-.82q-5.87-.79-11.89-1.41l-6-.59-5.42-.64q-5.46-.59-11.09-1-3.81-.29-7.68-.5c-1.36-.06-2.38-.18-3.54-.27l-3.42-.25c-4.56-.32-9.2-.54-13.88-.64l-1.76,0h-1.54c-71.19-2.15,96.91,2.92,79.6,2.41h0v0l-.51.76a13.55,13.55,0,0,1-1.13,1.42,15.32,15.32,0,0,1-2.72,2.36,21.93,21.93,0,0,1-7.27,3.13l-2.2.45c-.76.1-1.54.17-2.36.27a8.41,8.41,0,0,1-1.24.11l-.49,0-2.58.13-5.14.29-20.3,1.29q-10,.65-19.85,1.49t-19.24,1.58l-18.69,1.77c-6.1.59-12.22,1.32-18.11,2s-11.65,1.29-17.36,2l-16.67,2.16q-8.13,1.1-16,2.35-7.66,1.07-15.08,2.29c-10,1.75-19.06,3.15-28,4.92-2.2.41-4.45.91-6.54,1.29l-6.19,1.18q-6.12,1.21-12,2.54l-2.9.67c-1,.23-1.85.39-2.77.59l-5.38,1.18q-5.31,1.2-10.33,2.49c-3.41.91-6.43,1.58-9.43,2.35s-5.89,1.52-8.67,2.31l-3.84,1.09-1.9.56-1.81.48q-3.62,1-7.23,2.07t-7.2,2.26l-1.79.59-1.71.53-3.37,1.05q-3.36,1.08-6.71,2.26l-3.35,1.2c-1.11.41-2.25.86-3.26,1.18q-6.23,2.13-12.38,4.69a263.76,263.76,0,0,0-40.17,19.49c-1.3.76-2.59,1.55-3.86,2.39l-1.9,1.28-.94.66-.84.53a68.91,68.91,0,0,0-6.44,4.69,53.28,53.28,0,0,0-5.25,4.29c-.2.18-.44.43-.61.56l-.52.44c-.34.3-.69.6-1,.92-.68.62-1.35,1.29-2,2l-.48.53-.24.26-.19.18c-.25.24-.5.5-.75.76q-.73.78-1.44,1.65l-.69.89-.49.56c-.32.39-.63.81-.93,1.25l-.45.68,0,.09,0,0c-4.33,6.48,37.59-56.23,19.85-29.7l.07-.09.12-.17c.16-.23.31-.46.44-.69s.27-.44.38-.65.17-.34.44-.8a25,25,0,0,0,1.16-2.22l.24-.55.12-.28.2-.39c.26-.53.5-1.06.73-1.58s.43-1,.63-1.56l.28-.77.13-.38c0-.13.13-.33.2-.49.54-1.36,1-2.7,1.43-4l.29-1,.14-.5.06-.25.11-.31c.27-.82.52-1.64.75-2.45.47-1.64.85-3.25,1.18-4.88.5-1.92.93-3.82,1.27-5.71.17-1,.33-1.89.46-2.83l.57-3.2c.36-2.15.63-4.29.83-6.42l.07-.79.12-.88.22-1.79c.13-1.19.25-2.38.34-3.56s.18-2.35.23-3.52l.08-1.76.14-1.93c.18-2.57.27-5.13.29-7.66v-2.84l0-1c0-1.37,0-2.72,0-4.08,0-2.7-.09-5.39-.24-8.05,0-2.83-.16-5.67-.34-8.46s-.49-5.51-.66-8.47a411.07,411.07,0,0,0-11.72-67.31l-.53-1.94-.46-1.85-1-3.66c-.66-2.43-1.38-4.86-2.1-7.22-.62-2.2-1.27-4.39-2-6.55l-1-3.22-.53-1.57-.44-1.41q-.9-2.81-1.87-5.55l-1-2.69-.78-2.23q-.79-2.22-1.65-4.38l-1.3-3.37-.63-1.53-.59-1.41-.69-1.64-.46-1s0,0,0,0c-.11-.23.27.6.53,1.11s.56,1.13.86,1.7c.53,1.09,1.15,2.29,1.75,3.44l2.19,4.06q1.41,2.64,2.93,5.27l3.74,6.52,2.1,3.51,1.07,1.75.54.87.64,1.08q2.61,4.39,5.38,8.73l6.17,9.58c1.11,1.72,2.25,3.42,3.4,5.12l3.53,5.15q3.9,5.85,8,11.59l8.84,12.18c2.57,3.48,5.15,6.83,7.61,9.93,2.52,3.33,5,6.52,7.12,9.23s4.09,5,5.6,6.84l1.93,2.3,4.29,5.19,0,0,0,0-.07-.09-.1-.13c-.07-.08,0,0,.14.19l.07.08L744,736.37l-.85-1-2.19-2.62c-1.66-2-3.71-4.52-6-7.48s-4.95-6.54-7.58-9.82q-3.47-4.47-6.79-9l-3.28-4.57-.81-1.13-.76-1-1.5-2.05q-3-4.11-5.86-8.28l-2.84-4.18-.7-1.06c-.23-.36-.43-.62-.64-.93l-1.27-1.82q-2.5-3.64-4.91-7.34l-2.38-3.7-1.17-1.86-1-1.56q-2-3.11-4-6.24l-1.93-3.14-1.82-3q-3.12-5-6-10.12l-2.26-3.94c-.71-1.27-1.41-2.53-2.09-3.8l-1.61-3-1.31-2.5-1.67-3.31-.58-1.21h0v0l.34.74.5,1.17.61,1.46c.61,1.46,1.21,3,1.78,4.47,2.86,7.33,6.87,18.64,10.75,32.32q.76,2.61,1.47,5.27l.69,2.66.33,1.34.39,1.41q1.53,5.64,2.78,11.43c.92,3.91,1.85,7.94,2.61,12L693,704l.62,3.07c.4,2.05.78,4.12,1.12,6.2a356.16,356.16,0,0,1,5.17,49.72q.32,5.8.14,11.76c0,3.75,0,7.37-.3,11.12-.3,7.1-1.09,14-1.94,20A121.41,121.41,0,0,1,690.58,834c.26-.64.49-1.26.7-1.88.32-.8.65-1.64.94-2.45s.55-1.63.79-2.44l.34-1.21.47-1.47a60.86,60.86,0,0,0,1.53-5.93c0-.22.11-.51.19-.81l.22-.88.4-1.74c.26-1.16.48-2.31.68-3.46.3-2.14.9-4.95,1.24-7.53.18-1.31.34-2.61.46-3.9l.09-1c0-.33.09-.72.13-1.08L699,796c.32-2.91.49-5.73.61-8.65.26-3.14.39-6.26.41-9.34v-2.31c0-.77,0-1.65.05-2.47,0-1.66,0-3.31,0-5S700,765,700,763.39l-.07-1.22,0-1.29-.08-2.59c-.12-3.45-.36-6.87-.7-10.25-.21-3.56-.52-7.09-.92-10.57l-.33-2.61c-.12-.86-.23-1.74-.32-2.64-.19-1.79-.4-3.57-.64-5.34s-.5-3.54-.78-5.29l-.44-2.62-.39-2.66q-.81-5.29-1.86-10.49c-.38-1.73-.66-3.45-1-5.16s-.68-3.42-1-5.12l-2.27-10c-.75-3.25-1.58-6.47-2.45-9.63s-1.55-6-2.42-9l-2.48-8.39c-.41-1.34-.82-2.67-1.26-4s-.9-2.68-1.23-3.77c-.73-2.31-1.51-4.59-2.32-6.84l-.6-1.65-.48-1.38-1-2.73L673,633.36c-.5-1.28-1-2.55-1.55-3.79l-.44-1.09-.44-1-.37-.82v0h0l.2.43q.5,1,1.05,2.1l.93,1.85,1.13,2.16,3,5.52,1.85,3.28.95,1.63,1.22,2.16q2.55,4.5,5.32,9l1.64,2.74,1.7,2.79q1.71,2.79,3.51,5.56l1.81,2.78,2.09,3.3q2.12,3.3,4.32,6.57l4.55,6.67q2.51,3.75,5.11,7.46t5.25,7.26l.67.91.71,1,1.43,2,2.92,4q2.94,4,6,7.91l1.53,2,.78,1,.8,1.07,3.24,4.25q3.28,4.23,6.7,8.37l3.45,4.11.22.25c-3.75-4.53,5.12,6.21,4.2,5.1h0v0l0,0-.09-.12-.17-.22-.36-.45q-1.42-1.77-2.9-3.38-.95-1-1.89-2c-.14-.12-.39-.42-.58-.63l-.62-.68-1.24-1.33c-1.66-1.74-3.36-3.39-5.09-4.93-.19-.16-.46-.44-.73-.7l-.79-.78L732.35,725q-1.61-1.5-3.23-2.91c-1.09-1-2.18-1.86-3.29-2.75-.5-.38-1.22-1-1.85-1.59l-2-1.68q-3.94-3.32-8-6.27l-1-.73-1.16-.92-2.36-1.82c-1.57-1.19-3.15-2.36-4.75-3.49s-3.19-2.23-4.81-3.3l-1.21-.8-.6-.39-.68-.49L694.66,696q-5.52-3.81-11.17-7.25L680.66,687c-.22-.13-.48-.28-.75-.46l-.79-.51-1.59-1c-2.12-1.34-4.26-2.65-6.4-3.92s-4.29-2.52-6.45-3.73l-3.25-1.79-1.63-.87-1.79-1q-7.23-4.2-14.6-8-3.67-1.9-7.38-3.7c-2.67-1.41-5.44-2.87-8.16-4.24s-5.49-2.75-8.25-4.07l-1.78-.84h0v0c0,.07,0-.09,0-.17a2,2,0,0,1,0-.26,2,2,0,0,1,.07-.26,1.75,1.75,0,0,0,.09-.36c.08-.37.16-.74.26-1.11l.14-.54.17-.82.35-1.65c0-.15.06-.25.09-.43l.09-.54.19-1.08.38-2.2.37-2.64c.12-.88.25-1.71.36-2.8.21-2.1.43-4,.59-6.45a232.87,232.87,0,0,0-.37-34.72c-1-11.85-2.12-24.57-3.37-38.26s-2.62-28.39-3.91-44.78c-.63-8.26-1.27-16.82-1.78-26.23q-.18-3.54-.38-7.08c-.07-1.14-.1-2.48-.16-3.72l-.14-3.81-.14-3.81-.08-1.91,0-.93-.07-.73q-.3-2.88-.6-5.79-.64-5.81-1.27-11.65t-1.35-11.91c-.93-8-1.92-16.21-3-24.51-5.52-43.83-11.35-87.56-13.9-132.73-1.28-22.55-1.76-45.41-.93-68.84.18-5.8.49-11.73.86-17.64s.8-11.81,1.38-17.83,1.17-12,1.94-18c.39-3,.79-6.07,1.22-9.12l.65-4.56.75-4.88q.66-3.81,1.34-7.68.64-3.43,1.29-6.91t1.3-6.83l0-.12h-.16l48.28,9.27,26.5,5,14,2.73q27.89,5.4,55.2,10.28L785,151.14q16.13,2.84,31.71,5.3l3.87.6,2.6.45,5.15.87L838.51,160q10,1.56,19.56,2.84,6.82,1.06,13.24,1.92t12.36,1.52l8.85,1.09c2.7.31,5.26.58,7.66.81l3.49.32,1.66.14,1.24.13c6.43.68,10.79.93,12.39,1s.4,0-3.23-.21c-1.81-.13-4.22-.32-7.16-.61l-2.29-.24c-.44,0-.73-.09-1.33-.13l-1.64-.14q-3.36-.3-7.17-.7t-8.06-.94l-2.14-.28-1.17-.15-1.47-.16-6.06-.72q-6.18-.76-12.86-1.73l-7-1-9.76-1.37q-9.9-1.44-20.36-3.18l-5.27-.89-1.32-.23-1.91-.3-4-.62-16.1-2.64q-16.29-2.75-33.26-5.9l-27.85-4.94L709,137.38l-39.17-7.54-9.13-1.71-4.57-.87-.55-.1h0l.08.07.16.12.33.26c.05.07.12,0,.15.18l.11.39.22.77.11.38a1.68,1.68,0,0,1,.1.46l.23,2.54c0,.35,0,1,0,1.6v2.65c0,.29,0,.57,0,1l-.1,2.32c-.18,3.36-.28,6.53-.42,9.79l0,2.75.07,2.53.16,5,.33,10q.4,9.9.82,19.8c.61,13.12,1.28,26.14,2.06,39,1.53,25.68,3.32,50.81,5.12,75.44,3.6,49.26,7.26,96.42,9,142.08.22,5.68.42,11.43.58,17l.22,8.47.09,4.23,0,1.06,0,1.34,0,2.68-.1,5.35-.06,2.68,0,2.56-.11,10.1q0,9.42-.07,18.86c0,12.12-.07,23.57-.23,34.21s-.45,20.92-.94,30.41l-.19,3.61-.21,3.47-.48,6.9-.55,6.63-.15,1.66-.16,1.59-.33,3.16c-.44,4.32-1,8.18-1.52,12.22l-.89,5.66c-.15.93-.3,1.92-.46,2.8l-.5,2.64-.51,2.64c-.17.88-.34,1.77-.53,2.55L666,645.64c-.18.84-.39,1.54-.58,2.28l-.6,2.21-.6,2.21-.63,2A64.72,64.72,0,0,1,658.41,667c-.38.62-.74,1.3-1.09,1.9-.34.43-.66.86-1,1.3l-.22.34c-.07.11-.14.24-.21.27l-.38.33a3.51,3.51,0,0,0-.33.34c-.11.09-.21.31-.29.24h-.4l.52.29,4.12,2.37,1,.54.93.5,1.84,1q3.69,2,7.34,4.18c2.43,1.43,4.84,2.91,7.25,4.42l1.79,1.15.9.57.82.49,3.19,1.92q6.36,3.92,12.57,8.29l-.83-.58,2.22,1.56c1.27.83,3.13,2.05,5.43,3.66L700.52,700l-1.55-1-.77-.51c-.25-.16-.58-.4-.86-.6-2.35-1.67-4.71-3.29-7.1-4.85s-4.78-3.09-7.2-4.55l-1.82-1.09-.91-.54-.51-.33-.08-.05h0l.24,0a7.76,7.76,0,0,0,1.17.17,12.83,12.83,0,0,1,1.58-.5,39.38,39.38,0,0,0,9.45-7c-1.64-7.77-3.14-17.22-4.33-27.79s-2-22.34-2.19-35.13a319.68,319.68,0,0,1,2.21-41.62,333.4,333.4,0,0,1,9.76-49.18c.89-3.14,1.79-6.15,2.77-9.33s2-6.38,3.07-9.54,2.23-6.59,3.39-9.85q.92-2.52,1.81-5t1.9-5.11c1.32-3.69,2.46-6,3.7-8.78s2.49-5.35,3.77-8c2.56-5.28,5.21-10.65,7.93-15.91,10.9-21.13,22.95-42.05,34.74-63.59-.39-59.31-3.24-120.85.16-185.16-.61-2.71,1.44-5,4.49-5.4a5.66,5.66,0,0,1,6.37,4.24c10.83,46.53,18,91.66,24,136.05a57.37,57.37,0,0,1,36.71-4.57c13.84,2.73,25.42,9.87,33,19.11,1.92-9.49,3.55-19,5.57-28.54,1.45-5.85,7.59-9.65,14.42-8.37,7.5,1.34,12.09,6.91,11,12.51q-10.64,58.33-21.18,115.21l.12,17.57V480.4c0,5.82-.07,11.64-.14,17.42L875,506.5l-.07,4.41-.13,4.72c-.35,12.57-.56,24.71-.78,36.51s-.46,23.43-.8,34.8a87.43,87.43,0,0,1,35.22-8l.23,0c.79-7.11,1.44-14.28,2.17-21.47Q909.29,546.34,908,535c-.42-3.84-.87-7.6-1.23-11.51l-.55-5.82-.27-2.89-.28-2.75q-2.21-22-3.85-44.05c-2.18-29.42-3.5-59-3.66-88.67-.32-59.43,4-119.57,15.69-180.12.51-2.58,1-5.19,1.58-7.78l1.47-6.77q1.11-4.93,2.24-9.88l.38-1.68.33-1.34c.07-.32.16-.64.25-1a5.47,5.47,0,0,1,.2-.61.31.31,0,0,1,.09-.14l.08-.09,0,0h.17l.85,0,2.91.21q2.93.19,5.86.29l2.94.08c.54,0,.85,0,1.26.05l1.16,0c1.56.06,3.12.09,4.69.09l2.35,0c.37,0,.84,0,1.13,0h.93q1.88,0,3.75-.06l2.19-.1,1-.06.78,0c1,0,2-.09,2.75-.15l1.9-.17.73-.08-.59.06-1.7.16c-.72.06-1.58.11-2.51.16l-1.46,0-2,.1c-1.27.06-2.53.1-3.79.11H943.9c-.28,0-.72,0-1.11,0l-1.19,0c-1.58,0-3.16,0-4.74-.05l-2.35-.08-.59,0h-.67l-1.2,0c-.08.06-.11.05-.17.16a4.5,4.5,0,0,0-.2.51c-.27.91-.69,2.78-1.29,5.41q-1.14,5.12-2.3,10.22l-1.48,6.8c-.54,2.56-1.06,5.16-1.57,7.73-.54,3-1.09,5.91-1.64,8.87l-1.56,8.8c-1,5.86-1.91,11.71-2.8,17.56q-2.58,17.57-4.47,35.08l.19-.15a6.53,6.53,0,0,1,7.81,1.19,4.36,4.36,0,0,1-.9,6.49A6.5,6.5,0,0,1,913.9,278a1001.06,1001.06,0,0,0-4.6,116c.6,38.42,3.12,76.6,6.85,114.65,7.88-68.27,16-137.35,33.65-205.54-2.74-8.22-5.56-16.42-8-24.78-.37-2.21,2-4.64,5.07-5,2.71-.14,5.69,2,6.06,4.23.53,2.29,1.24,4.58,1.88,6.87,3.51-12.92,18.59-20.7,35-17.58,16.77,3.7,27.83,17.08,24.92,30.4-2.86,36.53-6.82,72.69-11.6,108.76.33,4,.83,8.1,1.15,12.13,2,4.33,4,8.63,6.11,13,15.26-54.9,31.89-109.37,50.2-162.48.68-4.72,6.17-7.85,12.06-6.88s10.14,5.61,9.45,10.31c3.21,49.93,5.52,99.94,6.16,150.52q.48,37.92-.38,76.28-.46,19.19-1.3,38.49l-.22,4.83-.11,2.41-.08,2.24-.31,8.79q-.33,9.09-.68,18.19c10.32,17.84,20.7,36.37,30.74,55.79s19.73,39.78,28.6,61.49c1.39-4.83,2.54-9.59,3.46-14.46a271.79,271.79,0,0,0,4.19-44.54,300.9,300.9,0,0,0-2.41-41c-.41-3.26-.86-6.55-1.35-9.66-.26-1.58-.52-3.16-.77-4.74l-.41-2.37-.41-2.29c-.57-3-1.17-6.15-1.8-9.12l-2-8.87q-1.8-10.17-3.85-20.31t-4.31-20.15c-11.9-53.52-26.38-105.76-25.52-158.49-.34-2.71,2.57-4.43,5.56-4.29s5.68,2.42,5.3,5.05c1.78,51.81,19.63,102,28.73,156.26q2.83,17,5.62,33.56c1.73,11.88,4.08,20.21,6.38,30.33q1.8,7.65,3.6,15.24,1.93,7.92,3.86,15.76l2,8.07,2.13,8.16,2.19,8.35q1.15,4.23,2.3,8.44c.23-2.78.4-5.47.54-8.16s.27-5.39.37-8.07.15-5.26.19-7.88l0-3.95v-3.83c0-2.56,0-5.11-.09-7.67l-.24-7.44-.16-3.73-.19-3.59-.45-7.18c-.34-4.56-.73-9.33-1.19-13.62l-.35-3.29-.17-1.65-.14-1.94-.55-7.85c-.75-10.49-1.72-20.87-2.73-31.27-2.07-20.71-4.45-41.25-6.44-61.62s-3.57-40.52-4-60.55c-.84-3.61,1.13-6.8,4.59-8.47a6.74,6.74,0,0,1-3.83-2.57,115.64,115.64,0,0,1-8.22-16.79,164.4,164.4,0,0,1-5.62-17.21c-1-2.27.67-4.66,4.07-5.21C1155.23,345.85,1158,347.58,1159.33,350.15Zm-252.74,124,3.91.47c-2.59.53-5.33,1.14-8.34,1.84l-3.12-.72c-3.13-.72-9.38-2.17-22-4.93C877.08,470.79,891.75,472.2,906.59,474.13ZM897,331.57l0,.05,14.11,3.88ZM699.59,754.5c1.19,19.64.38,37.9-1.94,52.42l-.25,1.41c-.08.45-.21,1-.25,1.36-.11.81-.24,1.63-.39,2.45q-.43,2.48-1,5l-.32,1.24-.21,1c-.16.7-.32,1.4-.51,2.11q-.54,2.12-1.26,4.26c-.31,1.17-.65,2.31-1.06,3.48-.2.59-.42,1.17-.65,1.76l-.35.88c-.12.29-.16.46-.25.7-.32.89-.68,1.79-1.09,2.7-.2.46-.42.91-.65,1.37l-.44,1c-.53,1.21-1.52,2.82-1.76,3.31a13.57,13.57,0,0,1-.76,1.17l0,.08-19.88,29.73,0-.08.19-.3.39-.58q.4-.57.81-1.08l.42-.49.11-.12.15-.2.3-.39q.6-.77,1.23-1.47c.42-.46.85-.9,1.29-1.33a5.48,5.48,0,0,0,.39-.41l.42-.45.85-.89c.58-.57,1.16-1.12,1.76-1.65l.9-.77c.3-.25.71-.66,1.06-1a51.62,51.62,0,0,1,4.54-3.69,159.42,159.42,0,0,1,26.48-16.55c2.81-1.51,5.75-3,8.66-4.37l9.31-4.23q2.43-1.06,4.88-2c1.64-.67,3.21-1.23,5-2,3.54-1.48,7.1-2.84,10.68-4.11q-5.25,1.86-10.43,4c-.85.34-1.77.76-2.55,1l-2.39.93c-1.6.64-3.18,1.3-4.76,2s-3.16,1.41-4.73,2.15l-1.17.56-1.09.48-2.15,1q-4.29,1.95-8.49,4.23l-3.85,2c-1.26.66-2.51,1.35-3.76,2.07s-2.51,1.51-3.66,2.18-2.2,1.25-3.28,1.91-2.17,1.36-3.23,2.08l-1.6,1.1-.39.27-.35.22-.69.45a66.71,66.71,0,0,0-5.44,3.93c-.73.61-1.28,1-1.87,1.42s-1.16.9-1.73,1.37-1.14,1-1.7,1.46l-.83.77-.4.37-.35.28c-.91.77-1.8,1.6-2.67,2.48-.43.45-.86.9-1.28,1.37s-.66.65-1,1a27.59,27.59,0,0,0-1.88,2.21l-.22.29-.17.19-.31.37c-.21.26-.42.52-.62.8s-.4.57-.6.87l-.14.22-.08.12,0,.06,0,0v0l19.86-29.7.16-.23c.21-.31.4-.6.57-.89a66.82,66.82,0,0,0,6.27-15,150.55,150.55,0,0,0,5.74-30.46c.17-1.56.3-3.12.39-4.66s.11-3,.28-4.77q.36-5.08.31-10.06c0-.8,0-1.75,0-2.63l0-2.69c0-1.78,0-3.56-.09-5.33C699.84,762.05,699.83,758.17,699.59,754.5Zm322.12-287c-15.59.24-32.65-2.7-49.81-6.07a35.84,35.84,0,0,1-8.06,17.71c-2.77,3.38-5.52,6.69-8.39,9.93q-2.15,2.43-4.34,4.81l-4.38,4.72q-4.32,4.68-8.85,9.17-2.26,2.25-4.58,4.47l-4.55,4.39c8.4,2.63,5.53,5.43,5.4,7.65-.4,2.13-.94,4.15-1.33,6.25q5.26-4.35,10.6-8.62c3.57-2.85,7.35-5.67,11.05-8.46l5.6-4.18c1.87-1.38,3.73-2.76,5.7-4.14q5.84-4.12,11.74-8.2,2.64-1.85,5.23-3.8c1.77-1.29,3.53-2.62,5.29-3.95,3.51-2.66,7-5.35,10.56-8s7.3-5.15,11.12-7.48A94.63,94.63,0,0,1,1021.71,467.54Zm54.2-124.16c1.2.25,2.26.47,3.5.66L1087,355Zm-13.06-18.2c-1,.35-2.11.66-3.19,1.06C1056.62,322.45,1058.55,322.83,1062.85,325.18Zm-29,10.1c3.61.94,5.83,1.53,7.66,1.45Zm-306.27-219q21.46,24.39,43.11,48.58Q750.39,141.07,730.24,117Z"/></g></g></g></svg>