<svg xmlns="http://www.w3.org/2000/svg" viewBox="0 0 1844.93 1828.02"><defs><style>.dark-bottom-1{fill:#1a1a1a}</style></defs><g id="Layer_2" data-name="Layer 2"><g id="Layer_2-2" data-name="Layer 2"><g id="darkmode"><path d="M620.49,246.7c16.87-6.35,33.85-12.25,50.58-17.91l14.26-5.31,14.32-5.22,14.8-5.36,15.45-5.53c5.36-1.89,10.63-3.75,16.22-5.66,5.44-1.88,11.22-3.8,16.9-5.68l8.78-2.85,4.41-1.41,4.55-1.41,9.12-2.79,9.39-2.76c12.69-3.64,25.74-7.16,39.61-10.39l5.15-1.2,5.29-1.17,10.62-2.25c7.29-1.43,14.45-2.84,22-4.07,7.39-1.28,15.11-2.37,22.75-3.41,3.85-.51,7.8-.93,11.7-1.37s7.82-.88,11.71-1.2l11.68-.89,5.84-.41,5.81-.27,11.61-.45c3.86-.14,7.69-.13,11.53-.17a569.7,569.7,0,0,1,89.56,6.39,601.68,601.68,0,0,1,83.07,18.59A638.35,638.35,0,0,1,1223,210.71a663.3,663.3,0,0,1,131.78,78.4c10,7.59,19.72,15.54,29.29,23.67,4.75,4.11,9.47,8.25,14.13,12.47l6.93,6.39c1.14,1.06,2.35,2.16,3.41,3.19l3.2,3.12c8.47,8.33,17.1,16.7,25,25.3,4,4.28,8,8.58,12,12.91l11.36,13.08,5.64,6.59c1.84,2.2,3.58,4.4,5.38,6.61l10.63,13.32c1.8,2.22,3.42,4.45,5.1,6.68l5,6.71,5,6.73,2.48,3.37,2.36,3.36c6.22,9,12.61,18,18.3,27.05,2.9,4.52,5.84,9.06,8.67,13.59l8.17,13.55,4,6.81,3.83,6.76q3.8,6.78,7.59,13.57c2.46,4.52,4.77,9,7.15,13.51s4.76,9.06,6.91,13.51,4.39,9,6.59,13.47l1.64,3.38,1.54,3.33,3.08,6.69,3.06,6.71c1,2.23,2,4.48,3,6.68q2.85,6.64,5.71,13.31c1.94,4.47,3.69,8.84,5.46,13.24l1.33,3.31.68,1.69.87,2.05,3.54,8.42q7.23,17.37,14,34.89c14.15,41.34,27.81,82.82,37.71,125.44a646.57,646.57,0,0,1,11.9,64.69q.53,4.1,1,8.2t.85,8.23c.26,2.75.61,5.48.79,8.24l.6,8.27c.47,5.51.55,11.06.78,16.59s.25,11.09.37,16.64c-.21,12.27-.53,24.56-1.57,36.82s-2.49,24.49-4.3,36.68a589.46,589.46,0,0,1-16,72.26c-3.35,11.91-7.15,23.71-11.12,35.46s-8.3,23.4-12.84,35c-9.14,23.13-18.89,46.06-29.41,68.6-5.18,11.31-10.64,22.47-16.13,33.59l-2.05,4.11-1.84,3.61-3.48,6.82c-2.3,4.48-4.54,9-6.93,13.39L1558,1284c-2.35,4.42-4.83,8.75-7.24,13.12s-4.82,8.74-7.35,13l-4.23,7.25-4.86,8.21a1095.65,1095.65,0,0,1-81.72,118.1q6-6.82,11.94-13.74l5.93-6.94,5.85-7q5.82-7.07,11.61-14.22t11.38-14.48L1505,1380l5.55-7.4q5.54-7.42,11-14.94t10.75-15.18l5.33-7.65,2.64-3.85,2.67-4,5.41-8.16,4.32-6.4c2.79-4.2,5.52-8.43,8.28-12.66,5.56-8.43,10.81-17.06,16.16-25.64,2.65-4.31,5.21-8.68,7.81-13l4-6.81,1.06-1.83,1.16-2,2.3-4.12q4.6-8.25,9.13-16.57c3-5.54,5.93-11.14,8.87-16.74,5.88-11.19,11.46-22.54,17-33.94,2.77-5.7,5.38-11.47,8-17.23s5.3-11.53,7.78-17.35c5.09-11.62,9.81-23.39,14.33-35.23l3.28-8.92q1.65-4.45,3.17-8.95l3.06-9,2.88-9.05a552.51,552.51,0,0,0,17.89-73.77c2-12.51,3.8-25.08,4.82-37.73s1.55-25.35,1.77-38.06c-.19-14.63-.68-29.28-2-43.88-.34-3.64-.78-7.28-1.19-10.92l-.63-5.46-.77-5.44-1.59-10.88-1.88-10.84q-4-21.64-9.64-43c-1.82-7.13-3.91-14.21-6-21.3-1-3.54-2.18-7-3.29-10.58s-2.23-7.06-3.44-10.56l-3.59-10.53-3.78-10.48q-1.89-5.25-3.92-10.45l-4-10.43q-8.27-20.81-17.35-41.43t-18.57-41.17l-4.59-9.82-3.52-7.72c-2.29-5.11-4.83-10.38-7.28-15.6s-4.9-10.44-7.55-15.78L1583,561.58l-8.26-16.15-2.07-4-2.19-4.09-4.37-8.17-4.39-8.18c-1.5-2.74-3.08-5.51-4.62-8.26l-4.66-8.27c-1.57-2.76-3.06-5.5-4.75-8.29l-9.91-16.7c-1.62-2.78-3.43-5.6-5.17-8.4l-5.29-8.42-5.32-8.42-5.62-8.46-5.65-8.46L1507.9,433l-3-4.25q-6-8.49-12.05-17c-4.16-5.65-8.5-11.32-12.77-17l-3.23-4.23-1.62-2.12-1.7-2.11-6.82-8.45c-4.6-5.63-9-11.26-14-16.84s-9.7-11.16-14.62-16.72q-7.67-8.28-15.45-16.51l-3.89-4.11c-.63-.68-1.34-1.39-2-2.1l-2.12-2.12c-2.83-2.82-5.65-5.66-8.52-8.45-5.76-5.54-11.55-11.08-17.5-16.45q-17.77-16.2-36.76-31.34c-12.67-10.09-25.72-19.85-39.3-29.19s-27.53-18.38-42.09-26.93L1265,204l-5.54-3.14c-3.71-2.08-7.4-4.17-11.17-6.21l-11.39-6c-3.79-2-7.73-3.9-11.6-5.84l-5.85-2.88-6-2.79c-4-1.85-8-3.71-12-5.5l-12.24-5.28c-4.07-1.76-8.3-3.4-12.46-5.07l-6.28-2.49-6.38-2.38c-4.29-1.57-8.53-3.16-12.88-4.66l-13.12-4.39c-4.38-1.46-8.9-2.78-13.36-4.15-18-5.35-36.45-10.08-55.63-13.87a590.93,590.93,0,0,0-59-8.82,582.68,582.68,0,0,0-61.87-2.9c-2.62,0-5.24,0-7.87,0l-7.92.24c-5.3.2-10.57.34-15.89.69s-10.64.73-16,1.15-10.45,1-15.69,1.51c-20.72,2.26-40.54,5.36-59.35,9s-36.68,7.7-53.42,12-32.56,8.73-47.47,13.13-29,8.78-42.15,12.91l-19.22,6.06c-6.31,2-12.58,4.05-18.88,6.1,3.84-8.35,8-16.7,12.59-24.93,2.23-4.11,4.76-8.26,7.34-12.39l1.95-3.1c.67-1,1.4-2.08,2.1-3.12,1.43-2.08,2.87-4.16,4.35-6.23s3-4.16,4.67-6.25,3.26-4.16,4.93-6.24,3.53-4.18,5.34-6.25,3.64-4.14,5.59-6.22A280.24,280.24,0,0,1,719.61,81c2.47-2,4.91-4,7.51-6s5.32-4,8-6l4.1-2.95,4.33-2.93q4.36-2.92,8.85-5.77a348.89,348.89,0,0,1,40.41-21.66l5.57-2.51,2.81-1.23,2.92-1.21Q810,28.29,816,26l3-1.14,3.11-1.12,6.28-2.18c4.24-1.43,8.38-2.83,12.86-4.14s8.89-2.6,13.38-3.82c2.22-.62,4.59-1.2,6.92-1.77l7-1.67,7.09-1.59c2.36-.52,4.86-1,7.29-1.45q7.35-1.4,14.81-2.61A697.25,697.25,0,0,1,969.21.08L978,0l8.73.11c5.8.1,11.64.2,17.4.43,11.46.52,23,1.13,34.18,2.18S1060.69,5,1071.75,6.4c5.49.74,10.89,1.58,16.32,2.42l8.13,1.3,8,1.44c21.42,3.82,42,8.66,62.08,14.08q7.47,2.07,14.9,4.23c5,1.44,9.77,3,14.64,4.51,9.77,3,19.14,6.35,28.61,9.69q7,2.57,13.9,5.22l6.9,2.66L1252,54.7c4.5,1.85,9,3.7,13.48,5.61l13.21,5.82c17.46,7.9,34.43,16.25,50.72,25.1,8.23,4.37,16.16,9,24.14,13.53,4,2.32,7.84,4.67,11.74,7l5.83,3.55,5.74,3.61,11.41,7.29,11.18,7.47c3.74,2.5,7.4,5,11,7.61s7.29,5.12,10.87,7.73q21.51,15.66,41.8,32.38c13.49,11.2,26.65,22.68,39.37,34.65l4.77,4.48c.83.76,1.49,1.44,2.24,2.16l2.17,2.13,8.64,8.56,8.58,8.6c1.42,1.44,2.87,2.87,4.26,4.31l4.07,4.33q8.13,8.66,16.15,17.38c2.73,2.91,5.19,5.81,7.74,8.72l7.58,8.73,7.52,8.76c1.27,1.47,2.45,2.92,3.63,4.37l3.55,4.36q7.08,8.75,14.08,17.51c4.48,5.81,8.84,11.6,13.22,17.41l6.53,8.72,6.15,8.63c4.07,5.75,8.21,11.54,12.16,17.27L1647,389.58l-58.2,41.5c1.74,2,3.52,4,5.21,6l5,6q5,6,9.86,12.07c1.66,2,3.2,4,4.74,6l4.63,6c3.07,4,6.16,8.05,9.15,12.07l8.65,11.94c2.83,4,5.78,8.05,8.41,12l8,11.88,4,6,3.77,5.86q3.75,5.88,7.48,11.76l1.85,2.94,1.76,2.89,3.51,5.79,7,11.61,6.56,11.41,1.86,3.3,2.13,3.84,4.44,8.16q4.47,8.28,8.81,16.62,8.68,16.68,16.94,33.53c11,22.49,21.11,45.26,30,68.35a663.88,663.88,0,0,1,22.73,70.14q4.65,17.73,8.22,35.64c2.35,11.94,4.28,23.94,5.86,36,.44,3,.77,6,1.1,9l1,9c.35,3,.55,6,.79,9.06l.65,9.06c.67,12.1.9,24.21,1,36.29-.36,14.63-.87,29.24-2.27,43.77-1.25,14.54-3.34,29-5.77,43.33a611,611,0,0,1-21.18,84.57c-17.87,55.34-43.29,108.26-71,159.12-6.93,12.73-14.13,25.29-21.42,37.74l-2.74,4.66-2.38,3.85-4.49,7.14c-2.94,4.64-5.83,9.31-8.86,13.88l-9,13.77c-3,4.59-6.13,9.09-9.19,13.64s-6.12,9.08-9.3,13.54l-2.36,3.38-3.17,4.71-3.18,4.7-1.6,2.34-1.54,2.22c-16.38,23.43-33.18,46.43-50.71,68.68-8.71,11.17-17.63,22.12-26.58,33-4.48,5.44-9,10.78-13.6,16.14s-9.11,10.7-13.8,15.9l-13.93,15.72c-2.28,2.65-4.69,5.17-7.07,7.71l-7.14,7.64c-9.4,10.33-19.23,20.08-29,29.88s-19.89,19.11-30.17,28.19-20.73,17.91-31.49,26.33l-4,3.17-4.07,3.11c-2.72,2-5.41,4.16-8.18,6.16l-8.3,6c-2.76,2-5.6,3.91-8.4,5.86l-4.22,2.91-4.28,2.83c-2.86,1.87-5.7,3.77-8.59,5.6l-8.72,5.42c-2.9,1.82-5.88,3.52-8.83,5.28-11.84,6.92-23.94,13.52-36.41,19.41q-4.66,2.23-9.37,4.42l-4.7,2.18-2.35,1.09-1.18.55a10.29,10.29,0,0,0-1.2.47l-9.57,4-9.62,3.89c-12.89,5-26,9.49-39.24,13.55s-26.64,7.53-40.16,10.61l-10.16,2.27-10.21,2.09c-6.82,1.31-13.67,2.59-20.56,3.71-13.76,2.3-27.64,4.26-41.67,5.8-3.5.43-7,.76-10.54,1.12l-5.29.54-5.3.44-21.33,1.68c-3.56.31-7.15.48-10.74.67l-10.78.55c-7.2.37-14.42.74-21.69.89-29,1-58.54,1-88.53.23,11.54,6.69,13.7,13.06,12.09,19.25s-7,12-10,17.47c-1.73-.21-3.38-.46-5-.69,1.6.23,3.25.48,5,.69-2.71,4.76-3.56,9.23,1.89,13.32,2.73,2,7,4,13.45,5.8a161.06,161.06,0,0,0,26.15,4.69,161.06,161.06,0,0,1-26.15-4.69c-6.42-1.8-10.72-3.75-13.45-5.8-5.45-4.09-4.6-8.56-1.89-13.32,15.5,1.89,31,3.73,46.38,5,7.71.63,15.42,1.33,23.1,1.78s15.37.94,23,1.34c3.84.23,7.66.33,11.49.44l11.45.31,11.44.23c3.82.11,7.6,0,11.4,0q11.38-.1,22.72-.33c7.54-.26,15.07-.57,22.56-1,15-.91,29.86-2.26,44.62-4.17s29.41-4.27,43.94-7.14a554.06,554.06,0,0,0,85.37-24.1q10.39-3.9,20.67-8.09c6.78-3,13.53-6,20.24-9l5-2.3,5-2.46c3.29-1.66,6.61-3.27,9.87-5l9.75-5.17c3.25-1.73,6.41-3.6,9.61-5.41l4.78-2.74,4.72-2.83c3.14-1.9,6.3-3.75,9.4-5.71l9.26-5.91c3.09-2,6.1-4.06,9.14-6.1l4.55-3.08,4.49-3.15c3-2.12,6-4.21,8.94-6.38,5.87-4.37,11.74-8.75,17.48-13.31s11.43-9.18,17.09-13.85,11.18-9.53,16.64-14.49c11-9.84,21.71-20,32.13-30.62q7.81-8,15.54-16c1.28-1.35,2.59-2.67,3.85-4.06l3.76-4.17,7.51-8.34,7.52-8.34c1.25-1.39,2.53-2.75,3.75-4.18l3.64-4.3,14.59-17.2q29-34.59,55.84-71.3c18-24.38,35-49.51,51.56-75l11.66-18.48c3-4.76,5.94-9.61,8.91-14.42,6-9.6,11.68-19.36,17.42-29.1,2.9-4.86,5.63-9.82,8.45-14.72l4.34-7.67,1.16-2,.57-1,.67-1.23,2.72-5c7.23-13.43,14.32-26.94,21.15-40.59,27.32-54.59,52-110.85,69-169.2a686.87,686.87,0,0,0,20-88.84c2.27-15,4.23-30.13,5.37-45.33s1.7-30.44,2.06-45.72c-.17-12.07-.43-24.16-1-36.25-.39-6-.77-12.08-1.24-18.12s-1.18-12.05-1.81-18.08-1.53-12-2.3-18-1.83-12-2.79-18-2.19-12-3.33-17.95-2.51-11.93-3.81-17.9q-8.05-35.76-19.71-71c-7.72-23.52-16.56-46.86-26.16-70.08-4.78-11.61-9.8-23.18-14.89-34.75s-10.29-23.14-15.64-34.67l-3.92-8.46-1.88-4-.47-1-.35-.78-.66-1.47q-2.64-5.9-5.29-11.8-2.8-6.06-5.62-12.11l-2.83-6.06c-1-2-1.85-4-2.88-6.1-15.68-32.79-33.66-67.4-55.2-103.45,22.11,35.19,40.88,69.11,57.46,101.35,1.08,2.06,2.07,4,3.06,6l3,6,6,11.91,5.65,11.62,7.49,15.24q8.43,17.18,16.47,34.48c5.39,11.52,10.7,23.07,15.8,34.67,10.21,23.19,19.7,46.58,28.08,70.21s15.67,47.51,21.71,71.6c1.46,6,2.92,12.07,4.29,18.11s2.6,12.12,3.83,18.19,2.21,12.18,3.27,18.27,1.87,12.23,2.76,18.34,1.55,12.27,2.28,18.4,1.16,12.3,1.7,18.45c.82,12.33,1.37,24.67,1.83,37,0,7,0,14-.1,21l-.25,10.48c-.08,3.49-.18,7-.4,10.47-.37,7-.73,14-1.39,20.9-.31,3.48-.6,7-1,10.43l-1.16,10.41c-.74,6.94-1.77,13.84-2.73,20.75-.46,3.46-1.08,6.89-1.63,10.34s-1.14,6.88-1.75,10.32c-2.57,13.72-5.4,27.4-8.74,41a793.09,793.09,0,0,1-24.19,80.52c-2.41,6.61-4.78,13.23-7.34,19.8l-3.82,9.86c-1.3,3.28-2.64,6.55-4,9.81q-4,9.81-8.14,19.56c-2.73,6.51-5.63,13-8.5,19.43s-5.79,12.9-8.78,19.32-6,12.8-9.1,19.18c-6.11,12.77-12.51,25.41-19,38l-2.43,4.72-2,3.84-3.81,7.13c-2.46,4.57-4.88,9.17-7.4,13.72l-7.58,13.62-3.81,6.8-3.9,6.75-7.83,13.47c-1.3,2.26-2.65,4.48-4,6.7l-4.75,7.89-5.88,9.66-5.65,9q-5.65,9-11.42,17.9c-7.66,11.9-15.59,23.61-23.57,35.27s-16.27,23.1-24.61,34.48q-6.28,8.51-12.65,16.94l-6.4,8.41-6.48,8.32q-6.51,8.31-13.11,16.53c-4.4,5.48-8.94,10.8-13.4,16.22l-6.72,8.09c-2.25,2.68-4.44,5.44-6.79,8l-13.88,15.68-6.94,7.84-7.15,7.58q-7.17,7.56-14.41,15-14.57,14.81-29.81,28.63c-10.12,9.27-20.56,18.09-31.16,26.68-5.36,4.21-10.67,8.49-16.13,12.55-2.72,2-5.43,4.1-8.18,6.11l-8.31,5.91c-2.77,2-5.57,3.89-8.39,5.79l-8.47,5.7-8.59,5.5-4.31,2.73-4.37,2.64a562.31,562.31,0,0,1-150.44,63.87c-6.6,1.77-13.24,3.32-19.89,4.9s-13.35,2.91-20.07,4.14c-3.36.62-6.71,1.29-10.08,1.86l-10.11,1.68c-3.37.58-6.77,1-10.15,1.5s-6.78,1-10.19,1.35a682.69,682.69,0,0,1-82.56,5.31c-7,0-13.91.13-20.89,0s-14-.38-21-.62l-10.5-.4-10.53-.64q-10.53-.68-21.07-1.47c-7-.55-14.06-1.22-21.1-1.89l-10.56-1-5.28-.56-5.28-.63c-14.08-1.74-28.17-3.53-42.24-5.81-7-1.11-14.08-2.24-21.11-3.45s-14.06-2.56-21.09-3.91c-14-2.63-28.06-5.76-42.07-8.91-7-1.58-14-3.37-21-5.12s-13.95-3.54-20.89-5.47c-13.88-3.88-27.76-7.79-41.53-12.17q-10.33-3.25-20.65-6.62l-5.15-1.7-5.42-1.87-10.82-3.82c-10.9-3.72-21.63-7.86-32.42-11.91q-4-1.52-8-3.14l-8-3.22c-5.33-2.17-10.69-4.27-16-6.53l-15.88-6.83c-2.64-1.15-5.3-2.28-7.92-3.45l-7.87-3.59a1157.34,1157.34,0,0,1-122.67-64.8,1142.32,1142.32,0,0,1-115.18-79.79l-13.82-11-13.62-11.31-6.79-5.68c-2.27-1.9-4.48-3.87-6.71-5.8l-13.36-11.72c-4.45-3.91-8.78-8-13.17-12l-6.55-6q-3.27-3-6.49-6.13c-8.57-8.28-17.19-16.51-25.53-25.11-4.19-4.28-8.39-8.53-12.54-12.86l-12.3-13.16-6.13-6.61-6.07-6.77-6.05-6.8c-2-2.24-4.05-4.66-6.07-7-8.06-9.3-16.15-19-24.18-29l-6.1-7.71-3.26-4.14-1.63-2.09-1.69-2.22q-6.75-8.88-13.39-17.87c-35.12-48.1-65.79-99.69-90.29-154.27a786,786,0,0,1-32.23-84.42q-3.88-13-7.57-26.11c-1.27-4.35-2.32-8.76-3.46-13.15l-3.29-13.19c-2.26-8.78-4-17.69-5.84-26.56l-2.66-13.34L0,1023.12l1.94-19.23,2.32-19.07c1.45-12.63,3.36-25.19,5.13-37.6.85-6.2,1.87-12.39,2.88-18.54l3-18.38c1-6.09,2.18-12.17,3.26-18.22l1.64-9,.82-4.51.42-2.25.44-2,1.77-8,1.74-7.55,1.71-7.52c.57-2.49,1.19-4.83,1.78-7.25,2.38-9.56,4.63-19.28,7-28.24L39.31,802,42.75,789l1.68-6.52.82-3.25.84-3.13,3.3-12.47L51,757.37l1.6-6,3.1-11.91.75-3,.76-2.85,1.49-5.7,2.87-11.39c3.78-14.64,7.07-28.61,10.74-45.69,3.65-16.92,7.52-36,12.4-57.3l.93-4,1-4.12,2-8.25c.62-2.68,1.39-5.64,2.11-8.53L92.87,580,94,575.64l1.13-4.13,2.28-8.26c1.48-5.51,3.18-11,4.8-16.44,9.16,8.65,20.77,14.05,33.69,17.8s27.19,5.87,41.74,7.76,29.4,3.53,43.6,6S249,584.11,261,588.94s22.61,11.2,30.9,19.7a68.83,68.83,0,0,1,10.82,14.47,69.92,69.92,0,0,1,4.07,8.66A82,82,0,0,1,310,641.6c3.62,13.72,4.87,30,3.57,49.35-.09,1.21-.19,2.44-.29,3.68s-.21,2.45-.32,3.7c-.24,2.49-.53,5-.88,7.67-.62,5.1-1.51,10.59-2.51,16.06s-2.23,11.27-3.68,17.3-3.08,12.44-5,19.13l71.55,7.86a324.73,324.73,0,0,1,23-35.36,263.89,263.89,0,0,1,26.61-30.62,192.9,192.9,0,0,1,29.83-24c2.62-1.65,5.26-3.21,7.89-4.7,1.31-.75,2.63-1.48,3.94-2.18s2.71-1.41,4.06-2.08q4.05-2,8.1-3.84c2.75-1.19,5.52-2.31,8.27-3.36a181.46,181.46,0,0,1,67.56-11.44c2.8.05,5.55.13,8.34.3s5.58.39,8.33.66c5.53.54,10.94,1.26,16.32,2.19a253.48,253.48,0,0,1,31.35,7.61,187.54,187.54,0,0,1,57,21.46q6.39,3.76,12.35,8.05,3,2.14,5.85,4.43c1,.75,1.89,1.55,2.84,2.29l3,1.8c8,4.82,15.54,9.64,22.86,14.38,14.58,9.47,28.06,18.53,40.11,26.23Q769.24,744,777,748.73c2.73,1.35,5.37,1.8,7.66,3.64l1.7,1.12c.55.51,1.08,1.06,1.6,1.59l1.5,1.58.36.39.36.53.69,1c2.85,4.8,5.15,11.47,6.91,20.75.11.57.23,1,.33,1.69l.31,1.88c.19,1.25.39,2.51.59,3.76.38,2.45.74,5.19,1.08,7.82s.65,5.31,1,8c.31,2.49.63,5,.94,7.51s.57,4.94.85,7.42q.46,3.48.87,6.94c.48,4.8,1.12,8.85,1.59,13.15.12,1,.21,2.19.36,3.15l.41,2.9c.26,1.94.5,3.87.72,5.81.09,1,.26,1.78.38,2.68l.38,2.59.35,2.6c.11.84.18,1.78.34,2.49.27,1.52.51,3,.73,4.54l.3,2.27c.12.7.27,1.3.39,2l.34,1.93c.05.36.11.53.16.79l.15.72c.07.64.22.55.34.68a3.39,3.39,0,0,1,.34.28c.22.19.29.38.49.56a2.43,2.43,0,0,1,.53.54,1.28,1.28,0,0,1,.16.27,2.23,2.23,0,0,1,.27.26,1.42,1.42,0,0,1,.33.52,7,7,0,0,1,1.33,4.24,22.68,22.68,0,0,1,0,3.62c0,1.3,0,2.67.07,4.19,0,.19.07.34.07.54s0,.42,0,.57c.14.4-.14.56.5,1.59.47.74.86,1.45,1.38,2.23l1.6,2.38.8,1.21.92,1.27,1.83,2.58,2.07,2.72c.69.92,1.36,1.84,2.14,2.75l4.46,5.54c1.58,1.79,3.14,3.61,4.69,5.44l4.92,5.34a212.37,212.37,0,0,0,46.54,37.27,171.42,171.42,0,0,0,56.93,21c3,.69,5.94,1.4,8.88,2.11s5.93,1.28,8.88,1.86l4.44.83c1.47.27,2.92.61,4.41.81l1.11.18.56.09c.06,0,.24,0,.22,0l0-.07-.3-.54-.17-.25c0-.06.09-.11.13-.17l.29-.39a28.47,28.47,0,0,0,1.84-2.63,19.12,19.12,0,0,0,1.31-2.65,14.26,14.26,0,0,0,1.12-7.59c-.11-.58-.24-.73-.1-.33a11.87,11.87,0,0,0,1.5,2.66c1.9,2.64,5.88,7,14.13,11a34,34,0,0,0,7.56,2.79l1.83.35,1,.19a4.64,4.64,0,0,0,.48.07c.15,0,.33,0,.38.17s.35.47.55.7c.06,0,.07.17.17.13l.62-.61,1.24-1.23c1.67-1.64,3.21-3.36,4.82-5s3.22-3.39,4.79-5.12l4.64-5.25,2.32-2.64,2.25-2.7,2.25-2.7,1.1-1.33.92-1,.46-.48c.12-.1.15,0,.22-.09l.39-.1.82-.19.87-.19a4.71,4.71,0,0,0,.86-.21c.51-.18,1.05-.36,1.63-.53l.89-.25.82-.31a43.17,43.17,0,0,0,12.27-7.36,34.91,34.91,0,0,0,11.22-16.29,36.66,36.66,0,0,0,1.36-5.06,75.62,75.62,0,0,0,1.31-10.84l.14-2.88c.06-1,0-1.94.1-3l.08-3.07c0-1-.07-2,0-3.15l.07-.83v-.41c0-.18-.07-.41-.11-.62l-.11-.63a2.35,2.35,0,0,0-.09-.37l-.26-.72-1.07-2.88q-2.1-5.6-4.18-11.18l-7.84-21q-6.77-18.24-13.5-36.37c-4-10.88-7.38-20.61-10.18-29.47-.35-1.06-.69-2.14-1-3.23l-1-3.27q-.95-3-1.78-6.15l-.82-2.9c-.26-1-.51-2-.76-3l-.36-1.52-.36-1.36c-.24-.91-.46-1.85-.68-2.81l-.32-1.45a6.87,6.87,0,0,1-.23-1.36c0-.75-.06-1.52-.08-2.32l-.14-2.36c0-.82-.13-1.58-.18-2.41-.27-3.24-.62-6.61-1-10.06a14.17,14.17,0,0,0-5.35-7.45,11.76,11.76,0,0,0-3.38-1.63,7.28,7.28,0,0,0-3-.2,4.1,4.1,0,0,0-1.17.33c-.18,0-.31.22-.46.3s-.29.15-.38.32l-.28.39c-.1.1-.12.33-.17.46l0,.06.11-.49.27-1.21.52-2.34c.34-1.54.66-3.11,1-4.7s.6-3,.86-4.58l.73-4.54c.23-1.45.44-2.93.61-4.44s.38-2.78.52-4.22l.39-4.13c.13-1.31.22-2.65.29-4s.17-2.43.21-3.69.07-2.38.1-3.57,0-2.23,0-3.38v-1.53l0-1.5c-.1-2.18-.12-3.68-.28-5.52l-.18-2.3-.24-2.15c-.06-.58-.14-1.19-.23-1.8s-.16-1-.23-1.55-.16-.93-.26-1.41q.78,4.18,1.56,8.33c.24,1.27.5,2.52.77,3.76q.88,4,1.75,8c.32,1.4.65,2.79,1,4.16l.52,2.05c.17.68.35,1.33.54,2.16q1.13,4.7,2.39,9.21,1.37,4.9,2.72,9.71c.49,1.66,1,3.32,1.48,5,.25.82.51,1.64.76,2.45l.39,1.22.4,1.36q.86,2.76,1.68,5.48l.87,2.71.39,1.2,0-.06c-.42-1.39-3.24-2.88-7.28-5.19-.52-.27-1-.57-1.59-.89s-1.07-.68-1.68-1c-1.2-.65-2.4-1.43-3.66-2.26s-2.66-1.68-4-2.68l-1-.77-1.07-.77c-.72-.52-1.44-1.07-2.16-1.66s-1.7-1-2.55-1.48l-2.63-1.5c-1.76-1-3.45-2.14-5.2-3.25a124,124,0,0,1-10.31-7.35,119.29,119.29,0,0,1-18.79-18.8c-11.53-14.36-21-32.31-29.43-52a344.18,344.18,0,0,1,39-17.07c10.75-3.78,18.9-5.47,24.21-5.88,2.53-.16,5-.19,7.73-.1.7.07,1.36,0,2.08.1s1.42.12,2.14.15,1.49.19,2.23.24,1.55.25,2.32.32a113.09,113.09,0,0,1,21.38,5.33c15.77,5.39,34.19,15.43,50.81,28.9,4.17,3.33,8.2,6.91,12.08,10.62,1,.9,1.93,1.85,2.87,2.8l1.42,1.41.36.36.39.41.78.84c2.07,2.22,4.17,4.39,6.27,6.57a330.57,330.57,0,0,1,24.37,30.56c1.33,2.27,2.68,4.45,4,6.76l3.94,7.09,2,3.52,1.94,3.71,3.89,7.38c5.11,10.23,10.2,20.57,15.13,31.8,5,11,9.81,22.78,14.62,34.74L1181,825l1.79,4.6,1.77,4.73,1.76,4.71.51,1.66c.18.55.35,1.1.47,1.56l1.48,5.82c4,15.36,7.35,30.26,9,45a137.22,137.22,0,0,1,.72,22,105.82,105.82,0,0,1-3.34,21.53,109.21,109.21,0,0,1-4.58,13.06,127.79,127.79,0,0,1-6.26,12.36,153.7,153.7,0,0,1-15.91,22.2,220.8,220.8,0,0,1-18.19,18.87c-3.06,2.91-6.42,5.56-9.43,8.24q-2.49,1.91-4.81,3.79l-1.18,1-1.65,1.73c-.27.26-.58.61-.89,1l-.93,1-1.84,2.09,2.06-1.94,1-1c.34-.32.69-.67,1-.91l1.87-1.59c.53-.36.93-.57,1.41-.87l5.64-3.38c1.84-1.19,3.63-2.45,5.52-3.71s3.7-2.59,5.53-4a180.14,180.14,0,0,0,21-18.6c3.34-3.45,6.55-7.09,9.58-10.9a126.25,126.25,0,0,0,8.5-12,114.76,114.76,0,0,0,7-13,101.1,101.1,0,0,0,5-13.79c4-14.58,4.34-29.86,2.22-45a209,209,0,0,0-4.53-22.84c-1.94-7.64-4.14-15.35-6.68-23.08-.63-1.93-1.24-3.88-1.85-5.85-.16-.51-.3-.93-.51-1.5l-.61-1.65-.15-.41c0-.13-.09-.26-.19-.48l-.48-1.17-1-2.35c-1.3-3.13-2.6-6.27-3.92-9.26l-4-9.09c-1.32-3-2.67-5.88-4-8.83l-2-4.4-1-2.2-1-2.12c-2.73-5.63-5.44-11.41-8.24-16.75-1.39-2.7-2.77-5.49-4.18-8.13l-4.25-7.84c-.71-1.3-1.41-2.64-2.13-3.91l-2.16-3.74-4.32-7.51-4.39-7.14-2.2-3.59c-.73-1.17-1.49-2.27-2.23-3.41l-4.46-6.81c-1.49-2.22-3-4.29-4.52-6.46A390.26,390.26,0,0,0,1110,687.89c-1.9-2.43-3.82-4.83-5.71-7.31-.47-.59-1-1.28-1.4-1.81l-1.3-1.61c-.86-1.08-1.71-2.17-2.62-3.21-3.54-4.28-7.29-8.43-11.2-12.39a208.67,208.67,0,0,0-50.33-38.07,165.63,165.63,0,0,0-24.26-10.56c-3.84-1.27-7.57-2.33-11.24-3.21a95.65,95.65,0,0,0-10.87-2c-7.29-.93-17.28-.42-29.62,2.13s-26.86,7-43,13.18c-6.7-17.28-13.41-35-21.49-51.78s-17.59-32.64-30.37-45.92l-7.07,3.93c-4.37,2.45-10.39,5.9-17,9.82-13.26,7.87-28.86,17.82-39,24.77q-49.56-7.23-87.28-27.05a206,206,0,0,1-34.75-22.94A196.73,196.73,0,0,1,652.8,485,213.42,213.42,0,0,1,615.14,413c-8.11-26.52-11.63-55-11-83.2C607.58,304.76,612.33,276.45,620.49,246.7Z" class="dark-bottom-1"/></g></g></g></svg>