<svg viewBox="0 0 14 18" xmlns="http://www.w3.org/2000/svg">
<path d="M13.25 0.25H2.78125C2.69531 0.25 2.625 0.320312 2.625 0.40625V1.5C2.625 1.58594 2.69531 1.65625 2.78125 1.65625H12.4688V15.0938C12.4688 15.1797 12.5391 15.25 12.625 15.25H13.7188C13.8047 15.25 13.875 15.1797 13.875 15.0938V0.875C13.875 0.529297 13.5957 0.25 13.25 0.25ZM10.75 2.75H0.75C0.404297 2.75 0.125 3.0293 0.125 3.375V13.7402C0.125 13.9063 0.191406 14.0645 0.308594 14.1816L3.69336 17.5664C3.73633 17.6094 3.78516 17.6445 3.83789 17.6738V17.7109H3.91992C3.98828 17.7363 4.06055 17.75 4.13477 17.75H10.75C11.0957 17.75 11.375 17.4707 11.375 17.125V3.375C11.375 3.0293 11.0957 2.75 10.75 2.75ZM3.83594 15.7227L2.1543 14.0391H3.83594V15.7227ZM9.96875 16.3438H5.08594V13.5703C5.08594 13.1387 4.73633 12.7891 4.30469 12.7891H1.53125V4.15625H9.96875V16.3438Z"/>
</svg>
