<svg viewBox="0 0 11 14" xmlns="http://www.w3.org/2000/svg">
<path d="M9.17813 7.37031C9.17188 6.30469 9.65469 5.50156 10.6297 4.90938C10.0844 4.12813 9.25937 3.69844 8.17188 3.61563C7.14219 3.53438 6.01562 4.21563 5.60312 4.21563C5.16719 4.21563 4.17031 3.64375 3.38594 3.64375C1.76719 3.66875 0.046875 4.93438 0.046875 7.50938C0.046875 8.27031 0.185937 9.05625 0.464062 9.86563C0.835937 10.9313 2.17656 13.5422 3.575 13.5C4.30625 13.4828 4.82344 12.9813 5.775 12.9813C6.69844 12.9813 7.17656 13.5 7.99219 13.5C9.40312 13.4797 10.6156 11.1063 10.9688 10.0375C9.07656 9.14531 9.17813 7.425 9.17813 7.37031ZM7.53594 2.60469C8.32812 1.66406 8.25625 0.807813 8.23281 0.5C7.53281 0.540625 6.72344 0.976563 6.2625 1.5125C5.75469 2.0875 5.45625 2.79844 5.52031 3.6C6.27656 3.65781 6.96719 3.26875 7.53594 2.60469Z" fill="#F5F5F5"/>
</svg>
