<svg xmlns="http://www.w3.org/2000/svg" viewBox="0 0 17 16"><path d="M12.1781 8.37031C12.1719 7.30469 12.6547 6.50156 13.6297 5.90938C13.0844 5.12813 12.2594 4.69844 11.1719 4.61563C10.1422 4.53438 9.01562 5.21563 8.60312 5.21563C8.16719 5.21563 7.17031 4.64375 6.38594 4.64375C4.76719 4.66875 3.04688 5.93438 3.04688 8.50938C3.04688 9.27031 3.18594 10.0563 3.46406 10.8656C3.83594 11.9313 5.17656 14.5422 6.575 14.5C7.30625 14.4828 7.82344 13.9813 8.775 13.9813C9.69844 13.9813 10.1766 14.5 10.9922 14.5C12.4031 14.4797 13.6156 12.1063 13.9688 11.0375C12.0766 10.1453 12.1781 8.425 12.1781 8.37031ZM10.5359 3.60469C11.3281 2.66406 11.2563 1.80781 11.2328 1.5C10.5328 1.54063 9.72344 1.97656 9.2625 2.5125C8.75469 3.0875 8.45625 3.79844 8.52031 4.6C9.27656 4.65781 9.96719 4.26875 10.5359 3.60469Z"/></svg>