<svg viewBox="0 0 18 18" xmlns="http://www.w3.org/2000/svg">
<path d="M17.4371 8.10938H3.72386L11.9317 0.984375C12.0629 0.869531 11.9832 0.65625 11.8098 0.65625H9.73558C9.64417 0.65625 9.55745 0.689062 9.48948 0.747656L0.632453 8.43281C0.551333 8.50313 0.486275 8.59006 0.441687 8.68772C0.397099 8.78537 0.374023 8.89147 0.374023 8.99883C0.374023 9.10618 0.397099 9.21228 0.441687 9.30994C0.486275 9.4076 0.551333 9.49453 0.632453 9.56484L9.54105 17.2969C9.5762 17.3273 9.61839 17.3438 9.66292 17.3438H11.8075C11.9809 17.3438 12.0606 17.1281 11.9293 17.0156L3.72386 9.89062H17.4371C17.5403 9.89062 17.6246 9.80625 17.6246 9.70312V8.29688C17.6246 8.19375 17.5403 8.10938 17.4371 8.10938Z" />
</svg>
