<svg viewBox="0 0 22 24" xmlns="http://www.w3.org/2000/svg">
<path fill-rule="evenodd" clip-rule="evenodd" fill="currentColor" d="M11 1.8629C10.5832 1.8629 10.1835 2.02646 9.88884 2.3176C9.59805 2.60488 9.43299 2.99315 9.42867 3.39897C9.4318 3.58149 9.38026 3.76075 9.28237 3.91377C9.21175 4.02415 9.11701 4.12088 9.00128 4.19533C8.95993 4.22205 8.91634 4.24565 8.87083 4.26579C7.58956 4.86824 6.49722 5.8023 5.70997 6.9689C4.92302 8.13506 4.47043 9.48984 4.40005 10.8894V14.5927C4.40005 14.6302 4.39777 14.6675 4.39322 14.7047C4.28087 15.6216 3.95218 16.4996 3.4336 17.2681C3.40658 17.3081 3.37909 17.3478 3.35112 17.3871H18.6489C18.6209 17.3478 18.5934 17.3081 18.5664 17.2681C18.0478 16.4996 17.7191 15.6216 17.6068 14.7047C17.6022 14.6675 17.5999 14.6302 17.5999 14.5927V10.8894C17.5296 9.48986 17.077 8.13507 16.29 6.9689C15.4991 5.79686 14.4002 4.85953 13.1112 4.25738C12.7816 4.10341 12.5714 3.77551 12.5714 3.41532C12.5714 3.0036 12.4059 2.60873 12.1112 2.3176C11.8165 2.02646 11.4168 1.8629 11 1.8629ZM7.5963 2.81716C7.71941 2.13353 8.05165 1.49803 8.55545 1.00032C9.20378 0.359827 10.0831 0 11 0C11.9169 0 12.7962 0.359827 13.4445 1.00032C13.9483 1.49803 14.2806 2.13353 14.4037 2.81716C15.7924 3.56252 16.9793 4.63195 17.859 5.93555C18.8398 7.38889 19.4017 9.07849 19.4846 10.8233C19.4853 10.8378 19.4856 10.8524 19.4856 10.8669V14.5336C19.5684 15.1419 19.7906 15.7237 20.1354 16.2347C20.4902 16.7605 20.965 17.1966 21.5217 17.508C21.8943 17.7165 22.0779 18.1468 21.9688 18.5559C21.8597 18.9649 21.4853 19.25 21.0571 19.25H0.942936C0.514734 19.25 0.140302 18.9649 0.0312027 18.5559C-0.0778969 18.1468 0.105735 17.7165 0.478344 17.508C1.03496 17.1966 1.50978 16.7605 1.8646 16.2347C2.20945 15.7237 2.43157 15.1419 2.51435 14.5336V10.8669C2.51435 10.8524 2.5147 10.8378 2.51539 10.8233C2.59829 9.07849 3.16022 7.38889 4.14097 5.93555C5.02067 4.63195 6.20758 3.56252 7.5963 2.81716Z"/>
<path fill-rule="evenodd" clip-rule="evenodd" fill="currentColor" d="M7.33317 17.4166C7.83943 17.4166 8.24984 17.8084 8.24984 18.2916V19.4583C8.24984 20.1545 8.53957 20.8222 9.05529 21.3144C9.57102 21.8067 10.2705 22.0833 10.9998 22.0833C11.7292 22.0833 12.4287 21.8067 12.9444 21.3144C13.4601 20.8222 13.7498 20.1545 13.7498 19.4583V18.2916C13.7498 17.8084 14.1602 17.4166 14.6665 17.4166C15.1728 17.4166 15.5832 17.8084 15.5832 18.2916V19.4583C15.5832 20.6186 15.1003 21.7314 14.2407 22.5519C13.3812 23.3724 12.2154 23.8333 10.9998 23.8333C9.78426 23.8333 8.61847 23.3724 7.75893 22.5519C6.89939 21.7314 6.4165 20.6186 6.4165 19.4583V18.2916C6.4165 17.8084 6.82691 17.4166 7.33317 17.4166Z"/>
</svg>
