<svg viewBox="0 0 16 22" xmlns="http://www.w3.org/2000/svg">
<path d="M10.8125 19.8125H5.1875C5.08437 19.8125 5 19.8969 5 20V20.75C5 21.1648 5.33516 21.5 5.75 21.5H10.25C10.6648 21.5 11 21.1648 11 20.75V20C11 19.8969 10.9156 19.8125 10.8125 19.8125ZM8 0.5C3.75547 0.5 0.3125 3.94297 0.3125 8.1875C0.3125 11.0328 1.85938 13.5172 4.15625 14.8461V17.5625C4.15625 17.9773 4.49141 18.3125 4.90625 18.3125H11.0938C11.5086 18.3125 11.8438 17.9773 11.8438 17.5625V14.8461C14.1406 13.5172 15.6875 11.0328 15.6875 8.1875C15.6875 3.94297 12.2445 0.5 8 0.5ZM10.9977 13.3859L10.1562 13.8734V16.625H5.84375V13.8734L5.00234 13.3859C3.15781 12.3195 2 10.3555 2 8.1875C2 4.87344 4.68594 2.1875 8 2.1875C11.3141 2.1875 14 4.87344 14 8.1875C14 10.3555 12.8422 12.3195 10.9977 13.3859Z"/>
</svg>
