<svg viewBox="0 0 21 21" fill="none" xmlns="http://www.w3.org/2000/svg">
<path d="M9.83432 6.39162C9.51405 6.10337 9.02074 6.12934 8.73249 6.44961C8.44425 6.76989 8.47021 7.26319 8.79049 7.55144L9.83432 6.39162ZM13.2134 10.4824L13.7353 11.0623C13.8997 10.9143 13.9935 10.7036 13.9935 10.4824C13.9935 10.2612 13.8997 10.0504 13.7353 9.90248L13.2134 10.4824ZM8.79049 13.4133C8.47021 13.7016 8.44425 14.1949 8.73249 14.5152C9.02074 14.8354 9.51405 14.8614 9.83432 14.5731L8.79049 13.4133ZM19.0655 10.4834C19.0655 15.2231 15.2231 19.0655 10.4834 19.0655V20.6258C16.0849 20.6258 20.6258 16.0849 20.6258 10.4834H19.0655ZM10.4834 19.0655C5.74361 19.0655 1.90128 15.2231 1.90128 10.4834H0.340904C0.340904 16.0849 4.88184 20.6258 10.4834 20.6258V19.0655ZM1.90128 10.4834C1.90128 5.74361 5.74361 1.90128 10.4834 1.90128V0.340904C4.88184 0.340904 0.340904 4.88184 0.340904 10.4834H1.90128ZM10.4834 1.90128C15.2231 1.90128 19.0655 5.74361 19.0655 10.4834H20.6258C20.6258 4.88184 16.0849 0.340904 10.4834 0.340904V1.90128ZM8.79049 7.55144L12.6914 11.0623L13.7353 9.90248L9.83432 6.39162L8.79049 7.55144ZM12.6914 9.90248L8.79049 13.4133L9.83432 14.5731L13.7353 11.0623L12.6914 9.90248Z" />
</svg>
