<svg viewBox="0 0 21 21" xmlns="http://www.w3.org/2000/svg">
<path d="M12.5677 7.55144C12.888 7.26319 12.914 6.76989 12.6257 6.44961C12.3375 6.12934 11.8442 6.10337 11.5239 6.39162L12.5677 7.55144ZM8.14488 10.4824L7.62296 9.90248C7.45856 10.0504 7.36469 10.2612 7.36469 10.4824C7.36469 10.7036 7.45856 10.9143 7.62296 11.0623L8.14488 10.4824ZM11.5239 14.5731C11.8442 14.8614 12.3375 14.8354 12.6257 14.5152C12.914 14.1949 12.888 13.7016 12.5677 13.4133L11.5239 14.5731ZM19.0655 10.4834C19.0655 15.2231 15.2231 19.0655 10.4834 19.0655V20.6258C16.0849 20.6258 20.6258 16.0849 20.6258 10.4834H19.0655ZM10.4834 19.0655C5.74361 19.0655 1.90128 15.2231 1.90128 10.4834H0.340904C0.340904 16.0849 4.88184 20.6258 10.4834 20.6258V19.0655ZM1.90128 10.4834C1.90128 5.74361 5.74361 1.90128 10.4834 1.90128V0.340904C4.88184 0.340904 0.340904 4.88184 0.340904 10.4834H1.90128ZM10.4834 1.90128C15.2231 1.90128 19.0655 5.74361 19.0655 10.4834H20.6258C20.6258 4.88184 16.0849 0.340904 10.4834 0.340904V1.90128ZM11.5239 6.39162L7.62296 9.90248L8.66679 11.0623L12.5677 7.55144L11.5239 6.39162ZM7.62296 11.0623L11.5239 14.5731L12.5677 13.4133L8.66679 9.90248L7.62296 11.0623Z" />
</svg>
