<svg width="16" height="16" viewBox="0 0 16 16" fill="currentColor" xmlns="http://www.w3.org/2000/svg">
<path d="M11.9707 3.66162L11.9703 3.66192L5.99099 7.9998L11.9703 12.3377L11.9703 12.3377L11.9707 12.338C12.0661 12.4078 12.125 12.5199 12.125 12.6404L12.125 13.8123C12.125 14.0159 11.894 14.134 11.7287 14.0155L11.7287 14.0155L11.7282 14.015L4.13286 8.50567L4.13273 8.50558C3.78943 8.25591 3.7887 7.74405 4.13289 7.49546C4.13296 7.49541 4.13304 7.49536 4.13311 7.49531L11.7275 1.98662C11.7276 1.98652 11.7278 1.98641 11.7279 1.98631C11.8936 1.86485 12.125 1.98395 12.125 2.1873L12.125 3.35918C12.125 3.47972 12.0661 3.59179 11.9707 3.66162Z" fill="currentColor" stroke="currentColor" stroke-width="0.25"/>
</svg>
