<svg  viewBox="0 0 4 16" xmlns="http://www.w3.org/2000/svg">
<path d="M0.96875 1.41406C0.96875 1.76216 1.08493 2.096 1.29174 2.34214C1.49854 2.58828 1.77903 2.72656 2.07149 2.72656C2.36396 2.72656 2.64445 2.58828 2.85125 2.34214C3.05806 2.096 3.17424 1.76216 3.17424 1.41406C3.17424 1.06597 3.05806 0.732126 2.85125 0.485985C2.64445 0.239843 2.36396 0.101563 2.07149 0.101562C1.77903 0.101563 1.49854 0.239843 1.29174 0.485985C1.08493 0.732126 0.96875 1.06597 0.96875 1.41406ZM0.96875 7.97656C0.96875 8.32466 1.08493 8.6585 1.29174 8.90464C1.49854 9.15078 1.77903 9.28906 2.07149 9.28906C2.36396 9.28906 2.64445 9.15078 2.85125 8.90464C3.05806 8.6585 3.17424 8.32466 3.17424 7.97656C3.17424 7.62847 3.05806 7.29463 2.85125 7.04848C2.64445 6.80234 2.36396 6.66406 2.07149 6.66406C1.77903 6.66406 1.49854 6.80234 1.29174 7.04848C1.08493 7.29463 0.96875 7.62847 0.96875 7.97656V7.97656ZM0.96875 14.5391C0.96875 14.8872 1.08493 15.221 1.29174 15.4671C1.49854 15.7133 1.77903 15.8516 2.07149 15.8516C2.36396 15.8516 2.64445 15.7133 2.85125 15.4671C3.05806 15.221 3.17424 14.8872 3.17424 14.5391C3.17424 14.191 3.05806 13.8571 2.85125 13.611C2.64445 13.3648 2.36396 13.2266 2.07149 13.2266C1.77903 13.2266 1.49854 13.3648 1.29174 13.611C1.08493 13.8571 0.96875 14.191 0.96875 14.5391V14.5391Z" />
</svg>
