<svg width="18" height="17" viewBox="0 0 18 17" fill="none" xmlns="http://www.w3.org/2000/svg">
<path fill-rule="evenodd" clip-rule="evenodd" d="M7.78571 5.85714C7.27288 5.85714 6.85714 6.27288 6.85714 6.78571V14.2143C6.85714 14.7271 7.27288 15.1429 7.78571 15.1429H15.2143C15.7271 15.1429 16.1429 14.7271 16.1429 14.2143V6.78571C16.1429 6.27288 15.7271 5.85714 15.2143 5.85714H7.78571ZM5 6.78571C5 5.24721 6.24721 4 7.78571 4H15.2143C16.7528 4 18 5.24721 18 6.78571V14.2143C18 15.7528 16.7528 17 15.2143 17H7.78571C6.24721 17 5 15.7528 5 14.2143V6.78571Z" fill="#9E9E9E"/>
<path fill-rule="evenodd" clip-rule="evenodd" d="M0.815917 0.815917C1.33834 0.293494 2.0469 0 2.78571 0H10.2143C10.9531 0 11.6617 0.293494 12.1841 0.815917C12.7065 1.33834 13 2.0469 13 2.78571V4.64286C13 5.15569 12.5843 5.57143 12.0714 5.57143C11.5586 5.57143 11.1429 5.15569 11.1429 4.64286V2.78571C11.1429 2.53944 11.045 2.30326 10.8709 2.12912C10.6967 1.95497 10.4606 1.85714 10.2143 1.85714H2.78571C2.53944 1.85714 2.30326 1.95497 2.12912 2.12912C1.95497 2.30326 1.85714 2.53944 1.85714 2.78571V10.2143C1.85714 10.4606 1.95497 10.6967 2.12912 10.8709C2.30326 11.045 2.53944 11.1429 2.78571 11.1429H4.64286C5.15569 11.1429 5.57143 11.5586 5.57143 12.0714C5.57143 12.5843 5.15569 13 4.64286 13H2.78571C2.0469 13 1.33834 12.7065 0.815917 12.1841C0.293494 11.6617 0 10.9531 0 10.2143V2.78571C0 2.0469 0.293494 1.33834 0.815917 0.815917Z" fill="#9E9E9E"/>
<path fill-rule="evenodd" clip-rule="evenodd" d="M0.815917 0.815917C1.33834 0.293494 2.0469 0 2.78571 0H10.2143C10.9531 0 11.6617 0.293494 12.1841 0.815917C12.7065 1.33834 13 2.0469 13 2.78571V4.64286C13 5.15569 12.5843 5.57143 12.0714 5.57143C11.5586 5.57143 11.1429 5.15569 11.1429 4.64286V2.78571C11.1429 2.53944 11.045 2.30326 10.8709 2.12912C10.6967 1.95497 10.4606 1.85714 10.2143 1.85714H2.78571C2.53944 1.85714 2.30326 1.95497 2.12912 2.12912C1.95497 2.30326 1.85714 2.53944 1.85714 2.78571V10.2143C1.85714 10.4606 1.95497 10.6967 2.12912 10.8709C2.30326 11.045 2.53944 11.1429 2.78571 11.1429H4.64286C5.15569 11.1429 5.57143 11.5586 5.57143 12.0714C5.57143 12.5843 5.15569 13 4.64286 13H2.78571C2.0469 13 1.33834 12.7065 0.815917 12.1841C0.293494 11.6617 0 10.9531 0 10.2143V2.78571C0 2.0469 0.293494 1.33834 0.815917 0.815917Z" fill="#9E9E9E"/>
</svg>
