<svg viewBox="0 0 14 16" xmlns="http://www.w3.org/2000/svg">
<path d="M12.625 0.125H3.20312C3.12578 0.125 3.0625 0.188281 3.0625 0.265625V1.25C3.0625 1.32734 3.12578 1.39062 3.20312 1.39062H11.9219V13.4844C11.9219 13.5617 11.9852 13.625 12.0625 13.625H13.0469C13.1242 13.625 13.1875 13.5617 13.1875 13.4844V0.6875C13.1875 0.376367 12.9361 0.125 12.625 0.125ZM10.375 2.375H1.375C1.06387 2.375 0.8125 2.62637 0.8125 2.9375V12.2662C0.8125 12.4156 0.872266 12.558 0.977734 12.6635L4.02402 15.7098C4.0627 15.7484 4.10664 15.7801 4.1541 15.8064V15.8398H4.22793C4.28945 15.8627 4.35449 15.875 4.42129 15.875H10.375C10.6861 15.875 10.9375 15.6236 10.9375 15.3125V2.9375C10.9375 2.62637 10.6861 2.375 10.375 2.375ZM4.15234 14.0504L2.63887 12.5352H4.15234V14.0504ZM9.67188 14.6094H5.27734V12.1133C5.27734 11.7248 4.9627 11.4102 4.57422 11.4102H2.07812V3.64062H9.67188V14.6094Z"/>
</svg>
