<svg width="24" height="24" viewBox="0 0 24 24" fill="none" xmlns="http://www.w3.org/2000/svg">
<path d="M21.75 3.75H2.25C1.83516 3.75 1.5 4.08516 1.5 4.5V8.25H22.5V4.5C22.5 4.08516 22.1648 3.75 21.75 3.75ZM1.5 19.5C1.5 19.9148 1.83516 20.25 2.25 20.25H21.75C22.1648 20.25 22.5 19.9148 22.5 19.5V10.3125H1.5V19.5ZM15.0703 15.1875C15.0703 15.0844 15.1547 15 15.2578 15H19.125C19.2281 15 19.3125 15.0844 19.3125 15.1875V16.875C19.3125 16.9781 19.2281 17.0625 19.125 17.0625H15.2578C15.1547 17.0625 15.0703 16.9781 15.0703 16.875V15.1875Z" fill="black"/>
</svg>
