<svg xmlns="http://www.w3.org/2000/svg" fill="none" viewBox="0 0 9 9"><g clip-path="url(#clip0)"><path d="M6.73884 7.9422C7.07313 8.27649 7.61512 8.27649 7.9494 7.9422C8.28369 7.60791 8.28369 7.06592 7.9494 6.73163L1.46665 0.248876C1.13236 -0.0854129 0.590371 -0.0854126 0.256082 0.248876C-0.078207 0.583165 -0.0782075 1.12515 0.256081 1.45944L6.73884 7.9422Z"/><path d="M0.250185 6.73981C-0.0841035 7.0741 -0.0841033 7.61609 0.250185 7.95038C0.584474 8.28467 1.12646 8.28467 1.46075 7.95038L7.94351 1.46763C8.2778 1.13334 8.2778 0.591349 7.94351 0.25706C7.60922 -0.0772289 7.06723 -0.0772295 6.73294 0.257059L0.250185 6.73981Z"/></g><defs><clipPath id="clip0"><rect width="8.2" height="8.2" fill="#fff"/></clipPath></defs></svg>