<svg viewBox="0 0 18 22" xmlns="http://www.w3.org/2000/svg">
<path d="M16.5 0.273438H1.5C1.08516 0.273438 0.75 0.608594 0.75 1.02344V20.5234C0.75 20.9383 1.08516 21.2734 1.5 21.2734H16.5C16.9148 21.2734 17.25 20.9383 17.25 20.5234V1.02344C17.25 0.608594 16.9148 0.273438 16.5 0.273438ZM2.4375 1.96094H15.5625V6.83594H2.4375V1.96094ZM15.5625 13.2109H2.4375V8.33594H15.5625V13.2109ZM15.5625 19.5859H2.4375V14.7109H15.5625V19.5859ZM4.125 4.39844C4.125 4.64708 4.22377 4.88553 4.39959 5.06135C4.5754 5.23717 4.81386 5.33594 5.0625 5.33594C5.31114 5.33594 5.5496 5.23717 5.72541 5.06135C5.90123 4.88553 6 4.64708 6 4.39844C6 4.1498 5.90123 3.91134 5.72541 3.73552C5.5496 3.55971 5.31114 3.46094 5.0625 3.46094C4.81386 3.46094 4.5754 3.55971 4.39959 3.73552C4.22377 3.91134 4.125 4.1498 4.125 4.39844ZM4.125 10.7734C4.125 11.0221 4.22377 11.2605 4.39959 11.4364C4.5754 11.6122 4.81386 11.7109 5.0625 11.7109C5.31114 11.7109 5.5496 11.6122 5.72541 11.4364C5.90123 11.2605 6 11.0221 6 10.7734C6 10.5248 5.90123 10.2863 5.72541 10.1105C5.5496 9.93471 5.31114 9.83594 5.0625 9.83594C4.81386 9.83594 4.5754 9.93471 4.39959 10.1105C4.22377 10.2863 4.125 10.5248 4.125 10.7734ZM4.125 17.1484C4.125 17.3971 4.22377 17.6355 4.39959 17.8114C4.5754 17.9872 4.81386 18.0859 5.0625 18.0859C5.31114 18.0859 5.5496 17.9872 5.72541 17.8114C5.90123 17.6355 6 17.3971 6 17.1484C6 16.8998 5.90123 16.6613 5.72541 16.4855C5.5496 16.3097 5.31114 16.2109 5.0625 16.2109C4.81386 16.2109 4.5754 16.3097 4.39959 16.4855C4.22377 16.6613 4.125 16.8998 4.125 17.1484Z"/>
</svg>
