<svg viewBox="0 0 18 22" xmlns="http://www.w3.org/2000/svg">
<path d="M16.5 0.5H1.5C1.08516 0.5 0.75 0.835156 0.75 1.25V20.75C0.75 21.1648 1.08516 21.5 1.5 21.5H16.5C16.9148 21.5 17.25 21.1648 17.25 20.75V1.25C17.25 0.835156 16.9148 0.5 16.5 0.5ZM2.4375 2.1875H15.5625V7.0625H2.4375V2.1875ZM15.5625 13.4375H2.4375V8.5625H15.5625V13.4375ZM15.5625 19.8125H2.4375V14.9375H15.5625V19.8125ZM4.125 4.625C4.125 4.87364 4.22377 5.1121 4.39959 5.28791C4.5754 5.46373 4.81386 5.5625 5.0625 5.5625C5.31114 5.5625 5.5496 5.46373 5.72541 5.28791C5.90123 5.1121 6 4.87364 6 4.625C6 4.37636 5.90123 4.1379 5.72541 3.96209C5.5496 3.78627 5.31114 3.6875 5.0625 3.6875C4.81386 3.6875 4.5754 3.78627 4.39959 3.96209C4.22377 4.1379 4.125 4.37636 4.125 4.625ZM4.125 11C4.125 11.2486 4.22377 11.4871 4.39959 11.6629C4.5754 11.8387 4.81386 11.9375 5.0625 11.9375C5.31114 11.9375 5.5496 11.8387 5.72541 11.6629C5.90123 11.4871 6 11.2486 6 11C6 10.7514 5.90123 10.5129 5.72541 10.3371C5.5496 10.1613 5.31114 10.0625 5.0625 10.0625C4.81386 10.0625 4.5754 10.1613 4.39959 10.3371C4.22377 10.5129 4.125 10.7514 4.125 11ZM4.125 17.375C4.125 17.6236 4.22377 17.8621 4.39959 18.0379C4.5754 18.2137 4.81386 18.3125 5.0625 18.3125C5.31114 18.3125 5.5496 18.2137 5.72541 18.0379C5.90123 17.8621 6 17.6236 6 17.375C6 17.1264 5.90123 16.8879 5.72541 16.7121C5.5496 16.5363 5.31114 16.4375 5.0625 16.4375C4.81386 16.4375 4.5754 16.5363 4.39959 16.7121C4.22377 16.8879 4.125 17.1264 4.125 17.375Z" />
</svg>
