<svg xmlns="http://www.w3.org/2000/svg" viewBox="0 0 12 12"><path d="M3.92188 1.51562H3.8125C3.87266 1.51562 3.92188 1.46641 3.92188 1.40625V1.51562H8.07812V1.40625C8.07812 1.46641 8.12734 1.51562 8.1875 1.51562H8.07812V2.5H9.0625V1.40625C9.0625 0.923633 8.67012 0.53125 8.1875 0.53125H3.8125C3.32988 0.53125 2.9375 0.923633 2.9375 1.40625V2.5H3.92188V1.51562ZM10.8125 2.5H1.1875C0.945508 2.5 0.75 2.69551 0.75 2.9375V3.375C0.75 3.43516 0.799219 3.48438 0.859375 3.48438H1.68516L2.02285 10.6348C2.04473 11.101 2.43027 11.4688 2.89648 11.4688H9.10352C9.57109 11.4688 9.95527 11.1023 9.97715 10.6348L10.3148 3.48438H11.1406C11.2008 3.48438 11.25 3.43516 11.25 3.375V2.9375C11.25 2.69551 11.0545 2.5 10.8125 2.5ZM8.99824 10.4844H3.00176L2.6709 3.48438H9.3291L8.99824 10.4844Z"/></svg>