<svg viewBox="0 0 9 12" xmlns="http://www.w3.org/2000/svg">
<path d="M7.96405 5.60637L0.920313 0.104809C0.901908 0.0903191 0.879788 0.081314 0.856495 0.0788282C0.833203 0.0763424 0.809681 0.0804768 0.788632 0.0907565C0.767583 0.101036 0.749861 0.117045 0.7375 0.136943C0.725139 0.156841 0.71864 0.179822 0.718751 0.203247V1.41106C0.718751 1.48762 0.754689 1.56106 0.814064 1.60793L6.43905 6.00012L0.814064 10.3923C0.753126 10.4392 0.718751 10.5126 0.718751 10.5892V11.797C0.718751 11.9017 0.839063 11.9595 0.920313 11.8954L7.96405 6.39387C8.02391 6.34717 8.07234 6.28744 8.10565 6.21921C8.13896 6.15098 8.15628 6.07605 8.15628 6.00012C8.15628 5.9242 8.13896 5.84927 8.10565 5.78104C8.07234 5.71281 8.02391 5.65307 7.96405 5.60637Z"/>
</svg>
