<svg viewBox="0 0 18 22" fill="none" xmlns="http://www.w3.org/2000/svg">
<path d="M17.0297 5.76406L11.9859 0.720313C11.8453 0.579688 11.6555 0.5 11.4562 0.5H1.5C1.08516 0.5 0.75 0.835156 0.75 1.25V20.75C0.75 21.1648 1.08516 21.5 1.5 21.5H16.5C16.9148 21.5 17.25 21.1648 17.25 20.75V6.29609C17.25 6.09687 17.1703 5.90469 17.0297 5.76406ZM15.5203 6.64062H11.1094V2.22969L15.5203 6.64062ZM15.5625 19.8125H2.4375V2.1875H9.51562V7.25C9.51562 7.51107 9.61934 7.76145 9.80394 7.94606C9.98855 8.13066 10.2389 8.23438 10.5 8.23438H15.5625V19.8125Z" />
</svg>