<svg viewBox="0 0 12 10" xmlns="http://www.w3.org/2000/svg">
<path d="M5.91387 7.03711C5.9241 7.05018 5.93717 7.06075 5.95209 7.06803C5.96702 7.0753 5.9834 7.07907 6 7.07907C6.0166 7.07907 6.03298 7.0753 6.04791 7.06803C6.06283 7.06075 6.0759 7.05018 6.08613 7.03711L7.61738 5.0998C7.67344 5.02871 7.62285 4.92344 7.53125 4.92344H6.51816V0.296875C6.51816 0.236719 6.46895 0.1875 6.40879 0.1875H5.58848C5.52832 0.1875 5.4791 0.236719 5.4791 0.296875V4.92207H4.46875C4.37715 4.92207 4.32656 5.02734 4.38262 5.09844L5.91387 7.03711ZM11.0039 6.55859H10.1836C10.1234 6.55859 10.0742 6.60781 10.0742 6.66797V8.77344H1.92578V6.66797C1.92578 6.60781 1.87656 6.55859 1.81641 6.55859H0.996094C0.935937 6.55859 0.886719 6.60781 0.886719 6.66797V9.375C0.886719 9.61699 1.08223 9.8125 1.32422 9.8125H10.6758C10.9178 9.8125 11.1133 9.61699 11.1133 9.375V6.66797C11.1133 6.60781 11.0641 6.55859 11.0039 6.55859Z" />
</svg>
