<svg xmlns="http://www.w3.org/2000/svg" viewBox="0 0 12 12"><path d="M2.52324 9.28125C2.55059 9.28125 2.57793 9.27852 2.60527 9.27441L4.90488 8.87109C4.93223 8.86562 4.9582 8.85332 4.97734 8.83281L10.7729 3.0373C10.7855 3.02466 10.7956 3.00963 10.8024 2.99309C10.8093 2.97655 10.8128 2.95882 10.8128 2.94092C10.8128 2.92301 10.8093 2.90528 10.8024 2.88874C10.7956 2.8722 10.7855 2.85718 10.7729 2.84453L8.50059 0.570898C8.47461 0.544922 8.44043 0.53125 8.40352 0.53125C8.3666 0.53125 8.33242 0.544922 8.30645 0.570898L2.51094 6.36641C2.49043 6.38691 2.47813 6.41152 2.47266 6.43887L2.06934 8.73848C2.05604 8.81172 2.06079 8.8871 2.08318 8.95809C2.10557 9.02908 2.14493 9.09354 2.19785 9.1459C2.28809 9.2334 2.40156 9.28125 2.52324 9.28125V9.28125ZM3.44473 6.89687L8.40352 1.93945L9.40566 2.9416L4.44687 7.89902L3.23145 8.11367L3.44473 6.89687V6.89687ZM11.0312 10.4297H0.96875C0.726758 10.4297 0.53125 10.6252 0.53125 10.8672V11.3594C0.53125 11.4195 0.580469 11.4688 0.640625 11.4688H11.3594C11.4195 11.4688 11.4688 11.4195 11.4688 11.3594V10.8672C11.4688 10.6252 11.2732 10.4297 11.0312 10.4297Z"/></svg>