<svg viewBox="0 0 12 12" xmlns="http://www.w3.org/2000/svg">
<path d="M11.1447 9.35508H10.4092C10.3518 9.35508 10.3039 9.40293 10.3039 9.46035V10.3053H1.69473V1.69473H10.3053V2.53965C10.3053 2.59707 10.3531 2.64492 10.4105 2.64492H11.1461C11.2035 2.64492 11.2514 2.59844 11.2514 2.53965V1.16973C11.2514 0.937305 11.0641 0.75 10.8316 0.75H1.16973C0.937305 0.75 0.75 0.937305 0.75 1.16973V10.8303C0.75 11.0627 0.937305 11.25 1.16973 11.25H10.8303C11.0627 11.25 11.25 11.0627 11.25 10.8303V9.46035C11.25 9.40156 11.2021 9.35508 11.1447 9.35508ZM11.399 5.91387L9.45898 4.38262C9.38652 4.3252 9.28125 4.37715 9.28125 4.46875V5.50781H4.98828C4.92812 5.50781 4.87891 5.55703 4.87891 5.61719V6.38281C4.87891 6.44297 4.92812 6.49219 4.98828 6.49219H9.28125V7.53125C9.28125 7.62285 9.38789 7.6748 9.45898 7.61738L11.399 6.08613C11.4121 6.0759 11.4227 6.06283 11.4299 6.04791C11.4372 6.03298 11.441 6.0166 11.441 6C11.441 5.9834 11.4372 5.96702 11.4299 5.95209C11.4227 5.93717 11.4121 5.9241 11.399 5.91387V5.91387Z" />
</svg>
