<svg xmlns="http://www.w3.org/2000/svg" width="24" height="24" fill="none" viewBox="0 0 24 24"><path stroke-linecap="round" stroke-linejoin="round" stroke-width="2" d="M3 3L21 21"/><path stroke-linecap="round" stroke-linejoin="round" stroke-width="2" d="M10.584 10.5869C10.2087 10.9619 9.99775 11.4707 9.99756 12.0012C9.99737 12.5317 10.2079 13.0406 10.583 13.4159C10.958 13.7912 11.4667 14.0021 11.9973 14.0023C12.5278 14.0025 13.0367 13.7919 13.412 13.4169"/><path stroke-linecap="round" stroke-linejoin="round" stroke-width="2" d="M17.357 17.3491C15.726 18.4491 13.942 19.0001 12 19.0001C8 19.0001 4.667 16.6671 2 12.0001C3.369 9.60506 4.913 7.82506 6.632 6.65906M9.363 5.36506C10.2204 5.11978 11.1082 4.9969 12 5.00006C16 5.00006 19.333 7.33306 22 12.0001C21.222 13.3611 20.388 14.5241 19.497 15.4881L9.363 5.36506Z"/></svg>