<svg viewBox="0 0 12 14" xmlns="http://www.w3.org/2000/svg">
<path d="M7.5 1V4.5H11M7.5 1L11 4.5M7.5 1H1.5C1.36739 1 1.24021 1.05268 1.14645 1.14645C1.05268 1.24021 1 1.36739 1 1.5V7M11 4.5V12.5C11 12.6326 10.9473 12.7598 10.8536 12.8536C10.7598 12.9473 10.6326 13 10.5 13H8.5M6 9.1875C6.23449 9.37486 6.4238 9.61259 6.55391 9.88307C6.68401 10.1536 6.75156 10.4499 6.75156 10.75C6.75156 11.0501 6.68401 11.3464 6.55391 11.6169C6.4238 11.8874 6.23449 12.1251 6 12.3125M1 11.75V9.75H2.5L4 8.5V13L2.5 11.75H1Z" stroke-linecap="round" stroke-linejoin="round"/>
</svg>
