<svg viewBox="0 0 14 15" fill="none" xmlns="http://www.w3.org/2000/svg">
<path fill-rule="evenodd" clip-rule="evenodd" d="M1.142 1.017C1.35298 0.806027 1.63913 0.6875 1.9375 0.6875H8.6875C8.83668 0.6875 8.97976 0.746763 9.08525 0.852252L13.0227 4.78975C13.1282 4.89524 13.1875 5.03832 13.1875 5.1875V8C13.1875 8.31066 12.9357 8.5625 12.625 8.5625C12.3143 8.5625 12.0625 8.31066 12.0625 8V5.4205L8.4545 1.8125L1.9375 1.8125L1.9375 8C1.9375 8.31066 1.68566 8.5625 1.375 8.5625C1.06434 8.5625 0.8125 8.31066 0.8125 8V1.8125C0.8125 1.51413 0.931027 1.22798 1.142 1.017Z" />
<path fill-rule="evenodd" clip-rule="evenodd" d="M8.6875 0.6875C8.99816 0.6875 9.25 0.93934 9.25 1.25V4.625H12.625C12.9357 4.625 13.1875 4.87684 13.1875 5.1875C13.1875 5.49816 12.9357 5.75 12.625 5.75H8.6875C8.37684 5.75 8.125 5.49816 8.125 5.1875V1.25C8.125 0.93934 8.37684 0.6875 8.6875 0.6875Z" />
<path fill-rule="evenodd" clip-rule="evenodd" d="M0.8125 10.8125C0.8125 10.5018 1.06434 10.25 1.375 10.25H2.5C2.94755 10.25 3.37678 10.4278 3.69324 10.7443C4.00971 11.0607 4.1875 11.4899 4.1875 11.9375C4.1875 12.3851 4.00971 12.8143 3.69324 13.1307C3.37678 13.4472 2.94755 13.625 2.5 13.625H1.9375V14.1875C1.9375 14.4982 1.68566 14.75 1.375 14.75C1.06434 14.75 0.8125 14.4982 0.8125 14.1875V10.8125ZM1.9375 12.5H2.5C2.64918 12.5 2.79226 12.4407 2.89775 12.3352C3.00324 12.2298 3.0625 12.0867 3.0625 11.9375C3.0625 11.7883 3.00324 11.6452 2.89775 11.5398C2.79226 11.4343 2.64918 11.375 2.5 11.375H1.9375V12.5Z" />
<path fill-rule="evenodd" clip-rule="evenodd" d="M10.6562 10.8125C10.6562 10.5018 10.9081 10.25 11.2187 10.25H13.1875C13.4982 10.25 13.75 10.5018 13.75 10.8125C13.75 11.1232 13.4982 11.375 13.1875 11.375H11.7812V14.1875C11.7812 14.4982 11.5294 14.75 11.2187 14.75C10.9081 14.75 10.6562 14.4982 10.6562 14.1875V10.8125Z" />
<path fill-rule="evenodd" clip-rule="evenodd" d="M10.6562 12.7812C10.6562 12.4706 10.9081 12.2188 11.2187 12.2188H12.9062C13.2169 12.2188 13.4688 12.4706 13.4688 12.7812C13.4688 13.0919 13.2169 13.3437 12.9062 13.3437H11.2187C10.9081 13.3437 10.6562 13.0919 10.6562 12.7812Z"/>
<path fill-rule="evenodd" clip-rule="evenodd" d="M5.45312 10.8125C5.45312 10.5018 5.70496 10.25 6.01562 10.25H7C7.59674 10.25 8.16903 10.4871 8.59099 10.909C9.01295 11.331 9.25 11.9033 9.25 12.5C9.25 13.0967 9.01295 13.669 8.59099 14.091C8.16903 14.5129 7.59674 14.75 7 14.75H6.01562C5.70496 14.75 5.45312 14.4982 5.45312 14.1875V10.8125ZM6.57812 11.375V13.625H7C7.29837 13.625 7.58452 13.5065 7.7955 13.2955C8.00647 13.0845 8.125 12.7984 8.125 12.5C8.125 12.2016 8.00647 11.9155 7.7955 11.7045C7.58452 11.4935 7.29837 11.375 7 11.375H6.57812Z"/>
</svg>
