<svg viewBox="0 0 17 22" xmlns="http://www.w3.org/2000/svg">
<path d="M15.9562 5.76406L11.1131 0.720313C10.9781 0.579688 10.7958 0.5 10.6045 0.5H1.04438C0.64604 0.5 0.324219 0.835156 0.324219 1.25V20.75C0.324219 21.1648 0.64604 21.5 1.04438 21.5H15.4476C15.8459 21.5 16.1677 21.1648 16.1677 20.75V6.29609C16.1677 6.09687 16.0912 5.90469 15.9562 5.76406ZM14.5069 6.64062H10.2714V2.22969L14.5069 6.64062ZM14.5474 19.8125H1.94458V2.1875H8.74108V7.25C8.74108 7.51107 8.84066 7.76145 9.01792 7.94606C9.19519 8.13066 9.4356 8.23438 9.68629 8.23438H14.5474V19.8125Z" />
</svg>
