<svg viewBox="0 0 19 21" fill="none" xmlns="http://www.w3.org/2000/svg">
<path d="M13 19.6153L8.80938 13.3341C8.77644 13.2818 8.73079 13.2387 8.67669 13.2089C8.62259 13.179 8.5618 13.1633 8.5 13.1633C8.4382 13.1633 8.37741 13.179 8.32331 13.2089C8.26921 13.2387 8.22356 13.2818 8.19062 13.3341L6.23125 16.2778C6.1964 16.3296 6.1492 16.3718 6.09391 16.4007C6.03863 16.4296 5.97702 16.4442 5.91465 16.4433C5.85228 16.4424 5.79113 16.4259 5.73673 16.3954C5.68234 16.3648 5.63642 16.3212 5.60312 16.2685L4.69375 14.8528C4.65857 14.8006 4.6111 14.7579 4.55552 14.7283C4.49994 14.6987 4.43795 14.6833 4.375 14.6833C4.31205 14.6833 4.25006 14.6987 4.19448 14.7283C4.1389 14.7579 4.09143 14.8006 4.05625 14.8528L1 19.6153H13Z" stroke="currentColor" stroke-width="1.5" stroke-linecap="round" stroke-linejoin="round"/>
<path d="M13 1.61523V6.86523H18.25" stroke="currentColor" stroke-width="1.5" stroke-linecap="round" stroke-linejoin="round"/>
<path d="M16.75 19.6152H17.5C17.6989 19.6152 17.8897 19.5362 18.0303 19.3956C18.171 19.2549 18.25 19.0641 18.25 18.8652V6.86523L13 1.61523H4C3.80109 1.61523 3.61032 1.69425 3.46967 1.8349C3.32902 1.97556 3.25 2.16632 3.25 2.36523V11.3652" stroke="currentColor" stroke-width="1.5" stroke-linecap="round" stroke-linejoin="round"/>
</svg>
