<svg viewBox="0 0 12 14" xmlns="http://www.w3.org/2000/svg">
<path d="M6.30156 7.975L6.30625 7.95312C6.39687 7.57969 6.51094 7.11406 6.42188 6.69219C6.3625 6.35937 6.11719 6.22969 5.90781 6.22031C5.66094 6.20938 5.44063 6.35 5.38594 6.55469C5.28281 6.92969 5.375 7.44219 5.54375 8.09531C5.33125 8.60156 4.99219 9.3375 4.74375 9.775C4.28125 10.0141 3.66094 10.3828 3.56875 10.8484C3.55 10.9344 3.57187 11.0437 3.62344 11.1422C3.68125 11.2516 3.77344 11.3359 3.88125 11.3766C3.92812 11.3937 3.98438 11.4078 4.05 11.4078C4.325 11.4078 4.77031 11.1859 5.36406 10.1672C5.45469 10.1375 5.54844 10.1062 5.63906 10.075C6.06406 9.93125 6.50469 9.78125 6.90312 9.71406C7.34375 9.95 7.84531 10.1016 8.18594 10.1016C8.52344 10.1016 8.65625 9.90156 8.70625 9.78125C8.79375 9.57031 8.75156 9.30469 8.60938 9.1625C8.40313 8.95938 7.90156 8.90625 7.12031 9.00313C6.73594 8.76875 6.48437 8.45 6.30156 7.975ZM4.5875 10.3484C4.37031 10.6641 4.20625 10.8219 4.11719 10.8906C4.22187 10.6984 4.42656 10.4953 4.5875 10.3484ZM5.95625 6.66875C6.0375 6.80781 6.02656 7.22813 5.96406 7.44063C5.8875 7.12969 5.87656 6.68906 5.92188 6.6375C5.93438 6.63906 5.94531 6.64844 5.95625 6.66875ZM5.93125 8.55156C6.09844 8.84062 6.30938 9.08906 6.54219 9.27344C6.20469 9.35 5.89687 9.47656 5.62187 9.58906C5.55625 9.61563 5.49219 9.64219 5.42969 9.66719C5.6375 9.29063 5.81094 8.86406 5.93125 8.55156V8.55156ZM8.3625 9.575C8.36406 9.57812 8.36562 9.58281 8.35625 9.58906H8.35312L8.35 9.59375C8.3375 9.60156 8.20937 9.67656 7.65781 9.45938C8.29219 9.42969 8.36094 9.57344 8.3625 9.575V9.575ZM11.3531 3.50938L7.99063 0.146875C7.89688 0.053125 7.77031 0 7.6375 0H1C0.723437 0 0.5 0.223437 0.5 0.5V13.5C0.5 13.7766 0.723437 14 1 14H11C11.2766 14 11.5 13.7766 11.5 13.5V3.86406C11.5 3.73125 11.4469 3.60313 11.3531 3.50938V3.50938ZM10.3469 4.09375H7.40625V1.15313L10.3469 4.09375ZM10.375 12.875H1.625V1.125H6.34375V4.5C6.34375 4.67405 6.41289 4.84097 6.53596 4.96404C6.65903 5.08711 6.82595 5.15625 7 5.15625H10.375V12.875Z" />
</svg>
