<svg viewBox="0 0 14 15" xmlns="http://www.w3.org/2000/svg">
<path d="M1.375 8V1.8125C1.375 1.66332 1.43426 1.52024 1.53975 1.41475C1.64524 1.30926 1.78832 1.25 1.9375 1.25H8.6875M8.6875 1.25L12.625 5.1875M8.6875 1.25V5.1875H12.625M12.625 5.1875V8M1.375 13.0625H2.5C2.79837 13.0625 3.08452 12.944 3.29549 12.733C3.50647 12.522 3.625 12.2359 3.625 11.9375C3.625 11.6391 3.50647 11.353 3.29549 11.142C3.08452 10.931 2.79837 10.8125 2.5 10.8125H1.375V14.1875M13.1875 10.8125H11.2188V14.1875M12.9062 12.7812H11.2188M7 14.1875C7.44755 14.1875 7.87678 14.0097 8.19324 13.6932C8.50971 13.3768 8.6875 12.9476 8.6875 12.5C8.6875 12.0524 8.50971 11.6232 8.19324 11.3068C7.87678 10.9903 7.44755 10.8125 7 10.8125H6.01562V14.1875H7Z" stroke-width="1.125" stroke-linecap="round" stroke-linejoin="round"/>
</svg>
