<svg viewBox="0 0 14 16" xmlns="http://www.w3.org/2000/svg">
<path fill-rule="evenodd" clip-rule="evenodd" d="M8.6875 0.6875C8.99816 0.6875 9.25 0.93934 9.25 1.25V4.625H12.625C12.9357 4.625 13.1875 4.87684 13.1875 5.1875C13.1875 5.49816 12.9357 5.75 12.625 5.75H8.6875C8.37684 5.75 8.125 5.49816 8.125 5.1875V1.25C8.125 0.93934 8.37684 0.6875 8.6875 0.6875Z" />
<path fill-rule="evenodd" clip-rule="evenodd" d="M1.142 1.017C1.35298 0.806027 1.63913 0.6875 1.9375 0.6875H8.6875C8.83668 0.6875 8.97976 0.746763 9.08525 0.852252L13.0227 4.78975C13.1282 4.89524 13.1875 5.03832 13.1875 5.1875V14.1875C13.1875 14.4859 13.069 14.772 12.858 14.983C12.647 15.194 12.3609 15.3125 12.0625 15.3125H10.375C10.0643 15.3125 9.8125 15.0607 9.8125 14.75C9.8125 14.4393 10.0643 14.1875 10.375 14.1875H12.0625V5.4205L8.4545 1.8125L1.9375 1.8125L1.9375 8C1.9375 8.31066 1.68566 8.5625 1.375 8.5625C1.06434 8.5625 0.8125 8.31066 0.8125 8V1.8125C0.8125 1.51413 0.931027 1.22798 1.142 1.017Z" />
<path fill-rule="evenodd" clip-rule="evenodd" d="M0.25 10.8125C0.25 10.1912 0.75368 9.6875 1.375 9.6875H5.3125C5.93382 9.6875 6.4375 10.1912 6.4375 10.8125V13.625C6.4375 14.2463 5.93382 14.75 5.3125 14.75H1.375C0.75368 14.75 0.25 14.2463 0.25 13.625V10.8125ZM5.3125 10.8125L1.375 10.8125V13.625H5.3125V10.8125Z" />
<path fill-rule="evenodd" clip-rule="evenodd" d="M8.42085 10.0528C8.58668 10.1553 8.68762 10.3363 8.68762 10.5313V13.9906C8.68762 14.1885 8.58362 14.3719 8.41375 14.4734C8.24387 14.575 8.03314 14.5798 7.85881 14.4861L5.60881 13.2767C5.33517 13.1296 5.23258 12.7886 5.37966 12.5149C5.47926 12.3296 5.66783 12.2228 5.86417 12.2188C5.66194 12.2146 5.46875 12.1013 5.37201 11.9078C5.23308 11.6299 5.3457 11.2921 5.62357 11.1531L7.87357 10.0281C8.04793 9.94095 8.25501 9.95027 8.42085 10.0528ZM5.88701 12.2188C5.9732 12.2205 6.06028 12.2422 6.14143 12.2858L7.56262 13.0497V11.4414L6.12668 12.1594C6.04957 12.1979 5.96783 12.2171 5.88701 12.2188Z" />
</svg>
