<svg viewBox="0 0 14 16" xmlns="http://www.w3.org/2000/svg">
<path d="M8.6875 1.25V5.1875H12.625M8.6875 1.25L12.625 5.1875M8.6875 1.25H1.9375C1.78832 1.25 1.64524 1.30926 1.53975 1.41475C1.43426 1.52024 1.375 1.66332 1.375 1.8125V8M12.625 5.1875V14.1875C12.625 14.3367 12.5657 14.4798 12.4602 14.5852C12.3548 14.6907 12.2117 14.75 12.0625 14.75H10.375M5.875 11.6562L8.125 10.5312V13.9906L5.875 12.7812M1.375 10.25H5.3125C5.62316 10.25 5.875 10.5018 5.875 10.8125V13.625C5.875 13.9357 5.62316 14.1875 5.3125 14.1875H1.375C1.06434 14.1875 0.8125 13.9357 0.8125 13.625V10.8125C0.8125 10.5018 1.06434 10.25 1.375 10.25Z" stroke-width="1.125" stroke-linecap="round" stroke-linejoin="round"/>
</svg>
