<svg viewBox="0 0 12 14" xmlns="http://www.w3.org/2000/svg">
<path fill-rule="evenodd" clip-rule="evenodd" d="M7.5 0.5C7.77614 0.5 8 0.723858 8 1V4H11C11.2761 4 11.5 4.22386 11.5 4.5C11.5 4.77614 11.2761 5 11 5H7.5C7.22386 5 7 4.77614 7 4.5V1C7 0.723858 7.22386 0.5 7.5 0.5Z" />
<path fill-rule="evenodd" clip-rule="evenodd" d="M0.792893 0.792893C0.980429 0.605357 1.23478 0.5 1.5 0.5H7.5C7.63261 0.5 7.75979 0.552678 7.85355 0.646447L11.3536 4.14645C11.4473 4.24021 11.5 4.36739 11.5 4.5V12.5C11.5 12.7652 11.3946 13.0196 11.2071 13.2071C11.0196 13.3946 10.7652 13.5 10.5 13.5H8.5C8.22386 13.5 8 13.2761 8 13C8 12.7239 8.22386 12.5 8.5 12.5H10.5V4.70711L7.29289 1.5L1.5 1.5L1.5 7C1.5 7.27614 1.27614 7.5 1 7.5C0.723858 7.5 0.5 7.27614 0.5 7V1.5C0.5 1.23478 0.605357 0.980429 0.792893 0.792893Z" />
<path fill-rule="evenodd" clip-rule="evenodd" d="M4.21208 8.04721C4.38777 8.1295 4.5 8.306 4.5 8.50001V13C4.5 13.194 4.38777 13.3705 4.21208 13.4528C4.03639 13.5351 3.82895 13.5083 3.67991 13.3841L2.31897 12.25H1C0.723858 12.25 0.5 12.0261 0.5 11.75V9.75001C0.5 9.47386 0.723858 9.25001 1 9.25001H2.31898L3.67991 8.1159C3.82895 7.99169 4.03639 7.96492 4.21208 8.04721ZM3.5 9.56753L2.82009 10.1341C2.73023 10.209 2.61697 10.25 2.5 10.25H1.5V11.25H2.5C2.61697 11.25 2.73023 11.291 2.82009 11.3659L3.5 11.9325V9.56753Z" />
<path fill-rule="evenodd" clip-rule="evenodd" d="M5.60939 8.87541C5.78177 8.65967 6.09639 8.62452 6.31213 8.79689C6.60524 9.03109 6.84188 9.32826 7.00451 9.66636C7.16714 10.0045 7.25158 10.3748 7.25158 10.75C7.25158 11.1252 7.16714 11.4956 7.00451 11.8337C6.84188 12.1718 6.60524 12.4689 6.31213 12.7031C6.09639 12.8755 5.78177 12.8404 5.60939 12.6246C5.43702 12.4089 5.47217 12.0943 5.68791 11.9219C5.86378 11.7814 6.00576 11.6031 6.10334 11.4002C6.20092 11.1974 6.25158 10.9751 6.25158 10.75C6.25158 10.5249 6.20092 10.3027 6.10334 10.0998C6.00576 9.89696 5.86378 9.71866 5.68791 9.57814C5.47217 9.40577 5.43702 9.09115 5.60939 8.87541Z" />
</svg>
