<svg viewBox="0 0 12 14" xmlns="http://www.w3.org/2000/svg">
<path d="M6.64219 6.95469L5.42656 8.50469L4.78438 7.68594C4.77268 7.671 4.75774 7.65891 4.74069 7.65061C4.72363 7.6423 4.70491 7.63798 4.68594 7.63798C4.66697 7.63798 4.64824 7.6423 4.63119 7.65061C4.61413 7.65891 4.59919 7.671 4.5875 7.68594L3.02812 9.67344C3.0137 9.69186 3.00475 9.71397 3.00229 9.73724C2.99984 9.76051 3.00399 9.784 3.01425 9.80503C3.02452 9.82606 3.0405 9.84377 3.06036 9.85614C3.08022 9.86852 3.10316 9.87505 3.12656 9.875H8.875C8.97969 9.875 9.0375 9.75469 8.97344 9.67344L6.84062 6.95469C6.82878 6.93972 6.8137 6.92764 6.79651 6.91933C6.77933 6.91101 6.76049 6.9067 6.74141 6.9067C6.72232 6.9067 6.70348 6.91101 6.6863 6.91933C6.66912 6.92764 6.65404 6.93972 6.64219 6.95469V6.95469ZM3.625 5.90625C3.625 6.07201 3.69085 6.23098 3.80806 6.34819C3.92527 6.4654 4.08424 6.53125 4.25 6.53125C4.41576 6.53125 4.57473 6.4654 4.69194 6.34819C4.80915 6.23098 4.875 6.07201 4.875 5.90625C4.875 5.74049 4.80915 5.58152 4.69194 5.46431C4.57473 5.3471 4.41576 5.28125 4.25 5.28125C4.08424 5.28125 3.92527 5.3471 3.80806 5.46431C3.69085 5.58152 3.625 5.74049 3.625 5.90625ZM11.3531 3.50938L7.99063 0.146875C7.89688 0.053125 7.77031 0 7.6375 0H1C0.723437 0 0.5 0.223437 0.5 0.5V13.5C0.5 13.7766 0.723437 14 1 14H11C11.2766 14 11.5 13.7766 11.5 13.5V3.86406C11.5 3.73125 11.4469 3.60313 11.3531 3.50938ZM10.3469 4.09375H7.40625V1.15313L10.3469 4.09375ZM10.375 12.875H1.625V1.125H6.34375V4.5C6.34375 4.67405 6.41289 4.84097 6.53596 4.96404C6.65903 5.08711 6.82595 5.15625 7 5.15625H10.375V12.875Z" />
</svg>
