<svg xmlns="http://www.w3.org/2000/svg" fill="none" viewBox="0 0 29 29"><path d="M8.21165 6.6926L9.45491 5.44934C9.48485 5.41925 9.50575 5.38135 9.51523 5.33997C9.52471 5.29858 9.52238 5.25537 9.50851 5.21524C9.49464 5.17511 9.46979 5.13968 9.43679 5.11298C9.40378 5.08627 9.36394 5.06937 9.3218 5.06419L4.78489 4.52893C4.64045 4.51194 4.51585 4.63372 4.53284 4.78098L5.06809 9.3179C5.09075 9.50481 5.32014 9.58411 5.45325 9.451L6.69085 8.2134L10.4773 11.997C10.5651 12.0848 10.7095 12.0848 10.7973 11.997L11.9981 10.799C12.0859 10.7113 12.0859 10.5668 11.9981 10.479L8.21165 6.6926ZM18.2002 11.997C18.288 12.0848 18.4324 12.0848 18.5202 11.997L22.3067 8.2134L23.5443 9.451C23.5744 9.48095 23.6123 9.50185 23.6536 9.51132C23.695 9.5208 23.7382 9.51847 23.7784 9.5046C23.8185 9.49074 23.8539 9.46589 23.8806 9.43288C23.9073 9.39987 23.9242 9.36003 23.9294 9.3179L24.4647 4.78381C24.4817 4.63938 24.3599 4.51477 24.2126 4.53176L19.6757 5.06702C19.4888 5.08967 19.4095 5.31907 19.5426 5.45217L20.7859 6.69544L16.9994 10.4762C16.9573 10.5188 16.9336 10.5763 16.9336 10.6362C16.9336 10.6961 16.9573 10.7536 16.9994 10.7962L18.2002 11.997ZM23.9294 19.6775C23.9068 19.4906 23.6774 19.4113 23.5443 19.5444L22.3067 20.782L18.5202 16.9984C18.4777 16.9562 18.4202 16.9325 18.3602 16.9325C18.3003 16.9325 18.2428 16.9562 18.2002 16.9984L16.9994 18.1963C16.9573 18.2389 16.9336 18.2964 16.9336 18.3563C16.9336 18.4162 16.9573 18.4738 16.9994 18.5163L20.7859 22.3028L19.5426 23.546C19.5127 23.5761 19.4918 23.614 19.4823 23.6554C19.4728 23.6968 19.4751 23.74 19.489 23.7801C19.5029 23.8202 19.5277 23.8557 19.5607 23.8824C19.5937 23.9091 19.6336 23.926 19.6757 23.9312L24.2126 24.4664C24.3571 24.4834 24.4817 24.3616 24.4647 24.2144L23.9294 19.6775ZM10.7973 16.9984C10.7547 16.9562 10.6972 16.9325 10.6373 16.9325C10.5774 16.9325 10.5199 16.9562 10.4773 16.9984L6.69085 20.782L5.45325 19.5444C5.42315 19.5144 5.38526 19.4935 5.34387 19.484C5.30249 19.4746 5.25927 19.4769 5.21914 19.4908C5.17902 19.5046 5.14359 19.5295 5.11688 19.5625C5.09018 19.5955 5.07327 19.6353 5.06809 19.6775L4.53284 24.2115C4.51585 24.356 4.63762 24.4806 4.78489 24.4636L9.3218 23.9283C9.50872 23.9057 9.58801 23.6763 9.45491 23.5432L8.21165 22.3028L11.9981 18.5192C12.0859 18.4314 12.0859 18.2869 11.9981 18.1991L10.7973 16.9984Z"/></svg>