<svg xmlns="http://www.w3.org/2000/svg" viewBox="0 0 17 16"><path d="M14.2654 6.9125H8.62012V9.23281H11.8451C11.7061 9.98281 11.2842 10.6172 10.6482 11.0422C10.1107 11.4016 9.4248 11.6141 8.61855 11.6141C7.05762 11.6141 5.73731 10.5594 5.26543 9.14219C5.14668 8.78281 5.07793 8.39844 5.07793 8.00313C5.07793 7.60781 5.14668 7.22344 5.26543 6.86406C5.73887 5.44844 7.05918 4.39375 8.62012 4.39375C9.49981 4.39375 10.2889 4.69688 10.9107 5.29063L12.6295 3.57031C11.5904 2.60156 10.2357 2.00781 8.62012 2.00781C6.27793 2.00781 4.25137 3.35156 3.26543 5.31094C2.85918 6.12031 2.62793 7.03594 2.62793 8.00469C2.62793 8.97344 2.85918 9.8875 3.26543 10.6969C4.25137 12.6562 6.27793 14 8.62012 14C10.2389 14 11.5951 13.4625 12.5857 12.5469C13.7186 11.5031 14.3732 9.96563 14.3732 8.13906C14.3732 7.71406 14.3357 7.30625 14.2654 6.9125Z"/></svg>