<svg viewBox="0 0 13 12" xmlns="http://www.w3.org/2000/svg">
<path d="M12.2654 4.9125H6.62012V7.23281H9.84512C9.70606 7.98281 9.28418 8.61719 8.64824 9.04219C8.11074 9.40156 7.4248 9.61406 6.61855 9.61406C5.05762 9.61406 3.73731 8.55937 3.26543 7.14219C3.14668 6.78281 3.07793 6.39844 3.07793 6.00313C3.07793 5.60781 3.14668 5.22344 3.26543 4.86406C3.73887 3.44844 5.05918 2.39375 6.62012 2.39375C7.49981 2.39375 8.28887 2.69688 8.91074 3.29063L10.6295 1.57031C9.59043 0.601562 8.23574 0.0078125 6.62012 0.0078125C4.27793 0.0078125 2.25137 1.35156 1.26543 3.31094C0.85918 4.12031 0.62793 5.03594 0.62793 6.00469C0.62793 6.97344 0.85918 7.8875 1.26543 8.69687C2.25137 10.6562 4.27793 12 6.62012 12C8.23887 12 9.59512 11.4625 10.5857 10.5469C11.7186 9.50313 12.3732 7.96563 12.3732 6.13906C12.3732 5.71406 12.3357 5.30625 12.2654 4.9125Z" fill="#F5F5F5"/>
</svg>
