<?xml version="1.0" encoding="UTF-8"?><svg xmlns="http://www.w3.org/2000/svg" xmlns:xlink="http://www.w3.org/1999/xlink" version="1.1" x="0px" y="0px" viewBox="0 0 32 32" xml:space="preserve"><g id="style_1_copy_6"><path fill="#FFF" d="M24.688 30H0L7 2h25z"/><path d="M24.232 14.344c.111.59.171 1.209.171 1.854 0 5.044-3.377 8.631-8.476 8.631-4.878 0-8.83-3.952-8.83-8.83s3.952-8.83 8.83-8.83c2.384 0 4.376.877 5.905 2.301l-2.489 2.489v-.006c-.927-.883-2.102-1.336-3.416-1.336-2.914 0-5.281 2.461-5.281 5.375 0 2.913 2.368 5.381 5.281 5.381 2.644 0 4.442-1.512 4.813-3.587h-4.813v-3.444l8.305.002z"/></g><metadata><rdf:RDF xmlns:rdf="http://www.w3.org/1999/02/22-rdf-syntax-ns#" xmlns:rdfs="http://www.w3.org/2000/01/rdf-schema#" xmlns:dc="http://purl.org/dc/elements/1.1/"><rdf:Description about="https://iconscout.com/legal#licenses" dc:title="google,social,media,online" dc:description="google,social,media,online" dc:publisher="Iconscout" dc:date="2017-09-15" dc:format="image/svg+xml" dc:language="en"><dc:creator><rdf:Bag><rdf:li>Epicflaticon by Alfredo</rdf:li></rdf:Bag></dc:creator></rdf:Description></rdf:RDF></metadata></svg>