<svg viewBox="0 0 44 44" fill="none" xmlns="http://www.w3.org/2000/svg">
<path fill-rule="evenodd" clip-rule="evenodd" d="M9.16671 8.70825C8.91358 8.70825 8.70837 8.91345 8.70837 9.16659V16.4999C8.70837 16.753 8.91358 16.9583 9.16671 16.9583H16.5C16.7532 16.9583 16.9584 16.753 16.9584 16.4999V9.16659C16.9584 8.91345 16.7532 8.70825 16.5 8.70825H9.16671ZM5.95837 9.16659C5.95837 7.39467 7.39479 5.95825 9.16671 5.95825H16.5C18.272 5.95825 19.7084 7.39467 19.7084 9.16659V16.4999C19.7084 18.2718 18.272 19.7083 16.5 19.7083H9.16671C7.39479 19.7083 5.95837 18.2718 5.95837 16.4999V9.16659Z"/>
<path fill-rule="evenodd" clip-rule="evenodd" d="M27.5 8.70825C27.2468 8.70825 27.0416 8.91345 27.0416 9.16659V16.4999C27.0416 16.753 27.2468 16.9583 27.5 16.9583H34.8333C35.0864 16.9583 35.2916 16.753 35.2916 16.4999V9.16659C35.2916 8.91345 35.0864 8.70825 34.8333 8.70825H27.5ZM24.2916 9.16659C24.2916 7.39467 25.728 5.95825 27.5 5.95825H34.8333C36.6052 5.95825 38.0416 7.39467 38.0416 9.16659V16.4999C38.0416 18.2718 36.6052 19.7083 34.8333 19.7083H27.5C25.728 19.7083 24.2916 18.2718 24.2916 16.4999V9.16659Z" />
<path fill-rule="evenodd" clip-rule="evenodd" d="M9.16671 27.0417C8.91358 27.0417 8.70837 27.247 8.70837 27.5001V34.8334C8.70837 35.0865 8.91358 35.2917 9.16671 35.2917H16.5C16.7532 35.2917 16.9584 35.0865 16.9584 34.8334V27.5001C16.9584 27.247 16.7532 27.0417 16.5 27.0417H9.16671ZM5.95837 27.5001C5.95837 25.7282 7.39479 24.2917 9.16671 24.2917H16.5C18.272 24.2917 19.7084 25.7282 19.7084 27.5001V34.8334C19.7084 36.6053 18.272 38.0417 16.5 38.0417H9.16671C7.39479 38.0417 5.95837 36.6053 5.95837 34.8334V27.5001Z" />
<path fill-rule="evenodd" clip-rule="evenodd" d="M27.5 27.0417C27.2468 27.0417 27.0416 27.247 27.0416 27.5001V34.8334C27.0416 35.0865 27.2468 35.2917 27.5 35.2917H34.8333C35.0864 35.2917 35.2916 35.0865 35.2916 34.8334V27.5001C35.2916 27.247 35.0864 27.0417 34.8333 27.0417H27.5ZM24.2916 27.5001C24.2916 25.7282 25.728 24.2917 27.5 24.2917H34.8333C36.6052 24.2917 38.0416 25.7282 38.0416 27.5001V34.8334C38.0416 36.6053 36.6052 38.0417 34.8333 38.0417H27.5C25.728 38.0417 24.2916 36.6053 24.2916 34.8334V27.5001Z" />
</svg>
