<svg xmlns="http://www.w3.org/2000/svg" viewBox="0 0 16 14"><path d="M14.7889 6.89091L8.75143 0.856534L8.34674 0.451846C8.25454 0.360247 8.12984 0.308838 7.99987 0.308838C7.8699 0.308838 7.7452 0.360247 7.65299 0.451846L1.21081 6.89091C1.11632 6.98502 1.04165 7.09711 0.991201 7.22056C0.940749 7.34401 0.915538 7.47631 0.917057 7.60966C0.923307 8.15966 1.38112 8.59872 1.93112 8.59872H2.59518V13.6878H13.4046V8.59872H14.0827C14.3499 8.59872 14.6014 8.49403 14.7905 8.30497C14.8836 8.21218 14.9573 8.10184 15.0075 7.98034C15.0577 7.85884 15.0832 7.7286 15.0827 7.59716C15.0827 7.33153 14.978 7.07997 14.7889 6.89091ZM8.87487 12.5628H7.12487V9.37528H8.87487V12.5628ZM12.2796 7.47372V12.5628H9.87487V9.00028C9.87487 8.65497 9.59518 8.37528 9.24987 8.37528H6.74987C6.40456 8.37528 6.12487 8.65497 6.12487 9.00028V12.5628H3.72018V7.47372H2.22018L8.00143 1.69716L8.36237 2.0581L13.7811 7.47372H12.2796Z"/></svg>