<svg viewBox="0 0 20 20" fill="none" xmlns="http://www.w3.org/2000/svg">
<path d="M6.508 9.892C6.19589 9.12631 6.03689 8.30686 6.04 7.48C6.04 6.19838 6.42004 4.94554 7.13208 3.87991C7.84411 2.81428 8.85614 1.98372 10.0402 1.49326C11.2243 1.00281 12.5272 0.874482 13.7842 1.12451C15.0412 1.37455 16.1958 1.99171 17.102 2.89795C18.0083 3.80419 18.6255 4.95882 18.8755 6.21582C19.1255 7.47281 18.9972 8.77572 18.5067 9.95979C18.0163 11.1439 17.1857 12.1559 16.1201 12.8679C15.0545 13.58 13.8016 13.96 12.52 13.96C11.6931 13.9631 10.8737 13.8041 10.108 13.492V13.492L8.92 14.68H6.76V16.84H4.6V19H1V15.4L6.508 9.892Z" stroke="currentColor" stroke-width="1.44" stroke-linecap="round" stroke-linejoin="round"/>
<path d="M14.32 6.76001C14.9165 6.76001 15.4 6.27647 15.4 5.68001C15.4 5.08354 14.9165 4.60001 14.32 4.60001C13.7235 4.60001 13.24 5.08354 13.24 5.68001C13.24 6.27647 13.7235 6.76001 14.32 6.76001Z" fill="currentColor"/>
</svg>
