<svg xmlns="http://www.w3.org/2000/svg" viewBox="0 0 30 29"><path fill-rule="evenodd" d="M27.845 2.84518C28.4959 2.1943 28.4959 1.13903 27.845 0.488155C27.1941 -0.162719 26.1389 -0.162719 25.488 0.488155L12.9289 13.0473C11.6115 12.1748 10.0318 11.6667 8.33333 11.6667C3.73096 11.6667 0 15.3976 0 20C0 24.6024 3.73096 28.3334 8.33333 28.3334C12.9357 28.3334 16.6667 24.6024 16.6667 20C16.6667 18.3015 16.1585 16.7217 15.2859 15.4043L20 10.6902L22.155 12.8452C22.8059 13.4961 23.8611 13.4961 24.512 12.8452C25.1629 12.1943 25.1629 11.139 24.512 10.4882L22.357 8.33318L25 5.6902L27.155 7.8452C27.8059 8.49607 28.8611 8.49607 29.512 7.8452C30.1629 7.19432 30.1629 6.13905 29.512 5.48818L27.357 3.33318L27.845 2.84518ZM3.33333 20C3.33333 17.2386 5.57191 15 8.33333 15C11.0948 15 13.3333 17.2386 13.3333 20C13.3333 22.7614 11.0948 25 8.33333 25C5.57191 25 3.33333 22.7614 3.33333 20Z" clip-rule="evenodd"/></svg>