<svg viewBox="0 0 15 16" fill="none" xmlns="http://www.w3.org/2000/svg">
<path d="M5.0885 9.79883L9.45009 5.82137" stroke-width="1.25" stroke-linecap="round" stroke-linejoin="round"/>
<path d="M8.35972 10.7934L6.54239 12.4507C5.96401 12.9781 5.17955 13.2744 4.36159 13.2744C3.54364 13.2744 2.75918 12.9781 2.1808 12.4507C1.60241 11.9232 1.27748 11.2078 1.27748 10.4619C1.27748 9.71599 1.60241 9.00062 2.1808 8.47317L3.99813 6.81589" stroke-width="1.25" stroke-linecap="round" stroke-linejoin="round"/>
<path d="M10.5405 8.80462L12.3579 7.14734C12.9363 6.6199 13.2612 5.90453 13.2612 5.1586C13.2612 4.41268 12.9363 3.69731 12.3579 3.16987C11.7795 2.64242 10.995 2.34611 10.1771 2.34611C9.35913 2.34611 8.57467 2.64242 7.99629 3.16987L6.17896 4.82715" stroke-width="1.25" stroke-linecap="round" stroke-linejoin="round"/>
</svg>
