<svg xmlns="http://www.w3.org/2000/svg" fill="currentColor" viewBox="0 0 10 12"><path fill="currentColor" d="M9.375 5.34375H8.44531V2.28125C8.44531 1.31465 7.66191 0.53125 6.69531 0.53125H3.30469C2.33809 0.53125 1.55469 1.31465 1.55469 2.28125V5.34375H0.625C0.383008 5.34375 0.1875 5.53926 0.1875 5.78125V11.0312C0.1875 11.2732 0.383008 11.4688 0.625 11.4688H9.375C9.61699 11.4688 9.8125 11.2732 9.8125 11.0312V5.78125C9.8125 5.53926 9.61699 5.34375 9.375 5.34375ZM2.53906 2.28125C2.53906 1.85879 2.88223 1.51562 3.30469 1.51562H6.69531C7.11777 1.51562 7.46094 1.85879 7.46094 2.28125V5.34375H2.53906V2.28125ZM8.82812 10.4844H1.17188V6.32812H8.82812V10.4844ZM4.61719 8.58398V9.30859C4.61719 9.36875 4.66641 9.41797 4.72656 9.41797H5.27344C5.33359 9.41797 5.38281 9.36875 5.38281 9.30859V8.58398C5.49567 8.50296 5.57991 8.38821 5.6234 8.25626C5.66689 8.12431 5.66739 7.98197 5.62483 7.84972C5.58227 7.71746 5.49885 7.60213 5.38656 7.52031C5.27428 7.43848 5.13893 7.3944 5 7.3944C4.86107 7.3944 4.72572 7.43848 4.61344 7.52031C4.50115 7.60213 4.41773 7.71746 4.37517 7.84972C4.33261 7.98197 4.33311 8.12431 4.3766 8.25626C4.42009 8.38821 4.50433 8.50296 4.61719 8.58398Z"/></svg>