<svg viewBox="0 0 44 44" fill="none" xmlns="http://www.w3.org/2000/svg">
  <path d="M21.9999 5.50002C22.2419 5.50002 22.4821 5.50002 22.7204 5.50002C20.3652 7.68848 18.8513 10.6331 18.442 13.8219C18.0326 17.0108 18.7536 20.2423 20.4796 22.9547C22.2057 25.6671 24.8276 27.6889 27.8897 28.6687C30.9518 29.6485 34.2604 29.5243 37.2404 28.3177C36.0941 31.0759 34.2205 33.4712 31.8196 35.2482C29.4187 37.0251 26.5804 38.1169 23.6076 38.4072C20.6348 38.6975 17.6389 38.1754 14.9396 36.8966C12.2402 35.6177 9.93863 33.6301 8.28034 31.1458C6.62204 28.6614 5.66924 25.7735 5.52355 22.7901C5.37786 19.8067 6.04476 16.8397 7.45311 14.2056C8.86145 11.5715 10.9584 9.36913 13.5203 7.83336C16.0822 6.2976 19.013 5.48607 21.9999 5.48535V5.50002Z" stroke-width="2.75" stroke-linecap="round" stroke-linejoin="round"/>
  <path d="M31.1667 7.33337C31.1667 8.30583 31.553 9.23847 32.2406 9.9261C32.9282 10.6137 33.8609 11 34.8333 11C33.8609 11 32.9282 11.3863 32.2406 12.074C31.553 12.7616 31.1667 13.6942 31.1667 14.6667C31.1667 13.6942 30.7804 12.7616 30.0927 12.074C29.4051 11.3863 28.4725 11 27.5 11C28.4725 11 29.4051 10.6137 30.0927 9.9261C30.7804 9.23847 31.1667 8.30583 31.1667 7.33337Z" stroke-width="2.75" stroke-linecap="round" stroke-linejoin="round"/>
  <path d="M36.6666 18.3334V22M34.8333 20.1667H38.4999H34.8333Z" stroke-width="2.75" stroke-linecap="round" stroke-linejoin="round"/>
</svg>
