<svg width="37" height="34" viewBox="0 0 37 34" fill="none" xmlns="http://www.w3.org/2000/svg">
<path d="M31.2354 15.3675V7.53076" stroke-width="2" stroke-linecap="round" stroke-linejoin="round"/>
<path d="M35.1541 11.4487H27.3174" stroke-width="2" stroke-linecap="round" stroke-linejoin="round"/>
<path d="M23.3984 1V6.22449" stroke-width="2" stroke-linecap="round" stroke-linejoin="round"/>
<path d="M26.0106 3.6123H20.7861" stroke-width="2" stroke-linecap="round" stroke-linejoin="round"/>
<path d="M31.3436 22.0042C28.7796 22.7167 26.0725 22.7355 23.4989 22.0586C20.9254 21.3818 18.5777 20.0336 16.696 18.1519C14.8144 16.2702 13.4662 13.9226 12.7893 11.349C12.1124 8.77548 12.1312 6.06833 12.8436 3.50439L12.8441 3.50452C10.3152 4.20803 8.0148 5.56186 6.17203 7.43117C4.32926 9.30047 3.00845 11.62 2.34117 14.1587C1.67389 16.6973 1.68344 19.3665 2.36886 21.9003C3.05428 24.4342 4.39165 26.7442 6.24774 28.6003C8.10383 30.4563 10.4139 31.7937 12.9477 32.4791C15.4815 33.1645 18.1507 33.174 20.6894 32.5067C23.228 31.8394 25.5476 30.5186 27.4168 28.6758C29.2861 26.833 30.6399 24.5326 31.3434 22.0037L31.3436 22.0042Z" stroke-width="2" stroke-linecap="round" stroke-linejoin="round"/>
</svg>