<svg xmlns="http://www.w3.org/2000/svg" viewBox="0 0 4 16"><path d="M0.6875 1.41406C0.6875 1.76216 0.825781 2.096 1.07192 2.34214C1.31806 2.58828 1.6519 2.72656 2 2.72656C2.3481 2.72656 2.68194 2.58828 2.92808 2.34214C3.17422 2.096 3.3125 1.76216 3.3125 1.41406C3.3125 1.06597 3.17422 0.732126 2.92808 0.485985C2.68194 0.239843 2.3481 0.101563 2 0.101562C1.6519 0.101563 1.31806 0.239843 1.07192 0.485985C0.825781 0.732126 0.6875 1.06597 0.6875 1.41406ZM0.6875 7.97656C0.6875 8.32466 0.825781 8.6585 1.07192 8.90464C1.31806 9.15078 1.6519 9.28906 2 9.28906C2.3481 9.28906 2.68194 9.15078 2.92808 8.90464C3.17422 8.6585 3.3125 8.32466 3.3125 7.97656C3.3125 7.62847 3.17422 7.29463 2.92808 7.04848C2.68194 6.80234 2.3481 6.66406 2 6.66406C1.6519 6.66406 1.31806 6.80234 1.07192 7.04848C0.825781 7.29463 0.6875 7.62847 0.6875 7.97656ZM0.6875 14.5391C0.6875 14.8872 0.825781 15.221 1.07192 15.4671C1.31806 15.7133 1.6519 15.8516 2 15.8516C2.3481 15.8516 2.68194 15.7133 2.92808 15.4671C3.17422 15.221 3.3125 14.8872 3.3125 14.5391C3.3125 14.191 3.17422 13.8571 2.92808 13.611C2.68194 13.3648 2.3481 13.2266 2 13.2266C1.6519 13.2266 1.31806 13.3648 1.07192 13.611C0.825781 13.8571 0.6875 14.191 0.6875 14.5391Z"/></svg>