<svg viewBox="0 0 16 20" xmlns="http://www.w3.org/2000/svg">
<path d="M14.2649 2.60752C12.0571 0.399707 8.46174 0.399707 6.25627 2.60752L0.139084 8.72002C0.0992406 8.75986 0.0781467 8.81377 0.0781467 8.87002C0.0781467 8.92627 0.0992406 8.98018 0.139084 9.02002L1.00393 9.88486C1.04346 9.92422 1.09697 9.94632 1.15276 9.94632C1.20854 9.94632 1.26205 9.92422 1.30158 9.88486L7.41877 3.77236C8.17815 3.01299 9.1883 2.5958 10.2617 2.5958C11.3352 2.5958 12.3453 3.01299 13.1024 3.77236C13.8617 4.53174 14.2789 5.54189 14.2789 6.61299C14.2789 7.68643 13.8617 8.69424 13.1024 9.45361L6.86799 15.6856L5.85783 16.6958C4.9133 17.6403 3.37815 17.6403 2.43362 16.6958C1.97658 16.2388 1.7258 15.6317 1.7258 14.9849C1.7258 14.338 1.97658 13.731 2.43362 13.2739L8.61877 7.09111C8.7758 6.93643 8.98205 6.84971 9.20236 6.84971H9.20471C9.42502 6.84971 9.62893 6.93643 9.78362 7.09111C9.94065 7.24814 10.025 7.45439 10.025 7.67471C10.025 7.89268 9.9383 8.09893 9.78362 8.25361L4.72815 13.3044C4.6883 13.3442 4.66721 13.3981 4.66721 13.4544C4.66721 13.5106 4.6883 13.5646 4.72815 13.6044L5.59299 14.4692C5.63252 14.5086 5.68603 14.5307 5.74182 14.5307C5.7976 14.5307 5.85112 14.5086 5.89065 14.4692L10.9438 9.41611C11.4102 8.94971 11.6656 8.33096 11.6656 7.67236C11.6656 7.01377 11.4078 6.39268 10.9438 5.92861C9.98049 4.96533 8.41487 4.96768 7.45158 5.92861L6.85158 6.53096L1.26877 12.1114C0.88986 12.4881 0.589503 12.9363 0.38512 13.4299C0.180737 13.9236 0.0763961 14.4529 0.0781467 14.9872C0.0781467 16.0724 0.502365 17.0919 1.26877 17.8583C2.0633 18.6505 3.10393 19.0466 4.14455 19.0466C5.18518 19.0466 6.2258 18.6505 7.01799 17.8583L14.2649 10.6161C15.3313 9.54736 15.9219 8.12471 15.9219 6.61299C15.9242 5.09893 15.3336 3.67627 14.2649 2.60752Z"/>
</svg>