<svg viewBox="0 0 30 30" xmlns="http://www.w3.org/2000/svg">
<path d="M14.1211 4.45312H15.8789C16.0352 4.45312 16.1133 4.53125 16.1133 4.6875V25.3125C16.1133 25.4688 16.0352 25.5469 15.8789 25.5469H14.1211C13.9648 25.5469 13.8867 25.4688 13.8867 25.3125V4.6875C13.8867 4.53125 13.9648 4.45312 14.1211 4.45312Z" />
<path d="M5.15625 13.8867H24.8438C25 13.8867 25.0781 13.9648 25.0781 14.1211V15.8789C25.0781 16.0352 25 16.1133 24.8438 16.1133H5.15625C5 16.1133 4.92188 16.0352 4.92188 15.8789V14.1211C4.92188 13.9648 5 13.8867 5.15625 13.8867Z"/>
</svg>
