<svg xmlns="http://www.w3.org/2000/svg" viewBox="0 0 14 14"><path d="M9.51562 6.5625H7.4375V4.48438C7.4375 4.42422 7.38828 4.375 7.32812 4.375H6.67188C6.61172 4.375 6.5625 4.42422 6.5625 4.48438V6.5625H4.48438C4.42422 6.5625 4.375 6.61172 4.375 6.67188V7.32812C4.375 7.38828 4.42422 7.4375 4.48438 7.4375H6.5625V9.51562C6.5625 9.57578 6.61172 9.625 6.67188 9.625H7.32812C7.38828 9.625 7.4375 9.57578 7.4375 9.51562V7.4375H9.51562C9.57578 7.4375 9.625 7.38828 9.625 7.32812V6.67188C9.625 6.61172 9.57578 6.5625 9.51562 6.5625Z"/><path d="M7 0.875C3.61758 0.875 0.875 3.61758 0.875 7C0.875 10.3824 3.61758 13.125 7 13.125C10.3824 13.125 13.125 10.3824 13.125 7C13.125 3.61758 10.3824 0.875 7 0.875ZM7 12.0859C4.1918 12.0859 1.91406 9.8082 1.91406 7C1.91406 4.1918 4.1918 1.91406 7 1.91406C9.8082 1.91406 12.0859 4.1918 12.0859 7C12.0859 9.8082 9.8082 12.0859 7 12.0859Z"/></svg>