<svg viewBox="0 0 22 22" xmlns="http://www.w3.org/2000/svg">
<path d="M10.1211 0.453125H11.8789C12.0352 0.453125 12.1133 0.53125 12.1133 0.6875V21.3125C12.1133 21.4688 12.0352 21.5469 11.8789 21.5469H10.1211C9.96484 21.5469 9.88672 21.4688 9.88672 21.3125V0.6875C9.88672 0.53125 9.96484 0.453125 10.1211 0.453125Z" />
<path d="M1.15625 9.88672H20.8438C21 9.88672 21.0781 9.96484 21.0781 10.1211V11.8789C21.0781 12.0352 21 12.1133 20.8438 12.1133H1.15625C1 12.1133 0.921875 12.0352 0.921875 11.8789V10.1211C0.921875 9.96484 1 9.88672 1.15625 9.88672Z" />
</svg>
