<svg xmlns="http://www.w3.org/2000/svg" viewBox="0 0 17 17"><path d="M12.0927 1.31748C12.07 1.30604 12.0448 1.30062 12.0194 1.30175C11.994 1.30287 11.9693 1.31051 11.9477 1.32392C11.9261 1.33733 11.9083 1.35607 11.896 1.37833C11.8837 1.4006 11.8773 1.42565 11.8775 1.45107V2.64229C11.8775 2.74434 11.9313 2.83896 12.0167 2.89463C12.4351 3.15799 12.8223 3.46798 13.1708 3.81865C13.7775 4.42725 14.2544 5.13418 14.5865 5.9209C14.93 6.73532 15.106 7.61055 15.1042 8.49443C15.1042 9.38692 14.9298 10.2534 14.5865 11.068C14.2547 11.8536 13.774 12.5674 13.1708 13.1702C12.5696 13.7749 11.8561 14.2565 11.0704 14.5878C10.2577 14.9329 9.39118 15.1073 8.50055 15.1073C7.60993 15.1073 6.74342 14.9329 5.93073 14.5878C5.14501 14.2565 4.43153 13.7749 3.83034 13.1702C3.22713 12.5674 2.74637 11.8536 2.41461 11.068C2.07113 10.2535 1.89508 9.37832 1.89694 8.49443C1.89694 7.60195 2.07135 6.73545 2.41461 5.9209C2.74674 5.13418 3.2236 4.42725 3.83034 3.81865C4.18288 3.46611 4.56881 3.15811 4.98444 2.89463C5.07165 2.84082 5.1236 2.74434 5.1236 2.64229V1.44922C5.1236 1.33789 5.0067 1.26738 4.90836 1.31563C2.31256 2.62188 0.522036 5.29561 0.484927 8.39424C0.432974 12.8251 4.0567 16.5063 8.48571 16.5156C12.9203 16.5249 16.5162 12.929 16.5162 8.49258C16.5162 5.35313 14.7164 2.63486 12.0927 1.31748V1.31748ZM7.9068 9.39063H9.0943C9.17594 9.39063 9.24274 9.32383 9.24274 9.24219V0.632813C9.24274 0.551172 9.17594 0.484375 9.0943 0.484375H7.9068C7.82516 0.484375 7.75836 0.551172 7.75836 0.632813V9.24219C7.75836 9.32383 7.82516 9.39063 7.9068 9.39063Z"/></svg>