<svg viewBox="0 0 29 29" fill="none" xmlns="http://www.w3.org/2000/svg">
<path d="M23.2227 12.3477H22.0898C21.9652 12.3477 21.8633 12.4496 21.8633 12.5742V13.707C21.8633 13.8316 21.9652 13.9336 22.0898 13.9336H23.2227C23.3473 13.9336 23.4492 13.8316 23.4492 13.707V12.5742C23.4492 12.4496 23.3473 12.3477 23.2227 12.3477ZM24.1289 9.40234H20.7305V3.39844C20.7305 3.27383 20.6285 3.17188 20.5039 3.17188H8.49609C8.37148 3.17188 8.26953 3.27383 8.26953 3.39844V9.40234H4.87109C3.61934 9.40234 2.60547 10.4162 2.60547 11.668V20.957C2.60547 21.4583 3.01045 21.8633 3.51172 21.8633H8.26953V25.6016C8.26953 25.7262 8.37148 25.8281 8.49609 25.8281H20.5039C20.6285 25.8281 20.7305 25.7262 20.7305 25.6016V21.8633H25.4883C25.9896 21.8633 26.3945 21.4583 26.3945 20.957V11.668C26.3945 10.4162 25.3807 9.40234 24.1289 9.40234ZM10.1953 5.09766H18.8047V9.40234H10.1953V5.09766ZM18.8047 23.9023H10.1953V16.0859H18.8047V23.9023ZM24.4688 19.9375H20.7305V14.1602H8.26953V19.9375H4.53125V11.668C4.53125 11.4811 4.68418 11.3281 4.87109 11.3281H24.1289C24.3158 11.3281 24.4688 11.4811 24.4688 11.668V19.9375Z" />
</svg>
