<svg xmlns="http://www.w3.org/2000/svg" viewBox="0 0 22 22"><path d="M11.2495 0.5C5.42608 0.5 0.7043 5.20156 0.7043 11C0.7043 16.7984 5.42608 21.5 11.2495 21.5C17.0728 21.5 21.7946 16.7984 21.7946 11C21.7946 5.20156 17.0728 0.5 11.2495 0.5ZM11.2495 19.7188C6.41469 19.7188 2.49321 15.8141 2.49321 11C2.49321 6.18594 6.41469 2.28125 11.2495 2.28125C16.0842 2.28125 20.0057 6.18594 20.0057 11C20.0057 15.8141 16.0842 19.7188 11.2495 19.7188Z"/><path d="M13.8763 6.42266C13.1702 5.80625 12.2381 5.46875 11.2495 5.46875C10.2609 5.46875 9.32874 5.80859 8.62259 6.42266C7.8882 7.0625 7.48334 7.92266 7.48334 8.84375V9.02188C7.48334 9.125 7.56808 9.20938 7.67164 9.20938H8.80148C8.90505 9.20938 8.98979 9.125 8.98979 9.02188V8.84375C8.98979 7.81016 10.0043 6.96875 11.2495 6.96875C12.4946 6.96875 13.5091 7.81016 13.5091 8.84375C13.5091 9.57266 12.9913 10.2406 12.1886 10.5477C11.6896 10.7375 11.2659 11.0703 10.9623 11.5062C10.6539 11.9516 10.4939 12.4859 10.4939 13.0273V13.5312C10.4939 13.6344 10.5786 13.7188 10.6822 13.7188H11.812C11.9156 13.7188 12.0003 13.6344 12.0003 13.5312V12.9992C12.0016 12.7717 12.0716 12.5498 12.2013 12.3625C12.3311 12.1752 12.5145 12.0312 12.7277 11.9492C14.1164 11.4172 15.0132 10.1984 15.0132 8.84375C15.0156 7.92266 14.6107 7.0625 13.8763 6.42266ZM10.3079 16.1562C10.3079 16.4049 10.4071 16.6433 10.5837 16.8192C10.7603 16.995 10.9998 17.0938 11.2495 17.0938C11.4992 17.0938 11.7387 16.995 11.9152 16.8192C12.0918 16.6433 12.191 16.4049 12.191 16.1562C12.191 15.9076 12.0918 15.6692 11.9152 15.4933C11.7387 15.3175 11.4992 15.2188 11.2495 15.2188C10.9998 15.2188 10.7603 15.3175 10.5837 15.4933C10.4071 15.6692 10.3079 15.9076 10.3079 16.1562Z"/></svg>