<svg viewBox="0 0 13 10" fill="none" xmlns="http://www.w3.org/2000/svg">
<path fill-rule="evenodd" clip-rule="evenodd" d="M4.3958 0.579584C4.62799 0.834995 4.60916 1.23028 4.35375 1.46247L2.61663 3.04167H9.06667C9.99219 3.04167 10.8904 3.37536 11.5613 3.98526C12.2341 4.59695 12.625 5.44007 12.625 6.33334C12.625 7.22661 12.2341 8.06972 11.5613 8.68142C10.8904 9.29131 9.99219 9.625 9.06667 9.625H8.33333C7.98815 9.625 7.70833 9.34518 7.70833 9C7.70833 8.65483 7.98815 8.375 8.33333 8.375H9.06667C9.69708 8.375 10.2911 8.14679 10.7204 7.75649C11.1478 7.368 11.375 6.85456 11.375 6.33334C11.375 5.81212 11.1478 5.29868 10.7204 4.91018C10.2911 4.51988 9.69708 4.29167 9.06667 4.29167H2.61663L4.35375 5.87087C4.60916 6.10307 4.62799 6.49835 4.3958 6.75376C4.1636 7.00917 3.76832 7.02799 3.51291 6.7958L0.579579 4.12913C0.449283 4.01068 0.375 3.84276 0.375 3.66667C0.375 3.49058 0.449283 3.32266 0.579579 3.20421L3.51291 0.537542C3.76832 0.30535 4.1636 0.324173 4.3958 0.579584Z" />
</svg>
