<svg xmlns="http://www.w3.org/2000/svg" viewBox="0 0 20 22"><path d="M19.6758 13.6654L18.1406 12.3529C18.2133 11.9076 18.2508 11.4529 18.2508 10.9982C18.2508 10.5436 18.2133 10.0889 18.1406 9.64355L19.6758 8.33105C19.7916 8.23193 19.8745 8.0999 19.9134 7.95254C19.9523 7.80517 19.9455 7.64944 19.8938 7.50605L19.8727 7.44512C19.45 6.26393 18.8172 5.16895 18.0047 4.21309L17.9625 4.16387C17.8639 4.04797 17.7326 3.96466 17.5857 3.92492C17.4389 3.88517 17.2834 3.89085 17.1398 3.94121L15.2344 4.61855C14.5313 4.04199 13.7461 3.5873 12.8977 3.26855L12.5297 1.27637C12.5019 1.12647 12.4292 0.98856 12.3212 0.880971C12.2132 0.773382 12.075 0.701203 11.925 0.674023L11.8617 0.662305C10.6406 0.441992 9.35625 0.441992 8.13516 0.662305L8.07188 0.674023C7.92187 0.701203 7.78368 0.773382 7.67568 0.880971C7.56767 0.98856 7.49495 1.12647 7.46719 1.27637L7.09688 3.27793C6.25521 3.59675 5.47141 4.05119 4.77657 4.62324L2.85704 3.94121C2.71352 3.89045 2.55795 3.88456 2.41101 3.92434C2.26407 3.96411 2.1327 4.04765 2.03438 4.16387L1.99219 4.21309C1.18066 5.16963 0.547917 6.26442 0.124224 7.44512L0.10313 7.50605C-0.00233904 7.79902 0.0843798 8.12715 0.321099 8.33105L1.875 9.65762C1.80235 10.0982 1.76719 10.5482 1.76719 10.9959C1.76719 11.4459 1.80235 11.8959 1.875 12.3342L0.321099 13.6607C0.205307 13.7599 0.122434 13.8919 0.0834984 14.0393C0.044563 14.1866 0.0514102 14.3424 0.10313 14.4857L0.124224 14.5467C0.548442 15.7279 1.17657 16.8178 1.99219 17.7787L2.03438 17.8279C2.13294 17.9438 2.26431 18.0271 2.41117 18.0669C2.55802 18.1066 2.71347 18.1009 2.85704 18.0506L4.77657 17.3686C5.47501 17.9428 6.25547 18.3975 7.09688 18.7139L7.46719 20.7154C7.49495 20.8653 7.56767 21.0032 7.67568 21.1108C7.78368 21.2184 7.92187 21.2906 8.07188 21.3178L8.13516 21.3295C9.36747 21.551 10.6294 21.551 11.8617 21.3295L11.925 21.3178C12.075 21.2906 12.2132 21.2184 12.3212 21.1108C12.4292 21.0032 12.5019 20.8653 12.5297 20.7154L12.8977 18.7232C13.7458 18.4053 14.5353 17.9492 15.2344 17.3732L17.1398 18.0506C17.2834 18.1013 17.4389 18.1072 17.5859 18.0675C17.7328 18.0277 17.8642 17.9441 17.9625 17.8279L18.0047 17.7787C18.8203 16.8154 19.4484 15.7279 19.8727 14.5467L19.8938 14.4857C19.9992 14.1975 19.9125 13.8693 19.6758 13.6654ZM16.4766 9.92012C16.5352 10.274 16.5656 10.6373 16.5656 11.0006C16.5656 11.3639 16.5352 11.7271 16.4766 12.0811L16.3219 13.0209L18.0727 14.5186C17.8072 15.13 17.4722 15.7088 17.0742 16.2436L14.8992 15.4725L14.1633 16.0771C13.6031 16.5365 12.9797 16.8975 12.3047 17.1506L11.4117 17.4857L10.9922 19.7592C10.3302 19.8342 9.66195 19.8342 9 19.7592L8.58047 17.4811L7.69454 17.1412C7.02657 16.8881 6.40547 16.5271 5.85 16.0701L5.11407 15.4631L2.925 16.2412C2.52657 15.7045 2.19375 15.1256 1.92657 14.5162L3.6961 13.0045L3.54376 12.067C3.4875 11.7178 3.45704 11.3568 3.45704 11.0006C3.45704 10.642 3.48516 10.2834 3.54376 9.93418L3.6961 8.99668L1.92657 7.48496C2.19141 6.87324 2.52657 6.29668 2.925 5.75996L5.11407 6.53809L5.85 5.93106C6.40547 5.47402 7.02657 5.11309 7.69454 4.85996L8.58282 4.5248L9.00235 2.24668C9.66094 2.17168 10.3336 2.17168 10.9945 2.24668L11.4141 4.52012L12.307 4.85527C12.9797 5.1084 13.6055 5.46934 14.1656 5.92871L14.9016 6.5334L17.0766 5.7623C17.475 6.29902 17.8078 6.87793 18.075 7.4873L16.3242 8.98496L16.4766 9.92012ZM10.0008 6.64121C7.72266 6.64121 5.87579 8.48809 5.87579 10.7662C5.87579 13.0443 7.72266 14.8912 10.0008 14.8912C12.2789 14.8912 14.1258 13.0443 14.1258 10.7662C14.1258 8.48809 12.2789 6.64121 10.0008 6.64121ZM11.857 12.6225C11.6136 12.8666 11.3242 13.0602 11.0057 13.1922C10.6871 13.3241 10.3456 13.3917 10.0008 13.3912C9.3 13.3912 8.64141 13.117 8.14454 12.6225C7.90037 12.379 7.70676 12.0897 7.57482 11.7711C7.44289 11.4525 7.37525 11.111 7.37579 10.7662C7.37579 10.0654 7.65 9.40684 8.14454 8.90996C8.64141 8.41309 9.3 8.14121 10.0008 8.14121C10.7016 8.14121 11.3602 8.41309 11.857 8.90996C12.1012 9.15343 12.2948 9.44276 12.4267 9.76133C12.5587 10.0799 12.6263 10.4214 12.6258 10.7662C12.6258 11.467 12.3516 12.1256 11.857 12.6225Z"/></svg>