<svg viewBox="0 0 10 12" xmlns="http://www.w3.org/2000/svg">
<path d="M8.28125 8.07812C7.8916 8.07812 7.53203 8.21484 7.25039 8.44316L4.41758 6.39375C4.46501 6.13339 4.46501 5.86661 4.41758 5.60625L7.25039 3.55684C7.53203 3.78516 7.8916 3.92188 8.28125 3.92188C9.18633 3.92188 9.92188 3.18633 9.92188 2.28125C9.92188 1.37617 9.18633 0.640625 8.28125 0.640625C7.37617 0.640625 6.64062 1.37617 6.64062 2.28125C6.64062 2.43984 6.6625 2.5916 6.70488 2.73652L4.01426 4.68477C3.61504 4.15566 2.98066 3.8125 2.26562 3.8125C1.05703 3.8125 0.078125 4.79141 0.078125 6C0.078125 7.20859 1.05703 8.1875 2.26562 8.1875C2.98066 8.1875 3.61504 7.84434 4.01426 7.31523L6.70488 9.26348C6.6625 9.4084 6.64062 9.56152 6.64062 9.71875C6.64062 10.6238 7.37617 11.3594 8.28125 11.3594C9.18633 11.3594 9.92188 10.6238 9.92188 9.71875C9.92188 8.81367 9.18633 8.07812 8.28125 8.07812ZM8.28125 1.57031C8.67363 1.57031 8.99219 1.88887 8.99219 2.28125C8.99219 2.67363 8.67363 2.99219 8.28125 2.99219C7.88887 2.99219 7.57031 2.67363 7.57031 2.28125C7.57031 1.88887 7.88887 1.57031 8.28125 1.57031ZM2.26562 7.20312C1.60254 7.20312 1.0625 6.66309 1.0625 6C1.0625 5.33691 1.60254 4.79688 2.26562 4.79688C2.92871 4.79688 3.46875 5.33691 3.46875 6C3.46875 6.66309 2.92871 7.20312 2.26562 7.20312ZM8.28125 10.4297C7.88887 10.4297 7.57031 10.1111 7.57031 9.71875C7.57031 9.32637 7.88887 9.00781 8.28125 9.00781C8.67363 9.00781 8.99219 9.32637 8.99219 9.71875C8.99219 10.1111 8.67363 10.4297 8.28125 10.4297Z" />
</svg>
