<svg xmlns="http://www.w3.org/2000/svg" viewBox="0 0 20 20"><path d="M19.2831 7.27559L13.3323 6.41075L10.6722 1.01778C10.5995 0.870126 10.48 0.750595 10.3323 0.677938C9.96199 0.495126 9.51199 0.64747 9.32684 1.01778L6.66668 6.41075L0.715901 7.27559C0.551838 7.29903 0.401838 7.37638 0.286995 7.49356C0.148155 7.63627 0.0716479 7.82825 0.0742847 8.02733C0.0769216 8.22642 0.158487 8.41631 0.301057 8.55528L4.60653 12.7529L3.58934 18.6803C3.56549 18.8182 3.58074 18.96 3.63338 19.0896C3.68602 19.2193 3.77394 19.3316 3.88716 19.4138C4.00038 19.496 4.13437 19.5449 4.27395 19.5549C4.41352 19.5648 4.5531 19.5355 4.67684 19.4701L9.99949 16.6717L15.3222 19.4701C15.4675 19.5475 15.6362 19.5732 15.7979 19.5451C16.2057 19.4748 16.48 19.0881 16.4097 18.6803L15.3925 12.7529L19.6979 8.55528C19.8151 8.44044 19.8925 8.29044 19.9159 8.12638C19.9792 7.71622 19.6932 7.33653 19.2831 7.27559ZM13.5807 12.1623L14.4268 17.0912L9.99949 14.7662L5.57215 17.0936L6.41824 12.1647L2.83699 8.67247L7.78699 7.95294L9.99949 3.46934L12.212 7.95294L17.162 8.67247L13.5807 12.1623Z"/></svg>