<svg viewBox="0 0 14 18" fill="currentColor" xmlns="http://www.w3.org/2000/svg">
<path fill-rule="evenodd" clip-rule="evenodd" d="M2.83317 2.125C2.5569 2.125 2.29195 2.23475 2.0966 2.4301C1.90125 2.62545 1.7915 2.8904 1.7915 3.16667V15.3322L3.31982 14.3133C3.56771 14.148 3.89778 14.1807 4.10845 14.3914L5.33317 15.6161L6.5579 14.3914C6.80197 14.1473 7.1977 14.1473 7.44178 14.3914L8.6665 15.6161L9.89123 14.3914C10.1019 14.1807 10.432 14.148 10.6799 14.3133L12.2082 15.3322V3.16667C12.2082 2.8904 12.0984 2.62545 11.9031 2.4301C11.7077 2.23475 11.4428 2.125 11.1665 2.125H2.83317ZM1.21272 1.54621C1.64249 1.11644 2.22538 0.875 2.83317 0.875H11.1665C11.7743 0.875 12.3572 1.11644 12.787 1.54621C13.2167 1.97598 13.4582 2.55888 13.4582 3.16667V16.5C13.4582 16.7305 13.3313 16.9423 13.1281 17.051C12.9249 17.1598 12.6783 17.1479 12.4865 17.02L10.4128 15.6376L9.10845 16.9419C8.86437 17.186 8.46864 17.186 8.22456 16.9419L6.99984 15.7172L5.77511 16.9419C5.53103 17.186 5.13531 17.186 4.89123 16.9419L3.58687 15.6376L1.51319 17.02C1.32141 17.1479 1.07482 17.1598 0.871593 17.051C0.668369 16.9423 0.541504 16.7305 0.541504 16.5V3.16667C0.541504 2.55888 0.782946 1.97598 1.21272 1.54621Z" fill="currentColor" />
</svg>
