<svg viewBox="0 0 21 21" fill="none" xmlns="http://www.w3.org/2000/svg">
  <path fill-rule="evenodd" clip-rule="evenodd" d="M10.5 7.65625C8.92944 7.65625 7.65625 8.92944 7.65625 10.5C7.65625 12.0706 8.92944 13.3437 10.5 13.3437C12.0706 13.3437 13.3438 12.0706 13.3438 10.5C13.3438 8.92944 12.0706 7.65625 10.5 7.65625ZM6.34375 10.5C6.34375 8.20457 8.20457 6.34375 10.5 6.34375C12.7954 6.34375 14.6562 8.20457 14.6562 10.5C14.6562 12.7954 12.7954 14.6562 10.5 14.6562C8.20457 14.6562 6.34375 12.7954 6.34375 10.5Z" />
  <path fill-rule="evenodd" clip-rule="evenodd" d="M10.5 1.96875C10.8624 1.96875 11.1562 2.26256 11.1562 2.625V3.5C11.1562 3.86244 10.8624 4.15625 10.5 4.15625C10.1376 4.15625 9.84375 3.86244 9.84375 3.5V2.625C9.84375 2.26256 10.1376 1.96875 10.5 1.96875ZM16.564 4.43596C16.8203 4.69224 16.8203 5.10776 16.564 5.36404L15.9515 5.97654C15.6953 6.23282 15.2797 6.23282 15.0235 5.97654C14.7672 5.72026 14.7672 5.30474 15.0235 5.04846L15.636 4.43596C15.8922 4.17968 16.3078 4.17968 16.564 4.43596ZM4.43596 4.43596C4.69224 4.17968 5.10776 4.17968 5.36404 4.43596L5.97654 5.04846C6.23282 5.30474 6.23282 5.72026 5.97654 5.97654C5.72026 6.23282 5.30474 6.23282 5.04846 5.97654L4.43596 5.36404C4.17968 5.10776 4.17968 4.69224 4.43596 4.43596ZM1.96875 10.5C1.96875 10.1376 2.26256 9.84375 2.625 9.84375H3.5C3.86244 9.84375 4.15625 10.1376 4.15625 10.5C4.15625 10.8624 3.86244 11.1562 3.5 11.1562H2.625C2.26256 11.1562 1.96875 10.8624 1.96875 10.5ZM16.8437 10.5C16.8437 10.1376 17.1376 9.84375 17.5 9.84375H18.375C18.7374 9.84375 19.0312 10.1376 19.0312 10.5C19.0312 10.8624 18.7374 11.1562 18.375 11.1562H17.5C17.1376 11.1562 16.8437 10.8624 16.8437 10.5ZM5.97654 15.0235C6.23282 15.2797 6.23282 15.6953 5.97654 15.9515L5.36404 16.564C5.10776 16.8203 4.69224 16.8203 4.43596 16.564C4.17968 16.3078 4.17968 15.8922 4.43596 15.636L5.04846 15.0235C5.30474 14.7672 5.72026 14.7672 5.97654 15.0235ZM15.0235 15.0235C15.2797 14.7672 15.6953 14.7672 15.9515 15.0235L16.564 15.636C16.8203 15.8922 16.8203 16.3078 16.564 16.564C16.3078 16.8203 15.8922 16.8203 15.636 16.564L15.0235 15.9515C14.7672 15.6953 14.7672 15.2797 15.0235 15.0235ZM10.5 16.8437C10.8624 16.8437 11.1562 17.1376 11.1562 17.5V18.375C11.1562 18.7374 10.8624 19.0312 10.5 19.0312C10.1376 19.0312 9.84375 18.7374 9.84375 18.375V17.5C9.84375 17.1376 10.1376 16.8437 10.5 16.8437Z" />
</svg>
