<svg viewBox="0 0 31 25" fill="none" xmlns="http://www.w3.org/2000/svg">
<path fill-rule="evenodd" clip-rule="evenodd" d="M7.33325 1.375C7.33325 0.615608 7.94886 0 8.70825 0H28.8749C29.6343 0 30.2499 0.615608 30.2499 1.375C30.2499 2.13439 29.6343 2.75 28.8749 2.75H8.70825C7.94886 2.75 7.33325 2.13439 7.33325 1.375Z" />
<path fill-rule="evenodd" clip-rule="evenodd" d="M7.33325 12.375C7.33325 11.6156 7.94886 11 8.70825 11H28.8749C29.6343 11 30.2499 11.6156 30.2499 12.375C30.2499 13.1344 29.6343 13.75 28.8749 13.75H8.70825C7.94886 13.75 7.33325 13.1344 7.33325 12.375Z" />
<path fill-rule="evenodd" clip-rule="evenodd" d="M7.33325 23.375C7.33325 22.6156 7.94886 22 8.70825 22H28.8749C29.6343 22 30.2499 22.6156 30.2499 23.375C30.2499 24.1344 29.6343 24.75 28.8749 24.75H8.70825C7.94886 24.75 7.33325 24.1344 7.33325 23.375Z" />
<path fill-rule="evenodd" clip-rule="evenodd" d="M1.375 0C2.13439 0 2.75 0.615608 2.75 1.375V1.39333C2.75 2.15273 2.13439 2.76833 1.375 2.76833C0.615608 2.76833 0 2.15273 0 1.39333V1.375C0 0.615608 0.615608 0 1.375 0Z" />
<path fill-rule="evenodd" clip-rule="evenodd" d="M1.375 11C2.13439 11 2.75 11.6156 2.75 12.375V12.3933C2.75 13.1527 2.13439 13.7683 1.375 13.7683C0.615608 13.7683 0 13.1527 0 12.3933V12.375C0 11.6156 0.615608 11 1.375 11Z" />
<path fill-rule="evenodd" clip-rule="evenodd" d="M1.375 22C2.13439 22 2.75 22.6156 2.75 23.375V23.3933C2.75 24.1527 2.13439 24.7683 1.375 24.7683C0.615608 24.7683 0 24.1527 0 23.3933V23.375C0 22.6156 0.615608 22 1.375 22Z" />
</svg>
