<svg viewBox="0 0 12 10" xmlns="http://www.w3.org/2000/svg">
<path d="M4.46875 2.34255H5.4791V6.96775C5.4791 7.0279 5.52832 7.07712 5.58848 7.07712H6.40879C6.46895 7.07712 6.51816 7.0279 6.51816 6.96775V2.34255H7.53125C7.62285 2.34255 7.67344 2.23728 7.61738 2.16618L6.08613 0.227513C6.0759 0.21444 6.06283 0.203867 6.04791 0.196596C6.03298 0.189326 6.0166 0.185547 6 0.185547C5.9834 0.185547 5.96702 0.189326 5.95209 0.196596C5.93717 0.203867 5.9241 0.21444 5.91387 0.227513L4.38262 2.16482C4.32656 2.23728 4.37715 2.34255 4.46875 2.34255V2.34255ZM11.0039 6.55759H10.1836C10.1234 6.55759 10.0742 6.60681 10.0742 6.66697V8.77243H1.92578V6.66697C1.92578 6.60681 1.87656 6.55759 1.81641 6.55759H0.996094C0.935937 6.55759 0.886719 6.60681 0.886719 6.66697V9.374C0.886719 9.61599 1.08223 9.8115 1.32422 9.8115H10.6758C10.9178 9.8115 11.1133 9.61599 11.1133 9.374V6.66697C11.1133 6.60681 11.0641 6.55759 11.0039 6.55759Z" />
</svg>
