<svg viewBox="0 0 56 57" fill="none" xmlns="http://www.w3.org/2000/svg">
<g clip-path="url(#clip0_546_1964)">
<path d="M16.3324 42.6679C13.4212 42.6679 10.6291 41.5617 8.57055 39.5926C6.51197 37.6236 5.35547 34.9529 5.35547 32.1682C5.35547 29.3835 6.51197 26.7129 8.57055 24.7438C10.6291 22.7747 13.4212 21.6685 16.3324 21.6685C17.02 18.6053 19.0315 15.9134 21.9243 14.185C23.3567 13.3292 24.9624 12.7357 26.6496 12.4383C28.3369 12.141 30.0727 12.1457 31.758 12.4521C33.4432 12.7585 35.0449 13.3606 36.4716 14.2241C37.8983 15.0877 39.122 16.1956 40.0729 17.4848C41.0238 18.7739 41.6833 20.219 42.0137 21.7376C42.3441 23.2561 42.3389 24.8183 41.9984 26.335H44.3317C46.4976 26.335 48.5747 27.1954 50.1062 28.7269C51.6378 30.2584 52.4981 32.3356 52.4981 34.5015C52.4981 36.6674 51.6378 38.7445 50.1062 40.276C48.5747 41.8075 46.4976 42.6679 44.3317 42.6679H41.9984" stroke="#3349C5" stroke-width="4.66654" stroke-linecap="round" stroke-linejoin="round"/>
<path d="M21 35.6688L27.9998 28.6689L34.9996 35.6688" stroke="#3349C5" stroke-width="4.66654" stroke-linecap="round" stroke-linejoin="round"/>
<path d="M28 28.6689V49.6684" stroke="#3349C5" stroke-width="4.66654" stroke-linecap="round" stroke-linejoin="round"/>
</g>
<defs>
<clipPath id="clip0_546_1964">
<rect width="55.9985" height="55.9985" fill="white" transform="translate(0 0.668945)"/>
</clipPath>
</defs>
</svg>
