<svg viewBox="0 0 60 60" xmlns="http://www.w3.org/2000/svg">
<path fill-rule="evenodd" clip-rule="evenodd" d="M30 60C46.6251 60 60 46.6251 60 30C60 13.3749 46.6251 0 30 0C13.3749 0 0 13.3749 0 30C0 46.6251 13.3749 60 30 60ZM38.2499 34.7499C38.2499 30.375 35.6249 28.875 30.3749 28.2501C26.6249 27.75 25.8749 26.7501 25.8749 24.9999C25.8749 23.2497 27.125 22.125 29.6249 22.125C31.8749 22.125 33.125 22.875 33.7499 24.75C33.875 25.125 34.25 25.3749 34.625 25.3749H36.6248C37.1249 25.3749 37.4999 24.9999 37.4999 24.5001V24.375C36.9998 21.6249 34.7498 19.5 31.8749 19.2501V16.2501C31.8749 15.75 31.4999 15.375 30.875 15.2499H29C28.4999 15.2499 28.1249 15.6249 27.9998 16.2501V19.125C24.2498 19.6251 21.875 22.125 21.875 25.2501C21.875 29.3751 24.3749 30.9999 29.6249 31.6251C33.125 32.25 34.25 33 34.25 35.0001C34.25 37.0002 32.4998 38.3751 30.125 38.3751C26.8748 38.3751 25.7498 36.9999 25.3748 35.1249C25.25 34.6251 24.875 34.3749 24.5 34.3749H22.3748C21.875 34.3749 21.5 34.7499 21.5 35.25V35.3751C21.9998 38.4999 23.9999 40.7499 28.1249 41.3751V44.3751C28.1249 44.8749 28.4999 45.2499 29.1248 45.375H30.9998C31.4999 45.375 31.8749 45 32 44.3751V41.3751C35.75 40.7499 38.2499 38.1249 38.2499 34.7499ZM12.5001 23.8749C8.8749 33.5001 13.875 44.3751 23.625 47.8749C24 48.1251 24.375 48.6249 24.375 48.9999V50.7501C24.375 51 24.375 51.1251 24.2499 51.2499C24.1251 51.75 23.625 51.9999 23.1249 51.75C16.125 49.5 10.7499 44.1249 8.4999 37.125C4.7499 25.2501 11.25 12.6249 23.1249 8.87486C23.25 8.75006 23.4999 8.75006 23.625 8.75006C24.1251 8.87486 24.375 9.24986 24.375 9.74996V11.4999C24.375 12.1251 24.1251 12.5001 23.625 12.75C18.5001 14.625 14.3751 18.6249 12.5001 23.8749ZM35.7501 9.37496C35.8749 8.87486 36.375 8.62496 36.8751 8.87486C43.7499 11.1249 49.2501 16.5 51.5001 23.625C55.2501 35.4999 48.75 48.1251 36.8751 51.8751C36.75 51.9999 36.5001 51.9999 36.375 51.9999C35.8749 51.8751 35.625 51.5001 35.625 51V49.2501C35.625 48.6249 35.8749 48.2499 36.375 48C41.4999 46.125 45.6249 42.1251 47.4999 36.8751C51.1251 27.2499 46.125 16.3749 36.375 12.8751C36 12.6249 35.625 12.1251 35.625 11.625V9.87506C35.625 9.62486 35.625 9.50006 35.7501 9.37496Z" />
</svg>
