<svg xmlns="http://www.w3.org/2000/svg" width="20" height="20" fill="none" viewBox="0 0 20 20"><path fill="#595959" d="M18.9059 16.0938H17.0309V14.2188C17.0309 14.1157 16.9465 14.0313 16.8434 14.0313H15.7184C15.6153 14.0313 15.5309 14.1157 15.5309 14.2188V16.0938H13.6559C13.5528 16.0938 13.4684 16.1782 13.4684 16.2813V17.4063C13.4684 17.5094 13.5528 17.5938 13.6559 17.5938H15.5309V19.4688C15.5309 19.5719 15.6153 19.6563 15.7184 19.6563H16.8434C16.9465 19.6563 17.0309 19.5719 17.0309 19.4688V17.5938H18.9059C19.009 17.5938 19.0934 17.5094 19.0934 17.4063V16.2813C19.0934 16.1782 19.009 16.0938 18.9059 16.0938ZM6.75357 9.68131C6.73248 9.47741 6.72076 9.27116 6.72076 9.06256C6.72076 8.68991 6.75592 8.32662 6.82154 7.97272C6.83795 7.88834 6.79342 7.80162 6.71607 7.76647C6.39732 7.6235 6.10436 7.42662 5.85123 7.17819C5.55296 6.88899 5.31826 6.54078 5.16209 6.1558C5.00591 5.77082 4.93171 5.35751 4.9442 4.94225C4.96529 4.18991 5.26764 3.47506 5.79498 2.936C6.37389 2.34303 7.15201 2.01959 7.97935 2.02897C8.72701 2.036 9.44889 2.32428 9.99498 2.83522C10.1801 3.00866 10.3395 3.20084 10.4731 3.40709C10.52 3.47975 10.6114 3.51022 10.6911 3.48209C11.1036 3.33912 11.5395 3.23834 11.9872 3.19147C12.1184 3.17741 12.1934 3.03678 12.1348 2.91959C11.3731 1.41256 9.81686 0.371937 8.01686 0.343812C5.41998 0.303968 3.25436 2.43444 3.25436 5.03131C3.25436 6.50319 3.9317 7.81569 4.99342 8.67584C4.24811 9.02037 3.56139 9.49616 2.96607 10.0915C1.6817 11.3735 0.955137 13.0657 0.908262 14.8727C0.907636 14.8977 0.912024 14.9226 0.921166 14.9459C0.930308 14.9692 0.94402 14.9904 0.961494 15.0083C0.978968 15.0263 0.99985 15.0405 1.02291 15.0502C1.04597 15.0599 1.07074 15.0649 1.09576 15.0649H2.41061C2.51139 15.0649 2.59576 14.9852 2.59811 14.8844C2.64264 13.5251 3.19342 12.2524 4.16139 11.2868C4.85045 10.5977 5.6942 10.1196 6.61529 9.88756C6.70436 9.86178 6.76529 9.77506 6.75357 9.68131ZM17.3122 9.06256C17.3122 6.4985 15.252 4.41491 12.6973 4.37506C10.1004 4.33522 7.93717 6.46569 7.93717 9.06256C7.93717 10.5344 8.61686 11.8469 9.67623 12.7071C8.9232 13.0561 8.23768 13.5354 7.65123 14.1227C6.36686 15.4047 5.64029 17.0969 5.59342 18.9016C5.59279 18.9266 5.59718 18.9515 5.60632 18.9748C5.61546 18.9981 5.62918 19.0193 5.64665 19.0372C5.66412 19.0552 5.68501 19.0694 5.70807 19.0791C5.73112 19.0888 5.7559 19.0938 5.78092 19.0938H7.09342C7.1942 19.0938 7.27857 19.0141 7.28092 18.9133C7.32545 17.554 7.87623 16.2813 8.8442 15.3157C9.85436 14.3055 11.195 13.7501 12.6247 13.7501C15.2122 13.7501 17.3122 11.6524 17.3122 9.06256ZM14.7458 11.1837C14.1786 11.7508 13.4262 12.0626 12.6247 12.0626C11.8231 12.0626 11.0708 11.7508 10.5036 11.1837C10.2205 10.9021 9.9969 10.5666 9.84593 10.197C9.69496 9.82742 9.61972 9.43129 9.62467 9.03209C9.6317 8.26334 9.93873 7.52037 10.4754 6.96959C11.0379 6.39303 11.7903 6.07194 12.5942 6.06256C13.3887 6.05553 14.1598 6.36491 14.727 6.92037C15.3083 7.48991 15.627 8.25162 15.627 9.06256C15.6247 9.86412 15.313 10.6165 14.7458 11.1837Z"/></svg>