<svg viewBox="0 0 20 20" xmlns="http://www.w3.org/2000/svg">
<path d="M18.9079 16.0933H17.0329V14.2183C17.0329 14.1152 16.9485 14.0308 16.8454 14.0308H15.7204C15.6172 14.0308 15.5329 14.1152 15.5329 14.2183V16.0933H13.6579C13.5547 16.0933 13.4704 16.1777 13.4704 16.2808V17.4058C13.4704 17.5089 13.5547 17.5933 13.6579 17.5933H15.5329V19.4683C15.5329 19.5714 15.6172 19.6558 15.7204 19.6558H16.8454C16.9485 19.6558 17.0329 19.5714 17.0329 19.4683V17.5933H18.9079C19.011 17.5933 19.0954 17.5089 19.0954 17.4058V16.2808C19.0954 16.1777 19.011 16.0933 18.9079 16.0933ZM6.75553 9.68082C6.73443 9.47692 6.72271 9.27067 6.72271 9.06207C6.72271 8.68942 6.75787 8.32614 6.8235 7.97223C6.8399 7.88785 6.79537 7.80114 6.71803 7.76598C6.39928 7.62301 6.10631 7.42614 5.85318 7.1777C5.55492 6.8885 5.32021 6.5403 5.16404 6.15531C5.00787 5.77033 4.93366 5.35703 4.94615 4.94176C4.96725 4.18942 5.26959 3.47457 5.79693 2.93551C6.37584 2.34254 7.15396 2.0191 7.98131 2.02848C8.72896 2.03551 9.45084 2.32379 9.99693 2.83473C10.1821 3.00817 10.3415 3.20035 10.4751 3.4066C10.5219 3.47926 10.6133 3.50973 10.693 3.4816C11.1055 3.33864 11.5415 3.23785 11.9891 3.19098C12.1204 3.17692 12.1954 3.03629 12.1368 2.9191C11.3751 1.41207 9.81881 0.371448 8.01881 0.343323C5.42193 0.30348 3.25631 2.43395 3.25631 5.03082C3.25631 6.5027 3.93365 7.8152 4.99537 8.67535C4.25006 9.01989 3.56334 9.49567 2.96803 10.091C1.68365 11.373 0.95709 13.0652 0.910215 14.8722C0.909589 14.8972 0.913977 14.9221 0.923119 14.9454C0.932262 14.9687 0.945974 14.9899 0.963447 15.0079C0.980921 15.0258 1.0018 15.04 1.02486 15.0497C1.04792 15.0594 1.07269 15.0644 1.09772 15.0644H2.41256C2.51334 15.0644 2.59771 14.9847 2.60006 14.8839C2.64459 13.5246 3.19537 12.2519 4.16334 11.2863C4.8524 10.5972 5.69615 10.1191 6.61725 9.88707C6.70631 9.86129 6.76725 9.77457 6.75553 9.68082V9.68082ZM17.3141 9.06207C17.3141 6.49801 15.254 4.41442 12.6993 4.37457C10.1024 4.33473 7.93912 6.4652 7.93912 9.06207C7.93912 10.5339 8.61881 11.8464 9.67818 12.7066C8.92515 13.0557 8.23964 13.5349 7.65318 14.1222C6.36881 15.4043 5.64225 17.0964 5.59537 18.9011C5.59475 18.9261 5.59913 18.951 5.60828 18.9743C5.61742 18.9976 5.63113 19.0188 5.6486 19.0368C5.66608 19.0547 5.68696 19.0689 5.71002 19.0786C5.73308 19.0883 5.75785 19.0933 5.78287 19.0933H7.09537C7.19615 19.0933 7.28053 19.0136 7.28287 18.9129C7.3274 17.5535 7.87818 16.2808 8.84615 15.3152C9.85631 14.305 11.1969 13.7496 12.6266 13.7496C15.2141 13.7496 17.3141 11.6519 17.3141 9.06207ZM14.7477 11.1832C14.1805 11.7504 13.4282 12.0621 12.6266 12.0621C11.8251 12.0621 11.0727 11.7504 10.5055 11.1832C10.2225 10.9016 9.99886 10.5661 9.84788 10.1965C9.69691 9.82693 9.62167 9.4308 9.62662 9.03161C9.63365 8.26286 9.94068 7.51989 10.4774 6.96911C11.0399 6.39254 11.7922 6.07145 12.5962 6.06207C13.3907 6.05504 14.1618 6.36442 14.729 6.91989C15.3102 7.48942 15.629 8.25114 15.629 9.06207C15.6266 9.86364 15.3149 10.616 14.7477 11.1832V11.1832Z" />
</svg>
