<svg xmlns="http://www.w3.org/2000/svg" fill="none" viewBox="0 0 23 23"><path fill="#FFD666" d="M4.79156 18.2083H18.2082C18.5209 18.2061 18.8284 18.1275 19.1037 17.9792C19.379 17.8309 19.6139 17.6175 19.7878 17.3576C19.9617 17.0977 20.0693 16.7992 20.1014 16.4881C20.1334 16.177 20.0888 15.8628 19.9716 15.5729L13.1674 3.83334C13.0016 3.53376 12.7587 3.28405 12.4637 3.11017C12.1688 2.93628 11.8327 2.84457 11.4903 2.84457C11.1479 2.84457 10.8118 2.93628 10.5169 3.11017C10.222 3.28405 9.97898 3.53376 9.81323 3.83334L3.00906 15.5729C2.89401 15.8562 2.84838 16.1629 2.876 16.4673C2.90362 16.7718 3.00367 17.0653 3.16781 17.3232C3.33196 17.5812 3.55542 17.7961 3.81955 17.9501C4.08368 18.104 4.38082 18.1926 4.68615 18.2083"/><path fill="#FFD666" fill-rule="evenodd" d="M9.78681 1.87186C10.3029 1.56757 10.8912 1.40707 11.4903 1.40707C12.0895 1.40707 12.6777 1.56757 13.1938 1.87186C13.7053 2.1734 14.1274 2.60523 14.4173 3.12316L21.2153 14.8521C21.2491 14.9105 21.2788 14.9712 21.3041 15.0338C21.5094 15.5411 21.5874 16.091 21.5313 16.6353C21.4752 17.1797 21.2868 17.7021 20.9825 18.157C20.6782 18.6118 20.2672 18.9853 19.7854 19.2448C19.3035 19.5043 18.7656 19.642 18.2183 19.6458L18.2082 19.6459V19.6458H4.79156C4.77424 19.6458 4.757 19.6455 4.73982 19.6449C4.69766 19.6465 4.65507 19.6461 4.61213 19.6439C4.07781 19.6164 3.55783 19.4614 3.09559 19.192C2.63336 18.9225 2.2423 18.5464 1.95505 18.095C1.6678 17.6436 1.4927 17.13 1.44438 16.5972C1.39605 16.0643 1.47589 15.5277 1.67724 15.032C1.7024 14.97 1.73184 14.9099 1.76536 14.8521L8.56335 3.12316C8.85321 2.60523 9.27537 2.1734 9.78681 1.87186ZM4.74377 16.7716C4.75964 16.7711 4.77557 16.7708 4.79156 16.7708H18.2015C18.2785 16.7698 18.3542 16.7501 18.422 16.7136C18.4908 16.6765 18.5496 16.6232 18.593 16.5582C18.6365 16.4932 18.6634 16.4186 18.6714 16.3408C18.6771 16.2856 18.6732 16.23 18.6599 16.1765L11.9237 4.55418L11.9096 4.52927C11.8681 4.45437 11.8074 4.39194 11.7337 4.34847C11.6599 4.305 11.5759 4.28207 11.4903 4.28207C11.4047 4.28207 11.3207 4.305 11.247 4.34847C11.1732 4.39194 11.1125 4.45437 11.071 4.52927L11.0569 4.55418L4.32005 16.1777C4.307 16.2297 4.30275 16.2837 4.30762 16.3375C4.31453 16.4136 4.33954 16.487 4.38058 16.5515C4.42161 16.616 4.47748 16.6697 4.54351 16.7082C4.6048 16.7439 4.67321 16.7656 4.74377 16.7716Z" clip-rule="evenodd"/><path fill="#2C3E50" fill-rule="evenodd" d="M11.5 7.1875C12.2939 7.1875 12.9375 7.90908 12.9375 8.79919V10.9481C12.9375 11.8382 12.2939 12.5598 11.5 12.5598C10.7061 12.5598 10.0625 11.8382 10.0625 10.9481V8.79919C10.0625 7.90908 10.7061 7.1875 11.5 7.1875ZM11.5 13.6343C12.2939 13.6343 12.9375 14.3559 12.9375 15.246V15.2567C12.9375 16.1468 12.2939 16.8684 11.5 16.8684C10.7061 16.8684 10.0625 16.1468 10.0625 15.2567V15.246C10.0625 14.3559 10.7061 13.6343 11.5 13.6343Z" clip-rule="evenodd"/></svg>