<svg xmlns="http://www.w3.org/2000/svg" fill="none" viewBox="0 0 29 29"><path d="M18.0412 12.547H14.6994V8.75212C14.6994 8.62751 14.5974 8.52556 14.4728 8.52556H12.7736C12.649 8.52556 12.547 8.62751 12.547 8.75212V12.547H9.20525C9.08064 12.547 8.97869 12.649 8.97869 12.7736V14.4728C8.97869 14.5974 9.08064 14.6994 9.20525 14.6994H12.547V18.4943C12.547 18.6189 12.649 18.7209 12.7736 18.7209H14.4728C14.5974 18.7209 14.6994 18.6189 14.6994 18.4943V14.6994H18.0412C18.1658 14.6994 18.2677 14.5974 18.2677 14.4728V12.7736C18.2677 12.649 18.1658 12.547 18.0412 12.547ZM26.0842 24.5549L21.9494 20.4201C25.4073 16.2032 25.1666 9.95574 21.2131 6.00505C17.0217 1.81082 10.2135 1.81082 6.00505 6.00505C1.81082 10.2135 1.81082 17.0217 6.00505 21.2131C9.95574 25.1666 16.2032 25.4073 20.4201 21.9494L24.5549 26.0842C24.6455 26.1635 24.7899 26.1635 24.8664 26.0842L26.0842 24.8664C26.1635 24.7899 26.1635 24.6455 26.0842 24.5549ZM19.7121 19.7121C16.3476 23.0737 10.8988 23.0737 7.53435 19.7121C4.17273 16.3476 4.17273 10.8988 7.53435 7.53435C10.8988 4.17273 16.3476 4.17273 19.7121 7.53435C23.0737 10.8988 23.0737 16.3476 19.7121 19.7121Z"/></svg>