<svg xmlns="http://www.w3.org/2000/svg" viewBox="0 0 1962.02 1910.92"><defs><style>.light-bottom-1{opacity:.8}.light-bottom-2{fill:#bcbcbc}.light-bottom-3{fill:#f0f0f0}.light-bottom-4{fill:#e6e6e6}.light-bottom-5{fill:#d3d3d3}.light-bottom-6{fill:#dbdbdb}.light-bottom-7{fill:#e0e0e0}.light-bottom-8{fill:#e9e9e9}.light-bottom-9{fill:#ccc}.light-bottom-10{fill:#d2d2d2}</style></defs><g id="Layer_2" data-name="Layer 2"><g id="Layer_2-2" data-name="Layer 2"><g class="light-bottom-1"><g class="light-bottom-1"><path d="M1773.94,1267.62c9.54,2.58,16,2.36,20.28.1a12,12,0,0,0,4.92-4.83,22,22,0,0,0,2.31-7.44c1.69-11.25-1.79-27.92-3-43.66-2.54,3.93-5.24,7.75-8,11.59C1785.22,1238.42,1779.86,1253.23,1773.94,1267.62Z" class="light-bottom-2"/><path d="M1790.42,1223.38c2.77-3.84,5.47-7.66,8-11.59a103.46,103.46,0,0,1-.38-11.53c-1.22,3.84-2.45,7.74-3.71,11.61Z" class="light-bottom-2"/><path d="M1755.21,1260.7a136.14,136.14,0,0,0,18.73,6.92c5.92-14.39,11.28-29.2,16.48-44.24A196.31,196.31,0,0,1,1755.21,1260.7Z" class="light-bottom-2"/><path d="M1798.05,1200.26c1.29-4.08,2.57-8.34,3.85-12.54q.94-3.17,1.88-6.3c.61-2.12,1.17-4.26,1.72-6.37a28.16,28.16,0,0,0-3.43,5.51,31.91,31.91,0,0,0-2.28,6.06A57.68,57.68,0,0,0,1798.05,1200.26Z" class="light-bottom-2"/><path d="M1402.47,721.88c4.49,8.52,8.78,17.52,13.14,26.33l1.63,3.31,1.6,3.4,3.2,6.79c2.13,4.55,4.28,9,6.39,13.61l6.29,13.88,3.15,6.93,3.11,7.08,6.21,14.14,6.16,14.4c8.11,19.07,16.66,39.49,23.7,57.57s12.81,34.73,17.07,49.55a248.05,248.05,0,0,1,8.31,38.57c1.2,10.68,1,19,0,25.22l-.15,1.18,0,.58-.15.58c-.18.77-.34,1.53-.47,2.29a9.16,9.16,0,0,1-.22,1.17l-.31,1.27c-.2.84-.37,1.68-.52,2.52-1,3.67-1.82,7.46-3.24,12l-.48,1.68c-.17.56-.27,1.08-.5,1.71q-.61,1.81-1.17,3.63l-.55,1.83-.69,2c-.46,1.31-.9,2.61-1.32,3.92s-1,2.78-1.52,4.16l-.75,2.1-.38,1.06-.44,1.11c-1.2,3-2.2,5.86-3.58,9.09l10.57-8.27,9.91-7.82,4.81-3.86,4.54-3.69,4.42-3.68,4.3-3.67c5.37-4.68,10.66-9.53,15-14.08l1.68-1.76.84-.89.74-.84c1-1.15,2-2.3,3-3.44a36.78,36.78,0,0,0,2.73-3.57q1.29-1.81,2.55-3.68a60.67,60.67,0,0,0,9.22-26.89c1.17-10,.09-21.14-2.56-32.59l-1-4.3c-.37-1.44-.85-2.93-1.29-4.39l-1.38-4.4-.72-2.19-.83-2.25c-1.12-3-2.27-6-3.5-9s-2.7-6.09-4.11-9.11a336.62,336.62,0,0,0-21.25-37.37c-2.1-3.21-4.21-6.4-6.37-9.59s-4.48-6.53-6.77-9.77c-4.62-6.52-9.44-13.05-14.29-19.5-9.76-12.79-19.87-25.24-30.23-37.19C1445.19,764.81,1423.6,742.58,1402.47,721.88Z" class="light-bottom-3"/><path d="M1386.26,1246.92l-5.17,8c-1.74,2.65-3.55,5.25-5.32,7.88l-5.32,7.87-2.65,3.94-2.73,3.88L1354.16,1294,1343,1309.32q-22.59,30.48-46.78,59.58a379.38,379.38,0,0,0,52-55A279.94,279.94,0,0,0,1386.26,1246.92Z" class="light-bottom-4"/><path d="M1415.38,722.84c21.19,21.24,42.82,43.92,63.55,68.24,2.59,3,5.19,6,7.75,9.15l7.62,9.38,7.53,9.45,7.37,9.7q3.66,4.86,7.26,9.77c2.38,3.26,4.67,6.48,7,9.75s4.47,6.43,6.64,9.65l3.23,4.82,3,4.72a309.57,309.57,0,0,1,20.82,37.3,177.07,177.07,0,0,1,12.41,35.77,99.08,99.08,0,0,1,1.89,32.82l-.54,3.8c-.1.62-.19,1.26-.31,1.88l-.45,1.8c-.64,2.39-1.26,4.78-2,7.08s-1.86,4.44-2.86,6.6a25.39,25.39,0,0,1-1.74,3.1c-.62,1-1.25,2-1.89,3l-1.2,1.95c-.43.64-.93,1.28-1.39,1.92l-2.83,3.76c-.45.6-1,1.25-1.53,1.9s-1.08,1.27-1.61,1.91l-1.62,1.89c-.54.62-1.06,1.23-1.69,1.89l-3.59,3.85c-.62.64-1.16,1.23-1.84,1.9l-2,2-3.95,3.85-4.26,4-2.12,1.94-2.28,2-4.53,4-4.82,4.12-4.93,4.13-5,4.16-5.29,4.33-10.84,8.78c-4.38,10.6-9.65,22.18-15.63,34.6l-4.64,9.48-4.9,9.82-10.42,20.21q-21.2,40.33-45.08,79a1311.07,1311.07,0,0,1-105.28,146.74c-3,5.83-6.35,11.38-9.79,16.87q-2.6,4.11-5.28,8.13c-1.83,2.65-3.72,5.26-5.63,7.84-3.85,5.15-7.7,10.29-11.9,15.1q-3.11,3.65-6.3,7.21l-3.2,3.54c-1.08,1.18-2.17,2.37-3.21,3.42-2.09,2.14-4.24,4.34-6.34,6.36s-4.14,3.89-6.23,5.79c-2,1.75-4,3.46-6.09,5.16-.51.44-1,.82-1.49,1.19l-1.48,1.13-3,2.24a93.55,93.55,0,0,1-21.58,12.17l-2.27,1.72c-.39.32-.72.5-1.07.74l-1,.68c-.68.47-1.35.94-2,1.42s-1.2.69-1.79,1.06-1.18.78-1.71,1.06-1.19.63-1,.42l0-.08s-.06,0-.12,0l-.19,0a4.79,4.79,0,0,0-.7.16,26.91,26.91,0,0,1-5.38.83,31.7,31.7,0,0,1-5.15-.41h-.29l-.32-.1a2.51,2.51,0,0,0-.59-.1h-.15l-.26,0-.52-.06-1.83.05c-.73,0-1.45,0-2.18,0s-1.41,0-2.31,0c-1.72-.06-3.27,0-5.3-.1-7.62-.2-17.3-.72-28.86-1.77s-25.58-2.78-38.75-4.52q-39.94-5.55-79.54-14.93a893,893,0,0,1-297.84-132.15A858.22,858.22,0,0,1,610.3,1210l-7.15-7.24-6.95-7.4-7-7.39-6.74-7.57-6.77-7.55-6.53-7.64c-2.24-2.54-4.25-5.08-6.36-7.61s-4.24-5.06-6.18-7.58l-6-7.54L545,1135c-2-2.5-3.71-5-5.51-7.45l-2.71-3.71-1.35-1.85-1.26-1.84-5.11-7.34-4.79-7.26c-.78-1.21-1.64-2.42-2.37-3.61l-2.22-3.59-2.23-3.57-1.13-1.77-1-1.77c-1.37-2.35-2.75-4.7-4.14-7s-2.53-4.62-3.83-6.92c-.62-1.15-1.31-2.3-1.89-3.43l-1.72-3.4-1.75-3.37-.88-1.69c-.28-.55-.52-1.11-.78-1.66-1-2.21-2.09-4.42-3.16-6.61s-1.86-4.33-2.84-6.48c-.46-1.07-1-2.14-1.42-3.2l-1.23-3.16-1.27-3.14-.65-1.56-.53-1.54q-1.07-3.08-2.22-6.12c-.69-2-1.24-4-1.92-6-.31-1-.7-2-1-3l-.8-3.1q-.82-3.09-1.74-6.15a27.09,27.09,0,0,1-.78-3.22l-.73-3.31c-.48-2.22-1.07-4.35-1.56-6.63s-.81-4.73-1.26-7.08-1-4.64-1.27-7.25a476.47,476.47,0,0,1-5-68.66c-.27-25.81,1.26-54.8,4-86.17.62-7.34.89-22.7,1.08-43.41,0-5.22,0-10.7.06-16.39s0-11.86,0-18c0-3-.05-6.09-.08-9.18s-.1-6.06-.15-9.12-.15-5.94-.23-8.93q-.13-4.24-.29-8.5c-.12-2.75-.25-5.5-.37-8.25s-.3-5.32-.46-8q-.21-3.72-.5-7.41l-.59-7.06c-.21-2.26-.45-4.51-.7-6.73q-.33-3.07-.75-6.1c-.15-1-.29-2-.44-3s-.28-1.85-.43-2.76c-.29-1.8-.62-3.58-1-5.34-.18-.84-.36-1.68-.53-2.5s-.37-1.57-.55-2.33q-.57-2.33-1.23-4.56c-.23-.78-.42-1.38-.64-2.06s-.45-1.3-.68-2c-.47-1.28-1-2.54-1.5-3.77s-1.06-2.27-1.62-3.33-1.16-2-1.79-3-1.28-1.91-2-2.8c-.35-.46-.69-.86-1-1.24s-.7-.76-1.07-1.12c-4.2-10.54-8.22-19.78-11.72-28.75l-12.06-7.19q-.51.69-1.05,1.35c-.32.52-.65,1.06-1,1.58-.67,1.06-1.41,2-2.16,3.11s-1.4,2.38-2.15,3.56c-.37.61-.78,1.13-1.14,1.81l-1.08,2a121.06,121.06,0,0,0-8.62,19.08q-.94,2.9-1.9,5.79c-.33.94-.6,2-.88,3.08l-.83,3.2c-.27,1.06-.55,2.13-.82,3.2s-.48,2.29-.72,3.43q-.69,3.48-1.31,7c-.37,2.5-.7,5-1,7.57-.14,1.29-.31,2.51-.42,3.87l-.31,4.08c-.08,1.37-.17,2.74-.25,4.11s-.14,2.74-.17,4.23c-.06,2.91-.09,5.85-.06,8.8-2.31,14-.66,29.7,1.05,46.42.83,8.34,1.74,16.94,2.15,25.4.1,2.11.17,4.23.21,6.33s.08,4.13.06,6.18a119,119,0,0,1-.72,12.25q-1.47,13.43-2.92,26.67-.66,6.45-1.32,12.86c-.44,4.26-.94,8.58-1.29,12.68-.75,8.28-1.68,16.67-2.24,24.61-.33,4-.67,8-1,12s-.49,7.81-.74,11.7c-1.06,15.64-1.4,30.47-1.47,45.06,0,1.86.06,3.58.09,5.37l.14,5.32.14,5.33c.05,1.78.06,3.59.21,5.27.24,3.44.47,6.87.71,10.31l.35,5.16.58,5,1.17,10c.16,1.69.48,3.25.75,4.85s.55,3.19.83,4.79l.84,4.8c.28,1.59.51,3.24.92,4.73.73,3.06,1.46,6.12,2.2,9.2.37,1.52.71,3.08,1.11,4.59l1.38,4.39,2.75,8.8a20.7,20.7,0,0,0,.78,2.13l.83,2.09,1.67,4.17c.55,1.4,1.11,2.79,1.66,4.19.29.69.53,1.41.86,2.08l1,2a196.64,196.64,0,0,0,19,32.51A251.34,251.34,0,0,0,467.06,1111a29.15,29.15,0,0,1,5.29,4.87,35.16,35.16,0,0,1,2.21,2.9c.73,1,1.44,2.08,2.11,3.2a52.38,52.38,0,0,1,3.54,7.2c1.08,2.57,2.18,5.3,3.1,8.17,1.78,5.76,3.7,12.05,5.23,18.71.88,3.32,1.77,6.72,2.62,10.18.43,1.74.85,3.49,1.28,5.23l1.44,5.27c3.67,14.12,8.38,28.53,14.65,40.85,1.61,3.08,3.3,6,5.08,8.79a66,66,0,0,0,5.8,7.68,56.54,56.54,0,0,0,6.48,6.39,36.49,36.49,0,0,0,7.26,4.82q6.21,5.36,12.15,10.8c2,1.85,4,3.57,6,5.36s4,3.57,6,5.37l5.85,5.41,5.91,5.3c3.93,3.54,7.71,7.18,11.58,10.72s7.72,7,11.5,10.63l2.82,2.69,2.88,2.62,5.7,5.27c7.47,7.16,15.15,14,22.55,21.12L637.35,1341l5.58,5.25,5.67,5.14q5.65,5.13,11.24,10.35,5.71,5,11.37,10.15l5.65,5.1,5.75,5,11.46,10,11.63,9.77c1.94,1.62,3.85,3.3,5.82,4.88l5.91,4.75c4,3.15,7.86,6.38,11.85,9.5l12.06,9.2c2,1.52,4,3.11,6.06,4.57l6.16,4.42c4.12,2.94,8.21,5.93,12.38,8.8l12.63,8.42c2.12,1.39,4.21,2.83,6.36,4.16l6.46,4c4.33,2.63,8.64,5.32,13,7.86s8.84,5,13.3,7.4c2.23,1.21,4.44,2.47,6.71,3.61l6.81,3.42c4.56,2.25,9.11,4.54,13.74,6.67s9.33,4.11,14,6.11c2.36,1,4.69,2,7.08,2.93l7.18,2.72a375.87,375.87,0,0,0,59.51,17.1,632.47,632.47,0,0,0,94.6,9.07c29.61.72,57.55-.23,85-1.49,6.86-.41,13.77-.69,20.54-1s13.18-.74,19.25-1.18c12.21-.85,23.17-1.83,32.66-2.81,1.26-.08,2.3-.27,3.45-.39s2.26-.24,3.39-.34,2.08-.28,3.12-.4,2.16-.18,3.06-.34l1.43-.19,1.2-.12c.81,0,1.37-.16,2-.24s1.29-.13,1.94-.15,1.29-.18,2-.23c1.34,0,2.63-.29,4-.33.7,0,1.36-.16,2-.2s1.41-.06,2.11-.14,1.4-.18,2.13-.22c.36,0,.74,0,1.1-.06l1.08-.15c.73-.09,1.49-.13,2.26-.17s1.48-.23,2.26-.3c2.44-1,4.6-3.36,6.56-6l1.34-2.23.66-1.1.57-1.23c.38-.79.77-1.59,1.15-2.39a1.81,1.81,0,0,0,.17-.57l.09-.54.1-.51c0-.1,0-.15.09-.29l.23-.38.89-1.5,1-1.7c.65-1.12,1.3-2.19,2-3.27s1.42-2.38,2.14-3.51l2.25-3.49c.79-1.18,1.58-2.32,2.38-3.41s1.7-2.36,2.56-3.45c.43-.56.87-1.09,1.31-1.61l1.36-1.61c.94-1.09,1.88-2.11,2.84-3.06,7-5.64,14.55-12.34,22.59-20l6.12-5.92,6.32-6.29,13-13.36q25.85-27,50.44-55.45t47.62-58.45c15.43-19.94,30.28-40.4,44.79-61.19s28.43-42.08,42-63.7c6.85-10.78,13.35-21.76,20-32.71l9.68-16.6,2.43-4.14,2.32-4.08c1.53-2.69,3.17-5.48,4.62-8.1l4.49-8,4.3-7.78c1.48-2.62,2.77-5.11,4.16-7.65l2.06-3.81,2-3.72c5.31-10,10.06-19.51,14.4-28.72,2.26-4.65,4.16-9.07,6.22-13.56l2.77-6.53.72-1.64.62-1.58,1.27-3.18c3.34-8.44,6.41-16.62,8.73-24.34a31.28,31.28,0,0,1,1-5.36,26.08,26.08,0,0,1,.92-2.65l.57-1.32c.17-.43.36-.86.55-1.29a44.14,44.14,0,0,1,2.91-5.25c1.09-1.79,2.17-3.62,3.47-5.5.64-.94,1.31-1.89,2-2.86s1.29-2,2-3c1.33-2,2.74-4.15,4.21-6.32s2.71-4.49,4.1-6.81l2.08-3.53c.69-1.19,1.25-2.44,1.88-3.67,1.22-2.48,2.42-5,3.56-7.55s2-5.23,2.84-7.87c.42-1.32.83-2.65,1.2-4s.62-2.7.88-4a78.58,78.58,0,0,0,1.12-8.09,55.34,55.34,0,0,0-.14-8c-.12-1.33-.28-2.64-.49-3.94a38.31,38.31,0,0,0-.94-3.91,45.38,45.38,0,0,0-2.91-7.51,42.35,42.35,0,0,0-4.65-7.06c-12.14-11.17-24-22.45-35.69-34.19s-23.37-24-35-37l-8.72-9.75-8.63-9.85-17-19.48c-11.21-12.87-22.24-25.55-33.34-37.81a11.88,11.88,0,0,1-1.19-6.29,35.21,35.21,0,0,1,1.45-7.94c1.64-5.78,4.38-12.53,6.84-19.76s4.58-14.86,5.06-22.49-.66-15.28-4.94-22.07a341.92,341.92,0,0,0-50-74.68,404,404,0,0,0-61.6-56.46l-4-3.05-2-1.52c-.67-.49-1.36-.95-2-1.43l-8.13-5.64-8-5.61-8.16-5.2c-10.88-7.21-21.13-13.17-31.58-19.13s-20.74-11.61-30.94-17.13-20.21-11-30-16.65c1.12,3.17,2.19,6.41,3.31,9.45s2.22,6,3.33,9.08a425.8,425.8,0,0,1,49.9,44.79c1.91,2.06,3.8,4,5.72,6.11l5.83,6.57,5.85,6.51,1.46,1.63,1.41,1.72,2.82,3.43,5.66,6.81,2.84,3.39c.93,1.15,1.83,2.37,2.75,3.55,3.64,4.78,7.33,9.43,11,14.21,14.38,19.33,28,40,41,61.65l4.89,8.12c.82,1.32,1.61,2.73,2.4,4.13l2.38,4.2,4.76,8.36,2.38,4.17,2.32,4.29,9.27,17.2Z" class="light-bottom-3"/><path d="M1004.19,440.62c10.46-11.27,21.28-20.78,32.17-27.56-20-4.07-43.45-3.43-68.4,2.07s-51.33,15.66-77.76,29.37c-52.84,27.24-101.11,66-138.2,112.09a1130.74,1130.74,0,0,1,128.46-70.73c10.92-5.15,22-10.06,32.95-14.81s21.67-9.05,32.08-12.91C966.3,450.4,986,444.43,1004.19,440.62Z" class="light-bottom-3"/><path d="M1125.52,435.86c-.68-.95-1.32-2-2-3,41,12,81.75,33.57,118.18,61.52q-1.67-4.56-3.33-9.08c-1.12-3-2.19-6.28-3.31-9.45-11.66-6.63-23-13.4-34.16-20.73s-22-15.21-33-24.06l-4.38-3.6c-.74-.6-1.48-1.22-2.23-1.79L1159,424c-3-2.26-6.17-4.56-9.36-6.61-1.3.14-2.62.29-3.94.47l-2,.26-2,.37c-2.65.5-5.31,1.06-8,1.66s-5.31,1.46-8,2.24l-2,.58-2,.69L1118,425l-4.2-5.68a46.36,46.36,0,0,0-35.12-18.48c-13.72-.8-28.63,3.68-42.31,12.18l5.09,1.2c1.68.42,3.33.74,5,1.28l5,1.5,2.42.76c.8.27,1.62.59,2.41.89,12,4,23.34,7.28,34.73,10S1113.75,433.73,1125.52,435.86Z" class="light-bottom-3"/><path d="M1271.3,49.09q8,4.6,15.77,8.83c5.12,2.9,10.15,5.71,15.13,8.4l3.72,2,3.65,2,7.24,3.92L1324,78l7,3.74c4.63,2.46,9.29,4.75,13.79,7.1s9,4.59,13.46,6.76,8.78,4.39,13.15,6.48l6.52,3.09,6.42,3.09c34.19,16.14,66.51,29.84,98.49,45.07,15.92,7.67,31.79,15.64,47.36,24.69,7.84,4.45,15.52,9.28,23.25,14.27,3.85,2.52,7.63,5.17,11.45,7.84l5.71,4.07c1.89,1.38,3.76,2.82,5.64,4.25,3.73,2.88,7.53,5.85,11.18,8.86s7,6,10.49,9.16,6.95,6.36,10.4,9.67q2.6,2.47,5.16,5c1.73,1.7,3.31,3.47,5,5.24,6.53,7.1,13,14.6,19.28,22.52,6.11,8,11.91,16.45,17.62,25.36,4.38,6.36,8.33,12.74,12.46,19s8.27,12.5,12.33,18.67,7.9,12.31,11.89,18.38l6,9.05c1.93,3,3.85,6,5.77,9q5.78,9,11.63,17.78c2,2.93,3.8,5.87,5.69,8.79l5.64,8.72q2.85,4.33,5.69,8.66l2.86,4.31c1,1.44,1.83,2.87,2.75,4.29q5.49,8.58,11.07,17l43.13,66.16,10.46,16.12c1.73,2.68,3.55,5.37,5.23,8l5.11,8,10.3,15.86,10.05,15.71c-11.21-25.88-23.55-52.09-36.63-78.31q-5.05-9.85-10.1-19.71l-2.54-4.92-2.68-4.94-5.36-9.88-5.39-9.86L1768,435.3l-2.85-4.94-11.46-19.74c-15.82-26.31-32.5-52.59-51.37-78.52-9.09-13-19.22-25.84-29.16-38.64-2.44-3.21-5.15-6.36-7.76-9.53l-7.92-9.48c-5.31-6.31-10.53-12.63-16.23-18.81s-11.23-12.38-16.9-18.53c-2.77-3.1-5.84-6.09-8.78-9.12l-8.94-9-9-9-2.25-2.24-2.4-2.28-4.84-4.56c-3.25-3-6.45-6.1-9.77-9l-9.92-8.86c-3.3-3-6.71-5.8-10.09-8.68s-6.75-5.76-10.21-8.55c-6.91-5.59-13.8-11.19-20.92-16.55-14.09-10.88-28.73-21.16-43.64-31.12-7.55-4.89-15-9.83-22.79-14.48-3.86-2.34-7.7-4.7-11.6-7l-11.8-6.77c-2-1.12-3.93-2.25-5.93-3.34l-6-3.25c-4-2.16-8-4.32-12.08-6.43l-12.3-6.18-6.17-3.05-6.27-2.95L1376,58.8l-12.8-5.54-6.42-2.74-6.52-2.61-13.07-5.16-13.3-4.85-6.67-2.39-6.77-2.26-13.58-4.42-13.8-4.11C1285.48,33.25,1283.22,41.68,1271.3,49.09Z" class="light-bottom-5"/><path d="M689.79,372a168.19,168.19,0,0,1,41.33-57.12c19.16-17.54,44.09-33.31,76-45.9,13.59-5.21,27.39-9.71,41.3-13.52s28-6.89,42-9.34c3.53-.59,7-1.21,10.52-1.71L911.47,243c7.06-.86,14-1.66,21-2.21,13.95-1.15,27.72-1.82,41.37-1.82,3.37-.07,6.8,0,10.17,0s6.71.08,10.08.23,6.67.21,10,.38l9.91.6,4.89.29,4.88.42,9.63.79,9.52,1c3.15.33,6.28.57,9.4,1s6.21.74,9.29,1.07l2.31.24,2.3.31,4.59.58c3,.4,6.09.69,9.11,1.09s6,.8,9,1.15l4.49.51,4.48.6c3,.37,5.95.71,8.93,1s5.92.74,8.88,1.05,5.93.54,8.88.91c16.47,2.55,32.9,5.61,49.33,9.07s32.87,7.36,49.32,11.76c4.09,1.15,8.23,2.21,12.34,3.39L1247.9,280l12.32,3.81c4.12,1.29,8.19,2.7,12.31,4q24.62,8.24,49.09,18.22c16.29,6.67,32.51,13.94,48.53,21.93s31.84,16.66,47.38,26.06l5.84,3.53,5.76,3.65,5.78,3.68c1.91,1.24,3.8,2.52,5.7,3.79,7.71,5,14.93,10.37,22.34,15.67l5.53,4c1.84,1.34,3.71,2.66,5.47,4.08l10.7,8.42,10.69,8.51,10.31,8.88c55,47.54,101.41,104.12,134,165.16A487.12,487.12,0,0,1,1678.46,678a445.68,445.68,0,0,1,11.31,49.26q2.06,12.47,3.5,25.08c.92,8.45,1.63,16.92,2,25.52,4.84,63,16.14,124.23,17.65,183.83l.14,5.58.08,2.79,0,2.78q0,5.58,0,11.11c-.34,7.39-.41,14.75-1,22.1q-1.54,22-5.2,44.13c-5,29.48-12.51,59.12-21.75,89s-20.24,60-31.79,90.41-24.12,60.59-37.79,90.57c-27.34,59.92-59.53,118.75-98.68,172.77-15.67,21.56-28.45,50.88-42.5,80-3.55,7.25-7.11,14.53-10.75,21.7-1.87,3.55-3.75,7.09-5.66,10.57s-3.92,6.9-5.92,10.27c-8.07,13.44-17,25.77-26.93,35.69l-6.23,6.17-6.38,6-3.2,3-3.27,2.94-6.55,5.86-6.73,5.69-3.36,2.83c-1.14.94-2.31,1.83-3.46,2.75L1379,1692c-2.36,1.79-4.71,3.48-7.17,5.29a308.08,308.08,0,0,1-61.53,35.14,282.11,282.11,0,0,1-33,11.48l-4.17,1.2-4.22,1-8.42,2c-5.67,1.13-11.29,2.43-17,3.29-11.41,2-22.51,3.23-33.57,4.21-5.52.41-11,.84-16.51,1s-10.92.39-16.36.52c-10.84.11-21.61,0-32.23-.4s-21.15-1-31.58-1.76c-20.82-1.62-41.51-3.58-62-6.32a1141.48,1141.48,0,0,1-121.46-22.56c-3.9-.87-7.63-2-11.27-3.06s-7.14-2.22-10.55-3.39-6.72-2.33-9.89-3.68-6.25-2.67-9.23-4-5.86-2.79-8.66-4.23-5.52-2.89-8.13-4.47c-5.23-3.11-10.15-6.3-14.82-9.56-2.33-1.64-4.61-3.24-6.81-5s-4.35-3.44-6.44-5.18c-4.2-3.47-8.22-7-12.11-10.51-2-1.74-3.86-3.56-5.74-5.39l-5.58-5.46c-3.67-3.63-7.33-7.24-11-10.88-7.27-7.38-14.58-14.71-22.5-21.83-3.92-3.65-8-7.24-12.29-10.77-2.15-1.76-4.35-3.5-6.62-5.22s-4.56-3.53-6.95-5.26c-4.76-3.49-9.81-6.9-15.23-10.21s-11.08-6.8-17.24-10-12.68-6.61-19.74-9.83c-3.52-1.62-7.19-3.18-11-4.8s-7.64-3.29-11.69-4.9a24.67,24.67,0,0,1-5.74-4.54,53.24,53.24,0,0,1-5.74-7.06c-3.77-5.4-7.51-11.87-11.19-18.31-1.85-3.19-3.62-6.49-5.4-9.62s-3.54-6.12-5.3-8.83c-3.53-5.42-7.08-9.69-10.62-12l-15.74-9.09c-5.23-3.07-10.36-6.3-15.55-9.46l-7.77-4.77-7.65-5c-5.08-3.34-10.23-6.61-15.28-10l-15.05-10.38-3.76-2.6c-1.25-.88-2.47-1.79-3.71-2.69l-7.39-5.39c-10-7.1-19.52-14.7-29.23-22.17L507,1415.07c-2.36-2-4.76-3.86-7.09-5.85l-7-6-7-6c-2.33-2-4.66-4-6.9-6.08l-13.61-12.41c-2.29-2-4.48-4.2-6.7-6.33l-6.63-6.39-6.64-6.4c-2.19-2.15-4.32-4.37-6.48-6.55-4.3-4.4-8.65-8.75-12.9-13.19l-12.57-13.52c-16.66-18.14-32.48-36.92-47.28-56.26a656.64,656.64,0,0,1-40.92-59.78c-24.76-41-44.16-84.25-55.74-128.85l-2.18-8.39c-.36-1.4-.75-2.79-1.08-4.2l-.88-4.27-3.55-17.07-2.79-17.32c-.23-1.45-.5-2.88-.68-4.34l-.52-4.38-1-8.77c-.33-2.93-.72-5.83-1-8.77l-.7-8.86-.69-8.86c-.11-1.48-.27-2.94-.32-4.43L254,977.3c-.23-6-.52-11.91-.71-17.88l-.14-18c.13-24.1,1.38-48.43,3.5-72.92s5.32-49.21,9-74l2.85-18.65q1.53-9.37,3.08-18.74c1-6.22,2.14-12.53,3.23-18.79s2.2-12.55,3.35-18.76c4.53-24.9,9.46-48.67,15.37-71.09l1.1-4.21,1.17-4.11,2.34-8.22,2.51-8,1.25-4c.42-1.33.89-2.59,1.33-3.89l2.69-7.71c.9-2.56,1.91-5,2.85-7.49,1.84-5,4-9.71,6-14.48l.76-1.78.83-1.71,1.63-3.41,1.63-3.4c.53-1.15,1.07-2.28,1.67-3.34,2.35-4.3,4.52-8.75,7.06-12.74,1.24-2,2.39-4.13,3.66-6.09l3.86-5.78c.65-1,1.25-1.94,1.92-2.86l2.05-2.71,4-5.42c-26-21.27-53.26-38.78-80.53-51.48-18.53,31-31.93,64.56-42.23,98.93s-17.47,69.66-24.14,104.84c-3.34,17.6-6.44,35.17-9.69,52.75l-4.73,26.43c-1.49,8.83-3.11,17.65-4.56,26.5-5.92,35.4-11.16,71.08-14.66,107.19s-5.22,72.66-4,109.51,5.42,74,13.77,110.57c2.26,9.07,4.31,18.26,7,27.19l1.93,6.73c.64,2.25,1.27,4.5,2,6.7l4.32,13.28c6,17.56,12.66,34.88,20.24,51.56,3.64,8.45,7.73,16.58,11.69,24.8,2,4.07,4.17,8.06,6.26,12.09l3.17,6c1,2,2.18,3.94,3.28,5.92l6.63,11.77c2.27,3.87,4.6,7.69,6.9,11.52l3.47,5.74c1.18,1.9,2.39,3.75,3.58,5.63l7.22,11.2c12.57,20.37,26.1,40,40.36,59l5.35,7.12,5.48,7c3.66,4.66,7.31,9.33,11.11,13.85l11.35,13.65,2.86,3.4,2.93,3.33,5.88,6.66c15.58,17.84,32.14,34.79,49,51.46,17.11,16.38,34.56,32.46,52.78,47.63,18.06,15.38,36.89,29.8,55.92,43.94,19.24,13.84,38.73,27.38,58.81,40l7.51,4.76c2.51,1.58,5,3.2,7.55,4.7l15.25,9.14c2.55,1.51,5.08,3.06,7.64,4.53l7.74,4.39,15.48,8.74C644.54,1667,665.55,1678,687,1688.07c5.37,2.51,10.69,5.13,16.09,7.55l16.24,7.25c2.71,1.19,5.4,2.42,8.13,3.59l8.2,3.44,16.4,6.86,16.54,6.52c5.52,2.16,11,4.38,16.6,6.37l16.7,6.13,4.17,1.54,4.21,1.44,8.41,2.88c5.62,1.9,11.21,3.9,16.85,5.72l17,5.4,8.48,2.7,8.54,2.52,17.08,5,17.18,4.71c5.73,1.55,11.44,3.19,17.22,4.58l17.3,4.34,4.32,1.09,4.35,1,8.69,2c5.81,1.3,11.59,2.72,17.41,4l17.49,3.64,8.75,1.82,8.78,1.64,17.58,3.31,17.66,3c5.89,1,11.77,2,17.69,2.85l17.75,2.62,4.44.67,4.45.57,8.91,1.13c6,.74,11.86,1.57,17.86,2.27l9,1,9.14.94c12.25,1.22,24.73,2.29,37.58,2.95,6.36.41,12.93.56,19.44.81,6.62.07,13.18.25,19.95.12s13.55-.31,20.4-.57c1.71-.06,3.46-.21,5.19-.31l5.28-.36c1.8-.13,3.57-.23,5.4-.4l5.47-.54a385.36,385.36,0,0,0,41.05-6.46l10.23-2.34c1.71-.37,3.4-.85,5.09-1.3l5.08-1.39c6.82-1.77,13.48-4.06,20.23-6.23a359.38,359.38,0,0,0,39.37-16.53c6.49-3.07,12.75-6.59,19.09-10,1.59-.85,3.14-1.77,4.69-2.7l4.65-2.78,4.65-2.81c1.56-.94,3.07-1.87,4.64-2.92l9.13-6,2.18-1.44,2.1-1.48,4.21-3,4.2-3c1.4-1,2.81-2,4.13-3l8.09-6.12c2.73-2,5.26-4.13,7.87-6.22s5.22-4.18,7.73-6.29c5-4.24,10.07-8.5,14.79-12.8l7.19-6.48,7-6.51,3.46-3.27,3.35-3.27,6.71-6.55,6.48-6.56,3.24-3.29,3.15-3.27,6.27-6.56,6.1-6.52,3-3.27,3-3.25,5.88-6.51,11.72-13.08,11.44-13.32c3.81-4.45,7.63-8.89,11.3-13.45,7.41-9.07,14.85-18.11,22-27.41l10.7-13.91,10.38-14.12c7-9.37,13.54-19,20.16-28.58,3.34-4.77,6.5-9.66,9.69-14.51l9.5-14.6,9.14-14.77c3-4.94,6.08-9.83,8.94-14.84l8.63-15c1.42-2.5,2.87-5,4.25-7.5s2.74-5,4.1-7.56a128.49,128.49,0,0,1-17.82-9A205.11,205.11,0,0,0,1694,1405a246,246,0,0,0,18.35-17.3c3.41-7,6.63-14,9.9-21,1.27-8.94,3.87-17,10-22.36-3.14,7.46-6.6,15-10,22.36a86.31,86.31,0,0,0-.87,11c23.13-27.3,40-59.55,52.37-93.15,3-8.43,5.83-16.93,8.46-25.43,1.32-4.22,2.53-8.63,3.74-12.93s2.33-8.72,3.43-13.1c4.38-17.57,8-35.49,10.93-53.34s5.08-35.76,6.81-53.11,2.86-34.34,4-50.45q.36-6.09.82-12,.3-6,.72-11.71l.45-5.7q.18-2.85.36-5.66c.27-3.74.6-7.41,1-11s.6-7.21,1-10.72.87-7,1.29-10.35c.84-6.8,2.18-13.35,3.41-19.63.58-2.7,1.14-5.43,1.68-8.17s1.1-5.52,1.46-8.24q1.21-8.21,2.21-16.62c.5-5.51.9-11.07,1.24-16.69.2-2.83.25-5.57.3-8.35s.07-5.57.1-8.36a385.16,385.16,0,0,0-5.91-65.79,473.39,473.39,0,0,0-15.3-61.91c-6.26-19.82-13.47-38.81-21.14-57l-2.9-6.77c-1-2.27-2-4.51-2.93-6.69-2-4.4-4-8.83-6-13.17-4.06-8.67-8.17-17.31-12.46-25.94s-8.77-17.25-13.35-25.86-9.34-17.18-14.22-25.74a1114.29,1114.29,0,0,0-65-100.79,1140,1140,0,0,0-76.49-94.6,1180.46,1180.46,0,0,0-85-85.11q-11.19-9.8-22.11-19.52L1473,324.5c-3.77-3.19-7.61-6.27-11.37-9.41-15.16-12.4-30.37-24.22-45.53-35.61-30.28-22.81-60.51-43.62-90-63.9q-23.2-14.09-47.69-25.92L1266,183.91l-12.48-5.37c-4.14-1.82-8.41-3.4-12.62-5.06l-6.34-2.45c-2.12-.79-4.27-1.54-6.41-2.3-4.29-1.49-8.53-3-12.87-4.42l-13-4.05c-4.35-1.3-8.75-2.46-13.13-3.67s-8.8-2.27-13.23-3.31c-8.82-2.17-17.79-3.87-26.71-5.56-9-1.47-18-2.94-27-3.91l-6.78-.78c-2.25-.27-4.54-.41-6.81-.61-4.54-.36-9.07-.74-13.61-1s-9.11-.38-13.65-.53l-3.41-.11-3.42,0h-6.83l-6.81,0c-2.27,0-4.55.15-6.82.23-4.54.19-9.07.37-13.59.66-9.06.73-18.07,1.45-27,2.72-9,1.06-17.85,2.71-26.68,4.31-4.37.87-8.69,1.83-13,2.78-2.17.46-4.29,1-6.4,1.52l-6.33,1.6a452.75,452.75,0,0,0-48,15.48c-15.21,5.85-29.54,12.35-43.17,19.22s-26.49,14.16-38.61,21.73-23.65,15.39-34.49,23.4c-5.39,4-10.72,8-15.84,12.15l-7.66,6.17-7.51,6.29C726,292.79,692.2,330.53,665.12,371.2c4.23-.15,8.39-.19,12.51-.05S685.82,371.58,689.79,372Z" class="light-bottom-6"/><path d="M783.26,479.75c10.83,3.88,20.31,7.12,27.82,9.56a322.77,322.77,0,0,1,35.09-54c6.88-8.58,14.21-17,22-25.12s16-16,24.52-23.58,17.43-14.72,26.69-21.5a327.21,327.21,0,0,1,28.86-19,316.09,316.09,0,0,1,31-15.94A279.65,279.65,0,0,1,1012.12,318c5.62-1.77,11.32-3.07,17.06-4.52,2.88-.64,5.79-1.19,8.7-1.78,1.46-.28,2.91-.59,4.37-.85l4.42-.69a275.45,275.45,0,0,1,35.89-3.33l9.1-.17,9.12.2c3,0,6.1.25,9.15.43s6.1.31,9.15.67l9.14.94c3,.36,6.09.83,9.13,1.25l4.57.66,4.54.81c3,.56,6.07,1,9.09,1.68,12.08,2.44,24,5.61,35.86,9.18s23.4,7.91,34.78,12.6a457.74,457.74,0,0,1,65.09,33.53c7.38,4,14.56,17,21.42,32.64s13.36,34.11,20.93,49.57a130.9,130.9,0,0,0,20.24,18.82q2.63,2,5.34,3.76c1.8,1.24,3.61,2.49,5.45,3.65,3.69,2.32,7.47,4.43,11.34,6.38,15.34,7.94,31.75,13.74,47.83,20,8.17,3,15.94,6.4,23.66,9.93q2.88,1.35,5.72,2.74c1.88.93,3.78,1.86,5.57,2.91,3.61,2.05,7.13,4.21,10.54,6.51a122.79,122.79,0,0,1,9.85,7.34,94,94,0,0,1,8.69,8.6,89.34,89.34,0,0,1,7.58,9.8,55.85,55.85,0,0,1,3.22,5.48q1.5,2.85,2.82,5.89c31.94,69.91,58.12,140.78,84.25,212.56l9.77,27,4.82,13.38,4.69,13.23c6.15,17.53,11.87,34.65,16.85,51.36,10,33.41,16.81,65.15,18.7,94.27l.21,2.73c.08.91.15,1.82.15,2.71l.14,5.37c0,1.78.19,3.57.15,5.33l-.09,5.24c0,1.75,0,3.49-.06,5.23l-.3,5.2-.13,2.6c0,.86-.08,1.73-.19,2.62l-.49,5.26a326.23,326.23,0,0,1-7.39,43.42c-7,29.78-18.28,61.15-31.79,93.81-1.71,4.1-3.37,8.17-5.17,12.33s-3.51,8.27-5.39,12.44l-5.51,12.51-2.74,6.26-2.85,6.22c-3.82,8.27-7.49,16.62-11.47,24.83l-5.84,12.37c-1,2.07-2,4.12-3,6.16l-3,6.14q-24,49.15-51.12,96.93t-57.33,93.77L1432,1466.76l-15.77,22.62-8.06,11.19c-2.7,3.72-5.32,7.51-8.11,11.17l-8.25,11.07-4.12,5.54c-1.38,1.86-2.76,3.62-4.13,5.43-11,14.39-21.95,28.15-33.06,40.73a399.62,399.62,0,0,1-33.87,34.44c-.72.67-1.44,1.29-2.17,1.89l-2.15,1.82c-1.33,1.13-2.55,2.25-4,3.4l-4.24,3.35-2.12,1.69c-.7.58-1.45,1.07-2.18,1.61-2.93,2.11-5.81,4.33-8.88,6.26l-4.54,3-4.69,2.79c-3.08,2-6.36,3.56-9.57,5.32-1.59.92-3.26,1.64-4.91,2.43s-3.3,1.6-5,2.35l-5.08,2.12c-.85.35-1.69.73-2.54,1.07l-2.59,1-5.18,1.92-5.27,1.7-2.64.87c-.88.28-1.77.5-2.66.76l-5.35,1.51c-1.79.49-3.61.88-5.41,1.34s-3.58.92-5.47,1.27l-5.74,1.17c-1.92.43-3.95.7-5.93,1.06s-4,.72-6,1l-6.11.85c-2,.32-4.12.52-6.19.76l-6.26.69-6.36.54-3.18.28-3.23.2-6.48.41-6.56.28c-4.36.23-8.83.27-13.27.39-8.94.12-18,.17-27.21-.09l-13.8-.37-6.91-.19L1090,1665c-9.2-.52-18.42-.88-27.61-1.73l-13.81-1.11c-4.61-.37-9.19-1-13.79-1.41A963,963,0,0,1,925,1642.64c-4.56-.94-9.06-2.12-13.58-3.2l-13.56-3.32c-9-2.35-18-4.86-27-7.32l-13.39-4-6.69-2c-2.23-.67-4.46-1.34-6.67-2.09l-13.28-4.41c-4.42-1.47-8.86-2.91-13.23-4.55-15.94-6.22-8.86-23.87-3-44,3-10.05,5.63-20.8,5.23-31a40,40,0,0,0-3.24-14.78,35,35,0,0,0-4-6.81,48.75,48.75,0,0,0-5.88-6.39c-27.1-16-53.24-31.09-78.27-46.48s-48.91-31.13-71.1-48.29-42.62-35.75-60.36-56.65-32.8-44-43.61-70.22a9.59,9.59,0,0,0-.79-3.68,11.46,11.46,0,0,0-2.07-3.25,24,24,0,0,0-7.73-5.35,92.52,92.52,0,0,0-11.75-4.34c-4.41-1.41-9.35-2.75-14.66-4.12l-8.23-2.09-8.49-2.35c-5.77-1.63-11.78-3.36-17.76-5.33s-11.88-4.25-17.61-6.77c-2.83-1.28-5.63-2.62-8.37-4s-5.45-2.9-7.95-4.5a263,263,0,0,1-80.32-89.73,268.13,268.13,0,0,1-21.31-51.33l-1-3.24c-.33-1.08-.58-2.16-.87-3.25l-1.67-6.49c-1.2-4.3-2-8.64-2.88-13l-.66-3.22c-.22-1.08-.45-2.15-.59-3.25l-1-6.56-1-6.52-.49-3.25c-.18-1.08-.24-2.22-.36-3.32l-1.34-13.3c-.28-2.18-.37-4.46-.49-6.72l-.39-6.77-.43-6.73c-.14-2.25-.12-4.59-.19-6.87q-.19-6.87-.4-13.73c.12-9.4-.2-18.54.1-28.15l.05-7.11v-3.56l.12-3.63q.21-7.28.26-14.53v-1.82l.07-1.85.11-3.71.16-7.42.06-7.43.19-7.59.09-7.6v-3.81c0-1.26,0-2.54,0-3.84q.13-7.77,0-15.59l-.07-3.91v-4q0-4-.09-8-.23-8.07-.45-16.2c-.16-5.48-.43-11-.78-16.52s-.6-11.27-1.06-17c-3.35-24.77-3.56-50-2-75.53.8-12.63,1.94-25.1,3.46-36.87.72-6,1.61-11.68,2.48-17.46.21-1.45.45-2.85.7-4.24l.73-4.19.74-4.18.36-2.09.41-2a542.22,542.22,0,0,1,14.93-59.3l2-6.59c.72-2.08,1.42-4.19,2.09-6.3.35-1,.64-2.15,1-3.15l1.07-3c.71-2,1.34-4.08,2-6.07s1.42-3.85,2.07-5.82c.34-1,.64-2,1-2.94s.71-1.85,1.06-2.79c.69-1.87,1.31-3.81,1.95-5.72s1.39-3.64,2-5.52q-12.93-10.05-25.87-19.87l-4,5.42-2.05,2.71c-.67.92-1.27,1.91-1.92,2.86l-3.86,5.78c-1.27,2-2.42,4.06-3.66,6.09-2.54,4-4.71,8.44-7.06,12.74-.6,1.06-1.14,2.19-1.67,3.34l-1.63,3.4-1.63,3.41-.83,1.71-.76,1.78c-2,4.77-4.15,9.45-6,14.48-.94,2.5-1.95,4.93-2.85,7.49L303.15,616c-.44,1.3-.91,2.56-1.33,3.89l-1.25,4-2.51,8-2.34,8.22-1.17,4.11-1.1,4.21c-5.91,22.42-10.84,46.19-15.37,71.09q-1.72,9.32-3.35,18.76c-1.09,6.26-2.23,12.57-3.23,18.79s-2.06,12.49-3.08,18.74l-2.85,18.65c-3.64,24.82-6.72,49.51-9,74s-3.37,48.82-3.5,72.92l.14,18c.19,6,.48,11.91.71,17.88l.19,4.48c0,1.49.21,3,.32,4.43l.69,8.86.7,8.86c.29,2.94.68,5.84,1,8.77l1,8.77.52,4.38c.18,1.46.45,2.89.68,4.34l2.79,17.32,3.55,17.07.88,4.27c.33,1.41.72,2.8,1.08,4.2l2.18,8.39c11.58,44.6,31,87.83,55.74,128.85a656.64,656.64,0,0,0,40.92,59.78c14.8,19.34,30.62,38.12,47.28,56.26l12.57,13.52c4.25,4.44,8.6,8.79,12.9,13.19,2.16,2.18,4.29,4.4,6.48,6.55l6.64,6.4,6.63,6.39c2.22,2.13,4.41,4.28,6.7,6.33l13.61,12.41c2.24,2.08,4.57,4.08,6.9,6.08l7,6,7,6c2.33,2,4.73,3.89,7.09,5.85l14.24,11.59c9.71,7.47,19.28,15.07,29.23,22.17l7.39,5.39c1.24.9,2.46,1.81,3.71,2.69l3.76,2.6,15.05,10.38c5,3.4,10.2,6.67,15.28,10l7.65,5,7.77,4.77c5.19,3.16,10.32,6.39,15.55,9.46l15.74,9.09c3.54,2.28,7.09,6.55,10.62,12,1.76,2.71,3.53,5.7,5.3,8.83s3.55,6.43,5.4,9.62c3.68,6.44,7.42,12.91,11.19,18.31a53.24,53.24,0,0,0,5.74,7.06,24.67,24.67,0,0,0,5.74,4.54A232.48,232.48,0,0,1,719,1584.43c2.35,1.45,4.66,2.85,6.9,4.28s4.4,2.89,6.51,4.39c4.21,3,8.15,6.12,12,9.29s7.48,6.34,11,9.68c1.78,1.66,3.52,3.36,5.25,5.08s3.44,3.44,5.16,5.16c3.44,3.43,6.84,7,10.28,10.56l5.18,5.47,2.63,2.76,2.68,2.73c3.61,3.64,7.32,7.36,11.19,11.12,1.94,1.88,3.92,3.77,6,5.67s4.15,3.72,6.31,5.59c4.33,3.73,8.89,7.49,13.77,11.26,2.42,1.91,5,3.71,7.59,5.53s5.33,3.64,8.13,5.46c22.39,14.46,51.12,28.22,90.28,37.74a1142,1142,0,0,0,122.34,22.68l7.68,1c2.56.34,5.14.57,7.71.87l15.42,1.66c5.14.61,10.3,1,15.46,1.42l15.49,1.28c10.37.75,20.79,1.37,31.36,1.72s21.2.51,32,.38c5.4-.12,10.78-.2,16.23-.51,2.72-.14,5.43-.2,8.16-.43l8.21-.59c11-1,22-2.16,33.31-4.16,5.64-.86,11.23-2.11,16.86-3.24,2.8-.62,5.58-1.34,8.38-2l4.19-1c1.39-.36,2.77-.78,4.16-1.17l8.33-2.41,8.24-2.76c1.37-.47,2.76-.9,4.12-1.41l4.08-1.57c2.7-1.06,5.45-2,8.13-3.19l8-3.54c1.33-.61,2.7-1.16,4-1.82l3.94-2c2.62-1.32,5.27-2.62,7.89-4l7.74-4.32,3.87-2.18,3.79-2.33,7.59-4.7,7.43-5,3.72-2.52,3.67-2.68,7.24-5.31,7-5.5,3.49-2.76,3.4-2.85,6.8-5.73,6.62-5.92,3.31-3,3.23-3.05,6.47-6.11,6.32-6.26c9.93-9.92,18.86-22.25,26.93-35.69q3-5.05,5.92-10.27c1.91-3.48,3.79-7,5.66-10.57,3.64-7.17,7.2-14.45,10.75-21.7,14-29.17,26.83-58.49,42.5-80,39.15-54,71.34-112.85,98.68-172.77,13.67-30,26.15-60.28,37.79-90.57s22.5-60.54,31.79-90.41,16.76-59.54,21.75-89q3.61-22.11,5.2-44.13c.63-7.35.7-14.71,1-22.1q0-5.54,0-11.11l0-2.78-.08-2.79-.14-5.58c-1.51-59.6-12.81-120.85-17.65-183.83-.41-8.6-1.12-17.07-2-25.52s-2.13-16.77-3.5-25.08A445.68,445.68,0,0,0,1678.46,678a487.12,487.12,0,0,0-38.82-94.59c-32.58-61-79-117.62-134-165.16l-10.31-8.88-10.69-8.51-10.7-8.42c-1.76-1.42-3.63-2.74-5.47-4.08l-5.53-4c-7.41-5.3-14.63-10.64-22.34-15.67-1.9-1.27-3.79-2.55-5.7-3.79l-5.78-3.68-5.76-3.65-5.84-3.53c-15.54-9.4-31.38-18.06-47.38-26.06s-32.24-15.26-48.53-21.93-32.68-12.73-49.09-18.22c-4.12-1.33-8.19-2.74-12.31-4L1247.9,280l-12.33-3.59c-4.11-1.18-8.25-2.24-12.34-3.39q-24.68-6.6-49.32-11.76c-16.43-3.46-32.86-6.52-49.33-9.07-2.95-.37-5.92-.58-8.88-.91s-5.92-.7-8.88-1.05-6-.65-8.93-1l-4.48-.6-4.49-.51c-3-.35-6-.74-9-1.15s-6.06-.69-9.11-1.09l-4.59-.58-2.3-.31-2.31-.24c-3.08-.33-6.17-.69-9.29-1.07s-6.25-.66-9.4-1l-9.52-1-9.63-.79-4.88-.42-4.89-.29-9.91-.6c-3.31-.17-6.62-.25-10-.38S987.37,239,984,239s-6.8-.12-10.17,0c-13.65,0-27.42.67-41.37,1.82-7,.55-13.93,1.35-21,2.21L901,244.44c-3.54.5-7,1.12-10.52,1.71-14,2.45-28.1,5.55-42,9.34S820.69,263.8,807.1,269c-31.89,12.59-56.82,28.36-76,45.9A168.19,168.19,0,0,0,689.79,372c27.69,3.38,52.13,14.1,73,29.37s38.3,35.16,52.38,57.12C807.24,463.61,794.87,471.75,783.26,479.75Z" class="light-bottom-7"/><path d="M642.13,442.78a802.35,802.35,0,0,0,86,46.66c24.13,11.18,43,18.15,54.88,21.36s16.69,2.54,12.33-1.39c-2.19-1.94-6.72-4.72-13.89-8.05a271,271,0,0,0-30-11.53c5.72-4.2,11.66-8.41,17.12-12.29s10.5-7.33,14.46-10c-14.68-21.57-32.65-40.95-54-55.61s-46.17-24.62-74.07-27.11A180.57,180.57,0,0,0,642.13,442.78Z" class="light-bottom-8"/><path d="M829,494.92c16.27-8.43,32.51-16.41,49-24a422.38,422.38,0,0,1,33.88-28.62,354.7,354.7,0,0,1,35.39-23.76c23.87-14,48.29-23.73,71.79-28.33,1.46-.28,2.93-.58,4.39-.84l4.36-.65c1.45-.19,2.91-.47,4.34-.58l4.31-.41,4.29-.39,4.32-.16c2.88-.09,5.73-.23,8.62-.11a167.17,167.17,0,0,1,34.07,3.91,182.25,182.25,0,0,1,32.41,10.4c2.59,1.17,5.15,2.24,7.69,3.49s5,2.55,7.49,3.84c4.93,2.77,9.72,5.53,14.34,8.68a111.89,111.89,0,0,1,13.1-.65c2.15,0,4.27.16,6.37.29s4.19.32,6.23.62a80.93,80.93,0,0,1,22.81,6.52c13.84,6.4,24.49,16.94,30,31.48,1.13,3.58,2.31,6.95,3.47,10.31s2.31,6.68,3.45,9.91c9.79,5.63,19.81,11.1,30,16.65s20.54,11.2,30.94,17.13,20.7,11.92,31.58,19.13l8.16,5.2,8,5.61,8.13,5.64c.68.48,1.37.94,2,1.43l2,1.52,4,3.05a404,404,0,0,1,61.6,56.46,341.92,341.92,0,0,1,50,74.68c4.28,6.79,5.4,14.47,4.94,22.07s-2.57,15.21-5.06,22.49-5.2,14-6.84,19.76a35.21,35.21,0,0,0-1.45,7.94,11.88,11.88,0,0,0,1.19,6.29c11.1,12.26,22.13,24.94,33.34,37.81l17,19.48,8.63,9.85,8.72,9.75c11.64,13,23.32,25.23,35,37s23.55,23,35.69,34.19a42.35,42.35,0,0,1,4.65,7.06,45.38,45.38,0,0,1,2.91,7.51,38.31,38.31,0,0,1,.94,3.91c.21,1.3.37,2.61.49,3.94a55.34,55.34,0,0,1,.14,8,78.58,78.58,0,0,1-1.12,8.09c-.26,1.34-.5,2.71-.88,4s-.78,2.66-1.2,4c-.87,2.64-1.77,5.29-2.84,7.87s-2.34,5.07-3.56,7.55c-.63,1.23-1.19,2.48-1.88,3.67l-2.08,3.53c-1.39,2.32-2.69,4.63-4.1,6.81s-2.88,4.27-4.21,6.32c-.69,1-1.26,2.06-2,3s-1.36,1.92-2,2.86c-1.3,1.88-2.38,3.71-3.47,5.5a44.14,44.14,0,0,0-2.91,5.25c-.19.43-.38.86-.55,1.29l-.57,1.32a26.08,26.08,0,0,0-.92,2.65,31.28,31.28,0,0,0-1,5.36c-2.32,7.72-5.39,15.9-8.73,24.34l-1.27,3.18-.62,1.58-.72,1.64-2.77,6.53c-2.06,4.49-4,8.91-6.22,13.56-4.34,9.21-9.09,18.73-14.4,28.72l-2,3.72-2.06,3.81c-1.39,2.54-2.68,5-4.16,7.65l-4.3,7.78-4.49,8c-1.45,2.62-3.09,5.41-4.62,8.1l-2.32,4.08-2.43,4.14-9.68,16.6c-6.64,10.95-13.14,21.93-20,32.71-13.54,21.62-27.42,42.92-42,63.7s-29.36,41.25-44.79,61.19-31.32,39.41-47.62,58.45-33.21,37.45-50.44,55.45l-13,13.36-6.32,6.29-6.12,5.92c-8,7.64-15.6,14.34-22.59,20-1,1-1.9,2-2.84,3.06l-1.36,1.61c-.44.52-.88,1-1.31,1.61-.86,1.09-1.73,2.29-2.56,3.45s-1.59,2.23-2.38,3.41l-2.25,3.49c-.72,1.13-1.43,2.3-2.14,3.51s-1.31,2.15-2,3.27l-1,1.7-.89,1.5-.23.38c-.09.14-.05.19-.09.29l-.1.51-.09.54a1.81,1.81,0,0,1-.17.57c-.38.8-.77,1.6-1.15,2.39l-.57,1.23-.66,1.1-1.34,2.23c-2,2.66-4.12,5-6.56,6-.78.07-1.53.17-2.26.3s-1.53.08-2.26.17l-1.08.15c-.36,0-.74,0-1.1.06-.73,0-1.44.12-2.13.22s-1.42.06-2.11.14-1.35.21-2,.2c-1.38,0-2.67.31-4,.33-.66,0-1.3.15-2,.23s-1.3.07-1.94.15-1.21.2-2,.24l-1.2.12-1.43.19c-.9.16-2,.21-3.06.34s-2.07.25-3.12.4-2.26.21-3.39.34-2.19.31-3.45.39c-9.49,1-20.45,2-32.66,2.81-6.07.44-12.56.8-19.25,1.18s-13.68.57-20.54,1c-27.5,1.26-55.44,2.21-85,1.49a632.47,632.47,0,0,1-94.6-9.07,375.87,375.87,0,0,1-59.51-17.1l-7.18-2.72c-2.39-.89-4.72-2-7.08-2.93q-7.05-3-14-6.11c-4.63-2.13-9.18-4.42-13.74-6.67l-6.81-3.42c-2.27-1.14-4.48-2.4-6.71-3.61q-6.69-3.66-13.3-7.4c-4.39-2.54-8.7-5.23-13-7.86l-6.46-4c-2.15-1.33-4.24-2.77-6.36-4.16l-12.63-8.42c-4.17-2.87-8.26-5.86-12.38-8.8l-6.16-4.42c-2.06-1.46-4-3-6.06-4.57l-12.06-9.2c-4-3.12-7.9-6.35-11.85-9.5l-5.91-4.75c-2-1.58-3.88-3.26-5.82-4.88l-11.63-9.77-11.46-10-5.75-5-5.65-5.1q-5.65-5.11-11.37-10.15-5.6-5.2-11.24-10.35l-5.67-5.14-5.58-5.25-11.28-10.41c-7.4-7.11-15.08-14-22.55-21.12l-5.7-5.27-2.88-2.62-2.82-2.69q-5.67-5.37-11.5-10.63c-3.87-3.54-7.65-7.18-11.58-10.72l-5.91-5.3-5.85-5.41c-2-1.8-3.95-3.59-6-5.37s-4.06-3.51-6-5.36q-6-5.44-12.15-10.8a36.49,36.49,0,0,1-7.26-4.82,56.54,56.54,0,0,1-6.48-6.39,66,66,0,0,1-5.8-7.68c-1.78-2.77-3.47-5.71-5.08-8.79-6.27-12.32-11-26.73-14.65-40.85l-1.44-5.27c-.43-1.74-.85-3.49-1.28-5.23-.85-3.46-1.74-6.86-2.62-10.18-1.53-6.66-3.45-13-5.23-18.71-.92-2.87-2-5.6-3.1-8.17a52.38,52.38,0,0,0-3.54-7.2c-.67-1.12-1.38-2.18-2.11-3.2a35.16,35.16,0,0,0-2.21-2.9,29.15,29.15,0,0,0-5.29-4.87,251.34,251.34,0,0,1-27.58-32.33,196.64,196.64,0,0,1-19-32.51l-1-2c-.33-.67-.57-1.39-.86-2.08-.55-1.4-1.11-2.79-1.66-4.19l-1.67-4.17-.83-2.09a20.7,20.7,0,0,1-.78-2.13l-2.75-8.8-1.38-4.39c-.4-1.51-.74-3.07-1.11-4.59-.74-3.08-1.47-6.14-2.2-9.2-.41-1.49-.64-3.14-.92-4.73l-.84-4.8c-.28-1.6-.55-3.19-.83-4.79s-.59-3.16-.75-4.85l-1.17-10-.58-5-.35-5.16c-.24-3.44-.47-6.87-.71-10.31-.15-1.68-.16-3.49-.21-5.27l-.14-5.33-.14-5.32c0-1.79-.14-3.51-.09-5.37.07-14.59.41-29.42,1.47-45.06q.38-5.84.74-11.7c.33-4,.67-8,1-12,.56-7.94,1.49-16.33,2.24-24.61.35-4.1.85-8.42,1.29-12.68s.88-8.56,1.32-12.86Q409,799.44,410.51,786a119,119,0,0,0,.72-12.25c0-2,0-4.1-.06-6.18s-.11-4.22-.21-6.33c-.41-8.46-1.32-17.06-2.15-25.4-1.71-16.72-3.36-32.41-1.05-46.42,0-2.95,0-5.89.06-8.8,0-1.49.09-2.86.17-4.23s.17-2.74.25-4.11l.31-4.08c.11-1.36.28-2.58.42-3.87.31-2.53.64-5.07,1-7.57s.85-4.69,1.31-7c.24-1.14.45-2.38.72-3.43s.55-2.14.82-3.2l.83-3.2c.28-1.06.55-2.14.88-3.08q1-2.9,1.9-5.79A121.06,121.06,0,0,1,425.06,612l1.08-2c.36-.68.77-1.2,1.14-1.81.75-1.18,1.47-2.36,2.15-3.56s1.49-2.05,2.16-3.11c.34-.52.67-1.06,1-1.58s.71-.89,1.05-1.35L389,572l-19.39-15c-.63,1.88-1.31,3.72-2,5.52s-1.26,3.85-1.95,5.72c-.35.94-.7,1.87-1.06,2.79s-.64,2-1,2.94c-.65,2-1.34,3.9-2.07,5.82s-1.31,4.07-2,6.07l-1.07,3c-.37,1-.66,2.11-1,3.15-.67,2.11-1.37,4.22-2.09,6.3l-2,6.59a542.22,542.22,0,0,0-14.93,59.3l-.41,2-.36,2.09-.74,4.18-.73,4.19c-.25,1.39-.49,2.79-.7,4.24-.87,5.78-1.76,11.45-2.48,17.46-1.52,11.77-2.66,24.24-3.46,36.87-1.57,25.53-1.36,50.76,2,75.53q.69,8.54,1.06,17c.35,5.55.62,11,.78,16.52s.3,10.82.45,16.2q.07,4,.09,8v4l.07,3.91q.1,7.81,0,15.59c0,1.3,0,2.58,0,3.84v3.81l-.09,7.6-.19,7.59-.06,7.43-.16,7.42-.11,3.71-.07,1.85V937q0,7.26-.26,14.53l-.12,3.63v3.56l-.05,7.11c-.3,9.61,0,18.75-.1,28.15q.19,6.87.4,13.73c.07,2.28.05,4.62.19,6.87l.43,6.73.39,6.77c.12,2.26.21,4.54.49,6.72l1.34,13.3c.12,1.1.18,2.24.36,3.32l.49,3.25,1,6.52,1,6.56c.14,1.1.37,2.17.59,3.25l.66,3.22c.9,4.31,1.68,8.65,2.88,13l1.67,6.49c.29,1.09.54,2.17.87,3.25l1,3.24a268.13,268.13,0,0,0,21.31,51.33,263,263,0,0,0,80.32,89.73c2.5,1.6,5.22,3.08,7.95,4.5s5.54,2.75,8.37,4c5.73,2.52,11.72,4.74,17.61,6.77s12,3.7,17.76,5.33l8.49,2.35,8.23,2.09c5.31,1.37,10.25,2.71,14.66,4.12a92.52,92.52,0,0,1,11.75,4.34,24,24,0,0,1,7.73,5.35,11.46,11.46,0,0,1,2.07,3.25,9.59,9.59,0,0,1,.79,3.68c10.81,26.18,25.89,49.32,43.61,70.22s38.2,39.49,60.36,56.65,46.06,32.94,71.1,48.29,51.17,30.47,78.27,46.48a48.75,48.75,0,0,1,5.88,6.39,35,35,0,0,1,4,6.81,40,40,0,0,1,3.24,14.78c.4,10.21-2.28,21-5.23,31-5.88,20.16-13,37.81,3,44,4.37,1.64,8.81,3.08,13.23,4.55l13.28,4.41c2.21.75,4.44,1.42,6.67,2.09l6.69,2,13.39,4c9,2.46,18,5,27,7.32l13.56,3.32c4.52,1.08,9,2.26,13.58,3.2a963,963,0,0,0,109.73,18.09c4.6.46,9.18,1,13.79,1.41l13.81,1.11c9.19.85,18.41,1.21,27.61,1.73l6.89.37,6.91.19,13.8.37c9.2.26,18.27.21,27.21.09,4.44-.12,8.91-.16,13.27-.39l6.56-.28,6.48-.41,3.23-.2,3.18-.28,6.36-.54,6.26-.69c2.07-.24,4.17-.44,6.19-.76l6.11-.85c2-.26,4-.66,6-1s4-.63,5.93-1.06l5.74-1.17c1.89-.35,3.65-.84,5.47-1.27s3.62-.85,5.41-1.34l5.35-1.51c.89-.26,1.78-.48,2.66-.76l2.64-.87,5.27-1.7,5.18-1.92,2.59-1c.85-.34,1.69-.72,2.54-1.07l5.08-2.12c1.68-.75,3.32-1.58,5-2.35s3.32-1.51,4.91-2.43c3.21-1.76,6.49-3.35,9.57-5.32l4.69-2.79,4.54-3c3.07-1.93,6-4.15,8.88-6.26.73-.54,1.48-1,2.18-1.61l2.12-1.69,4.24-3.35c1.41-1.15,2.63-2.27,4-3.4l2.15-1.82c.73-.6,1.45-1.22,2.17-1.89a399.62,399.62,0,0,0,33.87-34.44c11.11-12.58,22-26.34,33.06-40.73,1.37-1.81,2.75-3.57,4.13-5.43l4.12-5.54,8.25-11.07c2.79-3.66,5.41-7.45,8.11-11.17l8.06-11.19,15.77-22.62,15.33-22.88q30.27-46,57.33-93.77t51.12-96.93l3-6.14c1-2,2-4.09,3-6.16l5.84-12.37c4-8.21,7.65-16.56,11.47-24.83l2.85-6.22,2.74-6.26,5.51-12.51c1.88-4.17,3.62-8.31,5.39-12.44s3.46-8.23,5.17-12.33c13.51-32.66,24.78-64,31.79-93.81a326.23,326.23,0,0,0,7.39-43.42l.49-5.26c.11-.89.15-1.76.19-2.62l.13-2.6.3-5.2c.07-1.74,0-3.48.06-5.23l.09-5.24c0-1.76-.11-3.55-.15-5.33l-.14-5.37c0-.89-.07-1.8-.15-2.71l-.21-2.73c-1.89-29.12-8.72-60.86-18.7-94.27-5-16.71-10.7-33.83-16.85-51.36l-4.69-13.23-4.82-13.38-9.77-27c-26.13-71.78-52.31-142.65-84.25-212.56q-1.32-3-2.82-5.89a55.85,55.85,0,0,0-3.22-5.48,89.34,89.34,0,0,0-7.58-9.8,94,94,0,0,0-8.69-8.6,122.79,122.79,0,0,0-9.85-7.34c-3.41-2.3-6.93-4.46-10.54-6.51-1.79-1-3.69-2-5.57-2.91s-3.8-1.84-5.72-2.74c-7.72-3.53-15.49-6.95-23.66-9.93-16.08-6.28-32.49-12.08-47.83-20-3.87-1.95-7.65-4.06-11.34-6.38-1.84-1.16-3.65-2.41-5.45-3.65s-3.59-2.44-5.34-3.76a130.9,130.9,0,0,1-20.24-18.82c-7.57-15.46-14-33.87-20.93-49.57s-14-28.66-21.42-32.64a457.74,457.74,0,0,0-65.09-33.53c-11.38-4.69-23-8.88-34.78-12.6s-23.78-6.74-35.86-9.18c-3-.65-6.06-1.12-9.09-1.68l-4.54-.81-4.57-.66c-3-.42-6.08-.89-9.13-1.25l-9.14-.94c-3-.36-6.11-.45-9.15-.67s-6.1-.41-9.15-.43l-9.12-.2-9.1.17a275.45,275.45,0,0,0-35.89,3.33l-4.42.69c-1.46.26-2.91.57-4.37.85-2.91.59-5.82,1.14-8.7,1.78-5.74,1.45-11.44,2.75-17.06,4.52a279.65,279.65,0,0,0-32.89,12.17,316.09,316.09,0,0,0-31,15.94,327.21,327.21,0,0,0-28.86,19q-13.89,10.17-26.69,21.5c-8.52,7.56-16.72,15.39-24.52,23.58s-15.14,16.54-22,25.12a322.77,322.77,0,0,0-35.09,54c5.56,1.83,10,3.23,13.11,4.17Z" class="light-bottom-8"/><path d="M1416.38,1851.09l5.25-2.92,5.16-3.08,10.3-6.24c3.42-2.11,6.75-4.36,10.12-6.57s6.7-4.42,10.06-6.75l10.06-7.23,4.6-3.34,4.39-3.37,8.76-6.78c1.48-1.13,2.84-2.27,4.24-3.41l4.17-3.42a732.57,732.57,0,0,0,59.64-55.22q3.3-3.42,6.62-6.83c2.21-2.29,4.26-4.51,6.4-6.77s4.29-4.53,6.32-6.74l6.12-6.66,3.06-3.33,2.95-3.27,5.9-6.55,11.4-12.92c3.78-4.32,7.64-8.59,11.39-13l11.28-13.18c7.61-8.76,14.94-17.81,22.45-26.79l24.57-31.11c-4.13,5-8.37,9.87-12.56,14.82s-8.38,9.9-12.73,14.74c-8.62,9.74-17.19,19.55-26,29.13-4.41,4.81-8.75,9.68-13.19,14.45l-13.35,14.32c-8.74,9.49-18.18,19.39-27.82,29.5l-7.37,7.65c-2.45,2.55-5.08,5.17-7.6,7.75-5,5.16-10.45,10.48-15.68,15.73l-8.24,8-4.13,4-4.3,4-8.62,8.08-9,8.12c-2.94,2.7-6.11,5.43-9.24,8.14l-4.69,4.07c-1.57,1.36-3.11,2.72-4.78,4.07l-9.83,8.14-2.46,2-2.57,2-5.32,4.17-5.77,4.48c-1.92,1.5-3.74,2.8-5.63,4.2l-11.27,8.22c-3.76,2.72-7.63,5.28-11.45,7.91l-5.75,3.92C1420.3,1848.63,1418.33,1849.84,1416.38,1851.09Z" class="light-bottom-5"/><path d="M1760.55,1481.81c27.62-42.26,55.07-88.75,78.11-132.13,2.87-5.42,5.63-10.82,8.38-16.11s5.48-10.51,8-15.68l7.51-15.2c2.44-5,4.84-9.75,7.14-14.68,4.61-9.65,9-19.15,13-28.14l5.74-13.16q2.7-6.49,5.16-12.4l-9.19,11.41c-3.05,3.69-6.07,7.37-9.07,11.08l-17.69,21.62c-5.77,7.18-11.48,14-17,21.14q-4.17,5.32-8.24,10.72t-8.22,10.83a814.33,814.33,0,0,0-60.71,94.57,262,262,0,0,1,2.33,26.15,147,147,0,0,1-.63,21.92C1764.35,1470.82,1762.92,1477.26,1760.55,1481.81Z" class="light-bottom-5"/><path d="M1060.29,0a603.66,603.66,0,0,0-83.45,11.49,581.67,581.67,0,0,0-79.2,22.61,627.83,627.83,0,0,0-69.31,30.06c-2.74,1.35-5.32,2.73-7.94,4.11l-7.85,4.16c-5.14,2.8-10.15,5.64-15.2,8.49-4.89,2.86-9.8,5.74-14.6,8.65L775.66,94c-2.34,1.46-4.73,2.94-7,4.41-18.41,11.82-35.36,23.87-51.26,36s-31.53,24.87-46.73,38.06a942.58,942.58,0,0,0-86.2,85.07c33.27-21.86,65.76-43.92,98-66.14L730.8,158c16-11.17,32.7-22.73,50.45-34.55S817.78,99.58,838,87.69,879.88,64.06,903.27,53a679,679,0,0,1,75.39-30.52A749.14,749.14,0,0,1,1060.29,0Z" class="light-bottom-9"/><path d="M665.12,371.2C692.2,330.53,726,292.79,765.7,259.06l7.51-6.29,7.66-6.17c5.12-4.11,10.45-8.14,15.84-12.15q16.26-12,34.49-23.4c12.12-7.57,25-14.86,38.61-21.73S897.77,176,913,170.1a452.75,452.75,0,0,1,48-15.48l6.33-1.6c2.11-.54,4.23-1.06,6.4-1.52,4.32-.95,8.64-1.91,13-2.78,8.83-1.6,17.72-3.25,26.68-4.31,9-1.27,18-2,27-2.72,4.52-.29,9-.47,13.59-.66,2.27-.08,4.55-.21,6.82-.23l6.81,0h6.83l3.42,0,3.41.11q6.81.23,13.65.53c4.54.27,9.07.65,13.61,1,2.27.2,4.56.34,6.81.61l6.78.78c9.08,1,18,2.44,27,3.91,8.92,1.69,17.89,3.39,26.71,5.56,4.43,1,8.86,2.08,13.23,3.31s8.78,2.37,13.13,3.67l13,4.05c4.34,1.37,8.58,2.93,12.87,4.42,2.14.76,4.29,1.51,6.41,2.3l6.34,2.45c4.21,1.66,8.48,3.24,12.62,5.06l12.48,5.37,12.31,5.75q24.45,11.81,47.69,25.92c29.54,20.28,59.77,41.09,90,63.9,15.16,11.39,30.37,23.21,45.53,35.61,3.76,3.14,7.6,6.22,11.37,9.41l11.31,9.64q10.92,9.74,22.11,19.52a1180.46,1180.46,0,0,1,85,85.11,1140,1140,0,0,1,76.49,94.6,1114.29,1114.29,0,0,1,65,100.79c4.88,8.56,9.54,17.13,14.22,25.74s9,17.22,13.35,25.86,8.4,17.27,12.46,25.94c2,4.34,4,8.77,6,13.17,1,2.18,2,4.42,2.93,6.69l2.9,6.77c7.67,18.15,14.88,37.14,21.14,57a473.39,473.39,0,0,1,15.3,61.91,385.16,385.16,0,0,1,5.91,65.79c0,2.79-.07,5.58-.1,8.36s-.1,5.52-.3,8.35c-.34,5.62-.74,11.18-1.24,16.69q-1,8.4-2.21,16.62c-.36,2.72-.93,5.5-1.46,8.24s-1.1,5.47-1.68,8.17c-1.23,6.28-2.57,12.83-3.41,19.63q-.63,5.07-1.29,10.35t-1,10.72c-.37,3.6-.7,7.27-1,11q-.18,2.8-.36,5.66l-.45,5.7q-.42,5.74-.72,11.71-.46,5.86-.82,12c-1.1,16.11-2.17,33.14-4,50.45s-3.91,35.2-6.81,53.11-6.55,35.77-10.93,53.34c-1.1,4.38-2.23,8.81-3.43,13.1s-2.42,8.71-3.74,12.93c-2.63,8.5-5.43,17-8.46,25.43-12.37,33.6-29.24,65.85-52.37,93.15-.1,3.82,0,7.71,0,11.57s.11,7.66.12,11.35c0,7.37-.28,14.22-1.68,19.69-2.88,10.89-10.3,16.14-28.63,8.82q-2,3.78-4.1,7.56c-1.38,2.52-2.83,5-4.25,7.5l-8.63,15c-2.86,5-5.94,9.9-8.94,14.84l-9.14,14.77-9.5,14.6c-3.19,4.85-6.35,9.74-9.69,14.51-6.62,9.57-13.19,19.21-20.16,28.58l-10.38,14.12-10.7,13.91c-7.1,9.3-14.54,18.34-22,27.41-3.67,4.56-7.49,9-11.3,13.45L1551,1628.63l-11.72,13.08-5.88,6.51-3,3.25-3,3.27-6.1,6.52-6.27,6.56-3.15,3.27-3.24,3.29-6.48,6.56-6.71,6.55-3.35,3.27-3.46,3.27-7,6.51-7.19,6.48c-4.72,4.3-9.83,8.56-14.79,12.8-2.51,2.11-5.16,4.2-7.73,6.29s-5.14,4.18-7.87,6.22l-8.09,6.12c-1.32,1-2.73,2-4.13,3l-4.2,3-4.21,3-2.1,1.48-2.18,1.44-9.13,6c-1.57,1.05-3.08,2-4.64,2.92l-4.65,2.81-4.65,2.78c-1.55.93-3.1,1.85-4.69,2.7-6.34,3.46-12.6,7-19.09,10a359.38,359.38,0,0,1-39.37,16.53c-6.75,2.17-13.41,4.46-20.23,6.23l-5.08,1.39c-1.69.45-3.38.93-5.09,1.3l-10.23,2.34a385.36,385.36,0,0,1-41.05,6.46l-5.47.54c-1.83.17-3.6.27-5.4.4l-5.28.36c-1.73.1-3.48.25-5.19.31-6.85.26-13.71.57-20.4.57s-13.33,0-19.95-.12c-6.51-.25-13.08-.4-19.44-.81-12.85-.66-25.33-1.73-37.58-2.95l-9.14-.94-9-1c-6-.7-11.91-1.53-17.86-2.27l-8.91-1.13-4.45-.57-4.44-.67-17.75-2.62c-5.92-.81-11.8-1.88-17.69-2.85l-17.66-3-17.58-3.31-8.78-1.64-8.75-1.82-17.49-3.64c-5.82-1.23-11.6-2.65-17.41-4l-8.69-2-4.35-1-4.32-1.09-17.3-4.34c-5.78-1.39-11.49-3-17.22-4.58L886.62,1763l-17.08-5-8.54-2.52-8.48-2.7-17-5.4c-5.64-1.82-11.23-3.82-16.85-5.72l-8.41-2.88-4.21-1.44-4.17-1.54-16.7-6.13c-5.58-2-11.08-4.21-16.6-6.37l-16.54-6.52-16.4-6.86-8.2-3.44c-2.73-1.17-5.42-2.4-8.13-3.59l-16.24-7.25c-5.4-2.42-10.72-5-16.09-7.55-21.47-10-42.48-21-63.32-32.33L608.22,1647l-7.74-4.39c-2.56-1.47-5.09-3-7.64-4.53l-15.25-9.14c-2.55-1.5-5-3.12-7.55-4.7l-7.51-4.76c-20.08-12.59-39.57-26.13-58.81-40-19-14.14-37.86-28.56-55.92-43.94-18.22-15.17-35.67-31.25-52.78-47.63-16.86-16.67-33.42-33.62-49-51.46l-5.88-6.66-2.93-3.33-2.86-3.4L323,1409.44c-3.8-4.52-7.45-9.19-11.11-13.85l-5.48-7-5.35-7.12c-14.26-19-27.79-38.63-40.36-59l-7.22-11.2c-1.19-1.88-2.4-3.73-3.58-5.63l-3.47-5.74c-2.3-3.83-4.63-7.65-6.9-11.52l-6.63-11.77c-1.1-2-2.23-3.92-3.28-5.92l-3.17-6c-2.09-4-4.22-8-6.26-12.09-4-8.22-8.05-16.35-11.69-24.8-7.58-16.68-14.2-34-20.24-51.56L183.94,1163c-.74-2.2-1.37-4.45-2-6.7l-1.93-6.73c-2.69-8.93-4.74-18.12-7-27.19-8.35-36.58-12.53-73.75-13.77-110.57s.5-73.41,4-109.51,8.74-71.79,14.66-107.19c1.45-8.85,3.07-17.67,4.56-26.5l4.73-26.43c3.25-17.58,6.35-35.15,9.69-52.75C203.53,654.2,210.75,619,221,584.54s23.7-67.95,42.23-98.93c-19.9-9.18-40.26-15.11-60.9-16.21a124.88,124.88,0,0,0-30.59,2.19,114.89,114.89,0,0,0-15,4.07,123.08,123.08,0,0,0-14.71,6.13,132.77,132.77,0,0,0-14,8.21c-2.29,1.54-4.65,3.19-6.83,4.9s-4.36,3.49-6.5,5.37-4.27,3.86-6.37,5.91c-1,1-2.1,2.09-3.12,3.15s-2,2.14-2.95,3.24A166.41,166.41,0,0,0,91,526.78q-5.2,7.5-10,16-4.52,8.32-8.46,17.57c-2.5,6.07-4.76,12.4-6.84,19q-1.42,4.86-2.7,9.94c-.43,1.69-.84,3.39-1.24,5.12s-.78,3.47-1.1,5.17c-8.3,26.78-14.88,52.25-20.66,76.16l-4.19,17.64c-1.38,5.85-2.65,11.52-4,17.27-2.62,11.37-5.07,23.07-7.49,34.65-4.71,23.41-9.13,47-12.7,71.33l-1.35,9.08-.67,4.54-.59,4.61Q7.89,844.1,6.73,853.3l-.56,4.6-.49,4.69q-.46,4.68-.94,9.36t-.92,9.36L3.38,886c-.15,1.56-.25,3.17-.37,4.74C2.12,903.43,1.11,916,.73,928.94l-.36,9.64L.2,943.4l-.08,2.41,0,2.45q0,9.81-.09,19.58c0,3.27,0,6.49,0,9.8s.2,6.62.29,9.93c.22,6.61.43,13.21.71,19.83q.7,10.05,1.42,20.08c.25,3.34.51,6.69.76,10s.73,6.76,1.1,10.14q1.17,10.14,2.35,20.25c.18,1.68.45,3.39.72,5.09l.79,5.11,1.62,10.2c2,13.55,5,27.27,7.9,40.87l1.09,5.1,1.3,5.12q1.32,5.13,2.63,10.23t2.69,10.21c.93,3.39,1.75,6.8,2.82,10.17q3.09,10.11,6.26,20.19c2.21,6.65,4.55,13.19,6.86,19.76a744.8,744.8,0,0,0,32.11,75c11.87,23.81,24.72,46.47,38.21,68.13s27.74,42.15,42.4,61.77c7.3,9.89,14.81,19.31,22.31,28.76l11.4,13.84c1.9,2.32,3.83,4.56,5.75,6.8l5.78,6.72,5.8,6.69,5.85,6.54c3.91,4.33,7.76,8.75,11.77,13l11.94,12.72,6,6.33,6.11,6.2c8.18,8.22,16.25,16.54,24.67,24.45l12.55,12c2.07,2,4.22,3.93,6.35,5.87l6.41,5.82a1233.85,1233.85,0,0,0,107,86.66q45.43,25.33,90.89,48.28c30.29,15.34,60.64,29.85,90.86,44l11.33,5.28c3.77,1.77,7.52,3.56,11.33,5.24q11.37,5.12,22.64,10.35c15.16,6.69,30.16,13.59,45.29,20.14l11.28,5,11.33,4.89,11.3,4.94,5.63,2.49,5.67,2.42q11.33,4.82,22.59,9.78c7.56,3.18,15.11,6.37,22.63,9.64-32.57-9.49-65.13-19.74-97.84-30.53l-12.29-4c-4.1-1.35-8.16-2.81-12.25-4.2l-12.3-4.21-6.16-2.09-6.13-2.19-24.62-8.77-24.62-9.15a1315.84,1315.84,0,0,0,230.85,92.17A1352.36,1352.36,0,0,0,1050.23,1905c-2.46-.6-4.94-1.13-7.43-1.65s-5-1.16-7.43-1.8q30.66,3.75,61.75,6.12l7.78.64,8,.52c5.25.37,10.77.65,16.25.94l4.13.21,4.23.17,8.48.34c2.83.1,5.79.15,8.69.23s5.79.16,8.78.18c14.79-1,30.24-2.15,46.19-3.63l12.16-1.26,3-.32,3.12-.38,6.24-.76,6.25-.77c2.08-.25,4.25-.6,6.37-.89l6.55-1c2.26-.34,4.46-.62,6.79-1q27.75-4.47,55.15-11.54l13.63-3.77c4.53-1.29,9-2.78,13.52-4.19,2.25-.73,4.51-1.43,6.75-2.18l6.68-2.37,6.68-2.4,3.34-1.21,3.3-1.32,13.16-5.37c2.21-.88,4.36-1.87,6.52-2.85l6.48-2.94,6.48-3c2.16-1,4.26-2.1,6.39-3.15l12.71-6.49c4.18-2.29,8.33-4.61,12.49-7,2.07-1.18,4.16-2.33,6.21-3.55l6.11-3.72c4.08-2.5,8.13-5,12.2-7.57l12-8c14.57-10,28.46-20.23,41.06-30.49l4.8-3.86,4.61-3.84,9.13-7.72,8.71-7.66,4.32-3.85,4.14-3.8c15.14-14.58,32.89-32.89,50.64-52.32q6.56-7.23,13.46-14.89c2.29-2.55,4.65-5.11,7-7.75l7-8c4.69-5.42,9.55-10.89,14.33-16.54l14.5-17.26c.73-1,1.82-2.65,3.25-4.74l5.13-7.74,6.86-10.3c2.55-3.82,5.38-8,8.31-12.54l9.49-14.45c1.67-2.54,3.43-5.12,5.15-7.8l5.29-8.18,11.22-17.12c3.77-5.91,7.67-11.93,11.65-18s8-12.24,12-18.41l6.08-9.24c2-3.07,4.09-6.13,6.08-9.21q6-9.23,12.12-18.13c2-3,4-5.91,6-8.83s4-5.78,5.93-8.59c15.87-22.5,30.85-42.08,44.23-54l3.78-6.53c1.17-2.12,2.3-4.14,3.38-6.08l5.78-10.47c3.39-6.21,5.91-10.78,7.2-13.5q4.15-7.62,8.31-15.22c2.76-5.08,5.57-10.12,8.22-15.24s5.37-10.19,8.06-15.27l4-7.63q2-3.84,3.91-7.67,3.9-7.68,7.81-15.33l1.95-3.82,2-3.93,3.88-7.87c1.3-2.59,2.59-5.29,3.89-8l3.88-8.1c1.29-2.66,2.58-5.52,3.87-8.28l3.86-8.36c10.26-22.52,20.29-46.63,29.44-72.56a674.55,674.55,0,0,0,23.78-83.7,567.91,567.91,0,0,0,12.2-95.41c.47-8.36.44-16.69.44-25l0-6.26c0-2.1,0-4.18-.12-6.2q-.24-6.14-.5-12.24c-.2-4.07-.35-8.21-.64-12.21s-.65-7.94-1-11.91-.69-8-1.09-11.9-.94-7.71-1.4-11.56a727,727,0,0,0-16.42-86.49c-6.74-26.84-14.35-51.7-22.13-74.88-12.63-25.26-25.15-48.27-36.66-69.72l-8.51-15.91q-4.2-7.87-8.3-15.82l-8.3-16.09c-2.77-5.41-5.43-10.82-8.18-16.31-22-44-43.16-90.69-64.13-142.2-13.7-35.85-34.4-75.17-60-113.54l-4.77-7.18c-1.61-2.39-3.34-4.77-5-7.14q-5.07-7.12-10.22-14.18l-5.16-7c-1.68-2.33-3.58-4.63-5.37-6.94q-5.43-6.91-10.89-13.7c-7.12-9.07-14.88-17.84-22.4-26.39l-5.63-6.37c-1.89-2.1-3.69-4.21-5.67-6.25l-11.55-12.1-11.31-11.66c-1.82-1.92-3.82-3.75-5.71-5.59l-5.69-5.45-11.09-10.5-5.38-5.05-1.32-1.24-1.41-1.26-2.79-2.49-10.84-9.57L1572,182.93l-4.94-4.15-4.82-3.92-9.07-7.34c-5.8-4.64-11.14-8.74-15.78-12.43s-8.75-6.75-12.05-9.41c-6.59-5.32-10.31-8.55-10.23-9.64a733.18,733.18,0,0,0-183.51-90.39q-37.79-6-76.35-8.81t-77.58-2.46c-26,.3-52.2,1.73-78.41,4.46s-52.48,6.79-78.56,12.18c-3.26.68-6.51,1.29-9.76,2l-9.76,2.25-9.73,2.28-9.7,2.52-9.69,2.55c-3.24.83-6.34,1.81-9.52,2.71l-9.46,2.77-9.27,2.91c-24.64,7.83-47.94,16.54-70.05,25.57-44.18,18.14-83.58,37.45-120.6,55-4.13,3.46-8.09,6.92-12.11,10.41l-11.71,10.5-11.54,10.72c-3.81,3.61-7.59,7.26-11.36,10.91q-22.54,22-43.62,45.71c-25.39,28.64-38.8,54.79-43.82,77.69s-1.66,42.67,6.81,59.61A174.38,174.38,0,0,1,665.12,371.2Z" class="light-bottom-10"/></g></g></g></g></svg>