<svg xmlns="http://www.w3.org/2000/svg" viewBox="0 0 1069.63 1039.69"><defs><style>.light-top-1,.light-top-2,.light-top-3,.light-top-4,.light-top-5{opacity:0.8;}.light-top-2{fill:#adadad;}.light-top-3{fill:#cdcdcd;}.light-top-4{fill:#dcdcdc;}.light-top-5{fill:#ededed;}</style></defs><g id="Layer_2" data-name="Layer 2"><g id="Layer_2-2" data-name="Layer 2"><g class="light-top-1"><g class="light-top-1"><path class="light-top-2" d="M56,506.8c6.56-37.87,14-75.37,23.52-112.9s21.25-75.12,36.71-112.74l2.87-7.06,3.13-7L128.62,253c2.07-4.71,4.49-9.36,6.81-14l7.13-14.05c2.46-4.67,5.13-9.3,7.73-14l4-7,2-3.5,1-1.74,1.06-1.73q4.29-6.9,8.68-13.82l4.41-6.91c.73-1.15,1.5-2.29,2.3-3.43l2.37-3.4A524.31,524.31,0,0,1,268.82,66.19a209,209,0,0,1,17-12.48q2.22-1.47,4.49-2.91l2.28-1.42,2.34-1.33c3.15-1.77,6.34-3.48,9.56-5.16s6.48-3.3,9.76-4.9c1.65-.79,3.29-1.59,4.94-2.35l5.07-2.16c6.76-2.84,13.58-5.57,20.37-8.24,2.67-.92,5.39-1.56,8-2.23s5.23-1.23,7.78-1.75c5.1-1.05,10-1.86,14.79-2.5,2.38-.36,4.78-.48,7.12-.68s4.65-.31,6.92-.43c4.56-.23,9-.37,13.34-.48,2.18-.05,4.32-.11,6.46-.13l6.4.05c4.24,0,8.42,0,12.59-.11s8.3-.36,12.47-.67,8.4-.61,12.68-1.22A746.28,746.28,0,0,1,560.88,1.32a869.93,869.93,0,0,1,103.62.5l12.7.71,13.51,1,13.58,1.31c4.56.53,9.09,1,13.65,1.61a539.4,539.4,0,0,1,55.16,10c9.23,2.14,18.5,4.71,27.73,7.45,2.31.7,4.63,1.46,6.94,2.19s4.61,1.44,6.91,2.28c4.62,1.62,9.21,3.17,13.8,5L835.35,36l6.85,2.84,3.41,1.43L849,41.8l6.79,3.07,6.73,3.27,3.36,1.64,3.34,1.74,6.65,3.5,6.58,3.71,3.28,1.86,3.25,2,6.46,3.94c4.25,2.77,8.53,5.45,12.67,8.4,8.36,5.73,16.43,12,24.25,18.44l5.82,4.94,5.67,5.1c1.89,1.68,3.73,3.43,5.55,5.2s3.68,3.5,5.45,5.31c7.17,7.17,13.94,14.68,20.42,22.37s12.47,15.7,18.17,23.83,11,16.49,15.86,24.95a391.78,391.78,0,0,1,25.07,51.91c13.93,35.18,22.75,70.91,28.1,106.2a663.23,663.23,0,0,1,7.13,104.91c-1.19,54.16-9.62,106.58-23.16,156.92a736.06,736.06,0,0,1-56.13,144.57c-23.72,45.89-52.21,89.52-86.52,129.58A559.53,559.53,0,0,1,847.71,936a466.67,466.67,0,0,1-66.32,48.73,404.26,404.26,0,0,1-37.34,20c-3.25,1.48-6.51,3-9.78,4.4l-9.95,4.06-5,2c-.83.33-1.65.68-2.5,1l-2.53.89-10.17,3.55c-1.69.58-3.38,1.18-5.09,1.73l-5.17,1.54-10.34,3c-1.72.53-3.48.93-5.23,1.35l-5.24,1.27c-3.51.82-7,1.72-10.52,2.44a368.55,368.55,0,0,1-42.79,6.26c-3.6.29-7.18.66-10.79.85l-10.84.4-5.41.18-5.43,0-10.85-.16c-1.8,0-3.61-.16-5.42-.26l-5.42-.33-5.42-.35-2.71-.18-2.7-.29c-7.2-.84-14.42-1.47-21.57-2.76l-10.74-1.78-10.67-2.26-5.32-1.16c-1.77-.4-3.52-.9-5.29-1.36L490.64,1026c-1.77-.44-3.49-1-5.23-1.58l-5.21-1.66L475,1021l-2.59-.85-2.57-.95c-6.84-2.57-13.72-5-20.39-8.05-3.35-1.48-6.73-2.86-10-4.44l-9.87-4.86c-1.63-.83-3.29-1.61-4.91-2.48l-4.82-2.67-9.62-5.39-9.37-5.85-4.68-2.94c-1.55-1-3-2.09-4.56-3.14l-9.08-6.35c-3-2.16-5.87-4.5-8.81-6.75-5.92-4.45-11.46-9.4-17.07-14.26l-2.1-1.83-2-1.92-4-3.85-4-3.87c-1.34-1.3-2.7-2.57-3.95-3.94l-7.66-8.15c-1.26-1.37-2.58-2.69-3.78-4.12l-3.62-4.27c-2.41-2.85-4.83-5.7-7.21-8.58l-6.79-8.93-3.37-4.48c-1.11-1.5-2.13-3.07-3.2-4.61l-6.29-9.3c-1.08-1.54-2-3.16-3-4.76l-2.91-4.8-2.9-4.82-1.44-2.41c-.48-.81-.9-1.65-1.35-2.47L281.69,855c-.86-1.66-1.8-3.3-2.59-5L276.71,845,272,834.76c-1.48-3.43-2.84-6.91-4.26-10.38l-2.1-5.21-1-2.61-.91-2.6L260,803.51l-1.79-5.24c-.56-1.76-1.06-3.56-1.58-5.35q-1.55-5.37-3.1-10.75c-1.1-3.56-1.84-7.27-2.72-10.92s-1.69-7.35-2.54-11q-1-5.61-2-11.23c-.63-3.75-1.4-7.48-1.8-11.3q-.75-6.48-1.52-13c-.29-2.15-.42-4.33-.56-6.51l-.42-6.52c-.72-8.7-.58-17.45-.66-26.2.09-4.37.34-8.74.53-13.11l.33-6.56.63-6.53c.45-4.36.83-8.73,1.4-13.07s1.33-8.65,2-13a346.94,346.94,0,0,1,12.6-50.73l2-6.2c.73-2.05,1.5-4.06,2.26-6.09,1.53-4,3-8.12,4.64-12.14,3.43-7.88,6.73-15.92,10.65-23.53,15.05-31,34.3-59.17,56-84.89l8.35-9.41c1.4-1.56,2.78-3.15,4.2-4.69l4.35-4.51c2.9-3,5.8-6,8.75-9l9-8.64c1.52-1.43,3-2.89,4.56-4.29l4.67-4.12c3.13-2.74,6.25-5.52,9.41-8.22l9.67-7.85c1.62-1.3,3.23-2.63,4.87-3.91l5-3.73,10-7.44,10.23-7.05,5.14-3.52,5.23-3.34,10.52-6.64c14.23-8.46,28.75-16.58,43.77-23.65L497.7,327l2.82-1.34,3.3-1.45q6.63-2.85,13.11-5.37c8.67-3.36,17.22-6.32,25.86-9a390.08,390.08,0,0,1,53.38-12.57,318.35,318.35,0,0,1,59.94-4.08,259.36,259.36,0,0,1,34.38,3.33l4.56.79c1.53.28,3.1.61,4.65.93,3.07.6,6.29,1.39,9.45,2.15,6.44,1.66,13,3.52,19.73,5.95l2.52.9,2.56,1,5.12,2c3.49,1.5,6.9,2.93,10.43,4.67a192.09,192.09,0,0,1,91.18,91.42,209,209,0,0,1,9.58,23.74,228.21,228.21,0,0,1,6.25,23c.43,2.32.9,4.72,1.25,7s.69,4.53,1,6.79.52,4.41.76,6.62l.33,3.27.15,1.64.11,1.82q.43,7.29.57,14.56c0,4.83-.21,9.67-.46,14.48A220,220,0,0,1,849.52,564a225.76,225.76,0,0,1-9.7,24.47c-1.83,3.82-3.72,7.62-5.67,11.37s-4,7.18-6.14,10.72a246.3,246.3,0,0,1-60,66.83,255.5,255.5,0,0,1-35.09,22.81,261.44,261.44,0,0,1-38.19,16.72c-3.35,1.11-6.67,2.24-10.08,3.24s-6.87,1.94-10.32,2.85-7.05,1.65-10.59,2.41-7.24,1.36-10.87,2A152.33,152.33,0,0,1,612,725.34c-14-2.64-27.29-7.54-36.55-13.23-5-5.48-8-11.14-7.81-16.43a12.84,12.84,0,0,1,2.8-7.59,20,20,0,0,1,3.52-3.47,16.22,16.22,0,0,1,6.11-3.17,193.61,193.61,0,0,0,34.58-15.17,231.59,231.59,0,0,0,30.48-20.46,270.35,270.35,0,0,0,48.13-49.53,153.66,153.66,0,0,0,18.58-30.87,121,121,0,0,0,9.57-32.23,85.42,85.42,0,0,0-.93-30.37c-.27-1.17-.5-2.32-.79-3.46l-1-3.36a54.52,54.52,0,0,0-2.4-6.41l-.63-1.54-.74-1.57c-.51-1-1-2.09-1.51-3.07s-1-2-1.61-2.92L710,477.74c-4.69-7.14-10.37-12.17-16.11-14.87a37.91,37.91,0,0,0-17.42-3.33,88.35,88.35,0,0,0-18.88,2.76,158.65,158.65,0,0,0-20.74,6.78,228.73,228.73,0,0,0-42.3,22.65,172.4,172.4,0,0,0-18.71,14.49c-1.37,1.26-2.71,2.52-3.94,3.78-.63.63-1.21,1.26-1.78,1.89l-.43.46-.59.56L568,514l-4.71,4.37c-1.56,1.44-3.12,2.86-4.6,4.41a289.61,289.61,0,0,0-32.26,37.51,240.61,240.61,0,0,0-23.33,39.81c-.43.84-.78,1.73-1.13,2.6l-1.09,2.57c-.71,1.71-1.53,3.32-2.2,5s-1.31,3.31-2,4.9l-1,2.36c-.31.79-.59,1.59-.9,2.37q-.88,2.36-1.85,4.59a21.46,21.46,0,0,0-.87,2.26l-.82,2.23c-.54,1.48-1.19,2.89-1.7,4.32s-1,2.86-1.51,4.24l-.82,2-.67,2c-.45,1.36-.92,2.68-1.43,4a14.11,14.11,0,0,0-.66,2q-.3,1-.63,1.92c-.4,1.28-.95,2.51-1.33,3.75s-.74,2.47-1.16,3.67c-.21.6-.43,1.19-.66,1.78l-.51,1.79c-.34,1.18-.72,2.33-1.14,3.47a10.82,10.82,0,0,0-.52,1.71c-.16.58-.32,1.14-.49,1.7-.32,1.13-.79,2.22-1.1,3.33s-.58,2.21-.93,3.29c-.17.54-.36,1.08-.55,1.61s-.26,1.08-.41,1.62c-.27,1.08-.59,2.14-.95,3.2l-.27.79-.17.8c-.12.53-.25,1.06-.4,1.59-.27,1.06-.63,2.11-.94,3.16s-.46,2.13-.74,3.18a27.7,27.7,0,0,0-.83,3.19,182.79,182.79,0,0,0-4.56,27.55l-.22,1.9c0,.64,0,1.29,0,1.94,0,1.3-.08,2.61-.16,3.94a19.19,19.19,0,0,0-.09,2l.07,2c0,1.37.05,2.76.05,4.16a36.93,36.93,0,0,0,.25,4.29c.11,1.44.21,2.9.29,4.38l.05,1.11.13,1,.22,2c.14,1.35.26,2.71.37,4.1a123.37,123.37,0,0,0,8.13,31.53c.93,2.65,2.27,5,3.46,7.6a32,32,0,0,0,2,3.7q1,1.83,2.1,3.72l2.38,3.54a38,38,0,0,0,2.48,3.54c1.81,2.23,3.48,4.67,5.54,6.75,1,1.08,2,2.21,3,3.3l3.24,3.06,1.62,1.57c.54.52,1.15.95,1.73,1.44l3.5,2.88a18.45,18.45,0,0,0,1.83,1.36l1.88,1.31,1.88,1.33a18.88,18.88,0,0,0,1.93,1.27l4,2.36c.68.38,1.32.83,2,1.16l2.1,1,4.16,1.9,4.3,1.59c2.8,1.19,5.78,1.91,8.67,2.83a41.48,41.48,0,0,0,4.42,1.13l4.41,1,4.49.73,2.23.38,1.11.19,1.13.1a128.24,128.24,0,0,0,35.68-.84A134.81,134.81,0,0,0,626,834.89c2.62-1.32,5.24-2.57,7.84-3.83,2.54-1.49,5.08-2.85,7.59-4.29,2.46-1.63,4.92-3.14,7.35-4.71l3.58-2.51,3.56-2.64a228.76,228.76,0,0,0,27.85-25.38q6.79-7.23,13.38-15.23T710,759.54c8.48-11.62,16.65-24.11,24.5-37.36q5.91-9.91,11.59-20.36t11.14-21.38a185.06,185.06,0,0,1,16.08-20.77,225.13,225.13,0,0,1,18.77-18.81c13.16-11.66,27.16-21.54,40.44-27.5a194.49,194.49,0,0,1,30.89-14.21c8.79-3.22,16.31-5.49,23-9a46.2,46.2,0,0,0,18.15-16.74c5.46-8.43,10.43-20.56,14.49-38.73a323.62,323.62,0,0,0,4-69.95,384.06,384.06,0,0,0-9-65.53,443.1,443.1,0,0,0-18.09-60,459.67,459.67,0,0,0-24.3-53.69A187.07,187.07,0,0,0,847.28,247a154.75,154.75,0,0,0-31.73-29A171.68,171.68,0,0,0,775,197.68a229.46,229.46,0,0,0-48.69-10.77c-8.67-1-17.56-1.5-26.6-1.68l-6.81-.06-6.89.14c-2.22,0-4.75.18-7.21.31l-7.39.43a425.13,425.13,0,0,0-58.34,7.34c-9.47,2.14-19.05,4.08-28.26,7l-7,2-3.48,1-3.41,1.2-13.6,4.9a297.33,297.33,0,0,0-51.14,26c-3.09,2.16-6.11,4.41-9.15,6.57s-6.1,4.27-9,6.67l-8.66,6.87c-.71.58-1.45,1.11-2.15,1.72l-2.06,1.82-4.13,3.61L467,266.38l-2,1.77c-.67.6-1.32,1.25-2,1.88l-7.85,7.45c-2.66,2.37-5.08,5.09-7.59,7.63l-3.73,3.82L442,290.82l-.93.95-.9,1q-3.56,4-7.13,7.93c-1.18,1.32-2.42,2.55-3.55,3.92l-3.41,4.09-6.85,8q-3.27,4.22-6.58,8.32l-3.32,4.07-3.17,4.27q-3.18,4.24-6.41,8.39l-6.2,8.62c-2.07,2.87-4.23,5.61-6.19,8.62-16.28,23.26-32,47.28-48.35,72s-33.31,50.17-52.29,75.71q-2.83,3.88-5.72,7.66c-1.92,2.51-3.75,5.09-5.66,7.59s-3.8,5-5.72,7.42-3.9,4.84-5.77,7.3q-5.69,7.31-11.57,14.3c-2,2.32-3.88,4.69-5.81,7s-3.87,4.64-5.82,6.93c-3.92,4.58-7.9,9.08-11.78,13.57l-11.78,13.28-23.47,26c-15.55,17.31-30.88,34.72-45.29,53.61S120.43,710.8,109.16,734c-1.83,4.08-3.68,8.26-5.26,12.55s-3.05,8.67-4.46,13.14-2.49,9.06-3.62,13.71S93.87,782.8,93,787.6a286.47,286.47,0,0,0-3.4,60.63,362,362,0,0,0,8.91,63.95,468.77,468.77,0,0,0,19.68,63.7c3.12,8.43,4.39,16.84,5.08,26.11.43,4.58.88,9.26,1.42,14.18.28,2.46.58,5,1,7.52s1,5.07,1.61,7.68c-1.5-.95-3-1.93-4.53-2.92l-2.27-1.51c-.75-.52-1.48-1.06-2.22-1.59-2.94-2.16-5.9-4.39-8.86-6.72l-4.46-3.55c-1.47-1.21-2.88-2.49-4.32-3.77q-4.31-3.84-8.63-7.94l-2.16-2.06c-.7-.7-1.39-1.42-2.08-2.14l-4.14-4.38c-2.74-3-5.56-6-8.23-9.13s-5.24-6.43-7.85-9.75c-1.29-1.67-2.62-3.34-3.88-5.06L60,965.63c-2.44-3.53-4.9-7.11-7.29-10.78s-4.54-7.47-6.78-11.3c-1.11-1.91-2.27-3.84-3.32-5.8l-3.1-5.92-3.07-6c-1-2-2.06-4-3-6.1q-2.79-6.18-5.5-12.5L26.59,904l-1.24-3.19c-.8-2.15-1.61-4.29-2.42-6.44C19.6,885.76,17,877,14.28,868a397.36,397.36,0,0,1-11-54.6A427,427,0,0,1,0,758.53a446.87,446.87,0,0,1,3.72-53.17C4.24,701,5,696.79,5.62,692.53S7,684,7.83,679.89s1.65-8.3,2.51-12.42,1.89-8.11,2.88-12.13a50.1,50.1,0,0,1,2-6.1,53.89,53.89,0,0,1,2.47-5.16,62.14,62.14,0,0,1,5.67-8.45c4-5,8.43-9.28,12.23-14.92,7.44-19.45,10.94-38.4,13.36-57.37.63-4.72,1.12-9.5,1.66-14.21s1-9.44,1.54-14.16C53.26,525.58,54.34,516.15,56,506.8Z"/><path class="light-top-3" d="M68.42,540.32c1.43-9.37,2.81-18.69,4.37-27.93.76-4.64,1.5-9.26,2.25-13.87l.56-3.47.62-3.46c.41-2.31.83-4.61,1.24-6.91q1.25-6.93,2.47-13.83l.61-3.45.69-3.45q.69-3.45,1.37-6.9,1.38-6.92,2.74-13.8c.43-2.3,1-4.59,1.46-6.89l1.53-6.89c8.09-36.75,18-73.51,31.38-110.34s30.1-73.74,52.08-109.95a513.06,513.06,0,0,1,83.29-103.69q1.78-1.74,3.64-3.44c1.23-1.13,2.56-2.18,3.86-3.25,2.63-2.14,5.33-4.21,8.09-6.24A175.6,175.6,0,0,1,288,81.15c6.06-3.52,12.27-6.87,18.53-10.11s12.89-6,19.34-8.91q3.84-1.44,7.57-2.65c2.51-.76,5-1.41,7.46-2,4.9-1.22,9.64-2.19,14.26-3,2.3-.41,4.58-.77,6.82-1.1s4.51-.5,6.72-.72c4.44-.4,8.76-.7,13-1s8.38-.54,12.49-.75,8.23-.32,12.29-.59a233.55,233.55,0,0,0,24.39-3A695.15,695.15,0,0,1,535.11,29l25.7-2.12,25.48-1.18c16.9-.39,33.68-.64,50.27-.1,4.15.11,8.31.13,12.44.3l12.35.65c8.27.45,16.25.75,25.07,1.46,17.27,1.29,34.68,3.29,52.15,6.2A463.88,463.88,0,0,1,791,46.05c8.72,2.46,17.41,5.38,26.05,8.44,8.63,3.22,17.22,6.56,25.68,10.44A339.29,339.29,0,0,1,891.92,92a316.82,316.82,0,0,1,44,35.46c6.77,6.54,13.28,13.35,19.37,20.46,3.12,3.5,6,7.17,9,10.78s5.72,7.35,8.39,11.14,5.32,7.58,7.92,11.4l3.73,5.81c1.26,1.93,2.45,3.89,3.62,5.86,4.79,7.84,9.13,15.85,13.22,23.93s7.77,16.29,11.26,24.53,6.53,16.58,9.44,24.93a464.69,464.69,0,0,1,14,50.48c7.41,33.8,11.18,67.65,12.61,101.26a579.63,579.63,0,0,1-3.19,77.89,659.21,659.21,0,0,1-12.6,75.34,701.24,701.24,0,0,1-20.56,72.44,724.61,724.61,0,0,1-27.77,69.34,684.54,684.54,0,0,1-76.5,127.86,582.4,582.4,0,0,1-49.48,57,486.74,486.74,0,0,1-58.17,50.28,399.85,399.85,0,0,1-67.9,40.3A349.17,349.17,0,0,1,575.16,1021a347.19,347.19,0,0,1-80.67-12.48,337.68,337.68,0,0,1-76-32.23l-8.89-5.45L405.2,968c-1.46-1-2.88-2-4.33-2.94l-8.61-5.93c-2.83-2-5.58-4.22-8.37-6.33-5.63-4.15-10.88-8.82-16.24-13.36l-2-1.72-1.93-1.8-3.84-3.62-3.83-3.63c-1.28-1.21-2.57-2.42-3.77-3.71L345,917.34c-1.2-1.3-2.48-2.53-3.61-3.89l-3.46-4c-2.31-2.69-4.63-5.37-6.9-8.09l-6.51-8.42-3.25-4.23c-1.06-1.43-2-2.91-3.06-4.36l-6.06-8.8c-1-1.45-1.93-3-2.88-4.5l-2.8-4.55-2.8-4.57-1.39-2.28c-.45-.77-.86-1.56-1.3-2.34q-2.55-4.71-5.12-9.41c-.83-1.58-1.74-3.13-2.51-4.75L291,838.31l-4.62-9.7c-1.42-3.27-2.76-6.59-4.14-9.89l-2.05-5c-.33-.83-.7-1.66-1-2.49l-.9-2.49q-1.77-5-3.55-10l-1.78-5-1.54-5.14-3.06-10.3c-.28-1-.58-2-.84-2.94l-.72-3-1.43-6-1.41-6-.7-3-.57-3q-1.09-6.07-2.2-12.15l-.54-3-.39-3.07-.79-6.15-.76-6.15c-.12-1-.28-2.05-.36-3.08l-.23-3.1-.87-12.41c-.19-2.07-.16-4.15-.22-6.23l-.1-6.23-.09-6.24c0-2.08.11-4.16.16-6.24q.26-6.24.5-12.49c.34-4.15.74-8.29,1.13-12.45.21-2.07.36-4.16.63-6.22l.9-6.19.91-6.19c.33-2,.57-4.14,1-6.17q1.24-6.12,2.48-12.25l.63-3.07.76-3,1.54-6c1.94-8.13,4.58-16,7.06-23.93a371.53,371.53,0,0,1,44-88.16c4.47-6.88,9.41-13.31,14.25-19.9,2.48-3.23,5.06-6.35,7.61-9.52l3.84-4.75c1.29-1.57,2.65-3.06,4-4.59l8-9.13c2.76-3,5.57-5.86,8.37-8.79l4.21-4.39,4.35-4.21,8.75-8.41,9-8,4.55-4,4.66-3.85,9.38-7.65c3.18-2.46,6.41-4.86,9.63-7.29l4.84-3.64c1.63-1.2,3.29-2.31,4.94-3.47l9.95-6.89c3.35-2.25,6.76-4.36,10.16-6.54s6.8-4.38,10.3-6.36l10.46-6.1c1.74-1,3.52-2,5.3-2.93l5.34-2.85,5.36-2.85,2.69-1.42,2.72-1.33,10.92-5.29c3.39-1.7,8-3.67,12.12-5.41s8.38-3.39,12.54-4.94c8.32-3.1,16.61-5.87,25-8.36a368.06,368.06,0,0,1,52.08-11.51,294.83,294.83,0,0,1,58.64-2.81,236.68,236.68,0,0,1,33.53,4.24c5.85,1.15,11.94,2.67,18.11,4.46s12.55,4,19,6.62A185.55,185.55,0,0,1,772,344.09c3.26,2.32,6.48,4.93,9.66,7.52S788,357.05,791,360a174.89,174.89,0,0,1,17,19.05c1.57,2.15,3.17,4.32,4.63,6.53s2.91,4.44,4.31,6.68,2.66,4.51,3.94,6.79,2.42,4.56,3.59,6.86a186.41,186.41,0,0,1,11,27.42c.73,2.27,1.32,4.45,2,6.69l.9,3.35.78,3.26c.5,2.17,1,4.39,1.44,6.52s.8,4.24,1.17,6.37.65,4.15.94,6.23.59,4.17.76,6.13l.56,6,.13,1.5.08,1.65.15,3.31c.09,2.2.15,4.41.2,6.61s.08,4.4,0,6.6c-.15,4.39-.34,8.79-.69,13.15s-1,8.66-1.59,13-1.55,8.45-2.42,12.65a204.18,204.18,0,0,1-16.53,46.32l-2.71,5.21c-.92,1.72-1.82,3.5-2.81,5.12q-2.89,4.93-5.95,9.79c-2.07,3.11-4.19,6.17-6.34,9.21-1.07,1.55-2.19,3-3.3,4.42l-3.38,4.3a225.87,225.87,0,0,1-29.4,30.13A231.78,231.78,0,0,1,736.54,674a229,229,0,0,1-35.88,17c-10.72,3.06-26,7.3-42.86,9.78l-3.15.48-3.23.39-6.47.7c-2.13.24-4.39.34-6.56.48s-4.35.25-6.51.33-4.39.06-6.54,0-4.25,0-6.41-.13-4.24-.23-6.29-.38l-3-.24-3-.36a116.55,116.55,0,0,1-21.18-4.35,68.28,68.28,0,0,1-7.85-3,5.88,5.88,0,0,1-2.21-1.55,14,14,0,0,1-1.39-1.55c-1.59-2.06-2.11-4.13-1.24-6.18a8.72,8.72,0,0,1,2.39-3.07,19.17,19.17,0,0,1,2-1.52l.15-.09.23-.1.46-.18,1-.38c.67-.26,1.37-.51,2.11-.77a195,195,0,0,0,34-15.29,227.41,227.41,0,0,0,30-20.45,267.32,267.32,0,0,0,47.3-49.35,152,152,0,0,0,18.14-30.63,118,118,0,0,0,9.14-31.79,83.66,83.66,0,0,0-1.3-29.71c-.29-1.14-.46-2.26-.84-3.36l-1-3.27-.51-1.59c-.18-.53-.43-1-.64-1.57l-1.28-3c-.39-1-.91-2-1.4-3s-1-2-1.52-3a58,58,0,0,0-3.33-5.47,44.63,44.63,0,0,0-7.58-8.64,32.52,32.52,0,0,0-8.28-5.26c-5.62-2.41-11.09-2.87-16.81-2.61a94.19,94.19,0,0,0-18.39,3.09,161,161,0,0,0-20.39,6.92A228.49,228.49,0,0,0,594.57,494a165.83,165.83,0,0,0-18.43,14.47c-1.36,1.25-2.65,2.51-3.84,3.76-.63.62-1.16,1.25-1.73,1.87-.12.14-.33.33-.53.52l-.59.55-1.17,1.1-4.67,4.35-2.31,2.15L559.06,525a287.44,287.44,0,0,0-31.88,37.4A237.36,237.36,0,0,0,504.24,602c-6.05,13.82-10.7,26.14-14.68,37s-7,20.54-9.69,29.32-5.15,16.84-7.07,25.21a177.42,177.42,0,0,0-4.53,27c-.06.62-.17,1.24-.21,1.87l0,1.91c0,1.28-.1,2.57-.18,3.88a31.56,31.56,0,0,0,0,4c0,1.35,0,2.72,0,4.1,0,.35,0,.7,0,1l.1,1.05.17,2.13c.1,1.43.19,2.87.26,4.33a20,20,0,0,0,.19,2l.21,2,.34,4a122.77,122.77,0,0,0,7.93,31l.74,1.92a19.55,19.55,0,0,0,.87,1.85q.9,1.83,1.77,3.72a39.7,39.7,0,0,0,2,3.63l2.06,3.66a101.36,101.36,0,0,0,10.23,13.62c1,1.06,1.9,2.21,2.93,3.24l3.18,3,1.59,1.55,1.72,1.39,3.44,2.86c1.17.93,2.44,1.73,3.66,2.62l1.85,1.31c.31.22.61.45.93.65l1,.58a86.57,86.57,0,0,0,8,4.48l4.1,1.86,4.23,1.57,2.1.8c.7.29,1.44.44,2.16.67l4.3,1.3,1.07.34c.36.1.73.17,1.09.25l2.2.5,4.35,1,4.43.7a43.36,43.36,0,0,0,4.41.64,126.18,126.18,0,0,0,35.18-.93,131.57,131.57,0,0,0,33-10.14c2.58-1.33,5.18-2.51,7.72-3.82l3.76-2.14,1.87-1a17.54,17.54,0,0,0,1.85-1.09c2.42-1.62,4.86-3.07,7.24-4.67,1.18-.85,2.36-1.62,3.53-2.5l3.51-2.62a225,225,0,0,0,27.52-25.25,328.15,328.15,0,0,0,26.06-31.84q12.6-17.37,24.3-37.2,5.85-9.88,11.49-20.28t11.07-21.3c9.47-14.29,21.69-27.74,34.77-39.42s27.12-21.46,40.38-27.41a185.1,185.1,0,0,1,30.78-14c8.74-3.12,16.22-5.26,22.89-8.65a44.82,44.82,0,0,0,18-16.35c5.42-8.32,10.38-20.35,14.42-38.47a321.55,321.55,0,0,0,4.07-69.71,380.27,380.27,0,0,0-9-65.24A440.75,440.75,0,0,0,894,340a462.45,462.45,0,0,0-24-53.27,186,186,0,0,0-24.08-38.07,153.61,153.61,0,0,0-31.2-28.72,168.27,168.27,0,0,0-39.95-20,225.87,225.87,0,0,0-48.22-10.75c-8.6-1-17.42-1.5-26.4-1.69l-6.77-.06c-2.27,0-4.56.09-6.85.13-1.16,0-2.23,0-3.47.09l-3.68.21-7.36.43a424.9,424.9,0,0,0-58.14,7.28c-9.42,2.15-19,4.05-28.14,6.94l-6.94,2-3.46,1c-1.15.37-2.27.79-3.4,1.19l-13.53,4.88a293.44,293.44,0,0,0-50.87,25.87c-3.1,2.12-6.08,4.38-9.11,6.53s-6.08,4.23-8.9,6.62l-8.61,6.85-2.15,1.69-2.05,1.81-4.1,3.6c-11.05,9.34-21.05,19.64-30.82,29.77-2.36,2.67-4.72,5.29-7.09,7.89-1.17,1.31-2.39,2.55-3.53,3.89l-3.39,4.07c-2.26,2.69-4.54,5.34-6.81,8q-3.26,4.19-6.53,8.27l-3.3,4.06c-1.07,1.38-2.1,2.83-3.16,4.22q-3.15,4.23-6.37,8.35c-.54.67-1.05,1.39-1.56,2.12l-1.53,2.16-3.08,4.28c-2,2.87-4.22,5.56-6.16,8.56-16.21,23.13-31.86,47-48.17,71.67s-33.24,50-52.2,75.45q-2.83,3.87-5.71,7.63c-1.94,2.5-3.75,5.08-5.66,7.57s-3.8,5-5.72,7.41-3.91,4.82-5.77,7.27q-5.68,7.29-11.56,14.27c-2,2.32-3.88,4.67-5.81,7s-3.86,4.63-5.82,6.92c-3.91,4.57-7.9,9.06-11.78,13.53l-11.76,13.26-23.47,26c-15.55,17.26-30.87,34.61-45.28,53.43s-27.88,39.1-39.16,62.21c-1.84,4.07-3.67,8.23-5.27,12.51s-3,8.64-4.46,13.09-2.49,9-3.63,13.65c-.59,2.31-1,4.65-1.51,7s-.9,4.73-1.33,7.12a284.4,284.4,0,0,0-3.49,60.34,360,360,0,0,0,8.77,63.63,466,466,0,0,0,19.48,63.39c3.06,8.34,4.28,16.71,5,25.92.38,4.58.84,9.22,1.36,14.13.27,2.44.57,4.94,1,7.49s1,5,1.56,7.63c-23.9-15.18-45.24-36.29-62.16-61.7S37,913.11,29.1,882a366.09,366.09,0,0,1-10.44-96.49,466.38,466.38,0,0,1,3.52-48.83q.81-6,1.63-12.14c.56-4.06,1.28-8,1.93-12.08,1.28-8.1,3-16,4.53-24.07a54,54,0,0,1,4.1-11.21,52.45,52.45,0,0,1,5.35-8.52c3.89-5.1,8-9.51,11.65-15.14C58.09,634,61,615.25,62.89,596.43S65.64,558.86,68.42,540.32Z"/><path class="light-top-4" d="M96.46,595.73c1.89-18.44,4.14-36.54,6.52-54.44,1.14-9,2.54-17.84,3.81-26.73s2.79-17.75,4.23-26.62c6-35.43,13.44-70.74,23.68-106.13l1.89-6.64,2.09-6.62,4.26-13.27c.73-2.21,1.39-4.44,2.2-6.64l2.39-6.62q2.41-6.63,4.85-13.27l1.24-3.33,1.34-3.3,2.71-6.61q2.75-6.61,5.52-13.25c1.94-4.41,4-8.78,6.06-13.19s4.09-8.82,6.32-13.19a495,495,0,0,1,68.06-102.24,120.5,120.5,0,0,1,13.25-13.19q3.57-3.12,7.3-6.12c1.25-1,2.47-2,3.78-3l4-2.8c5.33-3.71,10.8-7.27,16.34-10.74s11.46-6.53,17.2-9.71q3.46-1.62,6.84-3c2.27-.9,4.57-1.67,6.81-2.41,4.49-1.47,8.87-2.71,13.13-3.77q3.19-.8,6.31-1.47c2.07-.45,4.2-.77,6.26-1.11,4.15-.67,8.19-1.23,12.16-1.75s7.82-1,11.68-1.5,7.73-.83,11.53-1.35,7.54-1.15,11.28-1.92l2.8-.62,2.85-.58c1.9-.41,3.8-.86,5.71-1.38a546.48,546.48,0,0,1,95.35-23.59L510,82l5.87-.82,2.92-.4,2.94-.29c7.83-.76,15.6-1.55,23.32-2.25l23.11-1.29c1,0,1.91-.12,2.87-.15l2.87,0,5.73-.1L591,76.46a874,874,0,0,1,89.2,4.42c29.67,3,59,8.19,87.35,16.61A361.17,361.17,0,0,1,809,112.55a308.67,308.67,0,0,1,38.71,20.38,265.9,265.9,0,0,1,64.81,57c18.24,22.28,32.79,47.43,44.12,74.25s19.44,55.35,25.28,84.86a447.69,447.69,0,0,1,6.82,69.75,539.71,539.71,0,0,1-3,69,628.23,628.23,0,0,1-11,67.2Q967.44,588,957,619.83t-23.74,62.23q-13.32,30.38-29.41,59.19c-21.52,38.32-46.67,74.46-76,107a458.88,458.88,0,0,1-47.31,45.58,370.93,370.93,0,0,1-54.17,37.58c-2.4,1.36-4.84,2.66-7.26,4l-7.36,3.8-7.48,3.6-7.61,3.33c-2.55,1.08-5.06,2.26-7.65,3.26l-7.79,2.94c-5.15,2.08-10.5,3.63-15.79,5.37-1.33.42-2.64.87-4,1.26l-4,1.08-8.08,2.16c-1.34.39-2.71.68-4.07,1l-4.1.88c-2.74.58-5.47,1.2-8.21,1.75l-8.29,1.36c-2.77.44-5.53,1-8.33,1.23-5.59.58-11.16,1.42-16.8,1.65l-8.44.54c-2.82.09-5.65.1-8.48.15l-4.24.07-2.13,0-2.12-.07-8.51-.29c-1.41-.07-2.84,0-4.25-.19l-4.26-.35-8.51-.71-8.5-1.11c-2.83-.4-5.68-.69-8.49-1.27-5.63-1-11.31-2-16.89-3.4-2.79-.67-5.62-1.27-8.41-2L497.93,959l-4.18-1.2-4.11-1.4-8.26-2.82c-2.73-1-5.41-2.13-8.13-3.19s-5.47-2.08-8.1-3.36l-8-3.65-2-.92-2-1-3.92-2-3.92-2c-1.31-.69-2.64-1.33-3.9-2.1l-7.66-4.48c-1.27-.77-2.59-1.46-3.82-2.28l-3.73-2.44-7.47-4.91-7.24-5.29-3.63-2.65c-1.18-.92-2.33-1.89-3.5-2.83l-7-5.69c-2.3-2-4.49-4-6.76-6-4.59-4-8.74-8.39-13.08-12.69-.54-.54-1.09-1.07-1.61-1.63l-1.53-1.7-3.06-3.42-3.07-3.42-1.54-1.72c-.5-.57-1-1.18-1.45-1.78-3.82-4.81-7.86-9.5-11.37-14.61l-3.07-4.28c-1-1.43-2.08-2.84-3-4.33l-5.69-8.87c-.47-.75-1-1.48-1.42-2.23l-1.3-2.29-2.61-4.57c-1.73-3.06-3.55-6.08-5.06-9.25L327,812.45c-1.51-3.17-2.85-6.41-4.28-9.62L320.63,798c-.69-1.62-1.26-3.27-1.9-4.9q-1.86-4.92-3.73-9.83c-.66-1.63-1.15-3.32-1.69-5l-1.61-5-1.62-5c-.26-.84-.55-1.67-.79-2.51l-.68-2.56q-1.35-5.11-2.69-10.23l-.68-2.56-.54-2.59-1.07-5.2-1.08-5.2-.53-2.61c-.16-.87-.27-1.75-.41-2.62q-.8-5.28-1.58-10.54l-.4-2.64-.25-2.65-.51-5.32-.5-5.32c-.08-.89-.18-1.78-.23-2.67l-.11-2.68-.42-10.72c-.11-1.79,0-3.57,0-5.36l.09-5.38.09-5.39a26.9,26.9,0,0,1,.12-2.69l.18-2.68.77-10.78c.39-3.57.88-7.14,1.32-10.72.23-1.79.44-3.59.69-5.38l1-5.33c.66-3.54,1.23-7.13,2-10.67l2.5-10.57A296.26,296.26,0,0,1,320,573.31l2.06-5.07c.69-1.69,1.5-3.31,2.25-5l4.62-9.93,5.06-9.69c.86-1.61,1.68-3.25,2.57-4.84l2.76-4.73c1.86-3.13,3.66-6.34,5.6-9.44l6-9.2c1.95-3.11,4.13-6,6.25-9l3.2-4.47c1.06-1.49,2.13-3,3.27-4.41l6.79-8.65,1.7-2.17,1.78-2.09,3.58-4.18,3.59-4.18,1.8-2.09,1.87-2,7.53-8.06,1.89-2,2-1.93L400,456.3l3.94-3.87,2-1.93,2-1.86,8.2-7.42,2.06-1.85,2.12-1.77,4.25-3.55,4.26-3.54,2.14-1.78,2.19-1.68,8.81-6.76,2.21-1.69,2.26-1.6,4.54-3.21,4.55-3.2c1.52-1.07,3-2.15,4.6-3.14,6.23-4,12.43-8.18,18.89-11.87,3.21-1.88,6.4-3.83,9.66-5.65l9.86-5.32c1.65-.88,3.29-1.8,5-2.64l5-2.48,10.12-4.94c7.47-3.4,14.91-6.42,22.38-9.15a338.65,338.65,0,0,1,45.84-13.18,291.1,291.1,0,0,1,49.49-6.28A270,270,0,0,1,672,348.13a183.18,183.18,0,0,1,42.14,10.59,149.76,149.76,0,0,1,23,11.26A137.15,137.15,0,0,1,759.7,386.9a135.33,135.33,0,0,1,19.44,22.49,139.2,139.2,0,0,1,14,25.82,151.37,151.37,0,0,1,8.13,26.24c.44,2.12.88,4.27,1.25,6.38s.65,4.17,1,6.26.48,4.09.7,6.14l.15,1.53c.05.51.08,1.09.11,1.63l.18,3.32A153.38,153.38,0,0,1,779,580a148.7,148.7,0,0,1-26.41,30c-2.1,1.53-4.47,3.44-7.17,5.44l-4.2,3.27c-1.45,1.17-3,2.26-4.62,3.47l-5,3.69-5.32,3.75-2.77,1.93-2.86,1.88c-1.93,1.25-3.88,2.56-5.9,3.81A261.08,261.08,0,0,1,689,651.34a222.66,222.66,0,0,1-27,10.52c-4.47,1.29-8.75,2.56-13,3.45-2.1.45-4.11.93-6.11,1.28s-4,.65-5.82.92a80.66,80.66,0,0,1-18.64.76c-1.17-.12-2.22-.26-3.15-.45a15.69,15.69,0,0,1-2.45-.73,3.81,3.81,0,0,1-2.46-2.08c-.25-.83.09-1.8,1.06-2.92a28.79,28.79,0,0,1,4.78-4c2.2-1.56,4.45-3,6.62-4.69l6.49-4.94,6.35-5.2c2.09-1.76,4.13-3.62,6.19-5.42a260.86,260.86,0,0,0,22.92-23.53,234.41,234.41,0,0,0,34.19-52.08,109.14,109.14,0,0,0,9.81-29.77,76.73,76.73,0,0,0-.23-27.52c-.11-.52-.17-1-.31-1.55l-.42-1.53-.82-3c-.27-1-.7-1.94-1-2.88s-.67-1.86-1-2.77l-1.28-2.66c-.44-.89-.78-1.68-1.3-2.63s-.94-1.82-1.44-2.68l-1.53-2.5a38,38,0,0,0-6.79-7.95,24.1,24.1,0,0,0-7.23-4.42,20.54,20.54,0,0,0-7-1.3,36,36,0,0,0-6.76.59,119.4,119.4,0,0,0-15.07,3.84,205.41,205.41,0,0,0-37.7,16.51,228.21,228.21,0,0,0-19.54,12.21,170,170,0,0,0-17.69,14,79.23,79.23,0,0,0-7,7.33l-.38.45-.19.23-.28.27-1.11,1.09-2.22,2.15-4.39,4.26c-2.86,2.9-5.61,5.91-8.37,8.78s-5.28,6-7.88,9a243.72,243.72,0,0,0-26.09,37.56,190.6,190.6,0,0,0-16.41,38.11c-3.85,12.87-6.16,24-8.11,33.36-.62,2.33-.83,4.63-1.35,6.78a31,31,0,0,0-.56,3.19c-.18,1-.39,2.06-.65,3.06s-.25,2-.44,3a22.64,22.64,0,0,0-.54,2.85c-.21,1.88-.8,3.66-.95,5.45a23.35,23.35,0,0,1-.57,2.61,24.67,24.67,0,0,1-.38,2.58c-.47,1.68-.54,3.39-1,5.06a11.22,11.22,0,0,0-.28,1.25c-.05.43-.1.85-.16,1.27-.14.84-.31,1.69-.53,2.53a7.75,7.75,0,0,0-.19,1.28c-.05.43-.12.86-.19,1.29s-.16.86-.26,1.3a8.31,8.31,0,0,0-.26,1.3,156,156,0,0,0-2.11,24c0,1.15,0,2.31-.08,3.49s.19,2.42.25,3.65.09,2.5.12,3.73.2,2.18.26,3.3l.07,1.69,0,.85c0,.28.08.54.11.81.14,1.07.26,2.17.35,3.28l.13,1.7c.06.55.19,1.06.27,1.6.18,1.08.33,2.18.47,3.3a28.28,28.28,0,0,0,.62,3.25c.23,1.08.43,2.18.62,3.31s.6,2.11.87,3.2l.41,1.65.19.83.28.78c.37,1,.72,2.12,1.06,3.21.17.54.31,1.12.52,1.65l.65,1.55c.43,1,.85,2.13,1.25,3.23s1,2,1.49,3.11A86.42,86.42,0,0,0,506,793.14c.7,1,1.5,1.89,2.23,2.88l1.13,1.47c.19.24.37.5.56.74l.63.67a73.52,73.52,0,0,0,5.18,5.43,78.86,78.86,0,0,0,26.38,17,100.67,100.67,0,0,0,31.16,5.52,111,111,0,0,0,31-4.11,119.52,119.52,0,0,0,28.52-12.23,143.16,143.16,0,0,0,13-8.71q6.39-4.82,12.74-10.6t12.6-12.44q6.24-6.69,12.34-14.19a357,357,0,0,0,23.59-32.75C714.65,720,722,707.4,729,694.14s13.73-27.13,20.2-41.56A193.93,193.93,0,0,1,781.79,613c12.48-11.68,25.94-21.59,38.85-27.74a137.93,137.93,0,0,1,29.13-13.35c8.05-2.59,14.64-4,20.47-6.5s10.8-6.22,15.44-13.65,8.87-18.64,12.31-36.14c6.58-46,1.49-89.47-9.1-128.07a370.56,370.56,0,0,0-19.44-54,389.92,389.92,0,0,0-24.05-45.39A175,175,0,0,0,835,271.56a145.18,145.18,0,0,0-11.66-14.21,131.12,131.12,0,0,0-28.12-22.86,154.72,154.72,0,0,0-37-16,204.29,204.29,0,0,0-21.91-5.08c-1.92-.3-3.81-.68-5.77-.94l-5.89-.81c-4-.43-8-.89-12.11-1.15-8.2-.58-16.6-.88-25.25-.68-1.1,0-2.1,0-3.28.06l-3.55.18-7.11.36-7.11.37c-2.37.13-4.75.22-7.07.5l-14,1.43-3.51.37-1.76.18-1.72.26-6.9,1.08-6.91,1.09-3.45.55c-1.15.18-2.31.36-3.43.62l-13.54,2.93-3.38.74-1.69.38-1.66.46-6.61,1.84-6.62,1.86-3.3.94c-1.11.31-2.16.72-3.24,1.08l-12.87,4.5c-2.17.71-4.23,1.62-6.31,2.5l-6.24,2.64-6.22,2.66c-2,1-4,2-6,3l-6,3c-2,1-4,2-5.92,3.17l-11.5,6.87-1.43.87-1.38.95-2.75,1.9L505.23,263,501,266.15l-4.05,3.34L488.88,276c-2.6,2.28-5.12,4.64-7.68,6.9l-3.81,3.4c-.65.55-1.26,1.15-1.86,1.76l-1.81,1.8q-3.63,3.6-7.25,7.1c-1.24,1.12-2.35,2.43-3.5,3.66l-3.45,3.69L456.08,308c-.57.61-1.17,1.17-1.71,1.82l-1.64,1.92q-3.27,3.84-6.57,7.55l-1.64,1.85-1.57,2-3.13,3.9-3.15,3.85-1.58,1.9c-.53.63-1,1.33-1.52,2-4,5.41-8.16,10.42-12,16-1.93,2.73-3.94,5.33-5.86,8.06s-3.77,5.56-5.69,8.29l-2.88,4.08-2.77,4.25c-1.85,2.83-3.73,5.61-5.64,8.37-14.81,22.67-29.23,46.33-44.62,70.6-1,1.52-2,3-2.92,4.53l-2.87,4.63q-2.89,4.62-5.93,9.17c-1,1.5-2,3.08-3,4.64l-3,4.66c-2,3.11-4.09,6.18-6.19,9.25s-4.1,6.3-6.22,9.42l-3.22,4.66c-1.09,1.55-2.2,3.09-3.25,4.69q-3.19,4.76-6.56,9.46c-2.22,3.15-4.57,6.21-6.8,9.43q-5.4,7.74-11,15.07-5.46,7.49-11.1,14.63c-3.82,4.73-7.46,9.54-11.26,14.19s-7.67,9.21-11.43,13.75c-15.23,18.1-30.61,34.94-45.73,51.87s-30,34-43.83,52.38-26.67,38.27-37.23,60.76c-14.16,31.61-19.24,69.69-16,109.34a331.41,331.41,0,0,0,10.7,60,440.28,440.28,0,0,0,20.94,59,48.84,48.84,0,0,1,2.06,5.88c.55,2,1.12,3.94,1.53,6a114.38,114.38,0,0,1,1.81,12.62c.55,4.3,1,8.77,1.65,13.43.32,2.33.63,4.74,1.1,7.12s1,4.79,1.7,7.25A169.62,169.62,0,0,1,100.3,980.4c-14.74-21-25-44.88-31.39-70.41S60,857.31,60.08,829.1c-.07-3.54.1-7.08.18-10.64s.19-7.16.37-10.76.44-7.22.66-10.87c.12-1.82.21-3.66.36-5.49s.32-3.66.49-5.5q.49-5.51,1-11.12t1.26-11.24c.22-1.89.38-3.79.64-5.68s.51-3.79.76-5.7c.52-3.82,1-7.68,1.53-11.54a47.45,47.45,0,0,1,8-19.5c3.51-5.13,7.26-9.56,10.57-15.13,5.44-19,7.1-37.24,8-55.51S94.6,613.91,96.46,595.73Z"/><path class="light-top-5" d="M167.56,616.29c1.28-13.41,1.95-25.91,2.4-37.83.1-3,.18-5.93.22-8.85s.13-5.81.15-8.67,0-5.72,0-8.54,0-5.61,0-8.4c0-5.59-.14-11.13-.29-16.68s-.15-11.06-.22-16.6c-.27-11.17-.09-22.4.17-34.25.92-23.58,3.21-49.35,10.74-79.72q3-11.33,6.79-23.63c1.35-4.08,2.84-8.22,4.38-12.47s3.11-8.6,4.93-13,3.78-8.85,5.81-13.43l3.12-6.93c1.12-2.32,2.3-4.64,3.49-7q3.57-7.07,7.48-14.44c2.73-4.85,5.64-9.78,8.64-14.82,1.4-2.33,2.86-4.64,4.45-6.89s3.36-4.41,5.14-6.56,3.63-4.28,5.53-6.38l2.89-3.12c1-1,2-2.07,3-3.05,4.16-4,8.48-7.86,12.86-11.66l3.31-2.85c1.12-.93,2.29-1.82,3.44-2.73l6.93-5.41q2.85-1.87,5.65-3.54c1.88-1.1,3.68-2.19,5.62-3.11,3.8-1.88,7.55-3.53,11.23-5s7.28-2.8,10.85-4,7.23-2.12,10.74-3.09L337.48,218c3.33-1,6.6-2,9.82-3.19,1.6-.6,3.2-1.24,4.78-1.92s3.23-1.31,4.82-2a465.85,465.85,0,0,1,80-35.2,497.11,497.11,0,0,1,81.19-19.41,598.89,598.89,0,0,1,80.73-6.43l10-.2,10,.16c6.68.13,13.28,0,20,.46l10,.44,5,.2c1.66.08,3.3.11,5,.26l19.92,1.45c3.36.18,6.51.54,9.68.85,1.58.17,3.18.29,4.75.49l4.72.57c1.56.2,3.14.36,4.7.57l4.66.67c1.55.23,3.11.42,4.65.67l4.6.76c12.26,2,24.2,4.58,35.72,7.68A284.74,284.74,0,0,1,785.31,176c5.31,2.08,10.4,4.46,15.44,6.83s9.89,5,14.56,7.78a202.72,202.72,0,0,1,49.87,40.31q21.71,24.06,37.56,56.56a265,265,0,0,1,18,53.9,350.15,350.15,0,0,1,7.61,56.4,429.4,429.4,0,0,1-.62,56.19,510,510,0,0,1-7.08,54.65,593.11,593.11,0,0,1-28.94,102.76,629.43,629.43,0,0,1-44.48,93.27,562.69,562.69,0,0,1-58.42,82.72,450.57,450.57,0,0,1-34.61,36.19c-6.08,5.67-12.31,11.15-18.69,16.38s-12.94,10.21-19.64,14.92A280.43,280.43,0,0,1,674,879.42a241,241,0,0,1-46.11,16.21,225.55,225.55,0,0,1-103.33,1.08,239.2,239.2,0,0,1-29.41-9c-4.62-2-9.4-3.78-13.84-6.1l-3.4-1.62-1.7-.81-1.64-.9L468,874.67c-1.12-.56-2.14-1.25-3.2-1.9l-3.17-1.95-3.17-1.93c-1.06-.65-2-1.4-3.06-2.09l-6.1-4.17-5.83-4.5c-1-.75-2-1.47-2.91-2.24l-2.77-2.4c-1.84-1.6-3.75-3.14-5.56-4.78l-5.28-5-1.33-1.25-.67-.63-.62-.67-2.49-2.66c-6.85-6.92-12.77-14.62-18.57-22.42l-4.08-6c-.67-1-1.39-2-2-3l-1.86-3.14c-1.26-2.09-2.53-4.18-3.78-6.27L388,791.07l-1.73-3.24c-.61-1.07-1-2.22-1.58-3.33l-3.09-6.7-.78-1.68-.69-1.75-1.38-3.5-2.8-7-2.37-7.09-1.21-3.56c-.2-.59-.42-1.18-.6-1.78l-.49-1.79-2-7.19c-.32-1.2-.72-2.39-1-3.6l-.78-3.63L366,727.94c-.47-2.44-.8-4.88-1.22-7.33l-.61-3.68c-.09-.61-.21-1.23-.29-1.84l-.19-1.85-.79-7.4c-.34-2.48-.37-5-.51-7.45s-.28-5-.36-7.48l0-7.51v-3.77l.24-3.76.45-7.57c.23-2.52.58-5,.86-7.57l.43-3.81c.11-1.28.41-2.52.61-3.79q.64-3.79,1.3-7.61a228.73,228.73,0,0,1,8.17-30.36l1.29-3.8c.22-.63.41-1.28.65-1.9l.75-1.87,3-7.53c.25-.63.49-1.27.76-1.9l.85-1.85,1.71-3.73,1.7-3.75c.29-.62.56-1.26.86-1.88l1-1.84,3.82-7.4,1-1.87,1.05-1.81,2.12-3.65,2.12-3.67,1.06-1.84,1.16-1.79c1.54-2.41,3.09-4.81,4.63-7.23.39-.6.77-1.21,1.17-1.81l1.26-1.76,2.51-3.54,2.52-3.57c.42-.59.83-1.2,1.27-1.78l1.35-1.74,5.42-7c.89-1.19,1.85-2.31,2.82-3.44l2.89-3.41c3.79-4.64,8-9,12.11-13.48,1-1.15,2.11-2.21,3.2-3.29l3.27-3.24c2.19-2.17,4.34-4.41,6.67-6.46,11.81-10.07,27.51-24.81,47.44-40.14,4.91-4,10.25-7.61,15.65-11.57,1.35-1,2.76-1.9,4.16-2.85l4.24-2.83c2.85-1.89,5.71-3.87,8.71-5.64l9-5.52c3-1.81,6.07-3.51,9.22-5.19,6.28-3.33,12.82-6.42,19.52-9.26,26.78-11.27,56.18-18.51,83.57-17.75,13.64.35,26.76,2.85,38,7.54a72.52,72.52,0,0,1,15.13,8.53,54.65,54.65,0,0,1,11,10.67c.5.87,1.22,1.8,2,2.9s1.78,2.26,2.81,3.62c2.12,2.64,4.62,5.85,7.19,9.71a101,101,0,0,1,7.68,13.5,109.55,109.55,0,0,1,6.36,17.19c.21.78.45,1.57.65,2.37s.38,1.6.58,2.41c.41,1.62.74,3.26,1.07,4.93.15.84.36,1.67.48,2.53s.25,1.74.37,2.61c.23,1.76.54,3.54.72,5.35.23,3.6.61,7.32.49,11.08,0,.95,0,1.9,0,2.85,0,.47,0,.95,0,1.43l-.1,1.42q-.21,2.88-.43,5.77a128.67,128.67,0,0,1-4.72,23.08c-.54,1.91-1.25,3.74-1.88,5.62l-1,2.82-1.12,2.73c-.76,1.82-1.49,3.67-2.3,5.45L731.94,562a155.85,155.85,0,0,1-11.74,19.62c-2.07,3.09-4.33,5.91-6.52,8.75-1.08,1.44-2.25,2.72-3.37,4.06s-2.23,2.66-3.38,3.9a169.11,169.11,0,0,1-26.12,23.52c-2,1.38-3.8,2.65-5.53,3.79s-3.38,2.05-4.87,2.89a37.82,37.82,0,0,1-7.11,3.3c-3.44,1.08-3.95-.07-1-4s5.51-7.72,7.88-11.25l3.28-5.36,1.55-2.57,1.44-2.59,2.76-5,2.54-4.94c1.69-3.18,3.18-6.49,4.75-9.65,3-6.5,6-12.9,8.89-20A219.92,219.92,0,0,0,703.78,543a86.67,86.67,0,0,0,3.78-28.24,59.82,59.82,0,0,0-5.71-23.3L700.66,489l-1.36-2.59a46.66,46.66,0,0,0-2.95-4.67,33.24,33.24,0,0,0-6.49-7,20.75,20.75,0,0,0-6.73-3.58,19.58,19.58,0,0,0-6.36-.83,58.17,58.17,0,0,0-12.63,2.27c-4.56,1.21-9.72,2.8-15.3,4.83a217.38,217.38,0,0,0-36.1,17.24c-6.15,3.64-12.23,7.62-18,11.86a141.07,141.07,0,0,0-15.84,13.33q-1.73,1.71-3.22,3.41c-.51.58-.91,1.11-1.47,1.71l-2.1,2-4.17,4-2.08,2c-.68.67-1.33,1.39-2,2.08l-4,4.15c-1.31,1.37-2.64,2.7-3.88,4.17s-2.49,2.84-3.75,4.26-2.51,2.77-3.67,4.28a242.65,242.65,0,0,0-25,36,186.09,186.09,0,0,0-16.22,37.52c-3.85,12.86-6.21,24-8.18,33.51-.65,2.34-.82,4.68-1.38,6.84l-.2.82c0,.27-.07.54-.11.81-.07.55-.16,1.08-.25,1.61-.17,1.06-.46,2.08-.64,3.1s-.27,2-.47,3c-.1.49-.21,1-.33,1.45l-.18,1.44c-.14,1-.32,1.89-.54,2.8a8.23,8.23,0,0,0-.21,1.38c-.06.46-.13.91-.21,1.36s-.17.89-.27,1.33a6.92,6.92,0,0,0-.25,1.33c-.1.89-.24,1.76-.42,2.63l-.3,1.29c0,.44-.09.87-.15,1.3a23.06,23.06,0,0,1-.51,2.58,8,8,0,0,0-.19,1.29c-.05.43-.11.87-.19,1.3s-.16.86-.25,1.29a5.82,5.82,0,0,0-.24,1.31c-.09.88-.21,1.76-.38,2.64-.09.44-.19.88-.29,1.33l-.12,1.36a150.5,150.5,0,0,0-1.69,24.9c0,.59,0,1.18,0,1.8l.16,1.85c.1,1.24.17,2.5.22,3.78s.18,2.34.26,3.49.16,2.26.2,3.42.3,2.19.41,3.32l.16,1.69a11.18,11.18,0,0,0,.21,1.68q.3,1.62.54,3.3l.22,1.7.38,1.61c.24,1.08.47,2.19.67,3.32a10.35,10.35,0,0,0,.41,1.64l.45,1.62c.31,1.07.51,2.24.87,3.31s.74,2.12,1.09,3.22l.51,1.67c.2.54.44,1,.66,1.58.43,1.05.86,2.13,1.27,3.24a12,12,0,0,0,.72,1.59l.77,1.56.75,1.61a11.25,11.25,0,0,0,.8,1.59,82.17,82.17,0,0,0,45.43,39.33,105,105,0,0,0,62.36-.78,122.36,122.36,0,0,0,28.24-13.26l3.31-2.08c1.09-.72,2.15-1.51,3.23-2.24s2.15-1.6,3.22-2.38,2.14-1.68,3.22-2.5c4.28-3.42,8.56-7.16,12.8-11.21,17-16.16,33.29-37.26,48.22-61.35q11.21-18.1,21.5-38.33c6.87-13.44,13.42-27.51,19.71-42.1a192.72,192.72,0,0,1,32.14-40.11c12.35-11.85,25.69-21.94,38.54-28.27,11.52-7.1,18.47-12.49,22.67-17.25a25.52,25.52,0,0,0,4.54-6.93,24.66,24.66,0,0,0,1.85-7.22c.66-5.18.36-11.37.78-20.25A302.86,302.86,0,0,1,857,489.63c2.2-21.14,4.13-40.46,5.55-58.83s2.31-35.8,2-52.79-1.76-33.52-5.33-49.41a148.59,148.59,0,0,0-7.08-23.07c-1.45-3.74-3.15-7.29-4.92-10.84l-1.41-2.59-.7-1.31-.75-1.26L842.85,287l-1.6-2.45a146.87,146.87,0,0,0-22.62-29.19,132.06,132.06,0,0,0-13.4-11.63,135.38,135.38,0,0,0-15.44-10,160.94,160.94,0,0,0-37.9-14.89A229.06,229.06,0,0,0,705.55,212c-4.11-.26-8.35-.28-12.56-.38-4.3.05-8.37,0-13.28.29l-14.17.67-3.55.18c-1.17.08-2.33.21-3.49.32l-7,.67a374.48,374.48,0,0,0-54.71,9.14l-13.18,3.6-3.3.91-3.21,1.08-6.41,2.19c-8.66,2.72-16.81,6.43-25.11,9.84a265.79,265.79,0,0,0-45.75,27.06l-8.06,6.61-2,1.63c-.68.53-1.34,1.08-2,1.68L484,281c-2.54,2.31-5.11,4.54-7.6,6.85L469.14,295l-3.6,3.52-3.43,3.73q-3.44,3.72-6.87,7.32l-6.53,7.63L445.44,321c-1.09,1.25-2.09,2.62-3.14,3.91q-3.1,3.93-6.25,7.74l-.78,1-.74,1-1.49,2-3,4c-4.1,5.13-7.81,10.8-11.73,16.11l-1.46,2-1.39,2.11-2.8,4.18-2.83,4.13c-.95,1.36-1.91,2.7-2.8,4.16q-2.71,4.29-5.5,8.48c-.92,1.42-1.9,2.74-2.78,4.21l-2.68,4.35q-2.71,4.33-5.5,8.56c-1.76,3-3.54,5.91-5.35,8.81-3.72,5.7-7.15,11.85-10.86,17.69-1.89,2.88-3.6,6-5.43,9s-3.67,6-5.55,9-3.63,6.16-5.49,9.2l-2.84,4.55-1.43,2.27-1.38,2.34c-15.07,24.63-31.09,49.88-49.21,75.36q-2.7,3.87-5.47,7.62t-5.42,7.57q-2.72,3.75-5.5,7.41c-1.84,2.44-3.75,4.82-5.55,7.28q-5.49,7.29-11.17,14.27l-5.63,7q-2.81,3.46-5.66,6.85c-15.07,18.1-30.24,35-45.16,51.93S183.93,681,170.34,699.56,144.19,738,134,760.6c-13.44,31.69-17.91,69.76-13.78,109.19a324.73,324.73,0,0,0,12.13,59.49,439.25,439.25,0,0,0,22.35,58.24,52.61,52.61,0,0,1,3.87,11.65c.41,2.05.87,4,1.23,6.11s.68,4.17,1,6.33a200.39,200.39,0,0,0,4.9,27.66c-24-12.23-41.44-28.71-53.76-47.1S92.22,953.34,88,931.65s-5.23-44.82-4.85-69.76c0-6.24.37-12.61.54-19.11,0-3.25.31-6.54.48-9.87s.33-6.67.49-10.09.48-6.85.69-10.34c.09-1.74.19-3.5.29-5.27s.27-3.54.41-5.34c.27-3.58.5-7.21.72-10.89s.61-7.41.86-11.2c.37-4.17,2.29-8.18,4.9-12A68.76,68.76,0,0,1,102,757c7.07-6.74,14.44-12.57,17.46-17.93-.66,2.77-1.31,5.23-1.77,7.42s-.86,4.11-1.2,5.75c-.68,3.29-1.11,5.51-1.32,6.77-.41,2.53,0,1.24,1.14-2.82,2.09-8.12,7-27.18,14-48.25.88-2.63,1.71-5.31,2.66-8l2.87-8.09c1.87-5.42,4-10.83,6-16.14,1-2.66,2-5.28,3.09-7.86s2.06-5.11,3.06-7.6c2-5,4.1-9.7,5.95-14.11s3.76-8.47,5.36-12.1,3.1-6.82,4.33-9.45Z"/></g></g></g></g></svg>